<svg width="18" height="18" viewBox="0 0 18 18" fill="none" xmlns="http://www.w3.org/2000/svg">
<path fill-rule="evenodd" clip-rule="evenodd" d="M6 0H2C0.897 0 0 0.897 0 2V6C0 7.103 0.897 8 2 8H6C7.103 8 8 7.103 8 6V2C8 0.897 7.103 0 6 0Z" fill="#0267FF"/>
<path fill-rule="evenodd" clip-rule="evenodd" d="M16 0H12C10.897 0 10 0.897 10 2V6C10 7.103 10.897 8 12 8H16C17.103 8 18 7.103 18 6V2C18 0.897 17.103 0 16 0Z" fill="#CC2E2E"/>
<path fill-rule="evenodd" clip-rule="evenodd" d="M6 10H2C0.897 10 0 10.897 0 12V16C0 17.103 0.897 18 2 18H6C7.103 18 8 17.103 8 16V12C8 10.897 7.103 10 6 10Z" fill="#F8B700"/>
<path fill-rule="evenodd" clip-rule="evenodd" d="M16 10H12C10.897 10 10 10.897 10 12V16C10 17.103 10.897 18 12 18H16C17.103 18 18 17.103 18 16V12C18 10.897 17.103 10 16 10Z" fill="#00D67D"/>
</svg>
