<svg width="35" height="35" viewBox="0 0 35 35" fill="none" xmlns="http://www.w3.org/2000/svg">
<circle cx="17.5" cy="17.5" r="17.5" fill="#483DA9"/>
<g clip-path="url(#clip0)">
<path d="M23.906 17.4132C23.4995 16.8067 22.886 16.3902 22.0655 16.1638C23.1103 15.5491 23.5694 14.5058 23.4434 13.0337C23.4012 12.4998 23.2733 12.0372 23.0594 11.6451C22.8453 11.2528 22.5564 10.9375 22.1915 10.6989C21.827 10.4601 21.4305 10.2783 21.0031 10.1529C20.5755 10.0276 20.0845 9.93657 19.5306 9.88002V6.82288H17.9112V9.79508C17.6307 9.79508 17.2031 9.80315 16.6282 9.81934V6.82288H15.0085V9.88002C14.7771 9.88813 14.4371 9.89226 13.9883 9.89226L11.7588 9.88002V11.8696H12.9261C13.459 11.8696 13.771 12.1447 13.8621 12.6945V16.1763C13.9323 16.1763 13.9883 16.1805 14.0305 16.1886H13.8621V21.0652C13.8061 21.4776 13.6028 21.684 13.2522 21.684H12.0849L11.7589 23.9041H13.8623C13.9955 23.9041 14.1882 23.9061 14.4407 23.9098C14.6931 23.9139 14.8823 23.9159 15.0086 23.9159V27.0094H16.6285V23.9523C16.9229 23.9606 17.3506 23.9645 17.9115 23.9645V27.0094H19.531V23.9159C20.1061 23.8836 20.6161 23.8233 21.0611 23.734C21.5064 23.6447 21.9324 23.5054 22.339 23.3153C22.7455 23.1253 23.0855 22.8886 23.3589 22.6055C23.6324 22.3227 23.8584 21.9626 24.0375 21.5258C24.216 21.089 24.33 20.5835 24.379 20.0092C24.4705 18.8853 24.3127 18.0199 23.906 17.4132ZM16.6597 12.0027C16.7088 12.0027 16.8473 12.0007 17.0751 11.9966C17.3031 11.9924 17.4923 11.9884 17.6431 11.9843C17.7938 11.9804 17.9972 11.9905 18.2532 12.0147C18.5091 12.039 18.7247 12.0714 18.8999 12.1118C19.0751 12.1521 19.2681 12.2189 19.4783 12.3119C19.6888 12.4048 19.8569 12.5181 19.983 12.6515C20.1093 12.785 20.2162 12.9549 20.3037 13.1611C20.3914 13.3673 20.4353 13.6039 20.4353 13.8707C20.4353 14.0972 20.4038 14.3035 20.3407 14.4896C20.2778 14.6756 20.1829 14.8313 20.0569 14.9567C19.9308 15.0821 19.8008 15.1914 19.6676 15.2843C19.5345 15.3772 19.3643 15.4521 19.1576 15.5086C18.9508 15.5653 18.7703 15.6098 18.6161 15.6421C18.4619 15.6744 18.2691 15.6967 18.0377 15.7088C17.8063 15.7209 17.6309 15.7291 17.5118 15.7331C17.3925 15.7371 17.2296 15.7371 17.0227 15.7331C16.8157 15.7291 16.6949 15.727 16.6598 15.727V12.0027H16.6597V12.0027ZM21.0823 20.2641C21.0155 20.4502 20.9297 20.6121 20.8246 20.7496C20.7193 20.8869 20.5808 21.0083 20.4091 21.1133C20.2375 21.2186 20.0708 21.3034 19.9096 21.3681C19.7483 21.4331 19.5537 21.4894 19.326 21.5381C19.0978 21.5866 18.8982 21.6208 18.7262 21.6411C18.5545 21.6614 18.3495 21.6775 18.111 21.6898C17.8727 21.7017 17.6868 21.7078 17.5537 21.7078C17.4204 21.7078 17.2521 21.7056 17.0488 21.7017C16.8453 21.6979 16.7157 21.6958 16.6596 21.6958V17.5952C16.7156 17.5952 16.8822 17.5913 17.1592 17.583C17.4362 17.5749 17.6622 17.5711 17.8375 17.5711C18.0128 17.5711 18.2548 17.583 18.5634 17.6075C18.8717 17.6316 19.1311 17.6678 19.3417 17.7163C19.5519 17.7649 19.7814 17.8396 20.0305 17.9409C20.2793 18.0419 20.481 18.1652 20.6353 18.3108C20.7896 18.4566 20.9192 18.6423 21.0243 18.8689C21.1297 19.0953 21.1823 19.3541 21.1823 19.6453C21.1822 19.872 21.149 20.0779 21.0823 20.2641Z" fill="white"/>
</g>
<defs>
<clipPath id="clip0">
<rect width="17.5" height="20.1864" fill="white" transform="translate(13.5825 4.33856) rotate(21.2365)"/>
</clipPath>
</defs>
</svg>
