<svg width="146" height="25" viewBox="0 0 146 25" fill="none" xmlns="http://www.w3.org/2000/svg">
<path d="M8.68666 18.1607C8.65363 17.8439 8.62059 17.5463 8.58205 17.1857C8.96471 17.1625 9.24138 17.129 9.51667 17.129C11.1987 17.1239 12.8794 17.093 14.5614 17.1342C18.1746 17.2243 21.1767 15.0683 22.3536 12.2001C24.0467 8.0812 21.7576 3.74339 17.7645 2.27771C16.6537 1.87072 15.5291 1.66851 14.3494 1.66851C10.4155 1.67108 6.48294 1.66851 2.549 1.66851C2.32601 1.66851 2.10578 1.6582 1.88141 1.67623C1.26889 1.7226 1.18905 1.80503 1.15877 2.3859C1.15051 2.56363 1.15877 2.74137 1.15877 2.92039C1.15877 9.62932 1.15877 16.3344 1.15877 23.0433C1.15877 23.391 1.15877 23.7401 1.15877 24.1342C0.743075 24.1342 0.447134 24.1342 0.171841 24.1342C-0.0263701 23.4065 -0.0676639 1.83465 0.125041 0.800431C0.430617 0.764369 0.767851 0.692244 1.10096 0.692244C5.66807 0.684516 10.2352 0.725731 14.8037 0.676789C18.9689 0.632999 22.6014 3.36216 23.6516 6.91819C24.6881 10.4278 23.8113 13.591 20.9028 16.1283C19.5084 17.348 17.7576 18.0036 15.9049 18.1221C13.5497 18.2766 11.1643 18.1607 8.68666 18.1607Z" fill="#444854"/>
<path d="M2.34021 24.1294C2.34021 16.9877 2.34021 9.90786 2.34021 2.76361C2.66506 2.73785 2.93897 2.69921 3.21427 2.69921C7.14821 2.69406 11.078 2.69149 15.012 2.69921C17.769 2.70436 20.4614 4.6775 21.3933 7.00096C21.9081 8.28505 21.9617 9.59876 21.6686 10.8442C21.1193 13.1754 19.6727 14.9373 17.151 15.7294C16.5632 15.9149 15.9301 16.0488 15.312 16.0617C13.3134 16.1029 11.3148 16.0823 9.31889 16.0771C9.01057 16.0771 8.65131 16.1287 8.57973 15.7062C8.52192 15.3585 8.74215 15.079 9.14821 15.0429C9.49233 15.012 9.84608 15.03 10.193 15.03C11.7773 15.0275 13.3657 14.9965 14.95 15.0352C17.4001 15.0944 19.5447 13.4871 20.2398 11.5667C21.4607 8.18845 20.1076 5.76067 17.2487 4.24218C16.7023 3.9511 15.9975 3.8017 15.363 3.79397C11.5584 3.75018 7.75248 3.76821 3.94517 3.76563C3.82129 3.76563 3.69741 3.79397 3.46065 3.82488C3.43588 4.19066 3.38908 4.56288 3.38908 4.93123C3.38357 10.897 3.38632 16.8602 3.38632 22.826C3.38632 23.0346 3.39458 23.2407 3.38357 23.4506C3.35191 24.1397 3.28034 24.1886 2.34021 24.1294Z" fill="#444854"/>
<path d="M5.52431 24.1308C5.12514 24.1308 4.83195 24.1308 4.47131 24.1308C4.47131 17.6987 4.47131 11.335 4.47131 4.88495C4.82369 4.85146 5.15817 4.78964 5.49403 4.78964C8.57043 4.78192 11.6496 4.85662 14.7232 4.76388C17.2972 4.68661 19.4335 6.69065 19.7074 8.89047C19.9469 10.8147 18.8664 13.1999 16.364 13.8117C15.6992 13.974 15.0054 14.0848 14.3186 14.1028C12.7976 14.1466 11.2724 14.1157 9.75144 14.1157C9.4376 14.1157 9.12239 14.1157 8.8416 14.1157C8.41214 13.218 8.514 13.0454 9.42935 13.0402C11.1417 13.0325 12.8554 12.9964 14.5677 13.048C16.4562 13.1046 17.9524 11.9906 18.4135 10.539C18.8678 9.10556 18.4548 7.64502 17.0054 6.52322C16.3433 6.00933 15.567 5.78522 14.726 5.78007C11.9662 5.76719 9.20773 5.77234 6.44792 5.78007C6.17263 5.78007 5.89871 5.84189 5.52706 5.88568C5.52431 11.9931 5.52431 18.0362 5.52431 24.1308Z" fill="#444854"/>
<path d="M8.65117 11.8615C8.60988 11.0385 8.66494 10.9458 9.38758 10.9406C11.0696 10.9252 12.7503 10.9381 14.4323 10.9329C14.7489 10.9329 15.0724 10.9355 15.378 10.8762C15.8405 10.7861 16.1832 10.5362 16.241 10.0584C16.2768 9.76473 16.3098 9.46463 16.2933 9.17098C16.2383 8.24237 15.8226 7.8766 14.7751 7.86372C13.1577 7.84826 11.539 7.85856 9.92165 7.85856C9.26233 7.85856 8.60162 7.85856 7.85145 7.85856C7.82392 8.31192 7.77987 8.68671 7.77987 9.06022C7.77437 13.6621 7.77712 18.2626 7.77712 22.8619C7.77712 23.0705 7.78813 23.2766 7.77437 23.4865C7.73032 24.1395 7.6202 24.2065 6.72412 24.0983C6.72412 18.3695 6.72412 12.6317 6.72412 6.84366C7.02694 6.82048 7.27333 6.78699 7.51834 6.78699C9.89688 6.78441 12.2754 6.79729 14.6553 6.78184C15.8074 6.77411 16.6292 7.22232 17.1963 8.15608C17.8914 9.30364 17.3835 11.1943 16.1736 11.819C15.9891 11.9143 15.7579 11.9633 15.5445 11.9633C13.3257 11.971 11.1068 11.9658 8.88517 11.9607C8.82736 11.9594 8.76955 11.9156 8.65117 11.8615Z" fill="#444854"/>
<path d="M106.654 5.88937C106.448 6.04392 106.258 6.1856 106.028 6.35561C105.843 6.21393 105.664 6.09802 105.516 5.95892C104.832 5.31881 104.204 4.62331 103.47 4.03987C102.098 2.94383 100.482 2.30629 98.727 1.889C96.8164 1.43564 94.9403 1.51034 93.0986 2.00749C90.08 2.82534 87.6519 4.44429 86.0786 7.03951C84.921 8.94567 84.2066 11.009 84.4379 13.2191C84.8948 17.5878 87.1522 20.8244 91.5033 22.6971C93.7827 23.6772 96.164 23.8627 98.5604 23.4145C101.14 22.9328 103.337 21.7067 105.071 19.8185C105.236 19.6408 105.366 19.4347 105.531 19.2583C105.836 18.9389 106.154 18.9054 106.435 19.1604C106.727 19.4283 106.589 19.6266 106.369 19.9087C105.033 21.6165 103.262 22.7873 101.239 23.6643C98.9816 24.6445 96.581 24.8608 94.1846 24.5079C91.6987 24.1396 89.4441 23.1337 87.5748 21.5032C85.8405 19.995 84.6416 18.179 83.9396 16.041C83.2775 14.0266 83.1839 11.9762 83.6973 9.99278C84.6237 6.40455 86.8233 3.64576 90.409 1.93021C93.0876 0.651281 95.919 0.320281 98.8109 0.870235C102.025 1.48201 104.637 3.08808 106.57 5.60602C106.599 5.65496 106.602 5.72194 106.654 5.88937Z" fill="#444854"/>
<path d="M104.966 18.4063C102.248 22.1156 97.4382 23.5878 92.9207 22.2496C88.4003 20.9088 85.4506 17.1815 85.4451 12.635C85.4423 8.09116 88.326 4.46687 92.5793 3.12869C97.3006 1.64111 102.164 3.00247 105.027 6.93072C104.831 7.093 104.633 7.26301 104.389 7.46522C104.21 7.339 104.004 7.24626 103.875 7.09686C103.224 6.33311 102.494 5.65565 101.617 5.12115C100.479 4.42694 99.3102 3.83449 97.9131 3.73145C97.2593 3.68251 96.6013 3.4378 95.964 3.49189C92.2297 3.81131 89.2799 5.31048 87.5428 8.5677C86.8257 9.91103 86.3769 11.32 86.4705 12.8154C86.6688 15.9979 88.114 18.5261 91.0074 20.3202C93.2923 21.7357 95.8222 21.907 98.3536 21.4961C100.41 21.1638 102.175 20.0807 103.533 18.5274C103.594 18.4579 103.657 18.3935 103.718 18.3239C104.277 17.7057 104.356 17.7108 104.966 18.4063Z" fill="#444854"/>
<path d="M103.289 8.10958C102.981 8.25383 102.731 8.36717 102.462 8.49339C101.508 7.30204 100.331 6.39146 98.8264 5.91878C95.8023 4.97214 93.0686 5.468 90.7864 7.56993C87.0135 11.0435 88.1161 17.066 93.0549 19.1653C96.123 20.4674 99.6096 19.7385 101.878 17.406C101.941 17.3416 101.972 17.2514 102.032 17.187C102.558 16.6319 102.686 16.6371 103.239 17.2283C101.762 19.826 97.8339 21.2415 94.997 20.7637C90.0954 19.9381 87.5352 16.261 87.4939 12.696C87.4471 8.64923 90.5483 5.307 94.4754 4.59992C98.0858 3.95208 101.636 5.38171 103.289 8.10958Z" fill="#444854"/>
<path d="M100.862 15.651C101.648 16.1804 101.667 16.2577 101.167 16.7729C97.5542 20.5002 91.517 18.9443 89.9162 14.6941C88.8384 11.8336 90.1832 8.24664 93.5046 6.9046C96.1282 5.84462 99.1771 6.3804 101.123 8.48362C101.692 9.0954 101.689 9.11601 100.807 9.56421C99.3381 7.80488 97.3532 7.15832 95.0077 7.51122C93.7373 7.70184 92.7448 8.36513 91.8873 9.26541C90.164 11.0737 90.1172 14.452 92.2066 16.3375C93.4661 17.4722 94.9664 18.0299 96.7297 17.8676C98.4393 17.7066 99.7428 16.8579 100.862 15.651Z" fill="#444854"/>
<path d="M112.629 0.406006C112.973 0.406006 113.274 0.406006 113.555 0.406006C113.795 1.09506 113.83 23.647 113.594 24.5602C113.305 24.5602 113 24.5602 112.626 24.5602C112.629 16.5079 112.629 8.48659 112.629 0.406006Z" fill="#444854"/>
<path d="M109.192 24.5643C108.919 24.5771 108.618 24.59 108.246 24.6055C108.246 16.5069 108.246 8.48293 108.246 0.402344C108.593 0.402344 108.894 0.402344 109.183 0.402344C109.42 1.09784 109.437 23.6794 109.192 24.5643Z" fill="#444854"/>
<path d="M111.397 0.453987C111.397 8.50882 111.397 16.5044 111.397 24.4897C110.512 24.6339 110.446 24.5953 110.393 23.8934C110.374 23.6564 110.385 23.4194 110.385 23.1811C110.385 16.0343 110.385 8.88748 110.385 1.73807C110.385 1.50109 110.374 1.26411 110.396 1.02584C110.454 0.410197 110.542 0.358679 111.397 0.453987Z" fill="#444854"/>
<path d="M115.697 24.559C114.898 24.5745 114.84 24.5436 114.779 23.9756C114.752 23.7128 114.763 23.4411 114.763 23.1758C114.763 16.0341 114.763 8.88984 114.763 1.74817C114.763 1.48285 114.749 1.21109 114.782 0.948353C114.851 0.40355 114.953 0.357182 115.678 0.451202C115.863 1.12094 115.89 23.6021 115.697 24.559Z" fill="#444854"/>
<path d="M117.36 24.4613C118.129 22.6736 118.875 20.9619 119.598 19.2387C120.18 17.849 120.72 16.4425 121.296 15.0528C121.876 13.6554 122.481 12.2696 123.066 10.8747C123.684 9.40002 124.287 7.91888 124.903 6.44418C125.689 4.5612 126.473 2.67822 127.267 0.800387C127.545 0.139669 128.144 0.385669 128.766 0.347031C132.176 8.37353 135.495 16.4206 138.923 24.5605C138.382 24.5605 138.049 24.5605 137.683 24.5605C134.554 17.0916 131.434 9.64731 128.25 2.04455C128.008 2.36653 127.793 2.56617 127.69 2.80572C126.51 5.58383 125.339 8.36065 124.184 11.1491C123.06 13.8602 121.965 16.5803 120.843 19.294C120.201 20.8499 119.534 22.3941 118.875 23.9448C118.567 24.6609 118.437 24.7099 117.36 24.4613Z" fill="#444854"/>
<path d="M134.82 0.524804C135.683 0.117813 136.044 0.411468 136.306 1.02711C137.361 3.5077 138.417 5.98957 139.454 8.47789C140.57 11.1607 141.65 13.8525 142.769 16.5353C143.759 18.9025 144.782 21.2582 145.78 23.6229C145.893 23.8882 145.928 24.1831 146 24.4562C145.035 24.7138 144.966 24.6726 144.669 23.9693C143.654 21.5712 142.615 19.1794 141.609 16.7787C140.889 15.0606 140.223 13.3257 139.503 11.6076C138.646 9.55976 137.744 7.52481 136.885 5.47697C136.286 4.05894 135.727 2.62416 135.145 1.20098C135.056 0.98589 134.946 0.782394 134.82 0.524804Z" fill="#444854"/>
<path d="M141.162 24.5773C140.729 24.5773 140.42 24.5773 140.078 24.5773C136.713 16.538 133.358 8.52435 130.001 0.508161C131.079 0.168143 131.156 0.348454 131.514 1.12251C132.102 2.39372 132.605 3.69712 133.149 4.98636C133.792 6.51129 134.447 8.0272 135.082 9.55342C135.777 11.2226 136.446 12.8982 137.144 14.5674C138.15 16.9681 139.175 19.3599 140.19 21.758C140.487 22.4651 140.786 23.1735 141.061 23.8883C141.131 24.0712 141.12 24.285 141.162 24.5773Z" fill="#444854"/>
<path d="M143.589 24.553C143.163 24.553 142.834 24.553 142.492 24.553C139.125 16.5188 135.779 8.53353 132.436 0.548254C133.368 0.226267 133.588 0.280359 133.902 0.993883C134.339 1.99462 134.737 3.01081 135.15 4.01927C135.859 5.74512 136.558 7.47226 137.281 9.19296C137.866 10.5827 138.491 11.9556 139.07 13.3453C139.799 15.0866 140.487 16.8421 141.22 18.5834C141.946 20.3067 142.706 22.0132 143.434 23.7365C143.533 23.9722 143.533 24.2401 143.589 24.553Z" fill="#444854"/>
<path d="M128.165 4.44556C128.857 5.05991 128.995 5.58539 128.628 6.34142C127.963 7.70535 127.437 9.12983 126.849 10.5273C126.105 12.2943 125.356 14.0601 124.617 15.8297C123.77 17.8544 122.932 19.8816 122.095 21.9089C121.8 22.6185 121.521 23.3346 121.226 24.0443C120.97 24.6612 120.767 24.7179 119.793 24.4487C122.575 17.8003 125.357 11.1583 128.165 4.44556Z" fill="#444854"/>
<path d="M122.225 24.411C124.598 18.7338 126.971 13.0604 129.348 7.37793C130.002 7.85189 130.217 8.35806 129.963 8.96468C129.144 10.9352 128.303 12.8955 127.475 14.8609C126.873 16.2789 126.27 17.6957 125.677 19.1163C124.985 20.7777 124.318 22.4482 123.621 24.1097C123.385 24.6699 123.137 24.7189 122.225 24.411Z" fill="#444854"/>
<path d="M124.635 24.4185C126.603 19.7058 128.568 14.9971 130.541 10.269C131.206 10.8241 131.376 11.3471 131.101 11.9897C129.839 14.9585 128.566 17.9195 127.302 20.8882C126.875 21.8966 126.461 22.9077 126.054 23.9239C125.751 24.6799 125.616 24.7417 124.635 24.4185Z" fill="#444854"/>
<path d="M135.769 21.5809C133.055 21.5809 130.438 21.5809 127.806 21.5809C128.095 20.6085 128.128 20.575 129.058 20.5725C130.864 20.5673 132.671 20.5673 134.477 20.5725C135.351 20.5776 135.351 20.5905 135.769 21.5809Z" fill="#444854"/>
<path d="M134.686 19.549C134.457 19.5774 134.212 19.6289 133.968 19.6315C132.516 19.6392 131.063 19.6444 129.611 19.6315C128.709 19.6237 128.67 19.5568 128.965 18.6101C129.243 18.5921 129.553 18.5535 129.858 18.5535C131.214 18.5483 132.573 18.5354 133.93 18.5612C134.719 18.5766 134.793 18.7003 134.686 19.549Z" fill="#444854"/>
<path d="M133.923 17.4534C132.515 17.4534 131.102 17.4534 129.697 17.4534C129.592 16.5171 129.661 16.4295 130.563 16.4166C131.385 16.4038 132.206 16.4038 133.027 16.4166C133.734 16.4295 133.928 16.6562 133.923 17.4534Z" fill="#444854"/>
<path d="M38.9708 23.4137V6.55188C38.9708 6.10367 38.5827 5.73661 38.0995 5.73661H33.3535C32.8745 5.73661 32.4822 5.37341 32.4822 4.92134V1.59457C32.4822 1.14636 32.8703 0.779297 33.3535 0.779297H50.306C50.785 0.779297 51.1773 1.1425 51.1773 1.59457V4.92134C51.1773 5.36955 50.7892 5.73661 50.306 5.73661H45.56C45.081 5.73661 44.6887 6.09981 44.6887 6.55188V23.415C44.6887 23.8632 44.3005 24.2303 43.8174 24.2303H39.8421C39.3618 24.229 38.9708 23.8632 38.9708 23.4137Z" fill="#444854"/>
<path d="M71.617 24.2301H67.35C67.0141 24.2301 66.7044 24.0472 66.5613 23.7612L63.0444 16.7484C62.5736 15.8842 61.8235 15.4514 60.8007 15.4514H59.9487C59.4697 15.4514 59.0774 15.8146 59.0774 16.2667V23.4161C59.0774 23.8643 58.6892 24.2313 58.2061 24.2313H54.3823C53.9033 24.2313 53.511 23.8681 53.511 23.4161V1.59823C53.511 1.15002 53.8991 0.782959 54.3823 0.782959H63.8427C66.4663 0.782959 68.4401 1.39989 69.7602 2.62988C71.0829 3.85987 71.7423 5.63981 71.7423 7.96842C71.7423 9.74322 71.2908 11.2437 70.3892 12.4737C69.8125 13.2606 69.0829 13.884 68.2034 14.3386C67.6803 14.6091 67.5964 15.2981 68.0575 15.6562C68.6397 16.107 69.1408 16.7497 69.5592 17.5778L72.3989 23.058C72.681 23.6015 72.2626 24.2301 71.617 24.2301ZM65.6445 10.2275C66.1869 9.80762 66.4608 9.11856 66.4608 8.16677C66.4608 7.19179 66.1882 6.48728 65.6445 6.05453C65.1008 5.62178 64.2034 5.40669 62.9549 5.40669H59.8895C59.4105 5.40669 59.0182 5.7699 59.0182 6.22197V10.0472C59.0182 10.4954 59.4064 10.8624 59.8895 10.8624H62.9549C64.202 10.8599 65.1008 10.6512 65.6445 10.2275Z" fill="#444854"/>
<path d="M75.2563 23.4148V1.59823C75.2563 1.15002 75.6445 0.782959 76.1277 0.782959H80.0451C80.5241 0.782959 80.9164 1.14616 80.9164 1.59823V23.4148C80.9164 23.863 80.5282 24.2301 80.0451 24.2301H76.1277C75.6459 24.2301 75.2563 23.8643 75.2563 23.4148Z" fill="#444854"/>
<path d="M26.4539 0.607666H23.138C22.7828 0.607666 22.4621 0.808586 22.33 1.11898L22.1015 1.64833C21.9749 1.9394 22.0382 2.27814 22.2694 2.50482C23.6555 3.86103 24.6342 5.5843 25.0265 7.50077C25.0347 7.5394 25.0458 7.58062 25.0623 7.61926L27.3995 13.5129C27.6115 14.0448 27.1903 14.6115 26.5833 14.6115H24.1001C23.8138 14.6115 23.5399 14.7378 23.3775 14.9593C21.4614 17.5931 18.2336 19.3254 14.5791 19.3254H14.469L12.9108 22.933C12.6796 23.47 13.1008 24.0522 13.7188 24.0522H17.5124C17.8757 24.0522 18.202 23.841 18.3286 23.5229L19.8413 19.726C19.968 19.4066 20.2928 19.1966 20.6576 19.1966H29.043C29.4064 19.1966 29.7326 19.4079 29.8593 19.726L31.372 23.5229C31.4986 23.8423 31.8235 24.0522 32.1882 24.0522H35.8868C36.5048 24.0522 36.926 23.4662 36.6948 22.933L27.2522 1.11512C27.1256 0.808586 26.809 0.607666 26.4539 0.607666Z" fill="#444854"/>
<path d="M8.68666 18.1607C8.65363 17.8439 8.62059 17.5463 8.58205 17.1857C8.96471 17.1625 9.24138 17.129 9.51667 17.129C11.1987 17.1239 12.8794 17.093 14.5614 17.1342C18.1746 17.2243 21.1767 15.0683 22.3536 12.2001C24.0467 8.0812 21.7576 3.74339 17.7645 2.27771C16.6537 1.87072 15.5291 1.66851 14.3494 1.66851C10.4155 1.67108 6.48294 1.66851 2.549 1.66851C2.32601 1.66851 2.10578 1.6582 1.88141 1.67623C1.26889 1.7226 1.18905 1.80503 1.15877 2.3859C1.15051 2.56363 1.15877 2.74137 1.15877 2.92039C1.15877 9.62932 1.15877 16.3344 1.15877 23.0433C1.15877 23.391 1.15877 23.7401 1.15877 24.1342C0.743075 24.1342 0.447134 24.1342 0.171841 24.1342C-0.0263701 23.4065 -0.0676639 1.83465 0.125041 0.800431C0.430617 0.764369 0.767851 0.692244 1.10096 0.692244C5.66807 0.684516 10.2352 0.725731 14.8037 0.676789C18.9689 0.632999 22.6014 3.36216 23.6516 6.91819C24.6881 10.4278 23.8113 13.591 20.9028 16.1283C19.5084 17.348 17.7576 18.0036 15.9049 18.1221C13.5497 18.2766 11.1643 18.1607 8.68666 18.1607Z" fill="#444854"/>
<path d="M2.34021 24.1294C2.34021 16.9877 2.34021 9.90786 2.34021 2.76361C2.66506 2.73785 2.93897 2.69921 3.21427 2.69921C7.14821 2.69406 11.078 2.69149 15.012 2.69921C17.769 2.70436 20.4614 4.6775 21.3933 7.00096C21.9081 8.28505 21.9617 9.59876 21.6686 10.8442C21.1193 13.1754 19.6727 14.9373 17.151 15.7294C16.5632 15.9149 15.9301 16.0488 15.312 16.0617C13.3134 16.1029 11.3148 16.0823 9.31889 16.0771C9.01057 16.0771 8.65131 16.1287 8.57973 15.7062C8.52192 15.3585 8.74215 15.079 9.14821 15.0429C9.49233 15.012 9.84608 15.03 10.193 15.03C11.7773 15.0275 13.3657 14.9965 14.95 15.0352C17.4001 15.0944 19.5447 13.4871 20.2398 11.5667C21.4607 8.18845 20.1076 5.76067 17.2487 4.24218C16.7023 3.9511 15.9975 3.8017 15.363 3.79397C11.5584 3.75018 7.75248 3.76821 3.94517 3.76563C3.82129 3.76563 3.69741 3.79397 3.46065 3.82488C3.43588 4.19066 3.38908 4.56288 3.38908 4.93123C3.38357 10.897 3.38632 16.8602 3.38632 22.826C3.38632 23.0346 3.39458 23.2407 3.38357 23.4506C3.35191 24.1397 3.28034 24.1886 2.34021 24.1294Z" fill="#444854"/>
<path d="M5.52431 24.1308C5.12514 24.1308 4.83195 24.1308 4.47131 24.1308C4.47131 17.6987 4.47131 11.335 4.47131 4.88495C4.82369 4.85146 5.15817 4.78964 5.49403 4.78964C8.57043 4.78192 11.6496 4.85662 14.7232 4.76388C17.2972 4.68661 19.4335 6.69065 19.7074 8.89047C19.9469 10.8147 18.8664 13.1999 16.364 13.8117C15.6992 13.974 15.0054 14.0848 14.3186 14.1028C12.7976 14.1466 11.2724 14.1157 9.75144 14.1157C9.4376 14.1157 9.12239 14.1157 8.8416 14.1157C8.41214 13.218 8.514 13.0454 9.42935 13.0402C11.1417 13.0325 12.8554 12.9964 14.5677 13.048C16.4562 13.1046 17.9524 11.9906 18.4135 10.539C18.8678 9.10556 18.4548 7.64502 17.0054 6.52322C16.3433 6.00933 15.567 5.78522 14.726 5.78007C11.9662 5.76719 9.20773 5.77234 6.44792 5.78007C6.17263 5.78007 5.89871 5.84189 5.52706 5.88568C5.52431 11.9931 5.52431 18.0362 5.52431 24.1308Z" fill="#444854"/>
<path d="M8.65117 11.8615C8.60988 11.0385 8.66494 10.9458 9.38758 10.9406C11.0696 10.9252 12.7503 10.9381 14.4323 10.9329C14.7489 10.9329 15.0724 10.9355 15.378 10.8762C15.8405 10.7861 16.1832 10.5362 16.241 10.0584C16.2768 9.76473 16.3098 9.46463 16.2933 9.17098C16.2383 8.24237 15.8226 7.8766 14.7751 7.86372C13.1577 7.84826 11.539 7.85856 9.92165 7.85856C9.26233 7.85856 8.60162 7.85856 7.85145 7.85856C7.82392 8.31192 7.77987 8.68671 7.77987 9.06022C7.77437 13.6621 7.77712 18.2626 7.77712 22.8619C7.77712 23.0705 7.78813 23.2766 7.77437 23.4865C7.73032 24.1395 7.6202 24.2065 6.72412 24.0983C6.72412 18.3695 6.72412 12.6317 6.72412 6.84366C7.02694 6.82048 7.27333 6.78699 7.51834 6.78699C9.89688 6.78441 12.2754 6.79729 14.6553 6.78184C15.8074 6.77411 16.6292 7.22232 17.1963 8.15608C17.8914 9.30364 17.3835 11.1943 16.1736 11.819C15.9891 11.9143 15.7579 11.9633 15.5445 11.9633C13.3257 11.971 11.1068 11.9658 8.88517 11.9607C8.82736 11.9594 8.76955 11.9156 8.65117 11.8615Z" fill="#444854"/>
</svg>
