<svg width="184" height="48" viewBox="0 0 184 48" fill="none" xmlns="http://www.w3.org/2000/svg">
<path d="M28.4059 22.4125C28.4059 17.1571 32.6759 14.5295 33.0044 14.3652C30.5409 10.7522 26.5994 10.2595 25.2856 10.2595C22.001 9.93101 18.8806 12.2302 17.2383 12.2302C15.596 12.2302 12.9683 10.2595 10.3406 10.4237C6.8918 10.4237 3.6072 12.5587 1.80066 15.6791C-1.97663 22.084 0.815284 31.6094 4.42835 36.8648C6.23488 39.4924 8.36987 42.2843 10.9976 42.1201C13.6252 41.9559 14.6106 40.4778 17.8952 40.4778C21.0156 40.4778 22.001 42.1201 24.7929 42.1201C27.5848 42.1201 29.3913 39.4924 31.1979 37.029C33.3329 34.0728 34.154 31.2809 34.154 31.1167C33.9898 30.7882 28.5702 28.6532 28.4059 22.4125Z" fill="#0267FF"/>
<path d="M23.147 6.81071C24.6251 5.00417 25.6105 2.54072 25.282 0.0772705C23.147 0.241501 20.6836 1.55534 19.0413 3.19764C17.7275 4.67571 16.5778 7.3034 16.9063 9.60262C19.3698 9.93108 21.669 8.61724 23.147 6.81071Z" fill="#0267FF"/>
<path d="M72.9222 41.2808H69.2087L67.2713 34.9841H60.3288L58.3913 41.2808H54.8394L61.7819 19.8075H65.9797L72.9222 41.2808ZM66.7869 32.4009L65.0109 26.75C64.8495 26.1042 64.5266 24.8126 63.8808 22.7137C63.7193 23.6824 63.3964 24.974 62.912 26.75L60.9746 32.4009H66.7869Z" fill="#575A65"/>
<path d="M90.8405 33.3695C90.8405 35.9527 90.1947 38.0516 88.7416 39.6662C87.45 40.9578 85.8354 41.7651 84.0594 41.7651C81.9605 41.7651 80.5074 40.9578 79.7002 39.5047V47.7389H76.3097V30.9477C76.3097 29.3331 76.3096 27.5571 76.1482 25.7812H79.2158L79.3773 28.203C80.5074 26.427 82.2834 25.4583 84.5438 25.4583C86.3198 25.4583 87.9343 26.1041 89.0645 27.5571C90.1947 29.0102 90.8405 30.9477 90.8405 33.3695ZM87.2885 33.5309C87.2885 32.0779 86.9656 30.7862 86.3198 29.8175C85.5125 28.8488 84.5438 28.3644 83.2522 28.3644C82.4449 28.3644 81.6376 28.6873 80.9918 29.1717C80.346 29.8175 79.8616 30.4633 79.7002 31.432C79.5387 31.9164 79.5387 32.2393 79.5387 32.4008V34.984C79.5387 36.1142 79.8616 37.0829 80.5074 37.8902C81.1533 38.6974 82.122 39.0204 83.2522 39.0204C84.5438 39.0204 85.5125 38.536 86.3198 37.5673C86.9656 36.4371 87.2885 35.1455 87.2885 33.5309Z" fill="#575A65"/>
<path d="M108.602 33.3695C108.602 35.9527 107.957 38.0516 106.504 39.6662C105.212 40.9578 103.597 41.7651 101.821 41.7651C99.7225 41.7651 98.2694 40.9578 97.4621 39.5047V47.7389H94.0716V30.9477C94.0716 29.3331 94.0716 27.5571 93.9102 25.7812H96.9778L97.1392 28.203C98.2694 26.427 100.045 25.4583 102.306 25.4583C104.082 25.4583 105.696 26.1041 106.826 27.5571C107.957 29.0102 108.602 30.9477 108.602 33.3695ZM105.05 33.5309C105.05 32.0779 104.728 30.7862 104.082 29.8175C103.274 28.8488 102.306 28.3644 101.014 28.3644C100.207 28.3644 99.3996 28.6873 98.7538 29.1717C98.108 29.8175 97.6236 30.4633 97.4621 31.432C97.3007 31.9164 97.3007 32.2393 97.3007 32.4008V34.984C97.3007 36.1142 97.6236 37.0829 98.2694 37.8902C98.9152 38.6974 99.8839 39.0204 101.014 39.0204C102.306 39.0204 103.274 38.536 104.082 37.5673C104.728 36.4371 105.05 35.1455 105.05 33.5309Z" fill="#575A65"/>
<path d="M128.457 35.3068C128.457 37.0828 127.811 38.6973 126.519 39.8275C125.066 41.1191 123.129 41.7649 120.707 41.7649C118.447 41.7649 116.509 41.2806 115.218 40.4733L116.025 37.5672C117.478 38.5359 119.254 39.0202 121.03 39.0202C122.321 39.0202 123.29 38.6973 124.097 38.213C124.743 37.5672 125.228 36.9213 125.228 35.7912C125.228 34.9839 124.905 34.1766 124.259 33.5308C123.613 32.885 122.644 32.4006 121.353 31.9163C117.639 30.4632 115.702 28.5257 115.702 25.781C115.702 24.005 116.348 22.552 117.639 21.4218C118.931 20.2916 120.707 19.8073 122.967 19.8073C124.905 19.8073 126.519 20.1302 127.811 20.776L126.842 23.3592C125.551 22.7134 124.259 22.3905 122.806 22.3905C121.514 22.3905 120.707 22.7134 119.9 23.3592C119.254 23.8436 119.092 24.4894 119.092 25.2967C119.092 26.1039 119.415 26.9112 120.061 27.3956C120.707 27.8799 121.676 28.5257 123.129 29.0101C124.905 29.8174 126.358 30.6246 127.165 31.5934C128.134 32.5621 128.457 33.8537 128.457 35.3068Z" fill="#575A65"/>
<path d="M139.924 28.3641H136.211V35.9524C136.211 37.8899 136.856 38.8586 138.148 38.8586C138.794 38.8586 139.278 38.8586 139.601 38.6971L139.763 41.2804C139.117 41.6033 138.148 41.6033 137.018 41.6033C135.726 41.6033 134.596 41.1189 133.789 40.3117C132.981 39.5044 132.659 38.0513 132.659 36.1139V28.3641H130.398V25.7808H132.659V22.8747L136.049 21.9059V25.7808H139.763C139.924 25.7808 139.924 28.3641 139.924 28.3641Z" fill="#575A65"/>
<path d="M157.039 33.3695C157.039 35.7913 156.393 37.7287 154.94 39.1818C153.487 40.7963 151.55 41.6036 149.289 41.6036C147.029 41.6036 145.253 40.7963 143.8 39.3433C142.347 37.8902 141.701 35.9527 141.701 33.6924C141.701 31.2706 142.347 29.3331 143.8 27.7186C145.253 26.2655 147.029 25.4583 149.451 25.4583C151.711 25.4583 153.487 26.2655 154.94 27.7186C156.393 29.1717 157.039 31.1091 157.039 33.3695ZM153.487 33.5309C153.487 32.0779 153.164 30.9477 152.518 29.8175C151.873 28.5259 150.742 28.0415 149.451 28.0415C147.998 28.0415 147.029 28.6873 146.222 29.8175C145.576 30.7862 145.253 32.0779 145.253 33.5309C145.253 34.984 145.576 36.1142 146.222 37.2444C147.029 38.536 147.998 39.0204 149.289 39.0204C150.581 39.0204 151.711 38.3745 152.357 37.0829C153.164 36.1142 153.487 34.984 153.487 33.5309Z" fill="#575A65"/>
<path d="M168.182 28.8488C167.859 28.8488 167.537 28.6873 167.052 28.6873C165.761 28.6873 164.953 29.1717 164.307 30.1404C163.662 30.9477 163.5 31.9164 163.5 33.208V41.2807H160.11V30.6248C160.11 28.8488 160.11 27.2342 159.948 25.7812H163.016L163.177 28.6873H163.339C163.662 27.7186 164.307 26.9113 165.115 26.2655C165.922 25.7812 166.729 25.4583 167.537 25.4583C167.859 25.4583 168.182 25.4583 168.344 25.4583C168.182 25.6197 168.182 28.8488 168.182 28.8488Z" fill="#575A65"/>
<path d="M183.677 32.885C183.677 33.5308 183.677 34.0152 183.515 34.4995H173.182C173.182 35.9526 173.667 37.2442 174.635 38.0515C175.443 38.6973 176.573 39.1817 178.026 39.1817C179.479 39.1817 180.932 38.8588 182.224 38.3744L182.708 40.7962C181.255 41.442 179.479 41.7649 177.542 41.7649C175.12 41.7649 173.182 41.1191 171.891 39.6661C170.599 38.213 169.792 36.437 169.792 34.0152C169.792 31.7548 170.438 29.6559 171.729 28.2028C173.021 26.5883 174.797 25.781 177.219 25.781C179.479 25.781 181.094 26.5883 182.224 28.2028C183.192 29.1716 183.677 30.9476 183.677 32.885ZM180.286 31.9163C180.286 30.9476 180.125 29.9788 179.64 29.333C178.995 28.3643 178.187 27.8799 176.896 27.8799C175.766 27.8799 174.797 28.3643 174.151 29.333C173.505 30.1403 173.182 30.9476 173.182 32.0777L180.286 31.9163Z" fill="#575A65"/>
<path d="M63.5627 6.56817C63.5627 8.50562 62.9169 9.9587 61.7867 10.9274C60.6566 11.7347 59.2035 12.2191 57.266 12.2191C56.2973 12.2191 55.4901 12.2191 54.8442 12.0576V1.72456C55.813 1.56311 56.7817 1.56311 57.7504 1.56311C59.5264 1.56311 60.9795 1.88602 61.9482 2.69329C63.0784 3.66201 63.5627 4.95364 63.5627 6.56817ZM61.7867 6.56817C61.7867 5.27654 61.4638 4.46928 60.818 3.66201C60.1722 3.01619 59.2035 2.69329 57.9119 2.69329C57.4275 2.69329 56.9431 2.69329 56.6202 2.85474V10.766C56.7817 10.766 57.266 10.766 57.7504 10.766C59.042 10.766 60.0108 10.4431 60.818 9.63579C61.6253 8.82852 61.7867 8.02126 61.7867 6.56817Z" fill="#575A65"/>
<path d="M73.0878 8.18275C73.0878 9.31292 72.7648 10.2816 72.119 11.0889C71.4732 11.8962 70.5045 12.2191 69.3743 12.2191C68.2441 12.2191 67.4369 11.8962 66.6296 11.0889C65.9838 10.2816 65.6609 9.47438 65.6609 8.3442C65.6609 7.21403 65.9838 6.2453 66.6296 5.43804C67.2754 4.63077 68.2441 4.30786 69.3743 4.30786C70.5045 4.30786 71.3118 4.63077 72.119 5.43804C72.7648 6.2453 73.0878 7.05257 73.0878 8.18275ZM71.3118 8.3442C71.3118 7.69839 71.1503 7.05257 70.8274 6.56821C70.5045 5.9224 70.0201 5.59949 69.3743 5.59949C68.7285 5.59949 68.2441 5.9224 67.7598 6.56821C67.4369 7.05257 67.2754 7.69839 67.2754 8.3442C67.2754 8.99002 67.4369 9.63583 67.7598 10.1202C68.0827 10.766 68.5671 11.0889 69.3743 11.0889C70.0201 11.0889 70.5045 10.766 70.8274 10.1202C71.1503 9.63583 71.3118 8.99002 71.3118 8.3442Z" fill="#575A65"/>
<path d="M85.8434 4.46924L83.4216 12.0576H81.8071L80.8384 8.82849C80.5155 8.02122 80.354 7.21395 80.1925 6.40668C80.0311 7.21395 79.8696 8.02122 79.5467 8.82849L78.578 12.0576H76.9635L74.7031 4.46924H76.4791L77.2864 8.02122C77.4478 8.82849 77.6093 9.63575 77.7707 10.443C77.9322 9.79721 78.0937 8.98994 78.4166 8.02122L79.5467 4.46924H80.9998L81.9685 8.02122C82.2914 8.82849 82.4529 9.79721 82.6143 10.6045C82.7758 9.79721 82.9373 8.98994 83.0987 8.02122L84.0674 4.46924H85.8434Z" fill="#575A65"/>
<path d="M94.5629 12.0577H92.9483V7.69846C92.9483 6.40684 92.464 5.76102 91.4953 5.76102C91.0109 5.76102 90.5265 5.92247 90.2036 6.24538C89.8807 6.56829 89.7193 7.05265 89.7193 7.53701V12.0577H88.1047V6.56829C88.1047 5.92247 88.1047 5.11521 88.1047 4.46939H89.3964V5.59957C89.5578 5.27666 89.8807 4.95375 90.2036 4.63085C90.688 4.30794 91.1724 4.14648 91.6567 4.14648C92.3025 4.14648 92.9484 4.30794 93.4327 4.7923C94.0785 5.27666 94.24 6.24538 94.24 7.37556V12.0577H94.5629Z" fill="#575A65"/>
<path d="M99.2434 12.0578H97.6289V1.07892H99.2434V12.0578Z" fill="#575A65"/>
<path d="M109.257 8.18275C109.257 9.31292 108.935 10.2816 108.289 11.0889C107.643 11.8962 106.674 12.2191 105.544 12.2191C104.414 12.2191 103.607 11.8962 102.799 11.0889C102.153 10.2816 101.831 9.47438 101.831 8.3442C101.831 7.21403 102.153 6.2453 102.799 5.43804C103.445 4.63077 104.414 4.30786 105.544 4.30786C106.674 4.30786 107.481 4.63077 108.289 5.43804C108.935 6.2453 109.257 7.05257 109.257 8.18275ZM107.481 8.3442C107.481 7.69839 107.32 7.05257 106.997 6.56821C106.674 5.9224 106.19 5.59949 105.544 5.59949C104.898 5.59949 104.414 5.9224 103.929 6.56821C103.607 7.05257 103.445 7.69839 103.445 8.3442C103.445 8.99002 103.607 9.63583 103.929 10.1202C104.252 10.766 104.737 11.0889 105.544 11.0889C106.19 11.0889 106.674 10.766 106.997 10.1202C107.32 9.63583 107.481 8.99002 107.481 8.3442Z" fill="#575A65"/>
<path d="M117.328 12.0576H115.875L115.714 11.2504C115.229 11.8962 114.422 12.2191 113.453 12.2191C112.807 12.2191 112.162 12.0576 111.677 11.5733C111.354 11.0889 111.031 10.6046 111.031 9.95874C111.031 8.99002 111.354 8.3442 112.162 7.85984C112.969 7.37548 114.099 7.05257 115.391 7.21403V7.05257C115.391 6.08385 114.906 5.59949 113.776 5.59949C112.969 5.59949 112.323 5.76094 111.839 6.08385L111.677 4.95368C112.323 4.46931 113.292 4.30786 114.261 4.30786C116.198 4.30786 117.167 5.27658 117.167 7.37548V10.1202C117.328 11.0889 117.328 11.7347 117.328 12.0576ZM115.552 9.47438V8.3442C113.615 8.3442 112.807 8.82856 112.807 9.79729C112.807 10.1202 112.969 10.4431 113.13 10.766C113.292 10.9275 113.615 11.0889 113.938 11.0889C114.261 11.0889 114.583 10.9275 114.906 10.766C115.229 10.6046 115.391 10.2816 115.552 9.79729C115.552 9.63583 115.552 9.63583 115.552 9.47438Z" fill="#575A65"/>
<path d="M127.014 12.0578H125.561V10.7661C125.077 11.7349 124.27 12.2192 123.139 12.2192C122.171 12.2192 121.525 11.8963 120.879 11.089C120.233 10.2818 119.91 9.47451 119.91 8.34433C119.91 7.0527 120.233 6.08398 120.879 5.27671C121.525 4.6309 122.332 4.14654 123.301 4.14654C124.27 4.14654 125.077 4.46945 125.4 5.11526V1.07892H127.014V10.1203C126.853 10.7661 127.014 11.412 127.014 12.0578ZM125.238 8.82869V7.53707C125.238 7.37561 125.238 7.21416 125.238 7.0527C125.077 6.56834 124.915 6.24544 124.593 6.08398C124.27 5.76107 123.947 5.59962 123.462 5.59962C122.817 5.59962 122.332 5.92253 122.009 6.40689C121.686 6.89125 121.525 7.53707 121.525 8.34433C121.525 9.1516 121.686 9.63596 122.009 10.1203C122.332 10.6047 122.817 10.9276 123.462 10.9276C123.947 10.9276 124.431 10.7661 124.754 10.2818C125.077 9.95887 125.238 9.47451 125.238 8.82869Z" fill="#575A65"/>
<path d="M141.38 8.18275C141.38 9.31292 141.058 10.2816 140.412 11.0889C139.766 11.8962 138.797 12.2191 137.667 12.2191C136.537 12.2191 135.73 11.8962 134.922 11.0889C134.277 10.2816 133.954 9.47438 133.954 8.3442C133.954 7.21403 134.277 6.2453 134.922 5.43804C135.568 4.63077 136.537 4.30786 137.667 4.30786C138.797 4.30786 139.604 4.63077 140.412 5.43804C141.058 6.2453 141.38 7.05257 141.38 8.18275ZM139.766 8.3442C139.766 7.69839 139.604 7.05257 139.282 6.56821C138.959 5.9224 138.474 5.59949 137.829 5.59949C137.183 5.59949 136.698 5.9224 136.214 6.56821C135.891 7.05257 135.73 7.69839 135.73 8.3442C135.73 8.99002 135.891 9.63583 136.214 10.1202C136.537 10.766 137.021 11.0889 137.829 11.0889C138.474 11.0889 138.959 10.766 139.282 10.1202C139.604 9.63583 139.766 8.99002 139.766 8.3442Z" fill="#575A65"/>
<path d="M150.584 12.0577H148.97V7.69846C148.97 6.40684 148.485 5.76102 147.355 5.76102C146.871 5.76102 146.386 5.92247 146.063 6.24538C145.741 6.56829 145.579 7.05265 145.579 7.53701V12.0577H143.965V6.56829C143.965 5.92247 143.965 5.11521 143.965 4.46939H145.418V5.59957C145.579 5.27666 145.902 4.95375 146.225 4.63085C146.709 4.30794 147.194 4.14648 147.839 4.14648C148.485 4.14648 149.131 4.30794 149.615 4.7923C150.261 5.27666 150.423 6.24538 150.423 7.37556V12.0577H150.584Z" fill="#575A65"/>
<path d="M161.881 5.76098H159.943V9.47441C159.943 10.4431 160.266 10.9275 160.912 10.9275C161.235 10.9275 161.397 10.9275 161.719 10.9275V12.2191C161.397 12.3806 160.912 12.3806 160.428 12.3806C159.782 12.3806 159.298 12.2191 158.813 11.7348C158.49 11.2504 158.329 10.6046 158.329 9.63587V5.76098H157.199V4.46935H158.329V3.17772L159.943 2.69336V4.6308H161.881V5.76098Z" fill="#575A65"/>
<path d="M170.928 12.0578H169.314V7.69852C169.314 6.40689 168.829 5.59962 167.86 5.59962C167.053 5.59962 166.569 5.92253 166.246 6.7298C166.246 6.89125 166.246 7.0527 166.246 7.37561V11.8963H164.631V1.07892H166.246V5.59962C166.73 4.79235 167.538 4.30799 168.506 4.30799C169.152 4.30799 169.798 4.46945 170.282 4.95381C170.928 5.59962 171.089 6.40689 171.089 7.53707C170.928 7.53707 170.928 12.0578 170.928 12.0578Z" fill="#575A65"/>
<path d="M180.131 8.02122C180.131 8.34413 180.131 8.50558 180.131 8.82849H174.965C174.965 9.63576 175.288 10.1201 175.772 10.6045C176.256 10.9274 176.741 11.0888 177.387 11.0888C178.194 11.0888 178.84 10.9274 179.486 10.7659L179.808 11.8961C179.163 12.219 178.194 12.3805 177.225 12.3805C176.095 12.3805 175.126 12.0576 174.48 11.4117C173.835 10.7659 173.512 9.79721 173.512 8.66703C173.512 7.53686 173.835 6.56814 174.48 5.76087C175.126 4.9536 176.095 4.46924 177.064 4.46924C178.194 4.46924 179.001 4.9536 179.486 5.76087C179.97 6.24523 180.131 7.0525 180.131 8.02122ZM178.517 7.53686C178.517 7.0525 178.355 6.56814 178.194 6.24523C177.871 5.76087 177.387 5.59941 176.902 5.59941C176.418 5.59941 175.934 5.76087 175.611 6.24523C175.288 6.56814 175.126 7.0525 175.126 7.53686C174.965 7.53686 178.517 7.53686 178.517 7.53686Z" fill="#575A65"/>
</svg>
