<svg width="43" height="43" viewBox="0 0 43 43" fill="none" xmlns="http://www.w3.org/2000/svg">
<circle cx="21.5" cy="21.5" r="21.5" fill="#E8F7FF"/>
<mask id="path-2-outside-1" maskUnits="userSpaceOnUse" x="15.043" y="11.8358" width="13" height="19" fill="black">
<rect fill="white" x="15.043" y="11.8358" width="13" height="19"/>
<path d="M19.172 30.1642H19.1701H19.1691H19.1681H19.1654C19.0936 30.1632 19.0304 30.1307 18.988 30.0806L16.1241 28.1214C16.0713 28.0852 16.043 28.0276 16.043 27.9691V14.9306C16.043 14.8609 16.0827 14.7996 16.1402 14.7681L18.8257 13.0597C18.9135 13.0048 19.0295 13.03 19.0862 13.1155C19.1106 13.1527 19.1192 13.1954 19.1145 13.2362V22.5167C19.1145 22.5557 19.0909 22.589 19.0561 22.6031C19.0457 22.6152 19.0297 22.6218 19.0126 22.6189L16.6999 22.2148C16.6745 22.2101 16.6565 22.1859 16.6612 22.1608C16.6658 22.1358 16.6905 22.1191 16.7159 22.1237L18.9258 22.5091V13.4376L16.4206 15.0309V27.8722L18.9334 29.5908V23.0918C18.9334 22.9747 19.023 22.8744 19.1448 22.8613L19.8375 22.786C19.8328 21.4111 19.7828 19.2568 19.6478 17.1944C19.5479 15.6662 19.4016 14.1872 19.193 13.1105C19.1693 12.9842 19.2534 12.8635 19.3807 12.8402C19.3901 12.8383 19.3997 12.8375 19.4091 12.8365C19.4184 12.8356 19.428 12.8356 19.4374 12.8365C19.4534 12.8375 19.4695 12.8392 19.4845 12.844L26.1181 13.9282C26.1786 13.9328 26.2314 13.9775 26.2447 14.0387C26.4627 15.1025 26.6344 16.4941 26.7533 17.9543C26.8846 19.5597 26.9544 21.2559 26.9534 22.6949C26.9534 22.7712 26.8902 22.8334 26.8128 22.8334C26.8044 22.8334 26.7968 22.8334 26.7891 22.8315C26.7844 22.8324 26.7797 22.8334 26.7741 22.8334L20.6558 23.2402C20.5783 23.2458 20.5105 23.1873 20.5058 23.111C20.5001 23.034 20.5596 22.968 20.637 22.9633L26.6714 22.5611C26.6677 21.1649 26.5986 19.5318 26.4713 17.9757C26.3561 16.5646 26.193 15.223 25.9873 14.1881L19.6807 13.1581C19.8798 14.2422 20.0204 15.683 20.1176 17.1657C20.2609 19.3562 20.309 21.635 20.309 22.9941C20.309 23.1187 20.2091 23.2208 20.0836 23.2254L19.4051 23.2987V29.9318C19.4051 30.0592 19.3013 30.1632 19.172 30.1642ZM24.7875 19.5997C24.7611 19.6007 24.7404 19.5803 24.7394 19.5543C24.7394 19.5293 24.7601 19.5079 24.7856 19.5079H25.1366L25.1489 19.4892L24.7204 19.4873L24.7288 19.6277L25.2299 19.6211C25.2563 19.6201 25.278 19.6406 25.278 19.6665C25.279 19.6916 25.2582 19.713 25.2326 19.7139L24.6909 19.7214C24.6645 19.7214 24.6428 19.702 24.6428 19.676L24.6258 19.4419C24.6248 19.4159 24.6455 19.3955 24.6719 19.3955L25.2258 19.3964C25.2268 19.3964 25.2285 19.3964 25.2295 19.3964C25.2399 19.3955 25.2502 19.3974 25.2588 19.403C25.2815 19.4168 25.2882 19.4457 25.2739 19.4671L25.2021 19.5786C25.1937 19.5917 25.1794 19.5999 25.1624 19.6009L24.7875 19.5997ZM24.9244 14.6649C25.0367 14.6816 25.1472 14.6984 25.2575 14.7141C25.366 14.7299 25.4736 14.7467 25.5801 14.7625C25.5915 14.7634 25.6046 14.7914 25.6095 14.822C25.6302 14.9502 25.65 15.0784 25.6709 15.2074C25.6916 15.3383 25.7133 15.4695 25.7341 15.6023C25.7397 15.6349 25.735 15.6608 25.7237 15.6599C25.6142 15.6478 25.5048 15.6358 25.3934 15.6237C25.2811 15.6116 25.1689 15.5996 25.0537 15.5865C25.0423 15.5856 25.0283 15.5569 25.0236 15.5234C25.0046 15.3869 24.9858 15.2511 24.9668 15.1173C24.9489 14.9835 24.9301 14.8516 24.9121 14.7207C24.9074 14.6882 24.9131 14.6631 24.9244 14.6649ZM23.1287 21.1464C23.1023 21.1473 23.0806 21.1269 23.0806 21.1009C23.0796 21.0759 23.1004 21.0545 23.126 21.0536L23.9186 21.0312L24.0185 20.8816L22.9334 20.9011V21.2727L24.5704 21.2382C24.5581 20.5601 24.5223 19.9116 24.4619 19.2826C24.4005 18.6417 24.3129 18.0211 24.1957 17.4108C24.191 17.3858 24.208 17.3615 24.2335 17.3569C24.2589 17.3523 24.2835 17.369 24.2882 17.3941C24.4052 18.0063 24.493 18.6296 24.5552 19.2734C24.6174 19.9172 24.6534 20.5822 24.6657 21.2781C24.6657 21.3031 24.6459 21.3245 24.6203 21.3245C24.6137 21.3281 24.607 21.3301 24.5996 21.3301L22.8907 21.3663C22.8897 21.3663 22.888 21.3663 22.886 21.3663C22.8596 21.3663 22.8389 21.3458 22.8389 21.3199V20.8553C22.8389 20.8302 22.8596 20.8098 22.885 20.8098L24.0872 20.7875C24.0909 20.7875 24.0938 20.7875 24.0966 20.7885C24.1089 20.7865 24.121 20.7885 24.1316 20.795C24.1533 20.8089 24.1599 20.8377 24.1449 20.8591L23.9845 21.1007C23.9761 21.1138 23.9618 21.1221 23.9458 21.1231L23.1287 21.1464ZM25.3339 18.6195C25.3349 18.6232 25.3359 18.627 25.3367 18.6307C25.3895 19.0552 25.4292 19.489 25.4575 19.9342C25.4849 20.3774 25.5009 20.8325 25.5056 21.3008C25.5066 21.3258 25.4849 21.3472 25.4595 21.3472C25.4331 21.3472 25.4123 21.3268 25.4123 21.3008C25.4077 20.8372 25.3916 20.3839 25.3633 19.9398C25.3359 19.505 25.2972 19.0805 25.2453 18.6632L24.6584 18.6502C24.6348 18.6492 24.615 18.6315 24.6131 18.6084C24.5933 18.4087 24.5697 18.2127 24.5413 18.0175C24.5139 17.8242 24.4809 17.632 24.4431 17.4387C24.4384 17.4137 24.4545 17.3894 24.4799 17.3848C24.4846 17.3838 24.4883 17.3838 24.4932 17.3838L25.1018 17.4285C25.1112 17.4295 25.1198 17.4331 25.1262 17.4378C25.147 17.4397 25.164 17.4545 25.1687 17.4749C25.1988 17.6318 25.2234 17.7972 25.2432 17.9616C25.2629 18.127 25.279 18.2924 25.2913 18.4513C25.2932 18.4671 25.2866 18.4828 25.2723 18.493C25.2516 18.5079 25.2213 18.5032 25.2062 18.4819L24.9713 18.1642L24.7996 18.1521C24.7345 18.1465 24.6901 18.1093 24.6723 18.0666C24.6647 18.0498 24.662 18.0331 24.662 18.0163C24.6629 17.9986 24.6676 17.9811 24.677 17.9653C24.6968 17.9328 24.7365 17.9114 24.794 17.917L24.9393 17.9301L24.9723 17.6253C24.9751 17.6003 24.9987 17.5816 25.0241 17.5845C25.0505 17.5872 25.0695 17.6105 25.0666 17.6355L25.0279 17.9847C25.0251 18.0098 25.0024 18.0285 24.976 18.0256L24.7854 18.0088C24.7683 18.0069 24.7599 18.0098 24.757 18.0134C24.756 18.0154 24.756 18.0161 24.756 18.019C24.756 18.0219 24.757 18.0256 24.758 18.0302C24.7646 18.0441 24.7807 18.0571 24.8061 18.0591L24.9995 18.0729C25.0146 18.0739 25.0269 18.0812 25.0345 18.0924L25.1835 18.293C25.1741 18.1871 25.1628 18.0793 25.1495 17.9724C25.1305 17.8182 25.108 17.6649 25.0807 17.52L24.5466 17.4801C24.5806 17.6547 24.6088 17.8284 24.6344 18.005C24.6608 18.1861 24.6825 18.37 24.7015 18.5577L25.2874 18.5708C25.3128 18.5708 25.3335 18.5922 25.3335 18.6182V18.6195H25.3339ZM20.8036 16.8109C20.7772 16.8082 20.7583 16.7858 20.7612 16.7606C20.7632 16.7346 20.7856 16.7159 20.8113 16.7179L25.4086 17.1257C25.57 17.0431 25.756 16.8869 25.8729 16.6667C25.9635 16.4947 26.0116 16.2839 25.9748 16.0376L25.7456 14.5243L20.2656 13.6477C20.4487 15.1787 20.5826 16.5461 20.6724 17.9285C20.6744 17.9591 20.6761 17.9907 20.6781 18.0215L23.0022 18.1777C23.0466 18.1804 23.0984 18.2399 23.1221 18.3086L23.7213 20.0262C23.7467 20.0996 23.727 20.16 23.6816 20.16L20.814 20.1462C20.8017 20.1452 20.7896 20.1415 20.7772 20.135C20.798 20.8318 20.8093 21.5536 20.8113 22.3199L26.4041 22.0347C26.389 21.2097 26.3569 20.332 26.3059 19.4494C26.2568 18.5974 26.1899 17.7427 26.1039 16.93C26.1019 16.904 26.1209 16.8817 26.1463 16.879C26.1717 16.8763 26.1954 16.8948 26.1981 16.9198C26.283 17.7346 26.3501 18.591 26.4002 19.444C26.452 20.3545 26.485 21.2611 26.4983 22.1119C26.4993 22.1314 26.488 22.1481 26.4709 22.1557C26.4586 22.1659 26.4436 22.1724 26.4266 22.1734L20.7299 22.4641C20.7166 22.4641 20.7055 22.4614 20.6941 22.4566C20.6536 22.4464 20.6233 22.4102 20.6233 22.3665C20.6196 20.7565 20.5752 19.3435 20.4847 17.9409C20.3941 16.5409 20.2572 15.152 20.0695 13.5903C20.0628 13.5393 20.1006 13.4927 20.1516 13.4871C20.1723 13.4844 20.1913 13.489 20.2074 13.4973L25.7738 14.3891C25.7871 14.3911 25.7982 14.3967 25.8078 14.404C25.8144 14.4076 25.8191 14.4132 25.8228 14.4198C25.8312 14.4336 25.8352 14.4504 25.8322 14.4681V14.469L26.0681 16.0251C26.1086 16.2927 26.0548 16.523 25.9558 16.7098C25.8266 16.9551 25.6181 17.1268 25.4387 17.2152V17.2142C25.4311 17.2179 25.4227 17.2198 25.4143 17.2188L20.8036 16.8109ZM23.9374 21.6462L23.6769 21.6537C23.6251 21.6556 23.6071 21.6685 23.6354 21.6834L23.6986 21.7149C23.727 21.7288 23.7921 21.74 23.8439 21.7382L24.1044 21.7307C24.1562 21.7298 24.1742 21.7159 24.1449 21.7018L24.0827 21.6703C24.0543 21.6556 23.9882 21.6454 23.9374 21.6462ZM24.1486 21.7531L23.8881 21.7606C23.8363 21.7625 23.8183 21.7754 23.8466 21.7902L23.9098 21.8218C23.9382 21.8357 24.0033 21.8468 24.0551 21.8451L24.3156 21.8376C24.3667 21.8366 24.3854 21.8237 24.3561 21.8087L24.2939 21.7771C24.2657 21.7623 24.1996 21.7521 24.1486 21.7531ZM24.36 21.8599L24.0985 21.8674C24.0475 21.8694 24.0297 21.8823 24.0581 21.8971L24.1202 21.9287C24.1496 21.9435 24.2147 21.9537 24.2655 21.9519L24.527 21.9444C24.5781 21.9435 24.5968 21.9306 24.5675 21.9156L24.5053 21.884C24.4771 21.8692 24.411 21.859 24.36 21.8599ZM24.5714 21.9677L24.3099 21.9752C24.2589 21.9762 24.2411 21.9891 24.2695 22.0041L24.3316 22.0357C24.361 22.0505 24.4259 22.0607 24.477 22.0598L24.7384 22.0523C24.7895 22.0503 24.8082 22.0374 24.7789 22.0226L24.7167 21.991C24.6884 21.977 24.6225 21.9658 24.5714 21.9677ZM23.4117 21.6612L23.1502 21.6687C23.0992 21.6707 23.0814 21.6836 23.1098 21.6984L23.1719 21.73C23.2013 21.7438 23.2664 21.755 23.3172 21.7533L23.5787 21.7457C23.6298 21.7448 23.6485 21.7319 23.6192 21.7169L23.557 21.6853C23.5287 21.6705 23.4627 21.6603 23.4117 21.6612ZM23.6231 21.7679L23.3616 21.7762C23.3106 21.7771 23.2928 21.79 23.3212 21.805L23.3833 21.8366C23.4127 21.8514 23.4778 21.8616 23.5287 21.8607L23.7901 21.8524C23.8412 21.8514 23.8599 21.8385 23.8306 21.8235L23.7684 21.792C23.7391 21.7773 23.674 21.7671 23.6231 21.7679ZM23.8345 21.8757L23.573 21.8832C23.522 21.8842 23.5042 21.8971 23.5326 21.9121L23.5948 21.9437C23.6241 21.9585 23.6892 21.9687 23.7401 21.9677L24.0015 21.9602C24.0526 21.9583 24.0714 21.9454 24.042 21.9306L23.9798 21.899C23.9505 21.8849 23.8854 21.8738 23.8345 21.8757ZM24.0459 21.9826L23.7845 21.9901C23.7334 21.991 23.7156 22.0049 23.744 22.019L23.8062 22.0505C23.8355 22.0654 23.9006 22.0756 23.9515 22.0746L24.2129 22.0671C24.264 22.0652 24.2828 22.0523 24.2534 22.0374L24.1912 22.0059C24.1619 21.9918 24.0968 21.9806 24.0459 21.9826ZM22.8862 21.677L22.6247 21.6845C22.5737 21.6855 22.5549 21.6984 22.5843 21.7134L22.6465 21.745C22.6758 21.7598 22.7409 21.77 22.7918 21.769L23.0532 21.7615C23.1043 21.7596 23.1221 21.7467 23.0937 21.7319L23.0315 21.7003C23.0022 21.6853 22.9371 21.6751 22.8862 21.677ZM23.0974 21.7837L22.836 21.7912C22.7849 21.7921 22.7661 21.805 22.7955 21.8201L22.8577 21.8516C22.887 21.8665 22.9521 21.8767 23.003 21.8757L23.2644 21.8682C23.3155 21.8663 23.3333 21.8534 23.3049 21.8385L23.2427 21.807C23.2136 21.7931 23.1485 21.7819 23.0974 21.7837ZM23.3088 21.8905L23.0474 21.898C22.9963 21.899 22.9775 21.9129 23.0069 21.9269L23.0691 21.9585C23.0974 21.9733 23.1635 21.9835 23.2144 21.9826L23.4759 21.9751C23.5269 21.9731 23.5447 21.9602 23.5163 21.9454L23.4541 21.9138C23.425 21.9 23.3599 21.8888 23.3088 21.8905ZM23.5202 21.9974L23.2588 22.0049C23.2077 22.0068 23.189 22.0197 23.2183 22.0338L23.2805 22.0654C23.3088 22.0802 23.3749 22.0913 23.4258 22.0894L23.6873 22.0819C23.7383 22.08 23.7561 22.0671 23.7277 22.053L23.6655 22.0215C23.6362 22.0066 23.5713 21.9957 23.5202 21.9974ZM21.3811 21.1772C21.3557 21.1781 21.334 21.1577 21.334 21.1317C21.333 21.1067 21.3538 21.0853 21.3802 21.0853L22.2115 21.0705L22.3191 20.9088L21.1744 20.9209V21.3148L22.3596 21.2833C22.386 21.2833 22.4077 21.3027 22.4077 21.3287C22.4086 21.3537 22.3879 21.3751 22.3623 21.3761L21.1328 21.4086C21.1308 21.4086 21.1291 21.4086 21.1271 21.4086C21.1017 21.4086 21.08 21.3882 21.08 21.3622V20.8755H21.0809C21.0809 20.8505 21.1017 20.8291 21.1271 20.8291L22.3877 20.816C22.3905 20.816 22.3944 20.816 22.3971 20.817C22.4094 20.8143 22.4216 20.817 22.4321 20.8235C22.4538 20.8374 22.4605 20.8662 22.4462 20.8876L22.2772 21.1412C22.2688 21.1543 22.2545 21.1626 22.2375 21.1635L21.3811 21.1772ZM16.7781 15.2093C16.7791 15.1314 16.7423 15.0942 16.695 15.1267C16.6488 15.1593 16.6091 15.2484 16.6072 15.3264C16.6062 15.4044 16.643 15.4415 16.6893 15.409C16.7366 15.3765 16.7763 15.2873 16.7781 15.2093ZM16.9754 15.0736C16.9774 15.0049 16.9453 14.9723 16.9037 15.0012C16.8622 15.0291 16.8282 15.1071 16.8262 15.1758C16.8252 15.2446 16.8573 15.2762 16.899 15.2482C16.9404 15.2205 16.9745 15.1416 16.9754 15.0736ZM17.1839 14.9306C17.1859 14.8618 17.1538 14.8293 17.1121 14.8582C17.0707 14.8861 17.0366 14.9641 17.0347 15.0328C17.0337 15.1006 17.0658 15.1331 17.1074 15.1052C17.1491 15.0773 17.1829 14.9983 17.1839 14.9306ZM17.3783 14.7977C17.3793 14.7428 17.3529 14.7168 17.3208 14.7392C17.2877 14.7625 17.2604 14.8247 17.2586 14.8795C17.2576 14.9334 17.284 14.9594 17.3161 14.9371C17.349 14.9148 17.3763 14.8516 17.3783 14.7977ZM17.5793 14.6593C17.5803 14.6109 17.5576 14.5876 17.5283 14.6083C17.4999 14.6277 17.4755 14.6835 17.4745 14.7309C17.4735 14.7792 17.4962 14.8025 17.5256 14.7829C17.5547 14.7625 17.5784 14.7076 17.5793 14.6593ZM17.7878 14.5162C17.7888 14.4679 17.7661 14.4446 17.7368 14.4642C17.7084 14.4846 17.684 14.5395 17.683 14.5878C17.682 14.6362 17.7047 14.6595 17.734 14.6389C17.7634 14.6194 17.7868 14.5636 17.7878 14.5162ZM16.7603 15.5698C16.7623 15.501 16.7292 15.4685 16.6885 15.4974C16.6471 15.5253 16.613 15.6042 16.6111 15.672C16.6101 15.7407 16.6422 15.7733 16.6838 15.7444C16.7243 15.7165 16.7593 15.6385 16.7603 15.5698ZM16.9688 15.4267C16.9707 15.358 16.9377 15.3254 16.897 15.3543C16.8555 15.3822 16.8215 15.4612 16.8196 15.529C16.8186 15.5977 16.8507 15.6302 16.8923 15.6014C16.9328 15.5734 16.9678 15.4945 16.9688 15.4267ZM17.1622 15.2939C17.1632 15.239 17.1377 15.213 17.1047 15.2363C17.0716 15.2586 17.0443 15.3208 17.0433 15.3757C17.0423 15.4306 17.0677 15.4556 17.1008 15.4333C17.1338 15.4109 17.1612 15.3486 17.1622 15.2939ZM17.3642 15.1554C17.3652 15.1071 17.3425 15.0838 17.3132 15.1044C17.2838 15.1239 17.2594 15.1797 17.2584 15.228C17.2574 15.2764 17.2811 15.2987 17.3095 15.279C17.3386 15.2584 17.3632 15.2038 17.3642 15.1554ZM17.5727 15.0124C17.5737 14.9641 17.551 14.9408 17.5216 14.9614C17.4923 14.9808 17.4679 15.0366 17.4669 15.085C17.4659 15.1323 17.4896 15.1556 17.5179 15.136C17.5473 15.1154 17.5717 15.0607 17.5727 15.0124ZM16.7537 15.9227C16.7546 15.8549 16.7226 15.8224 16.6809 15.8503C16.6404 15.8782 16.6054 15.9572 16.6044 16.0249C16.6025 16.0937 16.6355 16.1262 16.6762 16.0973C16.7177 16.0696 16.7517 15.9914 16.7537 15.9227ZM16.9471 15.7898C16.948 15.735 16.9226 15.7099 16.8896 15.7323C16.8565 15.7546 16.8291 15.8168 16.8282 15.8717C16.8272 15.9265 16.8526 15.9525 16.8857 15.9292C16.9187 15.9069 16.9461 15.8447 16.9471 15.7898ZM17.1489 15.6514C17.1499 15.6031 17.1262 15.5798 17.0979 15.6004C17.0685 15.6198 17.0441 15.6757 17.0431 15.724C17.0421 15.7723 17.0648 15.7956 17.0941 15.775C17.1235 15.7556 17.1481 15.6997 17.1489 15.6514ZM17.3576 15.5084C17.3585 15.46 17.3349 15.4367 17.3065 15.4573C17.2772 15.4768 17.2527 15.5326 17.2518 15.5809C17.2508 15.6293 17.2735 15.6516 17.3028 15.632C17.3319 15.6116 17.3566 15.5567 17.3576 15.5084ZM16.7319 16.286C16.7329 16.2321 16.7065 16.2061 16.6745 16.2284C16.6414 16.2508 16.614 16.3139 16.6123 16.3678C16.6113 16.4227 16.6377 16.4487 16.6698 16.4264C16.7026 16.4031 16.73 16.3409 16.7319 16.286ZM16.9328 16.1476C16.9338 16.0992 16.9111 16.0769 16.8818 16.0966C16.8524 16.117 16.8289 16.1718 16.828 16.2202C16.827 16.2685 16.8497 16.2918 16.879 16.2712C16.9074 16.2515 16.932 16.1959 16.9328 16.1476ZM17.1415 16.0045C17.1424 15.9562 17.1198 15.9339 17.0904 15.9535C17.0621 15.9739 17.0376 16.0288 17.0366 16.0771C17.0357 16.1254 17.0583 16.1487 17.0877 16.1281C17.1168 16.1085 17.1405 16.0528 17.1415 16.0045ZM16.7177 16.6445C16.7186 16.5962 16.696 16.5729 16.6666 16.5925C16.6373 16.6129 16.6128 16.6678 16.6119 16.7161C16.6109 16.7645 16.6346 16.7878 16.6629 16.7672C16.6922 16.7477 16.7169 16.6919 16.7177 16.6445ZM16.9263 16.5007C16.9273 16.4524 16.9046 16.43 16.8753 16.4497C16.846 16.4701 16.8215 16.5249 16.8205 16.5733C16.8196 16.6216 16.8432 16.6449 16.8716 16.6243C16.9007 16.6047 16.9254 16.5488 16.9263 16.5007ZM16.7112 16.9976C16.7122 16.9493 16.6885 16.926 16.6602 16.9456C16.6308 16.966 16.6064 17.0209 16.6054 17.0692C16.6044 17.1176 16.6271 17.1409 16.6565 17.1212C16.6856 17.1006 16.7102 17.0459 16.7112 16.9976ZM23.2654 17.8319C23.3041 17.8346 23.3333 17.8681 23.3305 17.9062C23.3278 17.9443 23.2938 17.973 23.2551 17.9713L20.8922 17.8003C20.8535 17.7976 20.8244 17.7641 20.8271 17.726C20.8281 17.7158 20.8308 17.7065 20.8355 17.6981L21.1034 17.1203C21.1158 17.0923 21.1459 17.0775 21.1752 17.0804L23.8881 17.322C23.9268 17.3257 23.9552 17.3592 23.9513 17.3973C23.9503 17.4095 23.9466 17.4197 23.9409 17.4289L23.5805 17.9817L24.3825 20.2773C24.3901 20.2996 24.3852 20.3237 24.3721 20.3424L24.2352 20.5532C24.2219 20.5736 24.1994 20.5857 24.1758 20.5857L21.1365 20.6034C21.0978 20.6034 21.0667 20.5728 21.0657 20.5337C21.0657 20.4956 21.0978 20.465 21.1365 20.464L24.1373 20.4473L24.2382 20.2911L23.4362 17.9955C23.4295 17.9761 23.4315 17.9538 23.4438 17.9351L23.759 17.4501L21.2112 17.2235L21.0035 17.6694L23.2654 17.8319ZM25.8623 23.1374C25.8623 23.0604 25.9255 22.998 26.003 22.998C26.0812 22.998 26.1445 23.0602 26.1445 23.1374L26.1522 28.6593V28.6603V28.663C26.1502 28.7475 26.089 28.8228 26.0012 28.8405L19.7423 30.09C19.6404 30.1105 19.5413 30.0454 19.5205 29.9451C19.5008 29.8448 19.5667 29.7471 19.6678 29.7277L25.8698 28.4891L25.8623 23.1374ZM20.8271 14.0212L24.5874 14.5898C24.6271 14.5963 24.6649 14.6158 24.6931 14.6437C24.7224 14.6726 24.7441 14.7088 24.7488 14.7469L24.9385 16.1096C24.9404 16.1218 24.9404 16.1337 24.9385 16.1441C24.9358 16.1738 24.9234 16.199 24.9035 16.2175C24.8845 16.2361 24.8591 16.249 24.83 16.2527C24.8176 16.2546 24.8045 16.2546 24.7922 16.2527L20.9961 15.8291C20.9499 15.8245 20.9065 15.8031 20.8744 15.7733C20.8404 15.7427 20.8169 15.7026 20.8122 15.6599L20.6556 14.1633C20.6546 14.1502 20.6546 14.1392 20.6566 14.1281C20.6613 14.0975 20.6763 14.0722 20.699 14.0528C20.7197 14.0341 20.7481 14.0231 20.7792 14.0193C20.795 14.0183 20.8103 14.0183 20.8271 14.0212ZM22.7794 14.4103L20.813 14.113C20.8046 14.1111 20.796 14.1111 20.7894 14.1121C20.777 14.113 20.7667 14.1167 20.76 14.1233V14.1223C20.7544 14.1279 20.7506 14.1344 20.7497 14.1417C20.7487 14.1454 20.7487 14.1492 20.7487 14.1529L20.9053 15.6504C20.9081 15.6699 20.9194 15.6895 20.9374 15.7053C20.9564 15.7221 20.9798 15.7342 21.0062 15.7369L24.8024 16.1605C24.8071 16.1614 24.8127 16.1614 24.8165 16.1605C24.8249 16.1595 24.8325 16.1568 24.8372 16.1522C24.8409 16.1476 24.8438 16.141 24.8448 16.1345C24.8458 16.1299 24.8458 16.1262 24.8448 16.1214L24.6551 14.7596C24.6532 14.7419 24.6428 14.7244 24.6277 14.7103C24.6117 14.6955 24.5927 14.6843 24.573 14.6814L22.7794 14.4103ZM26.2625 21.8014C26.2861 21.8116 26.2965 21.8385 26.2861 21.8618C26.2758 21.8859 26.2474 21.8963 26.2239 21.8859L25.4493 21.5459L21.1275 21.6814C21.1011 21.6824 21.0794 21.662 21.0794 21.6368C21.0784 21.6108 21.0984 21.5894 21.1248 21.5894L25.456 21.4529C25.4636 21.4519 25.471 21.4539 25.4777 21.4566L26.2625 21.8014Z"/>
</mask>
<path d="M19.172 30.1642H19.1701H19.1691H19.1681H19.1654C19.0936 30.1632 19.0304 30.1307 18.988 30.0806L16.1241 28.1214C16.0713 28.0852 16.043 28.0276 16.043 27.9691V14.9306C16.043 14.8609 16.0827 14.7996 16.1402 14.7681L18.8257 13.0597C18.9135 13.0048 19.0295 13.03 19.0862 13.1155C19.1106 13.1527 19.1192 13.1954 19.1145 13.2362V22.5167C19.1145 22.5557 19.0909 22.589 19.0561 22.6031C19.0457 22.6152 19.0297 22.6218 19.0126 22.6189L16.6999 22.2148C16.6745 22.2101 16.6565 22.1859 16.6612 22.1608C16.6658 22.1358 16.6905 22.1191 16.7159 22.1237L18.9258 22.5091V13.4376L16.4206 15.0309V27.8722L18.9334 29.5908V23.0918C18.9334 22.9747 19.023 22.8744 19.1448 22.8613L19.8375 22.786C19.8328 21.4111 19.7828 19.2568 19.6478 17.1944C19.5479 15.6662 19.4016 14.1872 19.193 13.1105C19.1693 12.9842 19.2534 12.8635 19.3807 12.8402C19.3901 12.8383 19.3997 12.8375 19.4091 12.8365C19.4184 12.8356 19.428 12.8356 19.4374 12.8365C19.4534 12.8375 19.4695 12.8392 19.4845 12.844L26.1181 13.9282C26.1786 13.9328 26.2314 13.9775 26.2447 14.0387C26.4627 15.1025 26.6344 16.4941 26.7533 17.9543C26.8846 19.5597 26.9544 21.2559 26.9534 22.6949C26.9534 22.7712 26.8902 22.8334 26.8128 22.8334C26.8044 22.8334 26.7968 22.8334 26.7891 22.8315C26.7844 22.8324 26.7797 22.8334 26.7741 22.8334L20.6558 23.2402C20.5783 23.2458 20.5105 23.1873 20.5058 23.111C20.5001 23.034 20.5596 22.968 20.637 22.9633L26.6714 22.5611C26.6677 21.1649 26.5986 19.5318 26.4713 17.9757C26.3561 16.5646 26.193 15.223 25.9873 14.1881L19.6807 13.1581C19.8798 14.2422 20.0204 15.683 20.1176 17.1657C20.2609 19.3562 20.309 21.635 20.309 22.9941C20.309 23.1187 20.2091 23.2208 20.0836 23.2254L19.4051 23.2987V29.9318C19.4051 30.0592 19.3013 30.1632 19.172 30.1642ZM24.7875 19.5997C24.7611 19.6007 24.7404 19.5803 24.7394 19.5543C24.7394 19.5293 24.7601 19.5079 24.7856 19.5079H25.1366L25.1489 19.4892L24.7204 19.4873L24.7288 19.6277L25.2299 19.6211C25.2563 19.6201 25.278 19.6406 25.278 19.6665C25.279 19.6916 25.2582 19.713 25.2326 19.7139L24.6909 19.7214C24.6645 19.7214 24.6428 19.702 24.6428 19.676L24.6258 19.4419C24.6248 19.4159 24.6455 19.3955 24.6719 19.3955L25.2258 19.3964C25.2268 19.3964 25.2285 19.3964 25.2295 19.3964C25.2399 19.3955 25.2502 19.3974 25.2588 19.403C25.2815 19.4168 25.2882 19.4457 25.2739 19.4671L25.2021 19.5786C25.1937 19.5917 25.1794 19.5999 25.1624 19.6009L24.7875 19.5997ZM24.9244 14.6649C25.0367 14.6816 25.1472 14.6984 25.2575 14.7141C25.366 14.7299 25.4736 14.7467 25.5801 14.7625C25.5915 14.7634 25.6046 14.7914 25.6095 14.822C25.6302 14.9502 25.65 15.0784 25.6709 15.2074C25.6916 15.3383 25.7133 15.4695 25.7341 15.6023C25.7397 15.6349 25.735 15.6608 25.7237 15.6599C25.6142 15.6478 25.5048 15.6358 25.3934 15.6237C25.2811 15.6116 25.1689 15.5996 25.0537 15.5865C25.0423 15.5856 25.0283 15.5569 25.0236 15.5234C25.0046 15.3869 24.9858 15.2511 24.9668 15.1173C24.9489 14.9835 24.9301 14.8516 24.9121 14.7207C24.9074 14.6882 24.9131 14.6631 24.9244 14.6649ZM23.1287 21.1464C23.1023 21.1473 23.0806 21.1269 23.0806 21.1009C23.0796 21.0759 23.1004 21.0545 23.126 21.0536L23.9186 21.0312L24.0185 20.8816L22.9334 20.9011V21.2727L24.5704 21.2382C24.5581 20.5601 24.5223 19.9116 24.4619 19.2826C24.4005 18.6417 24.3129 18.0211 24.1957 17.4108C24.191 17.3858 24.208 17.3615 24.2335 17.3569C24.2589 17.3523 24.2835 17.369 24.2882 17.3941C24.4052 18.0063 24.493 18.6296 24.5552 19.2734C24.6174 19.9172 24.6534 20.5822 24.6657 21.2781C24.6657 21.3031 24.6459 21.3245 24.6203 21.3245C24.6137 21.3281 24.607 21.3301 24.5996 21.3301L22.8907 21.3663C22.8897 21.3663 22.888 21.3663 22.886 21.3663C22.8596 21.3663 22.8389 21.3458 22.8389 21.3199V20.8553C22.8389 20.8302 22.8596 20.8098 22.885 20.8098L24.0872 20.7875C24.0909 20.7875 24.0938 20.7875 24.0966 20.7885C24.1089 20.7865 24.121 20.7885 24.1316 20.795C24.1533 20.8089 24.1599 20.8377 24.1449 20.8591L23.9845 21.1007C23.9761 21.1138 23.9618 21.1221 23.9458 21.1231L23.1287 21.1464ZM25.3339 18.6195C25.3349 18.6232 25.3359 18.627 25.3367 18.6307C25.3895 19.0552 25.4292 19.489 25.4575 19.9342C25.4849 20.3774 25.5009 20.8325 25.5056 21.3008C25.5066 21.3258 25.4849 21.3472 25.4595 21.3472C25.4331 21.3472 25.4123 21.3268 25.4123 21.3008C25.4077 20.8372 25.3916 20.3839 25.3633 19.9398C25.3359 19.505 25.2972 19.0805 25.2453 18.6632L24.6584 18.6502C24.6348 18.6492 24.615 18.6315 24.6131 18.6084C24.5933 18.4087 24.5697 18.2127 24.5413 18.0175C24.5139 17.8242 24.4809 17.632 24.4431 17.4387C24.4384 17.4137 24.4545 17.3894 24.4799 17.3848C24.4846 17.3838 24.4883 17.3838 24.4932 17.3838L25.1018 17.4285C25.1112 17.4295 25.1198 17.4331 25.1262 17.4378C25.147 17.4397 25.164 17.4545 25.1687 17.4749C25.1988 17.6318 25.2234 17.7972 25.2432 17.9616C25.2629 18.127 25.279 18.2924 25.2913 18.4513C25.2932 18.4671 25.2866 18.4828 25.2723 18.493C25.2516 18.5079 25.2213 18.5032 25.2062 18.4819L24.9713 18.1642L24.7996 18.1521C24.7345 18.1465 24.6901 18.1093 24.6723 18.0666C24.6647 18.0498 24.662 18.0331 24.662 18.0163C24.6629 17.9986 24.6676 17.9811 24.677 17.9653C24.6968 17.9328 24.7365 17.9114 24.794 17.917L24.9393 17.9301L24.9723 17.6253C24.9751 17.6003 24.9987 17.5816 25.0241 17.5845C25.0505 17.5872 25.0695 17.6105 25.0666 17.6355L25.0279 17.9847C25.0251 18.0098 25.0024 18.0285 24.976 18.0256L24.7854 18.0088C24.7683 18.0069 24.7599 18.0098 24.757 18.0134C24.756 18.0154 24.756 18.0161 24.756 18.019C24.756 18.0219 24.757 18.0256 24.758 18.0302C24.7646 18.0441 24.7807 18.0571 24.8061 18.0591L24.9995 18.0729C25.0146 18.0739 25.0269 18.0812 25.0345 18.0924L25.1835 18.293C25.1741 18.1871 25.1628 18.0793 25.1495 17.9724C25.1305 17.8182 25.108 17.6649 25.0807 17.52L24.5466 17.4801C24.5806 17.6547 24.6088 17.8284 24.6344 18.005C24.6608 18.1861 24.6825 18.37 24.7015 18.5577L25.2874 18.5708C25.3128 18.5708 25.3335 18.5922 25.3335 18.6182V18.6195H25.3339ZM20.8036 16.8109C20.7772 16.8082 20.7583 16.7858 20.7612 16.7606C20.7632 16.7346 20.7856 16.7159 20.8113 16.7179L25.4086 17.1257C25.57 17.0431 25.756 16.8869 25.8729 16.6667C25.9635 16.4947 26.0116 16.2839 25.9748 16.0376L25.7456 14.5243L20.2656 13.6477C20.4487 15.1787 20.5826 16.5461 20.6724 17.9285C20.6744 17.9591 20.6761 17.9907 20.6781 18.0215L23.0022 18.1777C23.0466 18.1804 23.0984 18.2399 23.1221 18.3086L23.7213 20.0262C23.7467 20.0996 23.727 20.16 23.6816 20.16L20.814 20.1462C20.8017 20.1452 20.7896 20.1415 20.7772 20.135C20.798 20.8318 20.8093 21.5536 20.8113 22.3199L26.4041 22.0347C26.389 21.2097 26.3569 20.332 26.3059 19.4494C26.2568 18.5974 26.1899 17.7427 26.1039 16.93C26.1019 16.904 26.1209 16.8817 26.1463 16.879C26.1717 16.8763 26.1954 16.8948 26.1981 16.9198C26.283 17.7346 26.3501 18.591 26.4002 19.444C26.452 20.3545 26.485 21.2611 26.4983 22.1119C26.4993 22.1314 26.488 22.1481 26.4709 22.1557C26.4586 22.1659 26.4436 22.1724 26.4266 22.1734L20.7299 22.4641C20.7166 22.4641 20.7055 22.4614 20.6941 22.4566C20.6536 22.4464 20.6233 22.4102 20.6233 22.3665C20.6196 20.7565 20.5752 19.3435 20.4847 17.9409C20.3941 16.5409 20.2572 15.152 20.0695 13.5903C20.0628 13.5393 20.1006 13.4927 20.1516 13.4871C20.1723 13.4844 20.1913 13.489 20.2074 13.4973L25.7738 14.3891C25.7871 14.3911 25.7982 14.3967 25.8078 14.404C25.8144 14.4076 25.8191 14.4132 25.8228 14.4198C25.8312 14.4336 25.8352 14.4504 25.8322 14.4681V14.469L26.0681 16.0251C26.1086 16.2927 26.0548 16.523 25.9558 16.7098C25.8266 16.9551 25.6181 17.1268 25.4387 17.2152V17.2142C25.4311 17.2179 25.4227 17.2198 25.4143 17.2188L20.8036 16.8109ZM23.9374 21.6462L23.6769 21.6537C23.6251 21.6556 23.6071 21.6685 23.6354 21.6834L23.6986 21.7149C23.727 21.7288 23.7921 21.74 23.8439 21.7382L24.1044 21.7307C24.1562 21.7298 24.1742 21.7159 24.1449 21.7018L24.0827 21.6703C24.0543 21.6556 23.9882 21.6454 23.9374 21.6462ZM24.1486 21.7531L23.8881 21.7606C23.8363 21.7625 23.8183 21.7754 23.8466 21.7902L23.9098 21.8218C23.9382 21.8357 24.0033 21.8468 24.0551 21.8451L24.3156 21.8376C24.3667 21.8366 24.3854 21.8237 24.3561 21.8087L24.2939 21.7771C24.2657 21.7623 24.1996 21.7521 24.1486 21.7531ZM24.36 21.8599L24.0985 21.8674C24.0475 21.8694 24.0297 21.8823 24.0581 21.8971L24.1202 21.9287C24.1496 21.9435 24.2147 21.9537 24.2655 21.9519L24.527 21.9444C24.5781 21.9435 24.5968 21.9306 24.5675 21.9156L24.5053 21.884C24.4771 21.8692 24.411 21.859 24.36 21.8599ZM24.5714 21.9677L24.3099 21.9752C24.2589 21.9762 24.2411 21.9891 24.2695 22.0041L24.3316 22.0357C24.361 22.0505 24.4259 22.0607 24.477 22.0598L24.7384 22.0523C24.7895 22.0503 24.8082 22.0374 24.7789 22.0226L24.7167 21.991C24.6884 21.977 24.6225 21.9658 24.5714 21.9677ZM23.4117 21.6612L23.1502 21.6687C23.0992 21.6707 23.0814 21.6836 23.1098 21.6984L23.1719 21.73C23.2013 21.7438 23.2664 21.755 23.3172 21.7533L23.5787 21.7457C23.6298 21.7448 23.6485 21.7319 23.6192 21.7169L23.557 21.6853C23.5287 21.6705 23.4627 21.6603 23.4117 21.6612ZM23.6231 21.7679L23.3616 21.7762C23.3106 21.7771 23.2928 21.79 23.3212 21.805L23.3833 21.8366C23.4127 21.8514 23.4778 21.8616 23.5287 21.8607L23.7901 21.8524C23.8412 21.8514 23.8599 21.8385 23.8306 21.8235L23.7684 21.792C23.7391 21.7773 23.674 21.7671 23.6231 21.7679ZM23.8345 21.8757L23.573 21.8832C23.522 21.8842 23.5042 21.8971 23.5326 21.9121L23.5948 21.9437C23.6241 21.9585 23.6892 21.9687 23.7401 21.9677L24.0015 21.9602C24.0526 21.9583 24.0714 21.9454 24.042 21.9306L23.9798 21.899C23.9505 21.8849 23.8854 21.8738 23.8345 21.8757ZM24.0459 21.9826L23.7845 21.9901C23.7334 21.991 23.7156 22.0049 23.744 22.019L23.8062 22.0505C23.8355 22.0654 23.9006 22.0756 23.9515 22.0746L24.2129 22.0671C24.264 22.0652 24.2828 22.0523 24.2534 22.0374L24.1912 22.0059C24.1619 21.9918 24.0968 21.9806 24.0459 21.9826ZM22.8862 21.677L22.6247 21.6845C22.5737 21.6855 22.5549 21.6984 22.5843 21.7134L22.6465 21.745C22.6758 21.7598 22.7409 21.77 22.7918 21.769L23.0532 21.7615C23.1043 21.7596 23.1221 21.7467 23.0937 21.7319L23.0315 21.7003C23.0022 21.6853 22.9371 21.6751 22.8862 21.677ZM23.0974 21.7837L22.836 21.7912C22.7849 21.7921 22.7661 21.805 22.7955 21.8201L22.8577 21.8516C22.887 21.8665 22.9521 21.8767 23.003 21.8757L23.2644 21.8682C23.3155 21.8663 23.3333 21.8534 23.3049 21.8385L23.2427 21.807C23.2136 21.7931 23.1485 21.7819 23.0974 21.7837ZM23.3088 21.8905L23.0474 21.898C22.9963 21.899 22.9775 21.9129 23.0069 21.9269L23.0691 21.9585C23.0974 21.9733 23.1635 21.9835 23.2144 21.9826L23.4759 21.9751C23.5269 21.9731 23.5447 21.9602 23.5163 21.9454L23.4541 21.9138C23.425 21.9 23.3599 21.8888 23.3088 21.8905ZM23.5202 21.9974L23.2588 22.0049C23.2077 22.0068 23.189 22.0197 23.2183 22.0338L23.2805 22.0654C23.3088 22.0802 23.3749 22.0913 23.4258 22.0894L23.6873 22.0819C23.7383 22.08 23.7561 22.0671 23.7277 22.053L23.6655 22.0215C23.6362 22.0066 23.5713 21.9957 23.5202 21.9974ZM21.3811 21.1772C21.3557 21.1781 21.334 21.1577 21.334 21.1317C21.333 21.1067 21.3538 21.0853 21.3802 21.0853L22.2115 21.0705L22.3191 20.9088L21.1744 20.9209V21.3148L22.3596 21.2833C22.386 21.2833 22.4077 21.3027 22.4077 21.3287C22.4086 21.3537 22.3879 21.3751 22.3623 21.3761L21.1328 21.4086C21.1308 21.4086 21.1291 21.4086 21.1271 21.4086C21.1017 21.4086 21.08 21.3882 21.08 21.3622V20.8755H21.0809C21.0809 20.8505 21.1017 20.8291 21.1271 20.8291L22.3877 20.816C22.3905 20.816 22.3944 20.816 22.3971 20.817C22.4094 20.8143 22.4216 20.817 22.4321 20.8235C22.4538 20.8374 22.4605 20.8662 22.4462 20.8876L22.2772 21.1412C22.2688 21.1543 22.2545 21.1626 22.2375 21.1635L21.3811 21.1772ZM16.7781 15.2093C16.7791 15.1314 16.7423 15.0942 16.695 15.1267C16.6488 15.1593 16.6091 15.2484 16.6072 15.3264C16.6062 15.4044 16.643 15.4415 16.6893 15.409C16.7366 15.3765 16.7763 15.2873 16.7781 15.2093ZM16.9754 15.0736C16.9774 15.0049 16.9453 14.9723 16.9037 15.0012C16.8622 15.0291 16.8282 15.1071 16.8262 15.1758C16.8252 15.2446 16.8573 15.2762 16.899 15.2482C16.9404 15.2205 16.9745 15.1416 16.9754 15.0736ZM17.1839 14.9306C17.1859 14.8618 17.1538 14.8293 17.1121 14.8582C17.0707 14.8861 17.0366 14.9641 17.0347 15.0328C17.0337 15.1006 17.0658 15.1331 17.1074 15.1052C17.1491 15.0773 17.1829 14.9983 17.1839 14.9306ZM17.3783 14.7977C17.3793 14.7428 17.3529 14.7168 17.3208 14.7392C17.2877 14.7625 17.2604 14.8247 17.2586 14.8795C17.2576 14.9334 17.284 14.9594 17.3161 14.9371C17.349 14.9148 17.3763 14.8516 17.3783 14.7977ZM17.5793 14.6593C17.5803 14.6109 17.5576 14.5876 17.5283 14.6083C17.4999 14.6277 17.4755 14.6835 17.4745 14.7309C17.4735 14.7792 17.4962 14.8025 17.5256 14.7829C17.5547 14.7625 17.5784 14.7076 17.5793 14.6593ZM17.7878 14.5162C17.7888 14.4679 17.7661 14.4446 17.7368 14.4642C17.7084 14.4846 17.684 14.5395 17.683 14.5878C17.682 14.6362 17.7047 14.6595 17.734 14.6389C17.7634 14.6194 17.7868 14.5636 17.7878 14.5162ZM16.7603 15.5698C16.7623 15.501 16.7292 15.4685 16.6885 15.4974C16.6471 15.5253 16.613 15.6042 16.6111 15.672C16.6101 15.7407 16.6422 15.7733 16.6838 15.7444C16.7243 15.7165 16.7593 15.6385 16.7603 15.5698ZM16.9688 15.4267C16.9707 15.358 16.9377 15.3254 16.897 15.3543C16.8555 15.3822 16.8215 15.4612 16.8196 15.529C16.8186 15.5977 16.8507 15.6302 16.8923 15.6014C16.9328 15.5734 16.9678 15.4945 16.9688 15.4267ZM17.1622 15.2939C17.1632 15.239 17.1377 15.213 17.1047 15.2363C17.0716 15.2586 17.0443 15.3208 17.0433 15.3757C17.0423 15.4306 17.0677 15.4556 17.1008 15.4333C17.1338 15.4109 17.1612 15.3486 17.1622 15.2939ZM17.3642 15.1554C17.3652 15.1071 17.3425 15.0838 17.3132 15.1044C17.2838 15.1239 17.2594 15.1797 17.2584 15.228C17.2574 15.2764 17.2811 15.2987 17.3095 15.279C17.3386 15.2584 17.3632 15.2038 17.3642 15.1554ZM17.5727 15.0124C17.5737 14.9641 17.551 14.9408 17.5216 14.9614C17.4923 14.9808 17.4679 15.0366 17.4669 15.085C17.4659 15.1323 17.4896 15.1556 17.5179 15.136C17.5473 15.1154 17.5717 15.0607 17.5727 15.0124ZM16.7537 15.9227C16.7546 15.8549 16.7226 15.8224 16.6809 15.8503C16.6404 15.8782 16.6054 15.9572 16.6044 16.0249C16.6025 16.0937 16.6355 16.1262 16.6762 16.0973C16.7177 16.0696 16.7517 15.9914 16.7537 15.9227ZM16.9471 15.7898C16.948 15.735 16.9226 15.7099 16.8896 15.7323C16.8565 15.7546 16.8291 15.8168 16.8282 15.8717C16.8272 15.9265 16.8526 15.9525 16.8857 15.9292C16.9187 15.9069 16.9461 15.8447 16.9471 15.7898ZM17.1489 15.6514C17.1499 15.6031 17.1262 15.5798 17.0979 15.6004C17.0685 15.6198 17.0441 15.6757 17.0431 15.724C17.0421 15.7723 17.0648 15.7956 17.0941 15.775C17.1235 15.7556 17.1481 15.6997 17.1489 15.6514ZM17.3576 15.5084C17.3585 15.46 17.3349 15.4367 17.3065 15.4573C17.2772 15.4768 17.2527 15.5326 17.2518 15.5809C17.2508 15.6293 17.2735 15.6516 17.3028 15.632C17.3319 15.6116 17.3566 15.5567 17.3576 15.5084ZM16.7319 16.286C16.7329 16.2321 16.7065 16.2061 16.6745 16.2284C16.6414 16.2508 16.614 16.3139 16.6123 16.3678C16.6113 16.4227 16.6377 16.4487 16.6698 16.4264C16.7026 16.4031 16.73 16.3409 16.7319 16.286ZM16.9328 16.1476C16.9338 16.0992 16.9111 16.0769 16.8818 16.0966C16.8524 16.117 16.8289 16.1718 16.828 16.2202C16.827 16.2685 16.8497 16.2918 16.879 16.2712C16.9074 16.2515 16.932 16.1959 16.9328 16.1476ZM17.1415 16.0045C17.1424 15.9562 17.1198 15.9339 17.0904 15.9535C17.0621 15.9739 17.0376 16.0288 17.0366 16.0771C17.0357 16.1254 17.0583 16.1487 17.0877 16.1281C17.1168 16.1085 17.1405 16.0528 17.1415 16.0045ZM16.7177 16.6445C16.7186 16.5962 16.696 16.5729 16.6666 16.5925C16.6373 16.6129 16.6128 16.6678 16.6119 16.7161C16.6109 16.7645 16.6346 16.7878 16.6629 16.7672C16.6922 16.7477 16.7169 16.6919 16.7177 16.6445ZM16.9263 16.5007C16.9273 16.4524 16.9046 16.43 16.8753 16.4497C16.846 16.4701 16.8215 16.5249 16.8205 16.5733C16.8196 16.6216 16.8432 16.6449 16.8716 16.6243C16.9007 16.6047 16.9254 16.5488 16.9263 16.5007ZM16.7112 16.9976C16.7122 16.9493 16.6885 16.926 16.6602 16.9456C16.6308 16.966 16.6064 17.0209 16.6054 17.0692C16.6044 17.1176 16.6271 17.1409 16.6565 17.1212C16.6856 17.1006 16.7102 17.0459 16.7112 16.9976ZM23.2654 17.8319C23.3041 17.8346 23.3333 17.8681 23.3305 17.9062C23.3278 17.9443 23.2938 17.973 23.2551 17.9713L20.8922 17.8003C20.8535 17.7976 20.8244 17.7641 20.8271 17.726C20.8281 17.7158 20.8308 17.7065 20.8355 17.6981L21.1034 17.1203C21.1158 17.0923 21.1459 17.0775 21.1752 17.0804L23.8881 17.322C23.9268 17.3257 23.9552 17.3592 23.9513 17.3973C23.9503 17.4095 23.9466 17.4197 23.9409 17.4289L23.5805 17.9817L24.3825 20.2773C24.3901 20.2996 24.3852 20.3237 24.3721 20.3424L24.2352 20.5532C24.2219 20.5736 24.1994 20.5857 24.1758 20.5857L21.1365 20.6034C21.0978 20.6034 21.0667 20.5728 21.0657 20.5337C21.0657 20.4956 21.0978 20.465 21.1365 20.464L24.1373 20.4473L24.2382 20.2911L23.4362 17.9955C23.4295 17.9761 23.4315 17.9538 23.4438 17.9351L23.759 17.4501L21.2112 17.2235L21.0035 17.6694L23.2654 17.8319ZM25.8623 23.1374C25.8623 23.0604 25.9255 22.998 26.003 22.998C26.0812 22.998 26.1445 23.0602 26.1445 23.1374L26.1522 28.6593V28.6603V28.663C26.1502 28.7475 26.089 28.8228 26.0012 28.8405L19.7423 30.09C19.6404 30.1105 19.5413 30.0454 19.5205 29.9451C19.5008 29.8448 19.5667 29.7471 19.6678 29.7277L25.8698 28.4891L25.8623 23.1374ZM20.8271 14.0212L24.5874 14.5898C24.6271 14.5963 24.6649 14.6158 24.6931 14.6437C24.7224 14.6726 24.7441 14.7088 24.7488 14.7469L24.9385 16.1096C24.9404 16.1218 24.9404 16.1337 24.9385 16.1441C24.9358 16.1738 24.9234 16.199 24.9035 16.2175C24.8845 16.2361 24.8591 16.249 24.83 16.2527C24.8176 16.2546 24.8045 16.2546 24.7922 16.2527L20.9961 15.8291C20.9499 15.8245 20.9065 15.8031 20.8744 15.7733C20.8404 15.7427 20.8169 15.7026 20.8122 15.6599L20.6556 14.1633C20.6546 14.1502 20.6546 14.1392 20.6566 14.1281C20.6613 14.0975 20.6763 14.0722 20.699 14.0528C20.7197 14.0341 20.7481 14.0231 20.7792 14.0193C20.795 14.0183 20.8103 14.0183 20.8271 14.0212ZM22.7794 14.4103L20.813 14.113C20.8046 14.1111 20.796 14.1111 20.7894 14.1121C20.777 14.113 20.7667 14.1167 20.76 14.1233V14.1223C20.7544 14.1279 20.7506 14.1344 20.7497 14.1417C20.7487 14.1454 20.7487 14.1492 20.7487 14.1529L20.9053 15.6504C20.9081 15.6699 20.9194 15.6895 20.9374 15.7053C20.9564 15.7221 20.9798 15.7342 21.0062 15.7369L24.8024 16.1605C24.8071 16.1614 24.8127 16.1614 24.8165 16.1605C24.8249 16.1595 24.8325 16.1568 24.8372 16.1522C24.8409 16.1476 24.8438 16.141 24.8448 16.1345C24.8458 16.1299 24.8458 16.1262 24.8448 16.1214L24.6551 14.7596C24.6532 14.7419 24.6428 14.7244 24.6277 14.7103C24.6117 14.6955 24.5927 14.6843 24.573 14.6814L22.7794 14.4103ZM26.2625 21.8014C26.2861 21.8116 26.2965 21.8385 26.2861 21.8618C26.2758 21.8859 26.2474 21.8963 26.2239 21.8859L25.4493 21.5459L21.1275 21.6814C21.1011 21.6824 21.0794 21.662 21.0794 21.6368C21.0784 21.6108 21.0984 21.5894 21.1248 21.5894L25.456 21.4529C25.4636 21.4519 25.471 21.4539 25.4777 21.4566L26.2625 21.8014Z" fill="#0050AF"/>
<path d="M19.172 30.1642H19.1701H19.1691H19.1681H19.1654C19.0936 30.1632 19.0304 30.1307 18.988 30.0806L16.1241 28.1214C16.0713 28.0852 16.043 28.0276 16.043 27.9691V14.9306C16.043 14.8609 16.0827 14.7996 16.1402 14.7681L18.8257 13.0597C18.9135 13.0048 19.0295 13.03 19.0862 13.1155C19.1106 13.1527 19.1192 13.1954 19.1145 13.2362V22.5167C19.1145 22.5557 19.0909 22.589 19.0561 22.6031C19.0457 22.6152 19.0297 22.6218 19.0126 22.6189L16.6999 22.2148C16.6745 22.2101 16.6565 22.1859 16.6612 22.1608C16.6658 22.1358 16.6905 22.1191 16.7159 22.1237L18.9258 22.5091V13.4376L16.4206 15.0309V27.8722L18.9334 29.5908V23.0918C18.9334 22.9747 19.023 22.8744 19.1448 22.8613L19.8375 22.786C19.8328 21.4111 19.7828 19.2568 19.6478 17.1944C19.5479 15.6662 19.4016 14.1872 19.193 13.1105C19.1693 12.9842 19.2534 12.8635 19.3807 12.8402C19.3901 12.8383 19.3997 12.8375 19.4091 12.8365C19.4184 12.8356 19.428 12.8356 19.4374 12.8365C19.4534 12.8375 19.4695 12.8392 19.4845 12.844L26.1181 13.9282C26.1786 13.9328 26.2314 13.9775 26.2447 14.0387C26.4627 15.1025 26.6344 16.4941 26.7533 17.9543C26.8846 19.5597 26.9544 21.2559 26.9534 22.6949C26.9534 22.7712 26.8902 22.8334 26.8128 22.8334C26.8044 22.8334 26.7968 22.8334 26.7891 22.8315C26.7844 22.8324 26.7797 22.8334 26.7741 22.8334L20.6558 23.2402C20.5783 23.2458 20.5105 23.1873 20.5058 23.111C20.5001 23.034 20.5596 22.968 20.637 22.9633L26.6714 22.5611C26.6677 21.1649 26.5986 19.5318 26.4713 17.9757C26.3561 16.5646 26.193 15.223 25.9873 14.1881L19.6807 13.1581C19.8798 14.2422 20.0204 15.683 20.1176 17.1657C20.2609 19.3562 20.309 21.635 20.309 22.9941C20.309 23.1187 20.2091 23.2208 20.0836 23.2254L19.4051 23.2987V29.9318C19.4051 30.0592 19.3013 30.1632 19.172 30.1642ZM24.7875 19.5997C24.7611 19.6007 24.7404 19.5803 24.7394 19.5543C24.7394 19.5293 24.7601 19.5079 24.7856 19.5079H25.1366L25.1489 19.4892L24.7204 19.4873L24.7288 19.6277L25.2299 19.6211C25.2563 19.6201 25.278 19.6406 25.278 19.6665C25.279 19.6916 25.2582 19.713 25.2326 19.7139L24.6909 19.7214C24.6645 19.7214 24.6428 19.702 24.6428 19.676L24.6258 19.4419C24.6248 19.4159 24.6455 19.3955 24.6719 19.3955L25.2258 19.3964C25.2268 19.3964 25.2285 19.3964 25.2295 19.3964C25.2399 19.3955 25.2502 19.3974 25.2588 19.403C25.2815 19.4168 25.2882 19.4457 25.2739 19.4671L25.2021 19.5786C25.1937 19.5917 25.1794 19.5999 25.1624 19.6009L24.7875 19.5997ZM24.9244 14.6649C25.0367 14.6816 25.1472 14.6984 25.2575 14.7141C25.366 14.7299 25.4736 14.7467 25.5801 14.7625C25.5915 14.7634 25.6046 14.7914 25.6095 14.822C25.6302 14.9502 25.65 15.0784 25.6709 15.2074C25.6916 15.3383 25.7133 15.4695 25.7341 15.6023C25.7397 15.6349 25.735 15.6608 25.7237 15.6599C25.6142 15.6478 25.5048 15.6358 25.3934 15.6237C25.2811 15.6116 25.1689 15.5996 25.0537 15.5865C25.0423 15.5856 25.0283 15.5569 25.0236 15.5234C25.0046 15.3869 24.9858 15.2511 24.9668 15.1173C24.9489 14.9835 24.9301 14.8516 24.9121 14.7207C24.9074 14.6882 24.9131 14.6631 24.9244 14.6649ZM23.1287 21.1464C23.1023 21.1473 23.0806 21.1269 23.0806 21.1009C23.0796 21.0759 23.1004 21.0545 23.126 21.0536L23.9186 21.0312L24.0185 20.8816L22.9334 20.9011V21.2727L24.5704 21.2382C24.5581 20.5601 24.5223 19.9116 24.4619 19.2826C24.4005 18.6417 24.3129 18.0211 24.1957 17.4108C24.191 17.3858 24.208 17.3615 24.2335 17.3569C24.2589 17.3523 24.2835 17.369 24.2882 17.3941C24.4052 18.0063 24.493 18.6296 24.5552 19.2734C24.6174 19.9172 24.6534 20.5822 24.6657 21.2781C24.6657 21.3031 24.6459 21.3245 24.6203 21.3245C24.6137 21.3281 24.607 21.3301 24.5996 21.3301L22.8907 21.3663C22.8897 21.3663 22.888 21.3663 22.886 21.3663C22.8596 21.3663 22.8389 21.3458 22.8389 21.3199V20.8553C22.8389 20.8302 22.8596 20.8098 22.885 20.8098L24.0872 20.7875C24.0909 20.7875 24.0938 20.7875 24.0966 20.7885C24.1089 20.7865 24.121 20.7885 24.1316 20.795C24.1533 20.8089 24.1599 20.8377 24.1449 20.8591L23.9845 21.1007C23.9761 21.1138 23.9618 21.1221 23.9458 21.1231L23.1287 21.1464ZM25.3339 18.6195C25.3349 18.6232 25.3359 18.627 25.3367 18.6307C25.3895 19.0552 25.4292 19.489 25.4575 19.9342C25.4849 20.3774 25.5009 20.8325 25.5056 21.3008C25.5066 21.3258 25.4849 21.3472 25.4595 21.3472C25.4331 21.3472 25.4123 21.3268 25.4123 21.3008C25.4077 20.8372 25.3916 20.3839 25.3633 19.9398C25.3359 19.505 25.2972 19.0805 25.2453 18.6632L24.6584 18.6502C24.6348 18.6492 24.615 18.6315 24.6131 18.6084C24.5933 18.4087 24.5697 18.2127 24.5413 18.0175C24.5139 17.8242 24.4809 17.632 24.4431 17.4387C24.4384 17.4137 24.4545 17.3894 24.4799 17.3848C24.4846 17.3838 24.4883 17.3838 24.4932 17.3838L25.1018 17.4285C25.1112 17.4295 25.1198 17.4331 25.1262 17.4378C25.147 17.4397 25.164 17.4545 25.1687 17.4749C25.1988 17.6318 25.2234 17.7972 25.2432 17.9616C25.2629 18.127 25.279 18.2924 25.2913 18.4513C25.2932 18.4671 25.2866 18.4828 25.2723 18.493C25.2516 18.5079 25.2213 18.5032 25.2062 18.4819L24.9713 18.1642L24.7996 18.1521C24.7345 18.1465 24.6901 18.1093 24.6723 18.0666C24.6647 18.0498 24.662 18.0331 24.662 18.0163C24.6629 17.9986 24.6676 17.9811 24.677 17.9653C24.6968 17.9328 24.7365 17.9114 24.794 17.917L24.9393 17.9301L24.9723 17.6253C24.9751 17.6003 24.9987 17.5816 25.0241 17.5845C25.0505 17.5872 25.0695 17.6105 25.0666 17.6355L25.0279 17.9847C25.0251 18.0098 25.0024 18.0285 24.976 18.0256L24.7854 18.0088C24.7683 18.0069 24.7599 18.0098 24.757 18.0134C24.756 18.0154 24.756 18.0161 24.756 18.019C24.756 18.0219 24.757 18.0256 24.758 18.0302C24.7646 18.0441 24.7807 18.0571 24.8061 18.0591L24.9995 18.0729C25.0146 18.0739 25.0269 18.0812 25.0345 18.0924L25.1835 18.293C25.1741 18.1871 25.1628 18.0793 25.1495 17.9724C25.1305 17.8182 25.108 17.6649 25.0807 17.52L24.5466 17.4801C24.5806 17.6547 24.6088 17.8284 24.6344 18.005C24.6608 18.1861 24.6825 18.37 24.7015 18.5577L25.2874 18.5708C25.3128 18.5708 25.3335 18.5922 25.3335 18.6182V18.6195H25.3339ZM20.8036 16.8109C20.7772 16.8082 20.7583 16.7858 20.7612 16.7606C20.7632 16.7346 20.7856 16.7159 20.8113 16.7179L25.4086 17.1257C25.57 17.0431 25.756 16.8869 25.8729 16.6667C25.9635 16.4947 26.0116 16.2839 25.9748 16.0376L25.7456 14.5243L20.2656 13.6477C20.4487 15.1787 20.5826 16.5461 20.6724 17.9285C20.6744 17.9591 20.6761 17.9907 20.6781 18.0215L23.0022 18.1777C23.0466 18.1804 23.0984 18.2399 23.1221 18.3086L23.7213 20.0262C23.7467 20.0996 23.727 20.16 23.6816 20.16L20.814 20.1462C20.8017 20.1452 20.7896 20.1415 20.7772 20.135C20.798 20.8318 20.8093 21.5536 20.8113 22.3199L26.4041 22.0347C26.389 21.2097 26.3569 20.332 26.3059 19.4494C26.2568 18.5974 26.1899 17.7427 26.1039 16.93C26.1019 16.904 26.1209 16.8817 26.1463 16.879C26.1717 16.8763 26.1954 16.8948 26.1981 16.9198C26.283 17.7346 26.3501 18.591 26.4002 19.444C26.452 20.3545 26.485 21.2611 26.4983 22.1119C26.4993 22.1314 26.488 22.1481 26.4709 22.1557C26.4586 22.1659 26.4436 22.1724 26.4266 22.1734L20.7299 22.4641C20.7166 22.4641 20.7055 22.4614 20.6941 22.4566C20.6536 22.4464 20.6233 22.4102 20.6233 22.3665C20.6196 20.7565 20.5752 19.3435 20.4847 17.9409C20.3941 16.5409 20.2572 15.152 20.0695 13.5903C20.0628 13.5393 20.1006 13.4927 20.1516 13.4871C20.1723 13.4844 20.1913 13.489 20.2074 13.4973L25.7738 14.3891C25.7871 14.3911 25.7982 14.3967 25.8078 14.404C25.8144 14.4076 25.8191 14.4132 25.8228 14.4198C25.8312 14.4336 25.8352 14.4504 25.8322 14.4681V14.469L26.0681 16.0251C26.1086 16.2927 26.0548 16.523 25.9558 16.7098C25.8266 16.9551 25.6181 17.1268 25.4387 17.2152V17.2142C25.4311 17.2179 25.4227 17.2198 25.4143 17.2188L20.8036 16.8109ZM23.9374 21.6462L23.6769 21.6537C23.6251 21.6556 23.6071 21.6685 23.6354 21.6834L23.6986 21.7149C23.727 21.7288 23.7921 21.74 23.8439 21.7382L24.1044 21.7307C24.1562 21.7298 24.1742 21.7159 24.1449 21.7018L24.0827 21.6703C24.0543 21.6556 23.9882 21.6454 23.9374 21.6462ZM24.1486 21.7531L23.8881 21.7606C23.8363 21.7625 23.8183 21.7754 23.8466 21.7902L23.9098 21.8218C23.9382 21.8357 24.0033 21.8468 24.0551 21.8451L24.3156 21.8376C24.3667 21.8366 24.3854 21.8237 24.3561 21.8087L24.2939 21.7771C24.2657 21.7623 24.1996 21.7521 24.1486 21.7531ZM24.36 21.8599L24.0985 21.8674C24.0475 21.8694 24.0297 21.8823 24.0581 21.8971L24.1202 21.9287C24.1496 21.9435 24.2147 21.9537 24.2655 21.9519L24.527 21.9444C24.5781 21.9435 24.5968 21.9306 24.5675 21.9156L24.5053 21.884C24.4771 21.8692 24.411 21.859 24.36 21.8599ZM24.5714 21.9677L24.3099 21.9752C24.2589 21.9762 24.2411 21.9891 24.2695 22.0041L24.3316 22.0357C24.361 22.0505 24.4259 22.0607 24.477 22.0598L24.7384 22.0523C24.7895 22.0503 24.8082 22.0374 24.7789 22.0226L24.7167 21.991C24.6884 21.977 24.6225 21.9658 24.5714 21.9677ZM23.4117 21.6612L23.1502 21.6687C23.0992 21.6707 23.0814 21.6836 23.1098 21.6984L23.1719 21.73C23.2013 21.7438 23.2664 21.755 23.3172 21.7533L23.5787 21.7457C23.6298 21.7448 23.6485 21.7319 23.6192 21.7169L23.557 21.6853C23.5287 21.6705 23.4627 21.6603 23.4117 21.6612ZM23.6231 21.7679L23.3616 21.7762C23.3106 21.7771 23.2928 21.79 23.3212 21.805L23.3833 21.8366C23.4127 21.8514 23.4778 21.8616 23.5287 21.8607L23.7901 21.8524C23.8412 21.8514 23.8599 21.8385 23.8306 21.8235L23.7684 21.792C23.7391 21.7773 23.674 21.7671 23.6231 21.7679ZM23.8345 21.8757L23.573 21.8832C23.522 21.8842 23.5042 21.8971 23.5326 21.9121L23.5948 21.9437C23.6241 21.9585 23.6892 21.9687 23.7401 21.9677L24.0015 21.9602C24.0526 21.9583 24.0714 21.9454 24.042 21.9306L23.9798 21.899C23.9505 21.8849 23.8854 21.8738 23.8345 21.8757ZM24.0459 21.9826L23.7845 21.9901C23.7334 21.991 23.7156 22.0049 23.744 22.019L23.8062 22.0505C23.8355 22.0654 23.9006 22.0756 23.9515 22.0746L24.2129 22.0671C24.264 22.0652 24.2828 22.0523 24.2534 22.0374L24.1912 22.0059C24.1619 21.9918 24.0968 21.9806 24.0459 21.9826ZM22.8862 21.677L22.6247 21.6845C22.5737 21.6855 22.5549 21.6984 22.5843 21.7134L22.6465 21.745C22.6758 21.7598 22.7409 21.77 22.7918 21.769L23.0532 21.7615C23.1043 21.7596 23.1221 21.7467 23.0937 21.7319L23.0315 21.7003C23.0022 21.6853 22.9371 21.6751 22.8862 21.677ZM23.0974 21.7837L22.836 21.7912C22.7849 21.7921 22.7661 21.805 22.7955 21.8201L22.8577 21.8516C22.887 21.8665 22.9521 21.8767 23.003 21.8757L23.2644 21.8682C23.3155 21.8663 23.3333 21.8534 23.3049 21.8385L23.2427 21.807C23.2136 21.7931 23.1485 21.7819 23.0974 21.7837ZM23.3088 21.8905L23.0474 21.898C22.9963 21.899 22.9775 21.9129 23.0069 21.9269L23.0691 21.9585C23.0974 21.9733 23.1635 21.9835 23.2144 21.9826L23.4759 21.9751C23.5269 21.9731 23.5447 21.9602 23.5163 21.9454L23.4541 21.9138C23.425 21.9 23.3599 21.8888 23.3088 21.8905ZM23.5202 21.9974L23.2588 22.0049C23.2077 22.0068 23.189 22.0197 23.2183 22.0338L23.2805 22.0654C23.3088 22.0802 23.3749 22.0913 23.4258 22.0894L23.6873 22.0819C23.7383 22.08 23.7561 22.0671 23.7277 22.053L23.6655 22.0215C23.6362 22.0066 23.5713 21.9957 23.5202 21.9974ZM21.3811 21.1772C21.3557 21.1781 21.334 21.1577 21.334 21.1317C21.333 21.1067 21.3538 21.0853 21.3802 21.0853L22.2115 21.0705L22.3191 20.9088L21.1744 20.9209V21.3148L22.3596 21.2833C22.386 21.2833 22.4077 21.3027 22.4077 21.3287C22.4086 21.3537 22.3879 21.3751 22.3623 21.3761L21.1328 21.4086C21.1308 21.4086 21.1291 21.4086 21.1271 21.4086C21.1017 21.4086 21.08 21.3882 21.08 21.3622V20.8755H21.0809C21.0809 20.8505 21.1017 20.8291 21.1271 20.8291L22.3877 20.816C22.3905 20.816 22.3944 20.816 22.3971 20.817C22.4094 20.8143 22.4216 20.817 22.4321 20.8235C22.4538 20.8374 22.4605 20.8662 22.4462 20.8876L22.2772 21.1412C22.2688 21.1543 22.2545 21.1626 22.2375 21.1635L21.3811 21.1772ZM16.7781 15.2093C16.7791 15.1314 16.7423 15.0942 16.695 15.1267C16.6488 15.1593 16.6091 15.2484 16.6072 15.3264C16.6062 15.4044 16.643 15.4415 16.6893 15.409C16.7366 15.3765 16.7763 15.2873 16.7781 15.2093ZM16.9754 15.0736C16.9774 15.0049 16.9453 14.9723 16.9037 15.0012C16.8622 15.0291 16.8282 15.1071 16.8262 15.1758C16.8252 15.2446 16.8573 15.2762 16.899 15.2482C16.9404 15.2205 16.9745 15.1416 16.9754 15.0736ZM17.1839 14.9306C17.1859 14.8618 17.1538 14.8293 17.1121 14.8582C17.0707 14.8861 17.0366 14.9641 17.0347 15.0328C17.0337 15.1006 17.0658 15.1331 17.1074 15.1052C17.1491 15.0773 17.1829 14.9983 17.1839 14.9306ZM17.3783 14.7977C17.3793 14.7428 17.3529 14.7168 17.3208 14.7392C17.2877 14.7625 17.2604 14.8247 17.2586 14.8795C17.2576 14.9334 17.284 14.9594 17.3161 14.9371C17.349 14.9148 17.3763 14.8516 17.3783 14.7977ZM17.5793 14.6593C17.5803 14.6109 17.5576 14.5876 17.5283 14.6083C17.4999 14.6277 17.4755 14.6835 17.4745 14.7309C17.4735 14.7792 17.4962 14.8025 17.5256 14.7829C17.5547 14.7625 17.5784 14.7076 17.5793 14.6593ZM17.7878 14.5162C17.7888 14.4679 17.7661 14.4446 17.7368 14.4642C17.7084 14.4846 17.684 14.5395 17.683 14.5878C17.682 14.6362 17.7047 14.6595 17.734 14.6389C17.7634 14.6194 17.7868 14.5636 17.7878 14.5162ZM16.7603 15.5698C16.7623 15.501 16.7292 15.4685 16.6885 15.4974C16.6471 15.5253 16.613 15.6042 16.6111 15.672C16.6101 15.7407 16.6422 15.7733 16.6838 15.7444C16.7243 15.7165 16.7593 15.6385 16.7603 15.5698ZM16.9688 15.4267C16.9707 15.358 16.9377 15.3254 16.897 15.3543C16.8555 15.3822 16.8215 15.4612 16.8196 15.529C16.8186 15.5977 16.8507 15.6302 16.8923 15.6014C16.9328 15.5734 16.9678 15.4945 16.9688 15.4267ZM17.1622 15.2939C17.1632 15.239 17.1377 15.213 17.1047 15.2363C17.0716 15.2586 17.0443 15.3208 17.0433 15.3757C17.0423 15.4306 17.0677 15.4556 17.1008 15.4333C17.1338 15.4109 17.1612 15.3486 17.1622 15.2939ZM17.3642 15.1554C17.3652 15.1071 17.3425 15.0838 17.3132 15.1044C17.2838 15.1239 17.2594 15.1797 17.2584 15.228C17.2574 15.2764 17.2811 15.2987 17.3095 15.279C17.3386 15.2584 17.3632 15.2038 17.3642 15.1554ZM17.5727 15.0124C17.5737 14.9641 17.551 14.9408 17.5216 14.9614C17.4923 14.9808 17.4679 15.0366 17.4669 15.085C17.4659 15.1323 17.4896 15.1556 17.5179 15.136C17.5473 15.1154 17.5717 15.0607 17.5727 15.0124ZM16.7537 15.9227C16.7546 15.8549 16.7226 15.8224 16.6809 15.8503C16.6404 15.8782 16.6054 15.9572 16.6044 16.0249C16.6025 16.0937 16.6355 16.1262 16.6762 16.0973C16.7177 16.0696 16.7517 15.9914 16.7537 15.9227ZM16.9471 15.7898C16.948 15.735 16.9226 15.7099 16.8896 15.7323C16.8565 15.7546 16.8291 15.8168 16.8282 15.8717C16.8272 15.9265 16.8526 15.9525 16.8857 15.9292C16.9187 15.9069 16.9461 15.8447 16.9471 15.7898ZM17.1489 15.6514C17.1499 15.6031 17.1262 15.5798 17.0979 15.6004C17.0685 15.6198 17.0441 15.6757 17.0431 15.724C17.0421 15.7723 17.0648 15.7956 17.0941 15.775C17.1235 15.7556 17.1481 15.6997 17.1489 15.6514ZM17.3576 15.5084C17.3585 15.46 17.3349 15.4367 17.3065 15.4573C17.2772 15.4768 17.2527 15.5326 17.2518 15.5809C17.2508 15.6293 17.2735 15.6516 17.3028 15.632C17.3319 15.6116 17.3566 15.5567 17.3576 15.5084ZM16.7319 16.286C16.7329 16.2321 16.7065 16.2061 16.6745 16.2284C16.6414 16.2508 16.614 16.3139 16.6123 16.3678C16.6113 16.4227 16.6377 16.4487 16.6698 16.4264C16.7026 16.4031 16.73 16.3409 16.7319 16.286ZM16.9328 16.1476C16.9338 16.0992 16.9111 16.0769 16.8818 16.0966C16.8524 16.117 16.8289 16.1718 16.828 16.2202C16.827 16.2685 16.8497 16.2918 16.879 16.2712C16.9074 16.2515 16.932 16.1959 16.9328 16.1476ZM17.1415 16.0045C17.1424 15.9562 17.1198 15.9339 17.0904 15.9535C17.0621 15.9739 17.0376 16.0288 17.0366 16.0771C17.0357 16.1254 17.0583 16.1487 17.0877 16.1281C17.1168 16.1085 17.1405 16.0528 17.1415 16.0045ZM16.7177 16.6445C16.7186 16.5962 16.696 16.5729 16.6666 16.5925C16.6373 16.6129 16.6128 16.6678 16.6119 16.7161C16.6109 16.7645 16.6346 16.7878 16.6629 16.7672C16.6922 16.7477 16.7169 16.6919 16.7177 16.6445ZM16.9263 16.5007C16.9273 16.4524 16.9046 16.43 16.8753 16.4497C16.846 16.4701 16.8215 16.5249 16.8205 16.5733C16.8196 16.6216 16.8432 16.6449 16.8716 16.6243C16.9007 16.6047 16.9254 16.5488 16.9263 16.5007ZM16.7112 16.9976C16.7122 16.9493 16.6885 16.926 16.6602 16.9456C16.6308 16.966 16.6064 17.0209 16.6054 17.0692C16.6044 17.1176 16.6271 17.1409 16.6565 17.1212C16.6856 17.1006 16.7102 17.0459 16.7112 16.9976ZM23.2654 17.8319C23.3041 17.8346 23.3333 17.8681 23.3305 17.9062C23.3278 17.9443 23.2938 17.973 23.2551 17.9713L20.8922 17.8003C20.8535 17.7976 20.8244 17.7641 20.8271 17.726C20.8281 17.7158 20.8308 17.7065 20.8355 17.6981L21.1034 17.1203C21.1158 17.0923 21.1459 17.0775 21.1752 17.0804L23.8881 17.322C23.9268 17.3257 23.9552 17.3592 23.9513 17.3973C23.9503 17.4095 23.9466 17.4197 23.9409 17.4289L23.5805 17.9817L24.3825 20.2773C24.3901 20.2996 24.3852 20.3237 24.3721 20.3424L24.2352 20.5532C24.2219 20.5736 24.1994 20.5857 24.1758 20.5857L21.1365 20.6034C21.0978 20.6034 21.0667 20.5728 21.0657 20.5337C21.0657 20.4956 21.0978 20.465 21.1365 20.464L24.1373 20.4473L24.2382 20.2911L23.4362 17.9955C23.4295 17.9761 23.4315 17.9538 23.4438 17.9351L23.759 17.4501L21.2112 17.2235L21.0035 17.6694L23.2654 17.8319ZM25.8623 23.1374C25.8623 23.0604 25.9255 22.998 26.003 22.998C26.0812 22.998 26.1445 23.0602 26.1445 23.1374L26.1522 28.6593V28.6603V28.663C26.1502 28.7475 26.089 28.8228 26.0012 28.8405L19.7423 30.09C19.6404 30.1105 19.5413 30.0454 19.5205 29.9451C19.5008 29.8448 19.5667 29.7471 19.6678 29.7277L25.8698 28.4891L25.8623 23.1374ZM20.8271 14.0212L24.5874 14.5898C24.6271 14.5963 24.6649 14.6158 24.6931 14.6437C24.7224 14.6726 24.7441 14.7088 24.7488 14.7469L24.9385 16.1096C24.9404 16.1218 24.9404 16.1337 24.9385 16.1441C24.9358 16.1738 24.9234 16.199 24.9035 16.2175C24.8845 16.2361 24.8591 16.249 24.83 16.2527C24.8176 16.2546 24.8045 16.2546 24.7922 16.2527L20.9961 15.8291C20.9499 15.8245 20.9065 15.8031 20.8744 15.7733C20.8404 15.7427 20.8169 15.7026 20.8122 15.6599L20.6556 14.1633C20.6546 14.1502 20.6546 14.1392 20.6566 14.1281C20.6613 14.0975 20.6763 14.0722 20.699 14.0528C20.7197 14.0341 20.7481 14.0231 20.7792 14.0193C20.795 14.0183 20.8103 14.0183 20.8271 14.0212ZM22.7794 14.4103L20.813 14.113C20.8046 14.1111 20.796 14.1111 20.7894 14.1121C20.777 14.113 20.7667 14.1167 20.76 14.1233V14.1223C20.7544 14.1279 20.7506 14.1344 20.7497 14.1417C20.7487 14.1454 20.7487 14.1492 20.7487 14.1529L20.9053 15.6504C20.9081 15.6699 20.9194 15.6895 20.9374 15.7053C20.9564 15.7221 20.9798 15.7342 21.0062 15.7369L24.8024 16.1605C24.8071 16.1614 24.8127 16.1614 24.8165 16.1605C24.8249 16.1595 24.8325 16.1568 24.8372 16.1522C24.8409 16.1476 24.8438 16.141 24.8448 16.1345C24.8458 16.1299 24.8458 16.1262 24.8448 16.1214L24.6551 14.7596C24.6532 14.7419 24.6428 14.7244 24.6277 14.7103C24.6117 14.6955 24.5927 14.6843 24.573 14.6814L22.7794 14.4103ZM26.2625 21.8014C26.2861 21.8116 26.2965 21.8385 26.2861 21.8618C26.2758 21.8859 26.2474 21.8963 26.2239 21.8859L25.4493 21.5459L21.1275 21.6814C21.1011 21.6824 21.0794 21.662 21.0794 21.6368C21.0784 21.6108 21.0984 21.5894 21.1248 21.5894L25.456 21.4529C25.4636 21.4519 25.471 21.4539 25.4777 21.4566L26.2625 21.8014Z" stroke="#0050AF" stroke-width="0.6" mask="url(#path-2-outside-1)"/>
</svg>
