<svg width="40" height="40" viewBox="0 0 40 40" fill="none" xmlns="http://www.w3.org/2000/svg">
<circle cx="20" cy="20" r="20" fill="#E8F7FF"/>
<path d="M10.1098 14.2716L10.3955 14.3127L19.6114 15.6403C20.061 15.7049 20.409 16.0874 20.5059 16.5038C20.5059 16.5039 20.5059 16.504 20.5059 16.5041L22.2426 23.9132C22.2926 24.1258 22.2767 24.3444 22.203 24.5375C24.9534 24.54 27.7037 24.5409 30.4541 24.5409L30.5162 24.7949L30.7023 24.8046C30.7009 24.8321 30.6996 24.8597 30.6983 24.8883L30.6983 24.8895C30.697 24.9174 30.6957 24.9462 30.6942 24.9751C30.6928 25.0026 30.6915 25.0302 30.6902 25.0588C30.6889 25.0871 30.6876 25.1163 30.6861 25.1457M10.1098 14.2716L30.0057 25.4746V25.7246C30.0059 25.7246 30.0062 25.7246 30.0064 25.7246C30.1754 25.7244 30.3349 25.6674 30.4579 25.5696L30.4588 25.5688C30.5772 25.4737 30.6771 25.3272 30.6861 25.1457M10.1098 14.2716V14.313V14.2716ZM30.6861 25.1457L30.4364 25.1327L30.6861 25.1445C30.6861 25.1449 30.6861 25.1453 30.6861 25.1457ZM30.4541 24.7945V24.7917V24.7945ZM11.6785 24.9692V25.0905C11.6785 25.4136 11.9479 25.6608 12.2604 25.6608H19.9549C19.9596 25.6608 19.9642 25.6607 19.9688 25.6606C20.099 25.737 20.2464 25.7668 20.3756 25.7661C20.3758 25.7661 20.3759 25.7661 20.376 25.7661L11.6785 24.9692ZM11.1809 19.6142C10.8964 18.1894 10.6119 16.7645 10.3272 15.3397L19.4648 16.6559C19.4651 16.6561 19.4654 16.6563 19.4658 16.6565C19.4712 16.6596 19.4797 16.6658 19.4895 16.676C19.5106 16.698 19.5236 16.7237 19.5276 16.7413L19.5278 16.7422L19.5307 16.7542C20.1047 19.2031 20.6787 21.652 21.252 24.1009C19.2398 24.0908 17.2272 24.0801 15.2148 24.0693C14.1908 24.0639 13.1669 24.0584 12.143 24.053L12.1429 24.053C12.1238 24.0529 12.0599 24.017 12.0471 23.951L12.0468 23.9498C11.7582 22.5052 11.4697 21.0606 11.1812 19.6159L11.181 19.6147L11.1809 19.6142Z" fill="#0050AF" stroke="#0050AF" stroke-width="0.5"/>
</svg>
