<svg width="189" height="44" viewBox="0 0 189 44" fill="none" xmlns="http://www.w3.org/2000/svg">
<path d="M61.1843 5.34421C61.1843 6.63584 60.6999 7.76602 60.0541 8.57328C59.0854 9.54201 57.9552 10.0264 56.5021 10.0264C55.049 10.0264 53.9189 9.54201 52.9502 8.57328C51.9814 7.60456 51.4971 6.47439 51.4971 5.0213C51.4971 3.56822 51.9814 2.43804 52.9502 1.46932C53.9189 0.500601 55.049 0.0162401 56.5021 0.0162401C57.1479 0.0162401 57.7938 0.177693 58.4396 0.500601C59.0854 0.823508 59.5698 1.14642 59.8927 1.63078L59.0854 2.43805C58.4396 1.63078 57.6323 1.30787 56.3407 1.30787C55.372 1.30787 54.4032 1.63078 53.7574 2.43805C52.9502 3.08386 52.6272 4.05258 52.6272 5.18276C52.6272 6.31293 52.9502 7.28165 53.7574 7.92747C54.5647 8.57328 55.372 9.05764 56.3407 9.05764C57.4709 9.05764 58.2781 8.73474 59.0854 7.92747C59.5698 7.44311 59.8927 6.79729 59.8927 5.99003H56.3407V4.85985H61.0228C61.1843 4.85985 61.1843 5.18276 61.1843 5.34421Z" fill="#575A65"/>
<path d="M68.7722 1.30741H64.413V4.37503H68.4493V5.50521H64.413V8.57283H68.7722V9.703H63.1213V0.177238H68.7722V1.30741Z" fill="#575A65"/>
<path d="M73.9381 9.703H72.6465V1.30741H70.0632V0.177238H76.6828V1.30741H73.9381V9.703Z" fill="#575A65"/>
<path d="M81.5344 9.703V0.177238H82.8261V9.703H81.5344Z" fill="#575A65"/>
<path d="M88.3125 9.703H87.0208V1.30741H84.2761V0.177238H91.0572V1.30741H88.3125V9.703Z" fill="#575A65"/>
<path d="M103.653 8.57328C102.684 9.54201 101.554 10.0264 100.101 10.0264C98.6479 10.0264 97.5178 9.54201 96.549 8.57328C95.5803 7.60456 95.0959 6.47439 95.0959 5.0213C95.0959 3.56822 95.5803 2.43804 96.549 1.46932C97.5178 0.500601 98.6479 0.0162401 100.101 0.0162401C101.554 0.0162401 102.684 0.500601 103.653 1.46932C104.622 2.43804 105.106 3.56822 105.106 5.0213C105.106 6.31293 104.622 7.60456 103.653 8.57328ZM97.3563 7.76602C98.0021 8.41183 98.9708 8.89619 99.9396 8.89619C100.908 8.89619 101.877 8.57328 102.523 7.76602C103.169 7.1202 103.653 6.15148 103.653 5.0213C103.653 3.89113 103.33 2.92241 102.523 2.27659C101.877 1.63078 100.908 1.14642 99.9396 1.14642C98.9708 1.14642 98.0021 1.46932 97.3563 2.27659C96.7105 2.92241 96.2261 3.89113 96.2261 5.0213C96.3876 6.15148 96.7105 6.95875 97.3563 7.76602Z" fill="#575A65"/>
<path d="M106.879 9.703V0.177238H108.332L113.014 7.60411V5.82811V0.177238H114.306V9.703H113.014L108.009 1.95323V3.72922V9.703H106.879Z" fill="#575A65"/>
<path d="M95.0942 23.7501C91.2193 23.7501 88.1517 26.6562 88.1517 30.5311C88.1517 34.406 91.2193 37.3122 95.0942 37.3122C98.9691 37.3122 102.037 34.406 102.037 30.5311C102.037 26.6562 98.9691 23.7501 95.0942 23.7501ZM95.0942 34.7289C92.9953 34.7289 91.2193 32.9529 91.2193 30.5311C91.2193 28.1093 92.9953 26.3333 95.0942 26.3333C97.1931 26.3333 98.9691 27.9479 98.9691 30.5311C98.9691 32.9529 97.1931 34.7289 95.0942 34.7289ZM80.079 23.7501C76.2041 23.7501 73.1365 26.6562 73.1365 30.5311C73.1365 34.406 76.2041 37.3122 80.079 37.3122C83.9539 37.3122 87.0215 34.406 87.0215 30.5311C86.8601 26.6562 83.7924 23.7501 80.079 23.7501ZM80.079 34.7289C77.9801 34.7289 76.2041 32.9529 76.2041 30.5311C76.2041 28.1093 77.9801 26.3333 80.079 26.3333C82.1779 26.3333 83.9539 27.9479 83.9539 30.5311C83.9539 32.9529 82.1779 34.7289 80.079 34.7289ZM62.1577 25.849V28.7551H69.1002C68.9387 30.3697 68.2929 31.4999 67.4856 32.3071C66.5169 33.2759 64.9024 34.406 62.1577 34.406C57.7984 34.406 54.5693 31.0155 54.5693 26.6563C54.5693 22.297 57.9599 18.9065 62.1577 18.9065C64.418 18.9065 66.194 19.8752 67.4856 21.0054L69.5845 18.9065C67.8085 17.2919 65.5482 16.0003 62.3191 16.0003C56.3453 16.0003 51.5017 20.6825 51.5017 26.4948C51.5017 32.3071 56.5068 36.9893 62.3191 36.9893C65.5482 36.9893 67.97 36.0206 69.746 34.0831C71.6834 32.1457 72.3292 29.5624 72.3292 27.3021C72.3292 26.6562 72.3292 26.0104 72.1678 25.5261C71.8449 25.849 62.1577 25.849 62.1577 25.849ZM135.458 28.1093C134.812 26.6562 133.197 23.7501 129.484 23.7501C125.932 23.7501 123.026 26.4948 123.026 30.5311C123.026 34.406 125.932 37.3122 129.807 37.3122C133.036 37.3122 134.812 35.3748 135.619 34.2446L133.197 32.63C132.39 33.7602 131.421 34.5675 129.807 34.5675C128.354 34.5675 127.223 33.9217 126.416 32.4686L135.619 28.7551C135.781 28.9166 135.458 28.1093 135.458 28.1093ZM126.093 30.3697C126.093 27.7864 128.192 26.3333 129.645 26.3333C130.775 26.3333 131.906 26.9792 132.229 27.7864L126.093 30.3697ZM118.505 36.9893H121.573V16.969H118.505V36.9893ZM113.661 25.2032C112.854 24.3959 111.562 23.7501 109.948 23.7501C106.557 23.7501 103.328 26.8177 103.328 30.5311C103.328 34.406 106.557 37.3122 109.948 37.3122C111.562 37.3122 112.854 36.6664 113.5 35.6977H113.661V36.6664C113.661 39.2496 112.208 40.7027 109.948 40.7027C108.172 40.7027 106.88 39.4111 106.557 38.2809L103.974 39.4111C104.781 41.1871 106.719 43.4474 110.109 43.4474C113.661 43.4474 116.729 41.3485 116.729 36.3435V24.073H113.823L113.661 25.2032ZM110.109 34.7289C108.01 34.7289 106.234 32.9529 106.234 30.6926C106.234 28.2708 108.01 26.4948 110.109 26.4948C112.208 26.4948 113.823 28.2708 113.823 30.6926C113.823 32.9529 112.208 34.7289 110.109 34.7289ZM149.504 16.969H142.239V36.9893H145.306V29.401H149.504C152.895 29.401 156.124 26.9792 156.124 23.2657C156.285 19.3908 152.895 16.969 149.504 16.969ZM149.666 26.6563H145.306V19.7137H149.666C151.926 19.7137 153.218 21.4897 153.218 23.1043C153.218 24.7188 151.926 26.6563 149.666 26.6563ZM168.394 23.7501C166.134 23.7501 163.873 24.7188 163.066 26.8177L165.811 27.9479C166.457 26.8177 167.425 26.4948 168.556 26.4948C170.17 26.4948 171.785 27.4635 171.785 29.0781V29.2395C171.3 28.9166 170.009 28.4322 168.556 28.4322C165.649 28.4322 162.743 30.0468 162.743 32.9529C162.743 35.6977 165.165 37.3122 167.748 37.3122C169.847 37.3122 170.977 36.3435 171.623 35.3747H171.785V36.9893H174.691V29.2395C174.529 25.6875 171.785 23.7501 168.394 23.7501ZM167.91 34.7289C166.941 34.7289 165.488 34.2446 165.488 33.1144C165.488 31.4999 167.264 31.0155 168.717 31.0155C170.009 31.0155 170.655 31.3384 171.462 31.6613C171.3 33.4373 169.686 34.7289 167.91 34.7289ZM185.024 24.2345L181.633 32.9529H181.472L177.92 24.2345H174.691L180.019 36.3435L176.951 43.1245H180.18L188.414 24.2345H185.024ZM157.9 36.9893H160.967V16.969H157.9V36.9893Z" fill="#575A65"/>
<path d="M1.67365 1.39014C1.19256 1.87123 0.871826 2.67305 0.871826 3.63524V38.7552C0.871826 39.7174 1.19256 40.5192 1.67365 41.0003L1.83402 41.1607L21.7193 21.4358V20.9547L1.67365 1.39014Z" fill="url(#paint0_linear)"/>
<path d="M28.2942 28.011L21.7192 21.4361V20.955L28.2942 14.38L28.4546 14.5404L36.3125 19.0306C38.5576 20.3135 38.5576 22.3983 36.3125 23.6812L28.2942 28.011C28.4546 28.011 28.2942 28.011 28.2942 28.011Z" fill="url(#paint1_linear)"/>
<path d="M28.4546 28.0107L21.7192 21.2754L1.67358 41.0003C2.47541 41.8021 3.59797 41.8021 5.04125 41.1606L28.4546 28.0107Z" fill="url(#paint2_linear)"/>
<path d="M28.4546 14.5406L5.04125 1.39069C3.59797 0.588862 2.47541 0.749224 1.67358 1.55105L21.7192 21.276L28.4546 14.5406Z" fill="url(#paint3_linear)"/>
<defs>
<linearGradient id="paint0_linear" x1="19.9237" y1="39.1096" x2="-6.73726" y2="12.1336" gradientUnits="userSpaceOnUse">
<stop stop-color="#00A0FF"/>
<stop offset="0.0066" stop-color="#00A1FF"/>
<stop offset="0.2601" stop-color="#00BEFF"/>
<stop offset="0.5122" stop-color="#00D2FF"/>
<stop offset="0.7604" stop-color="#00DFFF"/>
<stop offset="1" stop-color="#00E3FF"/>
</linearGradient>
<linearGradient id="paint1_linear" x1="39.2241" y1="21.1954" x2="0.327604" y2="21.1954" gradientUnits="userSpaceOnUse">
<stop stop-color="#FFE000"/>
<stop offset="0.4087" stop-color="#FFBD00"/>
<stop offset="0.7754" stop-color="#FFA500"/>
<stop offset="1" stop-color="#FF9C00"/>
</linearGradient>
<linearGradient id="paint2_linear" x1="11.356" y1="30.8014" x2="-24.7984" y2="-5.78006" gradientUnits="userSpaceOnUse">
<stop stop-color="#FF3A44"/>
<stop offset="1" stop-color="#C31162"/>
</linearGradient>
<linearGradient id="paint3_linear" x1="-16.7624" y1="39.5397" x2="-0.617796" y2="23.2045" gradientUnits="userSpaceOnUse">
<stop stop-color="#32A071"/>
<stop offset="0.0685" stop-color="#2DA771"/>
<stop offset="0.4762" stop-color="#15CF74"/>
<stop offset="0.8009" stop-color="#06E775"/>
<stop offset="1" stop-color="#00F076"/>
</linearGradient>
</defs>
</svg>
