<svg width="40" height="40" viewBox="0 0 40 40" fill="none" xmlns="http://www.w3.org/2000/svg">
<circle cx="20" cy="20" r="20" fill="#E8F7FF"/>
<path d="M26.3537 27.7127H26.6302L26.6025 27.4376L25.5577 17.0793L25.535 16.8544H25.309H23.2642H22.9932L23.015 17.1245L23.635 24.8097H16.0254H15.7962L15.7763 25.038L15.5673 27.441L15.5437 27.7127H15.8164H26.3537ZM23.8934 17.6828H24.7697L25.7039 26.8694H16.4597L16.5552 25.638H24.2642H24.5352L24.5134 25.3679L23.8934 17.6828Z" fill="#0050AF" stroke="#0050AF" stroke-width="0.5"/>
<path d="M24.2678 25.6529H24.5388L24.517 25.3828L23.6812 15.0246L23.6626 14.7947H23.432H21.4917C21.2641 14.7947 21.0775 14.9813 21.0775 15.2089C21.0775 15.4365 21.2641 15.6231 21.4917 15.6231H22.8878L23.6238 24.7947H14.3744L15.1105 15.6081H16.5066C16.7342 15.6081 16.9208 15.4216 16.9208 15.194C16.9208 14.9663 16.7342 14.7798 16.5066 14.7798H14.5663H14.3356L14.3171 15.0097L13.4813 25.3829L13.4595 25.6529H13.7305H24.2678Z" fill="#0050AF" stroke="#0050AF" stroke-width="0.5"/>
<path d="M16.1953 16.8656C16.1953 17.4067 16.6356 17.847 17.1767 17.847C17.7177 17.847 18.158 17.4067 18.158 16.8656C18.158 16.3246 17.7177 15.8843 17.1767 15.8843C16.6356 15.8843 16.1953 16.3246 16.1953 16.8656ZM17.0386 16.8656C17.0386 16.7947 17.1058 16.7276 17.1767 16.7276C17.2475 16.7276 17.3147 16.7947 17.3147 16.8656C17.3147 16.9365 17.2475 17.0037 17.1767 17.0037C17.1058 17.0037 17.0386 16.9365 17.0386 16.8656Z" fill="#0050AF" stroke="#0050AF" stroke-width="0.5"/>
<path d="M19.8438 16.8657C19.8438 17.4067 20.284 17.847 20.8251 17.847C21.3662 17.847 21.8064 17.4067 21.8064 16.8657C21.8064 16.3246 21.3662 15.8843 20.8251 15.8843C20.284 15.8843 19.8438 16.3246 19.8438 16.8657ZM20.687 16.8657C20.687 16.7948 20.7542 16.7276 20.8251 16.7276C20.9047 16.7276 20.9632 16.7885 20.9632 16.8657C20.9632 16.9366 20.896 17.0037 20.8251 17.0037C20.7542 17.0037 20.687 16.9366 20.687 16.8657Z" fill="#0050AF" stroke="#0050AF" stroke-width="0.5"/>
<path d="M20.9451 16.7965L20.9533 16.8014L20.9619 16.8057C21.0464 16.8479 21.1291 16.8473 21.1583 16.847C21.1602 16.847 21.1618 16.847 21.1633 16.847C21.302 16.847 21.4542 16.7771 21.5332 16.625C21.7758 16.1869 21.9058 15.6989 21.9058 15.194C21.9058 13.5933 20.5998 12.2873 18.9991 12.2873C17.3982 12.2873 16.0952 13.5922 16.0626 15.1739L16.0625 15.1739V15.1791C16.0625 15.6706 16.1933 16.1429 16.4192 16.5635C16.4673 16.6574 16.5479 16.7363 16.657 16.7726C16.7675 16.8095 16.881 16.7938 16.9765 16.746C17.0721 16.6982 17.1527 16.6168 17.1896 16.5063C17.2264 16.3957 17.2108 16.2823 17.163 16.1867L17.1591 16.1789L17.1546 16.1713C16.987 15.8877 16.9058 15.5452 16.9058 15.194C16.9058 14.0485 17.8386 13.1157 18.9841 13.1157C20.1297 13.1157 21.0625 14.0485 21.0625 15.194C21.0625 15.555 20.9686 15.9155 20.7964 16.2203L20.7961 16.2201L20.7904 16.2315C20.693 16.4262 20.7476 16.678 20.9451 16.7965Z" fill="#0050AF" stroke="#0050AF" stroke-width="0.5"/>
<path d="M20.9451 16.7965L20.9533 16.8014L20.9619 16.8057C21.0464 16.8479 21.1291 16.8473 21.1583 16.847C21.1602 16.847 21.1618 16.847 21.1633 16.847C21.302 16.847 21.4542 16.7771 21.5332 16.625C21.7758 16.1869 21.9058 15.6989 21.9058 15.194C21.9058 13.5933 20.5998 12.2873 18.9991 12.2873C17.3982 12.2873 16.0952 13.5922 16.0626 15.1739L16.0625 15.1739V15.1791C16.0625 15.6706 16.1933 16.1429 16.4192 16.5635C16.4673 16.6574 16.5479 16.7363 16.657 16.7726C16.7675 16.8095 16.881 16.7938 16.9765 16.746C17.0721 16.6982 17.1527 16.6168 17.1896 16.5063C17.2264 16.3957 17.2108 16.2823 17.163 16.1867L17.1591 16.1789L17.1546 16.1713C16.987 15.8877 16.9058 15.5452 16.9058 15.194C16.9058 14.0485 17.8386 13.1157 18.9841 13.1157C20.1297 13.1157 21.0625 14.0485 21.0625 15.194C21.0625 15.555 20.9686 15.9155 20.7964 16.2203L20.7961 16.2201L20.7904 16.2315C20.693 16.4262 20.7476 16.678 20.9451 16.7965Z" fill="#0050AF" stroke="#0050AF" stroke-width="0.5"/>
<path d="M17.1798 15.6232H20.8216C20.9325 15.6232 21.0379 15.5785 21.1142 15.5067C21.1887 15.4366 21.2502 15.3241 21.2353 15.189C21.2248 14.9705 21.0425 14.7948 20.8216 14.7948H17.1798C16.9522 14.7948 16.7656 14.9814 16.7656 15.209C16.7656 15.4366 16.9522 15.6232 17.1798 15.6232Z" fill="#0050AF" stroke="#0050AF" stroke-width="0.5"/>
</svg>
