<svg width="53" height="53" viewBox="0 0 53 53" fill="none" xmlns="http://www.w3.org/2000/svg">
<circle cx="26.5" cy="26.5" r="26.5" fill="#E8F7FF"/>
<path fill-rule="evenodd" clip-rule="evenodd" d="M27.0397 31.4215C27.2117 31.4215 27.3837 31.4626 27.5405 31.5437L31.6172 33.6745L30.8416 29.1782C30.78 28.8255 30.8979 28.4664 31.1553 28.2166L34.4392 25.0409L29.8931 24.379C29.5415 24.3281 29.2376 24.1085 29.0797 23.7905L27.0397 19.6868L24.9997 23.7905C24.8418 24.1085 24.5379 24.3281 24.1864 24.379L19.6403 25.0409L22.9241 28.2166C23.1815 28.4664 23.2994 28.8255 23.2378 29.1782L22.4622 33.6745L26.5389 31.5437C26.6957 31.4626 26.8677 31.4215 27.0397 31.4215ZM33.0542 36.727C32.8822 36.727 32.7102 36.6869 32.5534 36.6047L27.0381 33.7233L21.5229 36.6047C21.1573 36.7951 20.716 36.7616 20.3861 36.5193C20.0529 36.277 19.8875 35.8671 19.9567 35.4614L21.008 29.374L16.5517 25.0637C16.2542 24.7771 16.1482 24.3466 16.2748 23.954C16.4003 23.5613 16.7399 23.2758 17.1477 23.2163L23.3141 22.3207L26.069 16.7762C26.4346 16.0407 27.6417 16.0407 28.0073 16.7762L30.7622 22.3207L36.9286 23.2163C37.3364 23.2758 37.676 23.5613 37.8015 23.954C37.928 24.3466 37.822 24.7771 37.5246 25.0637L33.0682 29.374L34.1196 35.4614C34.1888 35.8671 34.0233 36.277 33.6902 36.5193C33.503 36.6577 33.2791 36.727 33.0542 36.727Z" fill="#0267FF"/>
</svg>
