<svg width="40" height="40" viewBox="0 0 40 40" fill="none" xmlns="http://www.w3.org/2000/svg">
<circle cx="20" cy="20" r="20" fill="#E8F7FF"/>
<path d="M27.7105 20.9099C27.7105 20.3221 27.2327 19.8446 26.645 19.8446H24.9829V19.0848C24.9829 18.4857 24.4958 17.9989 23.8968 17.9989H21.8271C21.2281 17.9989 20.741 18.4857 20.741 19.0848V19.8446H20.5514V15.344C20.5514 14.7334 20.0551 14.237 19.4445 14.237H18.4975V13.4871C18.4975 12.8254 17.9594 12.2873 17.2977 12.2873H15.5388C14.8771 12.2873 14.339 12.8254 14.339 13.4871V14.237H13.3922C12.7815 14.237 12.2852 14.7333 12.2852 15.344V25.7732C12.2852 26.341 12.7145 26.81 13.2657 26.8729V27.2761C13.2657 27.5173 13.4611 27.7127 13.7023 27.7127C13.9435 27.7127 14.1389 27.5173 14.1389 27.2761V26.8801H18.039C18.1454 27.3561 18.5711 27.7127 19.0789 27.7127H26.645C27.2328 27.7127 27.7105 27.2349 27.7105 26.6472V20.9099ZM21.6141 19.0848C21.6141 18.9678 21.7098 18.8721 21.8271 18.8721H23.8968C24.0141 18.8721 24.1098 18.9678 24.1098 19.0848V19.8446H21.6141V19.0848ZM24.1098 20.7177V26.8395H21.6141V20.7177H24.1098ZM15.2122 13.4871C15.2122 13.3072 15.359 13.1604 15.5388 13.1604H17.2977C17.4776 13.1604 17.6244 13.3072 17.6244 13.4871V14.237H15.2122V13.4871ZM13.3922 26.0069C13.2633 26.0069 13.1583 25.9018 13.1583 25.7732V15.344C13.1583 15.2152 13.2634 15.1101 13.3922 15.1101H19.4445C19.5731 15.1101 19.6782 15.2151 19.6782 15.344V19.8446H19.0789C18.4912 19.8446 18.0134 20.3221 18.0134 20.9099V26.0069H13.3922ZM18.8865 26.6472V20.9099C18.8865 20.8042 18.9729 20.7177 19.0789 20.7177H20.741V26.8395H19.0789C18.973 26.8395 18.8865 26.7531 18.8865 26.6472ZM26.8374 26.6472C26.8374 26.7531 26.7509 26.8395 26.645 26.8395H24.9829V20.7177H26.645C26.751 20.7177 26.8374 20.8042 26.8374 20.9099V26.6472Z" fill="#0050AF" stroke="#0050AF" stroke-width="0.5"/>
<path d="M17.2929 15.8124H16.5108C16.2696 15.8124 16.0742 16.0078 16.0742 16.249C16.0742 16.4902 16.2696 16.6855 16.5108 16.6855H17.2929C17.5341 16.6855 17.7295 16.4902 17.7295 16.249C17.7295 16.0078 17.5341 15.8124 17.2929 15.8124Z" fill="#0050AF" stroke="#0050AF" stroke-width="0.5"/>
<path d="M19.0469 15.8124H18.2647C18.0235 15.8124 17.8281 16.0078 17.8281 16.249C17.8281 16.4902 18.0235 16.6855 18.2647 16.6855H19.0469C19.288 16.6855 19.4834 16.4902 19.4834 16.249C19.4834 16.0078 19.288 15.8124 19.0469 15.8124Z" fill="#0050AF" stroke="#0050AF" stroke-width="0.5"/>
<path d="M21.2412 16.249C21.2412 16.0078 21.0459 15.8124 20.8047 15.8124H20.0225C19.7813 15.8124 19.5859 16.0078 19.5859 16.249C19.5859 16.4902 19.7813 16.6855 20.0225 16.6855H20.8047C21.0459 16.6855 21.2412 16.4902 21.2412 16.249Z" fill="#0050AF" stroke="#0050AF" stroke-width="0.5"/>
</svg>
