<svg width="172" height="172" viewBox="0 0 172 172" fill="none" xmlns="http://www.w3.org/2000/svg">
<path d="M148.274 26.6913L139.377 32.6226L124.548 29.657L115.651 26.6913L103.788 29.657L94.8906 26.6913L100.822 14.8283H112.685L124.311 9.01559C133.277 13.4493 141.388 19.434 148.274 26.6913Z" fill="#FFC82C"/>
<path d="M80.0623 14.8284L77.0967 23.7257L68.1994 26.6913L59.302 41.52L44.4734 50.4173L23.7134 53.383V62.2803L29.6447 68.2116V80.0746L20.7481 74.1429L11.8508 68.2116L6.69043 52.701C15.5726 31.5342 32.5516 14.8015 53.8454 6.22766L62.268 11.8627L80.0623 14.8284Z" fill="#FFC82C"/>
<path d="M85.9941 97.8686L83.0285 112.697L71.1655 124.56V133.458L59.3025 142.355V157.183L50.4055 154.217L44.4738 139.389V109.732L29.6452 106.766L23.7139 94.9029V86.0056L29.6452 80.0743L38.5425 71.1769L44.4738 83.0399H65.2338L74.1311 97.8686H85.9941Z" fill="#FFC82C"/>
<path d="M161.027 43.9814C177.217 72.8647 175.372 108.48 156.282 135.533L148.274 127.526V115.663L142.343 103.8L136.412 91.9369V80.0739L127.514 74.1426L115.651 77.1083L94.8914 68.2109L91.9258 47.451L100.823 38.5536H118.617L124.549 47.451L142.343 50.4166L160.137 44.4853L161.027 43.9814Z" fill="#FFC82C"/>
<path d="M103.788 29.6568L115.651 26.6911L124.549 29.6568L139.377 32.6224L148.275 26.6911C153.242 31.8901 157.528 37.6998 161.027 43.9812L160.138 44.4854L142.343 50.4167L124.549 47.4511L118.618 38.5538H100.823L91.9261 47.4511L94.8918 68.211L115.652 77.1084L127.515 74.1427L136.412 80.074V91.937L142.343 103.8L148.275 115.663V127.526L156.282 135.533C128.894 174.343 75.2286 183.599 36.4221 156.21C3.46385 132.947 -8.90036 89.9053 6.69053 52.7004L11.8509 68.211L20.7482 74.1424L29.6455 80.0737L23.7139 86.0053V94.9027L29.6452 106.766L44.4738 109.731V139.389L50.4052 154.217L59.3025 157.183V142.354L71.1655 133.457V124.56L83.0285 112.697L85.9941 97.868H74.1311L65.2338 83.0394H44.4738L38.5425 71.1764L29.6452 80.0737V68.2107L23.7139 62.2797V53.3824L44.4738 50.4167L59.3025 41.5194L68.1998 26.6908L77.0971 23.7251L80.0628 14.8278L62.2685 11.8621L53.8458 6.2271C76.6523 -2.95778 102.3 -1.94359 124.312 9.01505L112.686 14.8278H100.823L94.8914 26.6908L103.788 29.6568Z" fill="#FFFADE"/>
</svg>
