<svg aria-hidden="true" style="position: absolute; width: 0; height: 0; overflow: hidden;" version="1.1" xmlns="http://www.w3.org/2000/svg" xmlns:xlink="http://www.w3.org/1999/xlink">
<defs>
<symbol id="icon-search" viewBox="0 0 32 32">
<path fill="#9da8b6" style="fill: var(--color1, #9da8b6)" d="M3.556 14.222c0-5.883 4.784-10.667 10.667-10.667s10.667 4.784 10.667 10.667c0 5.883-4.784 10.667-10.667 10.667s-10.667-4.784-10.667-10.667zM31.479 28.965l-6.036-6.037c1.872-2.407 3.001-5.424 3.001-8.706 0-7.842-6.38-14.222-14.222-14.222s-14.222 6.38-14.222 14.222c0 7.842 6.38 14.222 14.222 14.222 3.282 0 6.299-1.129 8.706-3.001l6.037 6.036c0.347 0.347 0.802 0.521 1.257 0.521s0.91-0.174 1.257-0.521c0.695-0.695 0.695-1.819 0-2.514z"></path>
</symbol>
<symbol id="icon-p-airtime-purchase" viewBox="0 0 28 32">
<path fill="#e8f7ff" style="fill: var(--color2, #e8f7ff)" d="M2.844 0h19.911c1.571 0 2.844 1.274 2.844 2.844v19.911c0 1.571-1.273 2.844-2.844 2.844h-19.911c-1.571 0-2.844-1.273-2.844-2.844v-19.911c0-1.571 1.274-2.844 2.844-2.844z"></path>
<path fill="#0267ff" style="fill: var(--color3, #0267ff)" d="M19.555 23.111h-3.333c-0.613 0-1.111-0.498-1.111-1.111s0.498-1.111 1.111-1.111h3.333c0.613 0 1.111 0.498 1.111 1.111s-0.498 1.111-1.111 1.111zM16.222 25.333h6.667c0.614 0 1.111 0.498 1.111 1.111s-0.497 1.111-1.111 1.111h-6.667c-0.613 0-1.111-0.498-1.111-1.111s0.498-1.111 1.111-1.111zM25.604 29.778h-12.099c-0.34 0-0.617-0.249-0.617-0.556v-16.667c0-0.307 0.277-0.556 0.617-0.556h6.050v3.5c0 1.747 1.352 3.167 3.016 3.167h3.651v10.556c0 0.307-0.277 0.556-0.618 0.556zM21.778 13.087l3.047 3.358h-2.253c-0.438 0-0.793-0.423-0.793-0.944v-2.413zM28.156 16.809l-6.049-6.667c-0.211-0.232-0.509-0.364-0.823-0.364h-7.778c-1.566 0-2.839 1.247-2.839 2.778v16.667c0 1.531 1.273 2.778 2.839 2.778h12.099c1.566 0 2.84-1.247 2.84-2.778v-11.667c0-0.277-0.103-0.542-0.289-0.747z"></path>
</symbol>
<symbol id="icon-p-bitcoin" viewBox="0 0 33 32">
<path fill="#e8f7ff" style="fill: var(--color2, #e8f7ff)" d="M2.844 0h19.911c1.571 0 2.844 1.274 2.844 2.844v19.911c0 1.571-1.273 2.844-2.844 2.844h-19.911c-1.571 0-2.844-1.273-2.844-2.844v-19.911c0-1.571 1.274-2.844 2.844-2.844z"></path>
<path fill="#0267ff" style="fill: var(--color3, #0267ff)" d="M18.015 22.202v-1.225c0-2.026 1.648-3.674 3.674-3.674h1.225v-4.082c0-0.451-0.366-0.817-0.817-0.817h-8.164c-0.451 0-0.817 0.366-0.817 0.817v8.164c0 0.451 0.366 0.817 0.817 0.817h4.082zM18.015 24.652h-4.082c-1.802 0-3.266-1.465-3.266-3.266v-8.164c0-1.802 1.465-3.266 3.266-3.266h8.164c1.802 0 3.266 1.465 3.266 3.266v4.082h3.674c2.026 0 3.674 1.648 3.674 3.674v7.348c0 2.026-1.648 3.674-3.674 3.674h-7.348c-2.026 0-3.674-1.648-3.674-3.674v-3.674zM20.464 20.978v7.348c0 0.675 0.55 1.225 1.225 1.225h7.348c0.676 0 1.225-0.55 1.225-1.225v-7.348c0-0.675-0.549-1.225-1.225-1.225h-7.348c-0.675 0-1.225 0.55-1.225 1.225z"></path>
</symbol>
<symbol id="icon-p-giftcard-trading" viewBox="0 0 33 32">
<path fill="#e8f7ff" style="fill: var(--color2, #e8f7ff)" d="M2.909 0h20.364c1.607 0 2.909 1.302 2.909 2.909v20.364c0 1.607-1.302 2.909-2.909 2.909h-20.364c-1.607 0-2.909-1.302-2.909-2.909v-20.364c0-1.607 1.302-2.909 2.909-2.909z"></path>
<path fill="#0267ff" style="fill: var(--color3, #0267ff)" d="M21.818 14.545c0.602 0 1.091-0.488 1.091-1.091v-2.182c0-0.603-0.489-1.091-1.091-1.091s-1.091 0.488-1.091 1.091v2.182c0 0.603 0.489 1.091 1.091 1.091zM21.818 23.273c-1.203 0-2.182-0.979-2.182-2.182s0.979-2.182 2.182-2.182c1.203 0 2.182 0.979 2.182 2.182s-0.979 2.182-2.182 2.182zM21.818 16.727c-2.407 0-4.364 1.957-4.364 4.364s1.957 4.364 4.364 4.364c2.407 0 4.364-1.957 4.364-4.364s-1.957-4.364-4.364-4.364zM29.455 20h2.182c0.602 0 1.091 0.488 1.091 1.091s-0.489 1.091-1.091 1.091h-2.182c-0.602 0-1.091-0.488-1.091-1.091s0.489-1.091 1.091-1.091zM15.273 21.091c0-0.603-0.489-1.091-1.091-1.091h-2.182c-0.602 0-1.091 0.488-1.091 1.091s0.489 1.091 1.091 1.091h2.182c0.602 0 1.091-0.488 1.091-1.091zM13.971 13.513c0.419-0.432 1.109-0.445 1.543-0.027l1.57 1.516c0.433 0.418 0.445 1.109 0.026 1.543-0.214 0.221-0.499 0.333-0.784 0.333-0.273 0-0.545-0.1-0.758-0.305l-1.57-1.516c-0.433-0.418-0.445-1.109-0.026-1.543zM27.311 16.878c0.273 0 0.545-0.101 0.758-0.305l1.57-1.516c0.433-0.419 0.445-1.111 0.026-1.543-0.418-0.432-1.107-0.445-1.543-0.027l-1.57 1.515c-0.433 0.419-0.445 1.111-0.026 1.543 0.214 0.221 0.499 0.334 0.784 0.334zM20.727 28.727c0-0.603 0.489-1.091 1.091-1.091s1.091 0.488 1.091 1.091v2.182c0 0.603-0.489 1.091-1.091 1.091s-1.091-0.488-1.091-1.091v-2.182zM28.069 25.61c-0.433-0.418-1.124-0.405-1.543 0.027-0.419 0.433-0.407 1.125 0.026 1.543l1.57 1.516c0.213 0.205 0.485 0.305 0.758 0.305 0.286 0 0.571-0.111 0.784-0.333 0.419-0.433 0.407-1.125-0.026-1.543l-1.57-1.516zM13.997 27.126l1.57-1.516c0.434-0.418 1.125-0.405 1.543 0.027 0.419 0.433 0.407 1.125-0.026 1.543l-1.57 1.516c-0.213 0.205-0.485 0.305-0.758 0.305-0.286 0-0.571-0.111-0.784-0.333-0.419-0.433-0.407-1.125 0.026-1.543z"></path>
</symbol>
<symbol id="icon-p-patricia-pay" viewBox="0 0 45 32">
<path fill="#e8f7ff" style="fill: var(--color2, #e8f7ff)" d="M3.282 0h22.974c1.813 0 3.282 1.469 3.282 3.282v22.974c0 1.813-1.469 3.282-3.282 3.282h-22.974c-1.813 0-3.282-1.469-3.282-3.282v-22.974c0-1.813 1.469-3.282 3.282-3.282z"></path>
<path fill="#0267ff" style="fill: var(--color3, #0267ff)" d="M28.308 17.070c-2.787 0-5.046 2.471-5.046 5.519s2.259 5.519 5.046 5.519c2.786 0 5.046-2.47 5.046-5.519s-2.259-5.519-5.046-5.519zM30.831 25.172c0 0.369-0.206 0.57-0.608 0.57h-3.537c-0.402 0-0.608-0.202-0.608-0.57v-0.439c0-0.368 0.206-0.57 0.608-0.57h0.795v-1.965c0-0.254 0.028-0.517 0.028-0.517h-0.019c0 0-0.093 0.132-0.15 0.184-0.234 0.211-0.552 0.219-0.823-0.053l-0.29-0.307c-0.281-0.263-0.262-0.553 0.028-0.807l1.142-0.982c0.234-0.202 0.44-0.281 0.758-0.281h0.636c0.402 0 0.618 0.193 0.618 0.57v4.158h0.814c0.402 0 0.608 0.202 0.608 0.57v0.439h-0zM43.867 13.128h-31.118c-0.697 0-1.262 0.529-1.262 1.183v16.507c0 0.653 0.565 1.183 1.262 1.183h31.118c0.697 0 1.262-0.529 1.262-1.183v-16.507c0-0.653-0.565-1.183-1.262-1.183zM38.4 29.684h-20.185c0-2.177-1.883-3.942-4.205-3.942v-6.307c2.322 0 4.205-1.765 4.205-3.942h20.185c0 2.177 1.883 3.942 4.205 3.942v6.307c-2.322 0-4.205 1.765-4.205 3.942z"></path>
</symbol>
<symbol id="icon-p-patricia-refill" viewBox="0 0 31 32">
<path fill="#e8f7ff" style="fill: var(--color2, #e8f7ff)" d="M3.122 0h21.854c1.724 0 3.122 1.398 3.122 3.122v21.854c0 1.724-1.398 3.122-3.122 3.122h-21.854c-1.724 0-3.122-1.398-3.122-3.122v-21.854c0-1.724 1.398-3.122 3.122-3.122z"></path>
<path fill="#0267ff" style="fill: var(--color3, #0267ff)" d="M31.131 12.953c-0.155-0.288-0.466-0.466-0.777-0.466h-17.783c-0.333 0-0.622 0.177-0.777 0.466s-0.089 0.643 0.089 0.909l6.927 10.155v6.718c0 0.687 0.466 1.264 1.177 1.264h2.975c0.688 0 1.177-0.554 1.177-1.264v-6.718l6.927-10.155c0.155-0.266 0.222-0.621 0.067-0.909zM22.539 23.264c-0.089 0.155-0.2 0.31-0.2 0.488v6.475h-1.776v-6.475c0-0.177-0.089-0.355-0.2-0.488l-2.109-3.082c0.444-0.133 0.977-0.266 1.554-0.244 0.688 0 1.154 0.133 1.665 0.266 0.533 0.133 1.066 0.266 1.82 0.288 0.444 0 0.844-0.022 1.199-0.067l-1.954 2.838zM25.781 18.519c-0.022 0-0.955 0.421-2.486 0.399-0.555 0-0.977-0.111-1.443-0.244-0.533-0.133-1.154-0.288-2.042-0.31-0.999 0-1.887 0.244-2.486 0.466l-3.108-4.59h14.452l-2.886 4.279zM23.96 17.055c-0.155-0.155-0.266-0.399-0.266-0.621 0-0.244 0.089-0.466 0.266-0.621 0.155-0.155 0.4-0.266 0.622-0.266 0.244 0 0.466 0.089 0.622 0.266s0.266 0.399 0.266 0.621c0 0.244-0.089 0.466-0.266 0.621s-0.4 0.266-0.622 0.266c-0.222 0-0.466-0.111-0.622-0.266z"></path>
</symbol>
<symbol id="icon-p-trading-instructions" viewBox="0 0 28 32">
<path fill="#e8f7ff" style="fill: var(--color2, #e8f7ff)" d="M2.844 0h19.911c1.571 0 2.844 1.274 2.844 2.844v19.911c0 1.571-1.273 2.844-2.844 2.844h-19.911c-1.571 0-2.844-1.273-2.844-2.844v-19.911c0-1.571 1.274-2.844 2.844-2.844z"></path>
<path fill="#0267ff" style="fill: var(--color3, #0267ff)" d="M19.555 23.111h-3.333c-0.613 0-1.111-0.498-1.111-1.111s0.498-1.111 1.111-1.111h3.333c0.613 0 1.111 0.498 1.111 1.111s-0.498 1.111-1.111 1.111zM16.222 25.333h6.667c0.614 0 1.111 0.498 1.111 1.111s-0.497 1.111-1.111 1.111h-6.667c-0.613 0-1.111-0.498-1.111-1.111s0.498-1.111 1.111-1.111zM25.604 29.778h-12.099c-0.34 0-0.617-0.249-0.617-0.556v-16.667c0-0.307 0.277-0.556 0.617-0.556h6.050v3.5c0 1.747 1.352 3.167 3.016 3.167h3.651v10.556c0 0.307-0.277 0.556-0.618 0.556zM21.778 13.087l3.047 3.358h-2.253c-0.438 0-0.793-0.423-0.793-0.944v-2.413zM28.156 16.809l-6.049-6.667c-0.211-0.232-0.509-0.364-0.823-0.364h-7.778c-1.566 0-2.839 1.247-2.839 2.778v16.667c0 1.531 1.273 2.778 2.839 2.778h12.099c1.566 0 2.84-1.247 2.84-2.778v-11.667c0-0.277-0.103-0.542-0.289-0.747z"></path>
</symbol>
<symbol id="icon-p-refill" viewBox="0 0 31 32">
<path fill="#e8f7ff" style="fill: var(--color2, #e8f7ff)" d="M3.122 0h21.854c1.724 0 3.122 1.398 3.122 3.122v21.854c0 1.724-1.398 3.122-3.122 3.122h-21.854c-1.724 0-3.122-1.398-3.122-3.122v-21.854c0-1.724 1.398-3.122 3.122-3.122z"></path>
<path fill="#0267ff" style="fill: var(--color3, #0267ff)" d="M31.131 12.953c-0.155-0.288-0.466-0.466-0.777-0.466h-17.783c-0.333 0-0.622 0.177-0.777 0.466s-0.089 0.643 0.089 0.909l6.927 10.155v6.718c0 0.687 0.466 1.264 1.177 1.264h2.975c0.688 0 1.177-0.554 1.177-1.264v-6.718l6.927-10.155c0.155-0.266 0.222-0.621 0.067-0.909zM22.539 23.264c-0.089 0.155-0.2 0.31-0.2 0.488v6.475h-1.776v-6.475c0-0.177-0.089-0.355-0.2-0.488l-2.109-3.082c0.444-0.133 0.977-0.266 1.554-0.244 0.688 0 1.154 0.133 1.665 0.266 0.533 0.133 1.066 0.266 1.82 0.288 0.444 0 0.844-0.022 1.199-0.067l-1.954 2.838zM25.781 18.519c-0.022 0-0.955 0.421-2.486 0.399-0.555 0-0.977-0.111-1.443-0.244-0.533-0.133-1.154-0.288-2.042-0.31-0.999 0-1.887 0.244-2.486 0.466l-3.108-4.59h14.452l-2.886 4.279zM23.96 17.055c-0.155-0.155-0.266-0.399-0.266-0.621 0-0.244 0.089-0.466 0.266-0.621 0.155-0.155 0.4-0.266 0.622-0.266 0.244 0 0.466 0.089 0.622 0.266s0.266 0.399 0.266 0.621c0 0.244-0.089 0.466-0.266 0.621s-0.4 0.266-0.622 0.266c-0.222 0-0.466-0.111-0.622-0.266z"></path>
</symbol>
<symbol id="icon-p-arrow-right" viewBox="0 0 32 32">
<path d="M23.536 16.001l-11.851-11.847c-0.52-0.519-1.363-0.519-1.884 0-0.52 0.519-0.52 1.361 0 1.88l10.911 10.907-10.91 10.907c-0.52 0.519-0.52 1.361 0 1.881 0.52 0.519 1.364 0.519 1.884 0l11.851-11.847c0.512-0.513 0.512-1.369-0.001-1.881z"></path>
</symbol>
<symbol id="icon-p-arrow-left" viewBox="0 0 32 32">
<path d="M9.796 17.882l11.851 11.847c0.52 0.519 1.363 0.519 1.884 0 0.52-0.519 0.52-1.361 0-1.88l-10.911-10.907 10.909-10.907c0.52-0.519 0.52-1.361 0-1.881-0.52-0.519-1.364-0.519-1.884 0l-11.851 11.847c-0.512 0.513-0.512 1.369 0.001 1.881z"></path>
</symbol>
<symbol id="icon-arrow-down" viewBox="0 0 32 32">
<path d="M17.654 20.095c-0.437 0.504-1.219 0.504-1.656 0l-4.717-5.448c-0.614-0.709-0.111-1.813 0.829-1.813h9.436c0.937 0 1.441 1.103 0.827 1.813l-4.717 5.448z"></path>
</symbol>
<symbol id="icon-facebook" viewBox="0 0 19 32">
<path d="M16.649 0.007l-4.15-0.007c-4.662 0-7.675 3.091-7.675 7.875v3.631h-4.172c-0.361 0-0.652 0.292-0.652 0.653v5.261c0 0.361 0.292 0.652 0.652 0.652h4.172v13.275c0 0.36 0.292 0.652 0.652 0.652h5.444c0.361 0 0.652-0.292 0.652-0.652v-13.275h4.878c0.361 0 0.652-0.292 0.652-0.652l0.002-5.261c0-0.173-0.069-0.339-0.191-0.461s-0.289-0.191-0.462-0.191h-4.88v-3.078c0-1.479 0.353-2.23 2.28-2.23l2.795-0.001c0.36 0 0.652-0.292 0.652-0.652v-4.885c0-0.36-0.292-0.652-0.651-0.652z"></path>
</symbol>
<symbol id="icon-p-airtime-purchase1" viewBox="0 0 28 32">
<path fill="#e8f7ff" style="fill: var(--color2, #e8f7ff)" d="M2.844 0h19.911c1.571 0 2.844 1.274 2.844 2.844v19.911c0 1.571-1.273 2.844-2.844 2.844h-19.911c-1.571 0-2.844-1.273-2.844-2.844v-19.911c0-1.571 1.274-2.844 2.844-2.844z"></path>
<path fill="#0267ff" style="fill: var(--color3, #0267ff)" d="M19.555 23.111h-3.333c-0.613 0-1.111-0.498-1.111-1.111s0.498-1.111 1.111-1.111h3.333c0.613 0 1.111 0.498 1.111 1.111s-0.498 1.111-1.111 1.111zM16.222 25.333h6.667c0.614 0 1.111 0.498 1.111 1.111s-0.497 1.111-1.111 1.111h-6.667c-0.613 0-1.111-0.498-1.111-1.111s0.498-1.111 1.111-1.111zM25.604 29.778h-12.099c-0.34 0-0.617-0.249-0.617-0.556v-16.667c0-0.307 0.277-0.556 0.617-0.556h6.050v3.5c0 1.747 1.352 3.167 3.016 3.167h3.651v10.556c0 0.307-0.277 0.556-0.618 0.556zM21.778 13.087l3.047 3.358h-2.253c-0.438 0-0.793-0.423-0.793-0.944v-2.413zM28.156 16.809l-6.049-6.667c-0.211-0.232-0.509-0.364-0.823-0.364h-7.778c-1.566 0-2.839 1.247-2.839 2.778v16.667c0 1.531 1.273 2.778 2.839 2.778h12.099c1.566 0 2.84-1.247 2.84-2.778v-11.667c0-0.277-0.103-0.542-0.289-0.747z"></path>
</symbol>
<symbol id="icon-p-bubble-shadow" viewBox="0 0 32 32">
<path fill="#e8f7ff" style="fill: var(--color2, #e8f7ff)" d="M11.647 1.928h10.634c5.049 0 9.143 4.093 9.143 9.143v10.634c0 5.049-4.093 9.143-9.143 9.143h-10.634c-5.049 0-9.143-4.093-9.143-9.143v-10.634c0-5.049 4.093-9.143 9.143-9.143z"></path>
<path fill="none" stroke="#479bff" style="stroke: var(--color4, #479bff)" stroke-linejoin="miter" stroke-linecap="butt" stroke-miterlimit="4" stroke-width="2.2857" d="M14.857 7.712c0 3.628-2.941 6.569-6.569 6.569s-6.569-2.941-6.569-6.569c0-3.628 2.941-6.569 6.569-6.569s6.569 2.941 6.569 6.569z"></path>
</symbol>
<symbol id="icon-p-check" viewBox="0 0 32 32">
<path fill="#479bff" style="fill: var(--color4, #479bff)" d="M28.444 17.481c0-0.981 0.797-1.778 1.778-1.778s1.778 0.796 1.778 1.778v9.895c0 2.549-2.075 4.624-4.622 4.624h-22.756c-2.548 0-4.622-2.075-4.622-4.624v-22.754c0-2.549 2.075-4.622 4.622-4.622h17.008c0.981 0 1.778 0.795 1.778 1.778 0 0.981-0.796 1.778-1.778 1.778h-17.008c-0.588 0-1.067 0.478-1.067 1.067v22.754c0 0.588 0.478 1.068 1.067 1.068h22.756c0.588 0 1.067-0.48 1.067-1.068v-9.895zM11.217 14.127c0.711-0.679 1.835-0.651 2.514 0.059l2.676 2.805 10.761-11.116c0.681-0.704 1.806-0.725 2.514-0.041 0.706 0.683 0.724 1.808 0.041 2.514l-12.048 12.444c-0.334 0.347-0.795 0.542-1.276 0.542h-0.007c-0.484-0.002-0.946-0.201-1.28-0.551l-3.952-4.142c-0.679-0.711-0.651-1.836 0.059-2.514z"></path>
</symbol>
<symbol id="icon-p-document" viewBox="0 0 24 32">
<path fill="#9da8b6" style="fill: var(--color1, #9da8b6)" d="M12.234 18.353h-4.588c-0.844 0-1.529-0.685-1.529-1.529s0.685-1.529 1.529-1.529h4.588c0.844 0 1.529 0.685 1.529 1.529s-0.685 1.529-1.529 1.529zM7.647 21.412h9.176c0.846 0 1.529 0.685 1.529 1.529s-0.684 1.529-1.529 1.529h-9.176c-0.844 0-1.529-0.685-1.529-1.529s0.685-1.529 1.529-1.529zM20.561 27.529h-16.654c-0.468 0-0.849-0.343-0.849-0.765v-22.941c0-0.422 0.381-0.765 0.849-0.765h8.328v4.818c0 2.404 1.861 4.359 4.151 4.359h5.026v14.53c0 0.422-0.381 0.765-0.85 0.765zM15.294 4.555l4.194 4.622h-3.102c-0.603 0-1.092-0.583-1.092-1.3v-3.322zM24.073 9.678l-8.326-9.176c-0.291-0.32-0.7-0.502-1.133-0.502h-10.706c-2.155 0-3.908 1.716-3.908 3.824v22.941c0 2.107 1.753 3.823 3.908 3.823h16.654c2.155 0 3.909-1.716 3.909-3.823v-16.059c0-0.381-0.142-0.746-0.398-1.028z"></path>
</symbol>
<symbol id="icon-p-email" viewBox="0 0 39 32">
<path fill="#0267ff" style="fill: var(--color3, #0267ff)" d="M33.477 27.569h-27.569c-1.085 0-1.969-0.882-1.969-1.969v-19.2l14.572 10.929c0.351 0.264 0.766 0.394 1.182 0.394s0.831-0.13 1.182-0.394l14.572-10.929v19.2c0 1.087-0.884 1.969-1.969 1.969zM32.163 3.938l-12.471 9.354-12.471-9.354h24.942zM33.477 0h-27.569c-3.257 0-5.908 2.651-5.908 5.908v19.692c0 3.257 2.651 5.908 5.908 5.908h27.569c3.257 0 5.908-2.651 5.908-5.908v-19.692c0-3.257-2.651-5.908-5.908-5.908z"></path>
</symbol>
<symbol id="icon-p-item-list" viewBox="0 0 32 32">
<path fill="#d3dce6" style="fill: var(--color5, #d3dce6)" d="M28.444 26.666v-10.667c0-0.981 0.795-1.778 1.778-1.778s1.778 0.796 1.778 1.778v10.667c0 2.94-2.393 5.333-5.333 5.333h-21.333c-2.94 0-5.333-2.393-5.333-5.333v-21.333c0-2.94 2.393-5.333 5.333-5.333h10.667c0.983 0 1.778 0.796 1.778 1.778s-0.795 1.778-1.778 1.778h-10.667c-0.981 0-1.778 0.798-1.778 1.778v21.333c0 0.98 0.796 1.778 1.778 1.778h21.333c0.981 0 1.778-0.798 1.778-1.778zM25.917 3.57l-2.814-0.014c-0.983-0.005-1.774-0.805-1.769-1.787 0.005-0.98 0.8-1.769 1.778-1.769h0.009l7.106 0.036c0.978 0.005 1.769 0.798 1.769 1.776l0.005 7.076c0 0.983-0.795 1.78-1.776 1.78h-0.002c-0.981 0-1.778-0.795-1.778-1.776l-0.002-2.82-11.186 11.186c-0.347 0.347-0.802 0.521-1.257 0.521s-0.91-0.174-1.257-0.521c-0.695-0.695-0.695-1.819 0-2.514l11.173-11.173z"></path>
</symbol>
<symbol id="icon-p-pay" viewBox="0 0 45 32">
<path fill="#e8f7ff" style="fill: var(--color2, #e8f7ff)" d="M3.282 0h22.974c1.813 0 3.282 1.469 3.282 3.282v22.974c0 1.813-1.469 3.282-3.282 3.282h-22.974c-1.813 0-3.282-1.469-3.282-3.282v-22.974c0-1.813 1.469-3.282 3.282-3.282z"></path>
<path fill="#0267ff" style="fill: var(--color3, #0267ff)" d="M28.308 17.070c-2.787 0-5.046 2.471-5.046 5.519s2.259 5.519 5.046 5.519c2.786 0 5.046-2.47 5.046-5.519s-2.259-5.519-5.046-5.519zM30.831 25.172c0 0.369-0.206 0.57-0.608 0.57h-3.537c-0.402 0-0.608-0.202-0.608-0.57v-0.439c0-0.368 0.206-0.57 0.608-0.57h0.795v-1.965c0-0.254 0.028-0.517 0.028-0.517h-0.019c0 0-0.093 0.132-0.15 0.184-0.234 0.211-0.552 0.219-0.823-0.053l-0.29-0.307c-0.281-0.263-0.262-0.553 0.028-0.807l1.142-0.982c0.234-0.202 0.44-0.281 0.758-0.281h0.636c0.402 0 0.618 0.193 0.618 0.57v4.158h0.814c0.402 0 0.608 0.202 0.608 0.57v0.439zM43.867 13.128h-31.118c-0.697 0-1.262 0.529-1.262 1.183v16.507c0 0.653 0.565 1.183 1.262 1.183h31.118c0.697 0 1.262-0.529 1.262-1.183v-16.507c0-0.653-0.565-1.183-1.262-1.183zM38.4 29.684h-20.185c0-2.177-1.883-3.942-4.205-3.942v-6.307c2.322 0 4.205-1.765 4.205-3.942h20.185c0 2.177 1.883 3.942 4.205 3.942v6.307c-2.322 0-4.205 1.765-4.205 3.942z"></path>
</symbol>
<symbol id="icon-p-phone" viewBox="0 0 32 32">
<path fill="#0267ff" style="fill: var(--color3, #0267ff)" d="M24.64 28.8c-11.822 0-21.44-9.619-21.44-21.44 0-2.294 1.866-4.16 4.16-4.16 0.174 0 0.347 0.011 0.523 0.034l1.698 7.394c-0.21 0.109-0.434 0.227-0.653 0.341l-0.208 0.109c-1.379 0.72-2.467 1.29-1.896 2.546 1.882 5.354 6.2 9.674 11.49 11.53 1.348 0.54 1.871-0.46 2.594-1.842l0.010-0.018c0.083-0.157 0.169-0.321 0.253-0.484v-0.001c0.069-0.132 0.137-0.262 0.202-0.387l7.392 1.696c0.024 0.173 0.035 0.347 0.035 0.525 0 2.294-1.866 4.16-4.16 4.16zM31.602 22.253c-0.181-0.52-0.616-0.91-1.154-1.034l-9.542-2.19c-0.526-0.118-1.077 0.030-1.466 0.405-0.229 0.218-0.234 0.224-1.274 2.21-3.408-1.552-6.2-4.334-7.806-7.813 1.982-1.038 1.987-1.043 2.206-1.27 0.374-0.39 0.525-0.941 0.405-1.466l-2.19-9.542c-0.123-0.538-0.515-0.974-1.035-1.155-0.381-0.131-0.773-0.23-1.16-0.293-0.398-0.069-0.81-0.104-1.226-0.104-4.059 0-7.36 3.301-7.36 7.36 0 13.587 11.053 24.64 24.64 24.64 4.058 0 7.36-3.301 7.36-7.36 0-0.413-0.037-0.821-0.104-1.218-0.064-0.4-0.163-0.792-0.294-1.17zM17.599 9.6c2.646 0 4.8 2.154 4.8 4.8 0 0.885 0.715 1.6 1.6 1.6s1.6-0.715 1.6-1.6c0-4.411-3.589-8-8-8-0.883 0-1.6 0.715-1.6 1.6s0.717 1.6 1.6 1.6zM28.799 14.4c0-6.174-5.026-11.2-11.2-11.2-0.883 0-1.6-0.715-1.6-1.6s0.717-1.6 1.6-1.6c7.941 0 14.4 6.459 14.4 14.4 0 0.885-0.715 1.6-1.6 1.6s-1.6-0.715-1.6-1.6z"></path>
</symbol>
<symbol id="icon-twitter" viewBox="0 0 40 32">
<path d="M39.767 3.788c-1.465 0.642-3.025 1.068-4.652 1.275 1.674-0.999 2.951-2.57 3.552-4.463-1.561 0.93-3.284 1.588-5.12 1.954-1.482-1.578-3.594-2.555-5.898-2.555-4.47 0-8.069 3.628-8.069 8.076 0 0.64 0.054 1.255 0.187 1.841-6.713-0.327-12.652-3.545-16.642-8.446-0.697 1.209-1.105 2.592-1.105 4.081 0 2.796 1.44 5.275 3.586 6.71-1.297-0.025-2.57-0.401-3.648-0.994 0 0.025 0 0.057 0 0.089 0 3.924 2.799 7.183 6.469 7.934-0.657 0.18-1.374 0.266-2.117 0.266-0.517 0-1.039-0.030-1.529-0.138 1.046 3.198 4.015 5.548 7.545 5.625-2.747 2.149-6.235 3.444-10.011 3.444-0.662 0-1.297-0.030-1.932-0.111 3.577 2.306 7.815 3.623 12.386 3.623 14.858 0 22.981-12.308 22.981-22.976 0-0.357-0.012-0.702-0.030-1.044 1.603-1.137 2.949-2.558 4.047-4.192z"></path>
</symbol>
<symbol id="icon-youtube" viewBox="0 0 25 18">
<path d="M23.6409 3.48144C23.3626 2.44739 22.5474 1.6323 21.5135 1.35385C19.6246 0.836914 12.0689 0.836914 12.0689 0.836914C12.0689 0.836914 4.51338 0.836914 2.62445 1.33414C1.61047 1.61241 0.775311 2.44757 0.497046 3.48144C0 5.37018 0 9.28725 0 9.28725C0 9.28725 0 13.224 0.497046 15.0931C0.775495 16.1269 1.59058 16.9422 2.62464 17.2206C4.53326 17.7376 12.0691 17.7376 12.0691 17.7376C12.0691 17.7376 19.6246 17.7376 21.5135 17.2403C22.5475 16.9621 23.3626 16.1468 23.6411 15.1129C24.1381 13.224 24.1381 9.30714 24.1381 9.30714C24.1381 9.30714 24.158 5.37018 23.6409 3.48144Z" />
<path d="M9.6825 12.9157L15.9655 9.29697L9.6825 5.67822V12.9157Z" fill="white"/>
</symbol>
<symbol id="icon-instagram" viewBox="0 0 19 19">
<path d="M9.37587 7.2738C8.91599 7.2738 8.46643 7.41017 8.08405 7.66567C7.70167 7.92117 7.40364 8.28432 7.22765 8.7092C7.05166 9.13407 7.00562 9.6016 7.09534 10.0526C7.18505 10.5037 7.40651 10.918 7.7317 11.2432C8.05688 11.5684 8.4712 11.7898 8.92225 11.8796C9.37329 11.9693 9.84082 11.9232 10.2657 11.7472C10.6906 11.5712 11.0537 11.2732 11.3092 10.8908C11.5647 10.5085 11.7011 10.0589 11.7011 9.59902C11.7011 9.29366 11.6409 8.9913 11.5241 8.7092C11.4072 8.42709 11.236 8.17076 11.02 7.95484C10.8041 7.73892 10.5478 7.56765 10.2657 7.4508C9.98359 7.33394 9.68122 7.2738 9.37587 7.2738ZM18.6861 4.97671C18.6812 4.25267 18.5479 3.53524 18.2923 2.85776C18.1041 2.36202 17.813 1.91183 17.438 1.53688C17.0631 1.16193 16.6129 0.870753 16.1171 0.682562C15.4397 0.427036 14.7222 0.293708 13.9982 0.288776C12.7887 0.223144 12.4324 0.223145 9.37587 0.223145C6.31934 0.223145 5.96306 0.223144 4.75357 0.288776C4.02952 0.293708 3.31209 0.427036 2.63462 0.682562C2.13888 0.870753 1.68868 1.16193 1.31373 1.53688C0.938784 1.91183 0.647608 2.36202 0.459418 2.85776C0.203891 3.53524 0.0705637 4.25267 0.065631 4.97671C-6.28701e-08 6.1862 0 6.54248 0 9.59902C0 12.6556 -6.28701e-08 13.0118 0.065631 14.2213C0.0757232 14.9479 0.20887 15.6675 0.459418 16.3496C0.646774 16.8431 0.937708 17.2907 1.31262 17.6623C1.68596 18.0395 2.13713 18.3306 2.63462 18.5155C3.31209 18.771 4.02952 18.9043 4.75357 18.9093C5.96306 18.9749 6.31934 18.9749 9.37587 18.9749C12.4324 18.9749 12.7887 18.9749 13.9982 18.9093C14.7222 18.9043 15.4397 18.771 16.1171 18.5155C16.6146 18.3306 17.0658 18.0395 17.4391 17.6623C17.814 17.2907 18.105 16.8431 18.2923 16.3496C18.5476 15.6688 18.6809 14.9484 18.6861 14.2213C18.7517 13.0118 18.7517 12.6556 18.7517 9.59902C18.7517 6.54248 18.7517 6.1862 18.6861 4.97671ZM16.3046 12.4774C16.2746 13.056 16.1511 13.6259 15.939 14.1651C15.757 14.6148 15.4864 15.0234 15.1433 15.3664C14.8002 15.7095 14.3917 15.9801 13.9419 16.1621C13.3977 16.3624 12.8246 16.4732 12.2449 16.4903C11.5042 16.4903 11.3073 16.4903 9.37587 16.4903C7.44444 16.4903 7.24755 16.4903 6.50686 16.4903C5.92717 16.4732 5.35408 16.3624 4.80982 16.1621C4.34488 15.9893 3.925 15.7137 3.58158 15.3558C3.24186 15.0194 2.97951 14.6131 2.81276 14.1651C2.6117 13.6214 2.50393 13.0476 2.49398 12.468C2.49398 11.7273 2.49398 11.5304 2.49398 9.59902C2.49398 7.66759 2.49398 7.47069 2.49398 6.73C2.50393 6.15041 2.6117 5.57666 2.81276 5.03297C2.98554 4.56802 3.26119 4.14814 3.61909 3.80473C3.95693 3.46684 4.36284 3.20476 4.80982 3.03591C5.35408 2.83564 5.92717 2.72482 6.50686 2.70775C7.24755 2.70775 7.44444 2.70775 9.37587 2.70775C11.3073 2.70775 11.5042 2.70775 12.2449 2.70775C12.8246 2.72482 13.3977 2.83564 13.9419 3.03591C14.4069 3.20869 14.8267 3.48433 15.1702 3.84223C15.5099 4.17859 15.7722 4.58492 15.939 5.03297C16.1392 5.57723 16.2501 6.15032 16.2671 6.73C16.2671 7.47069 16.2671 7.66759 16.2671 9.59902C16.2671 11.5304 16.3328 11.7273 16.3046 12.468V12.4774ZM14.8045 5.50176C14.6929 5.19891 14.5169 4.92387 14.2886 4.69564C14.0604 4.4674 13.7854 4.29139 13.4825 4.17976C13.0667 4.03562 12.6287 3.9658 12.1886 3.97349C11.4573 3.97349 11.251 3.97349 9.37587 3.97349C7.5007 3.97349 7.29443 3.97349 6.56311 3.97349C6.12082 3.97782 5.68278 4.06035 5.26924 4.21727C4.97102 4.32383 4.6989 4.49265 4.47096 4.7125C4.24303 4.93235 4.0645 5.19821 3.94724 5.49238C3.81108 5.90996 3.74456 6.34708 3.75035 6.78626C3.75035 7.51757 3.75035 7.72384 3.75035 9.59902C3.75035 11.4742 3.75035 11.6805 3.75035 12.4118C3.75964 12.8536 3.84202 13.2908 3.99412 13.7056C4.10575 14.0085 4.28176 14.2835 4.50999 14.5118C4.73823 14.74 5.01326 14.916 5.31612 15.0276C5.71616 15.1748 6.13712 15.2571 6.56311 15.2714C7.29443 15.2714 7.5007 15.2714 9.37587 15.2714C11.251 15.2714 11.4573 15.2714 12.1886 15.2714C12.6309 15.2671 13.069 15.1846 13.4825 15.0276C13.7854 14.916 14.0604 14.74 14.2886 14.5118C14.5169 14.2835 14.6929 14.0085 14.8045 13.7056C14.9614 13.2921 15.044 12.8541 15.0483 12.4118C15.0483 11.6805 15.0483 11.4742 15.0483 9.59902C15.0483 7.72384 15.0483 7.51757 15.0483 6.78626C15.0485 6.34352 14.9659 5.90466 14.8045 5.49238V5.50176ZM9.37587 13.1806C8.90597 13.1806 8.44069 13.0879 8.00668 12.9078C7.57267 12.7277 7.17845 12.4637 6.84662 12.131C6.51479 11.7983 6.25186 11.4034 6.07289 10.9689C5.89392 10.5344 5.80243 10.0689 5.80366 9.59902C5.80367 8.89025 6.01396 8.19741 6.40793 7.60822C6.80189 7.01904 7.36181 6.55998 8.01681 6.28918C8.67181 6.01837 9.39242 5.948 10.0874 6.08695C10.7824 6.22591 11.4206 6.56796 11.9211 7.06979C12.4216 7.57162 12.762 8.21067 12.8992 8.90605C13.0363 9.60143 12.964 10.3219 12.6915 10.9761C12.419 11.6304 11.9585 12.1891 11.3682 12.5816C10.778 12.974 10.0846 13.1825 9.37587 13.1806ZM13.1262 6.72062C12.919 6.69869 12.7272 6.60082 12.5878 6.44588C12.4483 6.29095 12.3712 6.0899 12.3712 5.88148C12.3712 5.67307 12.4483 5.47202 12.5878 5.31708C12.7272 5.16215 12.919 5.06428 13.1262 5.04234C13.3335 5.06428 13.5253 5.16215 13.6647 5.31708C13.8041 5.47202 13.8812 5.67307 13.8812 5.88148C13.8812 6.0899 13.8041 6.29095 13.6647 6.44588C13.5253 6.60082 13.3335 6.69869 13.1262 6.72062Z"/>
</symbol>
</defs>
</svg>
