<svg width="129" height="32" viewBox="0 0 129 32" fill="none" xmlns="http://www.w3.org/2000/svg">
<path d="M27.6548 3.03315C27.8307 3.03315 28.0076 3.03315 28.1835 3.03315C28.2446 3.04067 28.3058 3.05572 28.3669 3.05572C30.1835 3.0576 32 3.0576 33.8174 3.0576C33.8786 3.0576 33.9407 3.04443 34.0018 3.03785C34.0846 3.01809 34.1664 3.01809 34.2492 3.03785C34.3395 3.07077 34.4289 3.06983 34.5192 3.03785C34.6133 3.01715 34.7083 3.01621 34.8024 3.03785C34.8033 3.1545 34.8127 3.27209 34.8033 3.38779C34.744 4.18176 34.6754 4.97478 34.6236 5.76874C34.6133 5.92302 34.5672 5.96441 34.4186 5.96629C34.1241 5.97005 33.8278 5.92866 33.5352 5.98981C33.284 5.98981 33.0329 5.98981 32.7817 5.98981C32.6265 5.94748 32.4722 5.94654 32.3179 5.99075C32.206 5.99075 32.095 5.99075 31.983 5.99075C31.7657 5.94654 31.5484 5.94654 31.3311 5.99075C31.2352 5.99075 31.1392 5.99075 31.0423 5.99075C30.9191 5.94748 30.7959 5.94748 30.6726 5.99075C30.2973 5.99451 29.921 6.01427 29.5475 5.99545C29.3124 5.98322 29.2681 6.06224 29.2691 6.28143C29.2757 9.74325 29.2738 13.206 29.2728 16.6678C29.2728 16.761 29.2663 16.855 29.2634 16.9482C29.2587 16.9726 29.2634 16.9905 29.2917 16.9952C29.7197 16.9369 30.1496 16.9726 30.5786 16.9773C30.6867 17.0216 30.794 17.0216 30.9022 16.9773C31.5767 16.9773 32.2502 16.9783 32.9247 16.9783C33.0366 17.0328 33.1561 17.0027 33.2718 17.0046C33.5851 17.0093 33.602 17.0074 33.5823 17.3235C33.5277 18.1918 33.4571 19.0601 33.3922 19.9284C33.1721 19.9528 32.952 19.9519 32.7319 19.9293C32.6895 19.9039 32.6472 19.9039 32.6049 19.9293C31.9727 19.9538 31.3415 19.9528 30.7093 19.9302C30.2888 19.8888 29.8674 19.9133 29.4469 19.9152C28.9483 19.9171 28.4488 19.8888 27.9502 19.9321C27.9145 19.9321 27.8778 19.9321 27.842 19.9321C27.7997 19.9048 27.7574 19.9048 27.7141 19.9321C27.5843 19.9538 27.4535 19.9528 27.3237 19.9321C26.9935 19.8926 26.6633 19.9142 26.3322 19.9218C26.1995 19.8719 26.2663 19.759 26.2663 19.68C26.2616 17.8183 26.2626 15.9567 26.2626 14.095C26.2626 10.5128 26.2626 6.93052 26.2644 3.34734C26.2644 3.24951 26.2278 3.14321 26.3058 3.05478C26.7546 3.04349 27.2052 3.08488 27.6548 3.03315Z" fill="#C0CCDA"/>
<path d="M0.770197 1.31625C1.40424 1.71417 2.0411 2.10833 2.67232 2.51095C4.02695 3.37547 5.37781 4.24469 6.73056 5.11297C7.78886 5.77805 8.84716 6.44408 9.90641 7.10822C9.98449 7.15714 10.0259 7.22957 10.0635 7.30671C10.3429 7.8749 10.6214 8.44215 10.9017 9.0094C11.2065 9.62557 11.5122 10.2408 11.8179 10.8551C11.8556 10.9294 11.8847 11.0348 12.0004 10.9887C12.4125 10.8269 12.8424 10.7074 13.2252 10.4779C14.3391 10.0442 15.4529 9.61334 16.5648 9.17497C16.7021 9.12041 16.8028 9.12699 16.927 9.21072C17.8846 9.85793 18.847 10.4967 19.8065 11.1401C19.8799 11.189 19.9965 11.2248 19.9758 11.3358C19.9561 11.4402 19.8338 11.4205 19.7576 11.4393C18.9608 11.6378 18.1621 11.8287 17.3644 12.0216C17.3522 12.0122 17.3418 11.9952 17.3286 11.9933C16.3352 11.8466 15.3428 11.7017 14.3494 11.5559C13.5187 11.4346 12.6881 11.3132 11.8574 11.1909C10.9722 10.9962 10.0861 10.8024 9.20181 10.6058C6.92811 10.0987 4.65534 9.59076 2.38164 9.08278C2.3346 9.07243 2.28945 9.05926 2.25558 9.10724C2.08343 8.74882 2.03734 8.35467 1.94233 7.97556C1.50489 6.239 1.08063 4.50056 0.652608 2.76212C0.637557 2.70286 0.633794 2.64077 0.624387 2.57963C0.647905 2.31717 0.526552 2.08105 0.488924 1.82988C0.480458 1.77343 0.454118 1.74615 0.398615 1.74615C0.36569 1.58717 0.333706 1.42725 0.300781 1.26827C0.396734 1.22876 0.251864 1.13469 0.340291 1.09424C0.493628 1.14974 0.597106 1.29837 0.768316 1.31813L0.765494 1.31907L0.770197 1.31625Z" fill="#C0CCDA"/>
<path d="M52.4328 5.98765C51.5636 5.99235 50.6944 6.00364 49.8261 5.99612C49.6267 5.99423 49.5834 6.05538 49.5834 6.24635C49.5891 10.7147 49.5853 15.1822 49.5919 19.6506C49.5919 19.882 49.5458 19.9572 49.2984 19.9525C48.4922 19.9356 47.685 19.9403 46.8779 19.9516C46.6615 19.9544 46.5816 19.9074 46.5825 19.6703C46.5891 14.2245 46.5872 8.77781 46.5872 3.33202C46.5872 3.02064 46.5882 3.02064 46.8883 3.02158C48.7132 3.02252 50.5382 3.02346 52.3632 3.02534C52.4488 3.02534 52.5344 3.03475 52.62 3.04039C52.621 3.20408 52.6323 3.3687 52.62 3.53145C52.5626 4.34987 52.4968 5.16829 52.4328 5.98765Z" fill="#C0CCDA"/>
<path d="M84.0318 4.14307C85.1033 4.72631 85.9594 5.53344 86.632 6.55412C87.2246 7.45344 87.6348 8.42237 87.8173 9.47597C88.2961 12.2454 87.8088 14.8014 86.0036 17.0196C85.187 18.0233 84.1588 18.7702 82.951 19.2566C82.9462 18.7589 83.0046 18.2641 83.0394 17.7684C83.0836 17.1334 83.1128 16.4984 83.1814 15.8653C83.189 15.7919 83.1692 15.743 83.0892 15.7336C84.4081 14.5615 84.9791 13.0667 84.9603 11.3329C84.9462 10.0366 84.5464 8.86451 83.7327 7.84289C83.9133 6.61714 83.9425 5.37728 84.0318 4.14307Z" fill="#C0CCDA"/>
<path d="M40.7771 4.18848C41.922 4.8197 42.81 5.71525 43.4817 6.82812C44.4487 8.42921 44.7789 10.1752 44.65 12.0246C44.5259 13.795 43.9511 15.3961 42.8702 16.8072C42.0649 17.8589 41.0433 18.6425 39.8392 19.1919C39.8119 19.2041 39.7799 19.2079 39.7498 19.2164C39.6953 19.1816 39.6859 19.1232 39.6981 19.0706C39.7555 18.8326 39.7282 18.5889 39.7489 18.349C39.8279 17.4347 39.9145 16.5212 39.9323 15.6022C39.9408 15.589 39.9465 15.5739 39.9577 15.5636C41.4469 14.097 41.8589 12.305 41.5372 10.2984C41.3905 9.38592 40.9906 8.58255 40.4309 7.8535C40.5419 7.75472 40.5391 7.62208 40.5447 7.48944C40.5589 7.14702 40.5711 6.8046 40.5965 6.46406C40.652 5.70397 40.716 4.94575 40.7771 4.18848Z" fill="#C0CCDA"/>
<path d="M70.4462 18.3994C69.2825 17.6016 68.4256 16.5462 67.8188 15.2818C67.0606 13.7043 66.8376 12.0373 67.0004 10.3073C67.1603 8.61218 67.7548 7.09387 68.8649 5.79286C69.5751 4.96127 70.434 4.31971 71.433 3.86816C71.4405 4.72139 71.323 5.56803 71.2778 6.41844C71.2627 6.70818 71.2693 7.0045 71.2091 7.29612C71.179 7.43817 71.1301 7.61973 71.2646 7.7599C71.243 7.79188 71.2232 7.82575 71.1988 7.85585C70.3709 8.88311 69.9965 10.0665 69.9787 11.3741C69.9627 12.5359 70.2599 13.613 70.8554 14.6102C70.7849 14.6215 70.7886 14.676 70.7717 14.7306C70.688 15.01 70.7218 15.3007 70.6908 15.5838C70.6268 16.168 70.6438 16.7606 70.577 17.3448C70.5365 17.6957 70.6033 18.0626 70.4462 18.3994Z" fill="#C0CCDA"/>
<path d="M2.25586 9.10707C2.29067 9.05909 2.33582 9.07226 2.38192 9.08261C4.65562 9.59059 6.92838 10.0995 9.20209 10.6056C10.0873 10.8032 10.9725 10.996 11.8577 11.1907C11.8718 11.2425 11.8784 11.298 11.9001 11.3469C12.1164 11.8135 12.3328 12.2792 12.5529 12.7439C13.0477 13.7852 13.5472 14.8247 14.0374 15.868C14.0947 15.9893 14.1644 16.0759 14.2904 16.1163C13.9376 16.3346 13.536 16.4343 13.154 16.5782C11.6555 17.1445 10.1513 17.6948 8.64895 18.2499C8.55206 18.2856 8.47021 18.3373 8.38931 18.4013C7.01681 19.4775 5.64149 20.5499 4.26616 21.6223C4.23606 21.6458 4.21066 21.6788 4.16457 21.6665C4.15422 21.5772 4.23418 21.5499 4.2831 21.5094C4.90961 20.9949 5.54365 20.4906 6.16546 19.9714C6.86912 19.3844 7.61416 18.8463 8.2896 18.2254C10.1626 17.5255 12.0346 16.8266 13.9075 16.1267C13.3996 15.9122 12.8963 15.7551 12.3949 15.5923C10.933 15.1173 9.47207 14.6432 8.01303 14.1606C7.86816 14.1126 7.7976 14.1352 7.71388 14.2622C7.12499 15.1521 6.52294 16.0345 5.93311 16.9244C5.65842 17.3393 5.34516 17.7306 5.12692 18.1821C5.04413 18.2508 4.94536 18.2198 4.85223 18.2245C5.40631 17.4042 5.96133 16.5848 6.51541 15.7645C6.86818 15.2415 7.21436 14.7147 7.57183 14.1954C7.66026 14.0675 7.64991 14.0035 7.53138 13.8962C5.80705 12.3422 4.08931 10.7815 2.37063 9.22183C2.33206 9.18609 2.29443 9.14564 2.25586 9.10707Z" fill="#C0CCDA"/>
<path d="M61.2791 11.4204C62.1737 10.3376 62.2697 9.12596 61.8454 7.83813C61.6949 7.38282 61.3901 7.02629 61.0439 6.70457C61.075 6.39695 61.1136 6.08934 61.1352 5.78079C61.1728 5.24646 61.1738 4.70837 61.2453 4.17969C61.2772 3.94545 61.2086 3.69711 61.3299 3.4751C61.9988 3.65383 62.5867 3.98873 63.1126 4.42992C64.121 5.27562 64.6883 6.37438 64.914 7.65375C65.1803 9.15795 65.0824 10.632 64.4211 12.0299C63.7391 13.4721 62.6065 14.409 61.0891 14.8878C61.0995 14.6009 61.1107 14.3131 61.1249 14.0261C61.1653 13.1569 61.2801 12.2915 61.2791 11.4204Z" fill="#C0CCDA"/>
<path d="M13.2264 10.4787C12.8435 10.7092 12.4126 10.8277 12.0015 10.9895C11.8858 11.0347 11.8567 10.9303 11.819 10.856C11.5133 10.2407 11.2066 9.6255 10.9028 9.01027C10.6225 8.44302 10.344 7.87483 10.0646 7.30758C10.027 7.23044 9.9856 7.15801 9.90752 7.10909C8.84733 6.44401 7.78903 5.77798 6.73073 5.1129C6.73355 3.72817 6.73449 2.3425 6.74108 0.957766C6.74108 0.866517 6.67617 0.747046 6.80034 0.684959C6.9311 0.619109 7.00165 0.736698 7.08162 0.798785C8.50962 1.91541 9.93386 3.03768 11.3628 4.15243C11.518 4.27378 11.6196 4.40548 11.6695 4.59927C12.1709 6.5409 12.6789 8.48159 13.1868 10.4213C13.1925 10.442 13.2122 10.4599 13.2264 10.4787Z" fill="#C0CCDA"/>
<path d="M105.707 7.19403C105.695 7.74341 105.552 8.58911 105.047 9.32381C104.283 10.4348 103.18 10.876 101.867 10.8242C99.6147 10.7358 98.5893 9.00302 98.5066 7.33043C98.451 6.2091 98.658 5.16303 99.4002 4.2797C100.212 3.31453 101.284 2.97493 102.508 3.07559C104.748 3.25997 105.729 5.0953 105.707 7.19403ZM104.205 6.8676C104.225 6.21193 104.052 5.54214 103.63 4.94572C102.897 3.91188 101.27 3.92693 100.549 4.96924C100.181 5.50075 100.024 6.09904 99.9948 6.73402C99.959 7.52328 100.084 8.27397 100.562 8.93435C101.314 9.97196 102.895 9.96914 103.642 8.92871C104.07 8.33135 104.21 7.65498 104.205 6.8676Z" fill="#C0CCDA"/>
<path d="M126.526 6.96255C126.526 8.13656 126.521 9.30963 126.531 10.4836C126.532 10.669 126.484 10.7245 126.298 10.7151C125.978 10.6991 125.656 10.6962 125.336 10.716C125.128 10.7292 125.096 10.652 125.098 10.4658C125.108 9.53446 125.093 8.60315 125.108 7.67279C125.112 7.43761 125.039 7.39152 124.82 7.39528C123.911 7.40751 123.002 7.40657 122.094 7.39622C121.912 7.39434 121.877 7.44984 121.878 7.61917C121.887 8.58152 121.878 9.54387 121.886 10.5062C121.887 10.6661 121.854 10.7226 121.682 10.7151C121.338 10.7009 120.993 10.7056 120.649 10.7132C120.514 10.716 120.459 10.6934 120.459 10.5382C120.465 8.14409 120.465 5.74997 120.459 3.35585C120.459 3.20252 120.515 3.17618 120.65 3.179C121.001 3.18653 121.355 3.19029 121.707 3.17806C121.86 3.17242 121.885 3.2298 121.885 3.3662C121.879 4.23448 121.887 5.10276 121.878 5.97198C121.876 6.14131 121.91 6.19869 122.094 6.19681C123.017 6.18646 123.942 6.18552 124.866 6.19681C125.073 6.19963 125.108 6.12626 125.106 5.94188C125.096 5.11217 125.111 4.2834 125.095 3.45369C125.091 3.21663 125.165 3.16207 125.385 3.17712C125.674 3.19593 125.965 3.19781 126.253 3.17712C126.488 3.16019 126.534 3.24579 126.532 3.46592C126.52 4.63146 126.526 5.79701 126.526 6.96255Z" fill="#C0CCDA"/>
<path d="M109.78 16.46C110.471 16.7657 110.707 17.3536 110.874 17.9745C111.055 18.6499 111.201 19.3348 111.446 20.0262C110.979 20.0262 110.528 20.0262 110.078 20.0262C109.958 20.0262 109.954 19.9246 109.926 19.8484C109.726 19.3056 109.605 18.7402 109.466 18.1805C109.431 18.0366 109.39 17.8936 109.338 17.7563C109.121 17.1928 108.777 16.9538 108.176 16.9604C107.928 16.9632 107.599 16.8513 107.459 17.0093C107.337 17.1476 107.418 17.4703 107.418 17.7111C107.416 18.4157 107.411 19.1194 107.42 19.8239C107.422 19.9914 107.371 20.0375 107.209 20.0309C106.888 20.0187 106.566 20.0177 106.245 20.0309C106.063 20.0384 106.004 19.9886 106.006 19.7985C106.018 19.1419 106.011 18.4844 106.011 17.8268C106.011 16.1599 106.013 14.4939 106.008 12.8269C106.007 12.6623 106.033 12.587 106.224 12.5654C107.338 12.4393 108.454 12.333 109.561 12.5908C111.009 12.9285 111.646 14.4544 110.848 15.6349C110.591 16.0169 110.234 16.2756 109.78 16.46ZM107.417 14.7356C107.417 15.079 107.417 15.4233 107.417 15.7666C107.417 15.8466 107.409 15.9266 107.53 15.9228C107.943 15.9106 108.36 15.9604 108.769 15.8635C109.409 15.713 109.782 15.2568 109.766 14.6557C109.75 14.0517 109.4 13.6576 108.772 13.5381C108.368 13.461 107.962 13.4995 107.558 13.5325C107.43 13.5428 107.415 13.6228 107.416 13.7281C107.418 14.063 107.417 14.3998 107.417 14.7356Z" fill="#C0CCDA"/>
<path d="M106.883 5.74433C106.883 4.85818 106.887 4.13007 106.879 3.40196C106.877 3.23545 106.906 3.16772 107.093 3.17713C107.428 3.19406 107.767 3.19124 108.103 3.17807C108.274 3.17148 108.308 3.23075 108.307 3.39067C108.301 4.76035 108.302 6.13003 108.304 7.50065C108.305 7.83742 108.33 8.17325 108.416 8.50062C108.63 9.31246 109.158 9.73202 109.944 9.71508C110.689 9.69815 111.226 9.22027 111.392 8.42348C111.454 8.12434 111.481 7.82049 111.481 7.51476C111.481 6.14508 111.484 4.77446 111.477 3.40478C111.476 3.23827 111.505 3.1696 111.692 3.17901C112.036 3.19594 112.381 3.18841 112.726 3.18089C112.851 3.17807 112.903 3.20346 112.902 3.34551C112.896 4.78575 112.902 6.22598 112.89 7.66621C112.886 8.10364 112.815 8.53637 112.681 8.95781C112.396 9.85807 111.79 10.431 110.893 10.6925C110.258 10.8778 109.608 10.8891 108.965 10.7423C107.844 10.4865 107.153 9.69627 106.972 8.49404C106.956 8.38586 106.937 8.27767 106.926 8.16949C106.839 7.3078 106.904 6.4461 106.883 5.74433Z" fill="#C0CCDA"/>
<path d="M98.3447 20.0271C98.1387 20.0083 97.8283 20.1277 97.6571 19.981C97.5009 19.8465 97.4915 19.5426 97.4163 19.314C97.2808 18.902 97.135 18.4918 97.0117 18.076C96.9704 17.9349 96.9111 17.8954 96.77 17.8973C96.0889 17.9039 95.4069 17.9058 94.7258 17.8964C94.5697 17.8945 94.5113 17.9481 94.4699 18.0901C94.2987 18.6724 94.1125 19.25 93.9413 19.8323C93.8961 19.9866 93.8237 20.0393 93.6609 20.0327C93.3166 20.0186 92.9714 20.0214 92.6271 20.0308C92.454 20.0355 92.4126 19.9988 92.4728 19.8211C92.8002 18.8484 93.1144 17.871 93.4333 16.8945C93.8886 15.4985 94.3467 14.1034 94.7964 12.7055C94.8472 12.5475 94.9149 12.4872 95.088 12.492C95.5499 12.5061 96.0127 12.5032 96.4746 12.4929C96.6242 12.4891 96.6872 12.5315 96.7352 12.6782C97.4332 14.7995 98.1397 16.918 98.8443 19.0374C98.9346 19.3102 99.023 19.584 99.1171 19.8559C99.1585 19.9753 99.1575 20.0412 98.9976 20.0318C98.7953 20.0177 98.5912 20.0271 98.3447 20.0271ZM95.7173 13.665C95.4793 14.6801 95.151 15.6622 94.8283 16.6452C94.7719 16.8174 94.8001 16.8569 94.9789 16.854C95.4963 16.8446 96.0127 16.8456 96.5301 16.854C96.6787 16.8559 96.7051 16.8089 96.658 16.68C96.5969 16.5116 96.5461 16.3385 96.4887 16.1692C96.2112 15.3414 95.9469 14.5117 95.7173 13.665Z" fill="#C0CCDA"/>
<path d="M121.693 20.027C121.887 19.4306 122.072 18.8643 122.257 18.297C122.871 16.4194 123.487 14.5426 124.097 12.664C124.141 12.5276 124.2 12.49 124.337 12.4928C124.815 12.5013 125.293 12.5013 125.77 12.4928C125.905 12.4909 125.975 12.5239 126.02 12.6612C126.802 15.0422 127.589 17.4222 128.383 19.7993C128.451 20.0035 128.403 20.0373 128.212 20.0308C127.86 20.0195 127.506 20.0166 127.154 20.0317C126.971 20.0392 126.905 19.9715 126.853 19.8012C126.68 19.2283 126.48 18.663 126.302 18.091C126.259 17.9499 126.204 17.8935 126.05 17.8953C125.369 17.9038 124.687 17.9038 124.005 17.8953C123.86 17.8935 123.801 17.9461 123.762 18.0741C123.58 18.6705 123.389 19.2631 123.211 19.8595C123.176 19.9762 123.136 20.0308 123.008 20.0289C122.588 20.0232 122.166 20.027 121.693 20.027ZM125.006 13.6584C124.764 14.6894 124.429 15.6922 124.097 16.6959C124.055 16.8248 124.094 16.8549 124.223 16.853C124.755 16.8474 125.287 16.8474 125.819 16.8521C125.968 16.854 125.985 16.8135 125.941 16.6743C125.62 15.6762 125.267 14.6866 125.006 13.6584Z" fill="#C0CCDA"/>
<path d="M71.264 7.75984C71.1294 7.62061 71.1793 7.43906 71.2085 7.29607C71.2696 7.00445 71.2621 6.70718 71.2771 6.41838C71.3223 5.56798 71.4399 4.72133 71.4323 3.86811C72.4361 3.378 73.501 3.11742 74.612 3.05533C75.7135 2.99324 76.817 3.013 77.9204 3.03934C77.9035 3.39681 77.8997 3.75522 77.8659 4.11081C77.8066 4.73639 77.7577 5.3629 77.7323 5.9913C76.9506 5.99506 76.1679 6.00071 75.3862 6.00259C74.9309 6.00353 74.4812 6.03645 74.0362 6.13899C72.9431 6.38922 72.0184 6.92825 71.264 7.75984Z" fill="#C0CCDA"/>
<path d="M70.4463 18.3995C70.6034 18.0628 70.5366 17.6959 70.577 17.345C70.6438 16.7618 70.6269 16.1682 70.6909 15.584C70.7219 15.2999 70.6871 15.0092 70.7718 14.7308C70.7878 14.6771 70.7849 14.6216 70.8555 14.6104C71.0286 14.8352 71.1772 15.076 71.3757 15.2848C72.0182 15.964 72.7755 16.4494 73.6682 16.727C73.9853 16.8257 74.306 16.9104 74.6381 16.9386C75.418 17.0045 76.2016 16.9414 76.9824 16.9809C76.9927 17.3083 76.9438 17.6329 76.924 17.9574C76.8826 18.615 76.8065 19.2706 76.7942 19.9301C76.1301 19.9621 75.4659 19.9555 74.8018 19.9254C73.2402 19.8539 71.8254 19.3487 70.5375 18.4739C70.5037 18.4513 70.4764 18.424 70.4463 18.3995Z" fill="#C0CCDA"/>
<path d="M39.9326 15.6021C39.9147 16.5202 39.8282 17.4346 39.7492 18.3489C39.7285 18.5888 39.7557 18.8325 39.6984 19.0705C39.6861 19.1231 39.6946 19.1805 39.7501 19.2163C39.0737 19.5568 38.3513 19.7515 37.6062 19.8465C36.2055 20.0253 34.7972 19.9416 33.3909 19.9303C33.4548 19.062 33.5254 18.1947 33.5809 17.3254C33.6007 17.0094 33.5837 17.0112 33.2705 17.0065C33.1548 17.0047 33.0353 17.0338 32.9233 16.9802C33.0089 16.9755 33.0945 16.968 33.1802 16.968C34.1989 16.967 35.2177 16.967 36.2356 16.9689C36.6674 16.9698 37.0954 16.9322 37.5178 16.841C38.435 16.6425 39.2205 16.1928 39.9326 15.6021Z" fill="#C0CCDA"/>
<path d="M77.7329 5.9895C77.7574 5.36111 77.8063 4.73553 77.8665 4.10902C77.9004 3.75343 77.9041 3.39501 77.9211 3.03754C79.9351 2.96135 81.9285 3.01026 83.7695 3.98955C83.8588 4.03658 83.9444 4.09114 84.0319 4.14194C83.9426 5.37616 83.9134 6.61602 83.7318 7.84271C83.7036 7.81543 83.6735 7.79097 83.6481 7.76181C82.6378 6.64048 81.3622 6.08075 79.8664 6.01396C79.1562 5.98292 78.4441 5.99703 77.7329 5.9895Z" fill="#C0CCDA"/>
<path d="M96.9959 4.55412C96.3873 4.27473 95.7711 4.13645 95.1154 4.22676C94.9583 4.24839 94.8106 4.29637 94.6724 4.36974C94.0872 4.68018 94.0242 5.3669 94.5463 5.77517C94.8906 6.04421 95.3008 6.18156 95.7015 6.33678C96.0232 6.46095 96.3355 6.60206 96.6281 6.7855C97.3299 7.22669 97.692 7.8485 97.6375 8.68856C97.581 9.56342 97.121 10.1692 96.3346 10.5107C95.3186 10.9529 94.2744 10.8936 93.2331 10.5954C92.6197 10.4195 92.6207 10.411 92.7787 9.81083C92.8182 9.66032 92.8831 9.51451 92.9038 9.36305C92.9283 9.18337 92.9941 9.22006 93.1155 9.27651C93.8097 9.60105 94.5331 9.76944 95.3017 9.62645C95.9799 9.5004 96.3412 8.96607 96.1615 8.37436C96.0797 8.10344 95.884 7.93034 95.6516 7.78641C95.3233 7.58228 94.9564 7.47222 94.6018 7.33017C94.1644 7.1552 93.7439 6.95012 93.3939 6.62463C92.4974 5.79116 92.5708 4.37257 93.552 3.63599C94.2707 3.09696 95.0966 3.00101 95.9583 3.0725C96.3807 3.10731 96.7918 3.19667 97.185 3.36412C97.2913 3.40927 97.3459 3.44314 97.2979 3.57954C97.1869 3.89562 97.0984 4.21829 96.9959 4.55412Z" fill="#C0CCDA"/>
<path d="M40.7773 4.18795C40.7161 4.94617 40.6521 5.70438 40.5957 6.4626C40.5703 6.80408 40.5581 7.1465 40.544 7.48798C40.5383 7.62062 40.5411 7.75326 40.4301 7.85203C40.0416 7.44376 39.6324 7.06089 39.1451 6.76927C38.2637 6.24341 37.307 6.00165 36.2844 6.00165C35.3682 6.00165 34.4519 5.99412 33.5356 5.99036C33.8282 5.92921 34.1245 5.97061 34.419 5.96684C34.5676 5.96496 34.6137 5.92357 34.6241 5.76929C34.6758 4.97533 34.7445 4.18231 34.8037 3.38835C34.8122 3.27264 34.8037 3.15505 34.8028 3.0384C35.5949 3.02805 36.3832 3.02147 37.1771 3.0845C38.0106 3.15035 38.8046 3.32626 39.5816 3.6113C39.9983 3.76275 40.4047 3.94243 40.7773 4.18795Z" fill="#C0CCDA"/>
<path d="M76.7925 19.929C76.8047 19.2696 76.8809 18.6139 76.9223 17.9563C76.943 17.6318 76.991 17.3072 76.9806 16.9799C77.7934 16.9761 78.6062 16.9752 79.419 16.9667C79.6918 16.9639 79.9664 16.9601 80.2383 16.931C81.307 16.8181 82.2505 16.3995 83.0887 15.7344C83.1696 15.7428 83.1893 15.7927 83.1809 15.8661C83.1122 16.4992 83.083 17.1342 83.0388 17.7691C83.004 18.2649 82.9457 18.7588 82.9504 19.2573C82.2759 19.5828 81.5581 19.77 80.8206 19.8575C79.4829 20.0156 78.1368 19.9412 76.7925 19.929Z" fill="#C0CCDA"/>
<path d="M120.78 18.7099C120.85 19.0316 120.915 19.3289 120.98 19.6252C121.003 19.7315 121.012 19.8284 120.875 19.8661C119.315 20.2978 117.79 20.3421 116.413 19.3336C115.557 18.7062 115.2 17.788 115.114 16.7561C115.067 16.1916 115.109 15.6291 115.272 15.0835C115.73 13.5614 116.801 12.7307 118.325 12.4523C119.174 12.2971 120.022 12.3507 120.854 12.6122C121.046 12.6724 121.093 12.7533 121.022 12.9433C120.936 13.1757 120.868 13.4175 120.816 13.6602C120.785 13.8041 120.743 13.8079 120.616 13.7627C119.883 13.505 119.134 13.4391 118.379 13.6461C117.387 13.9179 116.74 14.7138 116.618 15.7617C116.551 16.3299 116.577 16.8868 116.772 17.4268C117.109 18.3581 117.981 18.9554 119.024 18.9743C119.32 18.9799 119.618 18.9856 119.914 18.9357C120.206 18.8877 120.493 18.8181 120.78 18.7099Z" fill="#C0CCDA"/>
<path d="M100.206 16.2583C100.206 15.0768 100.209 13.8952 100.203 12.7146C100.202 12.5491 100.229 12.4898 100.414 12.4907C101.769 12.5001 103.124 12.4983 104.479 12.4926C104.626 12.4917 104.686 12.5208 104.677 12.6817C104.663 12.931 104.663 13.1831 104.677 13.4324C104.685 13.5942 104.64 13.6431 104.473 13.6422C103.611 13.6337 102.749 13.6431 101.888 13.6337C101.699 13.6318 101.63 13.6742 101.634 13.8764C101.649 14.4079 101.647 14.9404 101.635 15.4719C101.632 15.6449 101.674 15.6957 101.854 15.6939C102.652 15.6835 103.451 15.6957 104.25 15.6845C104.429 15.6816 104.479 15.7324 104.468 15.9065C104.453 16.1398 104.453 16.3759 104.468 16.6101C104.479 16.7926 104.426 16.8528 104.235 16.85C103.452 16.8387 102.668 16.8519 101.886 16.8406C101.695 16.8378 101.633 16.8829 101.635 17.0833C101.647 17.9911 101.635 18.8979 101.644 19.8057C101.646 19.9788 101.602 20.0381 101.423 20.0306C101.094 20.0155 100.764 20.0164 100.436 20.0306C100.255 20.0381 100.201 19.9901 100.203 19.802C100.21 18.6204 100.206 17.4389 100.206 16.2583Z" fill="#C0CCDA"/>
<path d="M65.1866 26.4464C65.5704 25.9779 66.022 25.7898 66.5817 25.8707C66.911 25.9177 67.1762 26.0664 67.3474 26.3523C67.4283 26.4878 67.465 26.4624 67.5525 26.3599C67.8667 25.9892 68.2778 25.818 68.7595 25.8538C69.4057 25.9017 69.8253 26.3326 69.9288 27.0231C69.9598 27.2319 69.9767 27.4417 69.9767 27.6543C69.9739 28.3824 69.9711 29.1096 69.9786 29.8377C69.9805 29.9816 69.9457 30.0268 69.798 30.0202C69.5167 30.0079 69.2336 30.0061 68.9523 30.0202C68.7896 30.0286 68.7416 29.9844 68.7444 29.817C68.7548 29.1284 68.7472 28.4398 68.7501 27.7512C68.751 27.5771 68.7265 27.4088 68.6804 27.2422C68.6184 27.0184 68.4942 26.866 68.2421 26.8566C68.0022 26.8472 67.799 26.977 67.7115 27.2046C67.6485 27.3674 67.6372 27.5386 67.6372 27.7117C67.6381 28.4163 67.6334 29.1199 67.6409 29.8245C67.6428 29.976 67.6052 30.0268 67.4481 30.0192C67.1668 30.0061 66.8837 30.0061 66.6024 30.0192C66.4453 30.0268 66.4067 29.975 66.4077 29.8226C66.4152 29.118 66.4124 28.4144 66.4105 27.7098C66.4105 27.5621 66.4133 27.4135 66.371 27.2676C66.307 27.0503 66.2045 26.8801 65.9514 26.8584C65.7059 26.8377 65.4961 26.961 65.3889 27.1971C65.3334 27.3194 65.3174 27.4492 65.3174 27.5847C65.3212 28.3278 65.3136 29.071 65.323 29.8151C65.3249 29.9807 65.2816 30.0286 65.117 30.0192C64.8517 30.0042 64.5836 30.0042 64.3183 30.0192C64.1415 30.0286 64.0822 29.9854 64.0841 29.7944C64.0945 28.848 64.0898 27.9007 64.0841 26.9544C64.0822 26.6656 64.0644 26.3759 64.0465 26.0871C64.039 25.9685 64.0691 25.9205 64.1989 25.9262C64.4491 25.9365 64.7003 25.9384 64.9505 25.9262C65.0916 25.9196 65.1462 25.9563 65.1377 26.103C65.1349 26.2018 65.165 26.3025 65.1866 26.4464Z" fill="#C0CCDA"/>
<path d="M115.952 7.53986C115.952 6.54647 115.948 5.55213 115.957 4.55874C115.959 4.37906 115.906 4.33485 115.733 4.33767C115.146 4.34802 114.558 4.33673 113.971 4.34426C113.81 4.34614 113.748 4.30192 113.757 4.13354C113.77 3.87578 113.765 3.61708 113.758 3.35933C113.754 3.23233 113.787 3.17871 113.927 3.17871C115.759 3.18247 117.593 3.18247 119.425 3.17871C119.553 3.17871 119.583 3.22292 119.58 3.34145C119.572 3.6152 119.568 3.88989 119.581 4.1627C119.587 4.31133 119.535 4.3452 119.395 4.34331C118.792 4.33579 118.189 4.34708 117.586 4.33673C117.412 4.33391 117.363 4.37906 117.364 4.5578C117.371 6.52953 117.365 8.50221 117.374 10.4739C117.375 10.6696 117.327 10.7261 117.131 10.7157C116.803 10.6978 116.473 10.7035 116.144 10.7148C115.992 10.7204 115.948 10.6762 115.949 10.5219C115.956 9.52759 115.952 8.53419 115.952 7.53986Z" fill="#C0CCDA"/>
<path d="M8.29146 18.2264C7.61603 18.8482 6.87099 19.3854 6.16733 19.9724C5.54552 20.4917 4.91148 20.9959 4.28496 21.5104C4.23605 21.5509 4.15609 21.5772 4.16643 21.6675L4.16079 21.66C4.07895 21.6722 4.00275 21.6901 4.01498 21.8002L4.01404 21.8011C3.94819 21.7541 3.93502 21.8068 3.91809 21.8519L3.92467 21.8472C3.85506 21.8359 3.84471 21.8839 3.83624 21.9347C3.75628 21.9874 3.68855 21.9789 3.60671 21.9225C2.42894 21.105 1.2474 20.2922 0.0686857 19.4766C0.0451679 19.4597 0.0310572 19.4286 0.0131836 19.4042C0.506117 19.3308 0.983059 19.1859 1.46659 19.0712C2.41859 18.8454 3.36777 18.6083 4.31883 18.376C4.44771 18.3487 4.57753 18.3214 4.7064 18.2941C4.73086 18.2179 4.84657 18.3327 4.85598 18.2236L4.85127 18.2264C4.9444 18.2217 5.04318 18.2528 5.12596 18.1841C5.21251 18.2368 5.3094 18.2161 5.40159 18.2161C6.36676 18.2198 7.32911 18.2227 8.29146 18.2264Z" fill="#C0CCDA"/>
<path d="M52.4326 5.98781C52.4956 5.16845 52.5615 4.35002 52.6208 3.53066C52.633 3.36792 52.6208 3.2033 52.6208 3.03961C52.6669 3.03397 52.713 3.02268 52.759 3.02268C54.236 3.02174 55.7129 3.02174 57.1898 3.02268C57.2359 3.02268 57.282 3.03397 57.3281 3.04055C57.33 3.34346 57.2905 3.64543 57.2707 3.94646C57.2256 4.62754 57.1484 5.30579 57.1399 5.98875C56.9847 5.99439 56.8286 6.0038 56.6734 6.0038C55.3526 6.00474 54.0328 6.00474 52.712 6.0038C52.6198 6.00192 52.5267 5.99251 52.4326 5.98781Z" fill="#C0CCDA"/>
<path d="M61.279 11.4204C61.28 12.2915 61.1652 13.157 61.1247 14.0262C61.1116 14.3131 61.0993 14.6 61.089 14.8879C60.6196 15.0751 60.1257 15.1607 59.6281 15.2002C58.551 15.2867 57.4701 15.2585 56.3901 15.2331C56.3986 14.2774 56.4946 13.3272 56.5773 12.3771C57.281 12.3734 57.9856 12.3602 58.6892 12.3668C59.6742 12.3762 60.5603 12.1297 61.279 11.4204Z" fill="#C0CCDA"/>
<path d="M56.5773 12.3773C56.4945 13.3283 56.3986 14.2775 56.3901 15.2333C56.3365 15.2399 56.2819 15.2521 56.2283 15.2521C54.8116 15.253 53.3949 15.2502 51.9781 15.2568C51.8051 15.2577 51.775 15.1957 51.7759 15.0404C51.7825 14.2117 51.7815 13.3829 51.7768 12.5541C51.7759 12.4215 51.7966 12.3604 51.9528 12.3604C53.4711 12.3669 54.9894 12.3651 56.5086 12.366C56.5312 12.366 56.5547 12.3735 56.5773 12.3773Z" fill="#C0CCDA"/>
<path d="M14.2925 16.1165C14.1665 16.076 14.0959 15.9895 14.0395 15.8681C13.5484 14.8249 13.0489 13.7854 12.5551 12.744C12.3349 12.2793 12.1186 11.8137 11.9022 11.3471C11.8796 11.2991 11.873 11.2436 11.8599 11.1909C12.6905 11.3123 13.5212 11.4336 14.3518 11.5559C15.3452 11.7017 16.3377 11.8466 17.3311 11.9933C17.3442 11.9952 17.3546 12.0122 17.3668 12.0216C16.396 13.3198 15.4252 14.617 14.4544 15.9152C14.4017 15.9839 14.3462 16.0497 14.2925 16.1165Z" fill="#C0CCDA"/>
<path d="M49.6171 27.2376C49.6171 26.3778 49.6199 25.517 49.6143 24.6572C49.6133 24.5255 49.6369 24.4757 49.7845 24.4587C50.5719 24.3675 51.3593 24.2979 52.142 24.4691C52.9312 24.6412 53.3912 25.1643 53.4665 25.9375C53.5446 26.7437 53.1655 27.437 52.4646 27.7597C52.0677 27.9422 51.6472 28.0099 51.2116 28.0005C50.8871 27.993 50.8871 27.9986 50.8871 28.3326C50.8871 28.817 50.8795 29.3025 50.8908 29.7869C50.8946 29.96 50.8635 30.0353 50.6669 30.0212C50.3941 30.0014 50.1185 30.0061 49.8457 30.0202C49.6688 30.0296 49.6096 29.9873 49.6124 29.7954C49.6237 28.9422 49.6171 28.0899 49.6171 27.2376ZM50.8871 26.1652C50.8871 26.2743 50.8871 26.3844 50.8871 26.4935C50.8871 27.0918 50.9341 27.1313 51.5315 27.0062C51.6293 26.9855 51.729 26.9516 51.8155 26.9018C52.1354 26.7164 52.2426 26.4211 52.221 26.0664C52.2003 25.739 52.047 25.5029 51.7337 25.3872C51.5004 25.3007 51.2577 25.311 51.0141 25.3326C50.919 25.3411 50.8824 25.3853 50.8852 25.485C50.8918 25.7108 50.8871 25.9385 50.8871 26.1652Z" fill="#C0CCDA"/>
<path d="M57.1406 5.98769C57.1482 5.30473 57.2262 4.62648 57.2714 3.9454C57.2911 3.64343 57.3306 3.3424 57.3288 3.0395C58.578 3.00563 59.8273 2.9727 61.0436 3.34052C61.1434 3.37063 61.2647 3.36592 61.3296 3.47505C61.2083 3.69705 61.2769 3.9454 61.245 4.17964C61.1735 4.70832 61.1725 5.24735 61.1349 5.78073C61.1133 6.08929 61.0747 6.3969 61.0436 6.70451C60.3466 6.17489 59.5479 5.99145 58.6881 5.99992C58.1716 6.00462 57.6561 5.99239 57.1406 5.98769Z" fill="#C0CCDA"/>
<path d="M77.4656 26.4465C77.9096 25.9187 78.443 25.7475 79.0686 25.9046C79.6321 26.0457 80.0009 26.5443 80.0263 27.2602C80.0573 28.136 80.0366 29.0137 80.0413 29.8895C80.0413 29.9742 80.0253 30.0174 79.9265 30.0165C79.5898 30.0118 79.253 30.009 78.9162 30.0174C78.7563 30.0212 78.7902 29.9168 78.7902 29.8293C78.7892 29.1482 78.7911 28.4671 78.7883 27.7861C78.7883 27.6534 78.7817 27.5198 78.7648 27.3881C78.7252 27.0965 78.555 26.8961 78.3339 26.8698C78.015 26.8303 77.7817 26.9629 77.6604 27.2555C77.602 27.3957 77.5945 27.5434 77.5945 27.6939C77.5954 28.3909 77.586 29.0871 77.6002 29.7841C77.6049 29.9883 77.5409 30.0315 77.3527 30.0203C77.0799 30.0033 76.8043 30.0052 76.5306 30.0203C76.3659 30.0297 76.3387 29.9666 76.3396 29.8208C76.3424 28.8425 76.3377 27.8641 76.333 26.8858C76.3321 26.6196 76.3283 26.3534 76.3151 26.0881C76.3095 25.9686 76.3368 25.9216 76.4666 25.9272C76.7168 25.9366 76.968 25.9366 77.2182 25.9272C77.349 25.9225 77.4214 25.9413 77.4139 26.0975C77.4092 26.201 77.444 26.3082 77.4656 26.4465Z" fill="#C0CCDA"/>
<path d="M62.9853 25.9292C62.6843 26.8407 62.3946 27.7288 62.0992 28.614C61.8762 29.28 61.6326 29.9385 61.2817 30.5509C60.9478 31.1342 60.4896 31.5688 59.8283 31.771C59.6392 31.8284 59.5659 31.7917 59.5282 31.5979C59.4831 31.3703 59.4191 31.1436 59.3354 30.9263C59.2865 30.7993 59.325 30.7673 59.4323 30.7297C59.7484 30.6196 60.0183 30.4418 60.2319 30.1793C60.3777 29.9997 60.4134 29.8228 60.3269 29.597C59.8838 28.4447 59.4577 27.2866 59.0118 26.1352C58.9365 25.9405 58.9845 25.9179 59.1642 25.9254C59.4774 25.9377 59.7916 25.9433 60.1039 25.9236C60.2883 25.9113 60.3448 25.9941 60.3843 26.1446C60.5893 26.9358 60.7972 27.726 61.0061 28.5162C61.0155 28.5519 61.0362 28.5848 61.0616 28.6413C61.2601 27.7721 61.4529 26.9282 61.6439 26.0835C61.6608 26.0073 61.6514 25.9264 61.7699 25.9283C62.166 25.9311 62.5639 25.9292 62.9853 25.9292Z" fill="#C0CCDA"/>
<path d="M54.9064 26.9864C54.8518 26.8011 54.8142 26.6167 54.7427 26.4465C54.6609 26.2489 54.7192 26.1558 54.9111 26.0852C55.4878 25.8717 56.0795 25.7908 56.6862 25.8905C57.3833 26.0053 57.8226 26.5038 57.8951 27.2207C57.9402 27.6656 57.9139 28.1115 57.9214 28.5574C57.9289 29.0024 57.9026 29.4492 57.9769 29.8914C57.9929 29.9835 57.9722 30.0174 57.8744 30.0165C57.5771 30.0118 57.2789 30.0127 56.9816 30.0165C56.8998 30.0174 56.8499 30.0024 56.8415 29.9092C56.833 29.8246 56.8085 29.7427 56.7907 29.6552C56.6947 29.6392 56.6637 29.7305 56.6091 29.7757C56.0033 30.2808 54.722 30.2469 54.4379 29.1698C54.2799 28.5706 54.5339 27.9676 55.0823 27.6449C55.5207 27.3881 56.0061 27.3138 56.5019 27.2969C56.6599 27.2912 56.6891 27.2442 56.6467 27.104C56.579 26.8801 56.3871 26.7418 56.1115 26.7268C55.7295 26.7061 55.3645 26.7672 55.0221 26.9469C54.9883 26.9648 54.9497 26.9714 54.9064 26.9864ZM56.7022 28.3806C56.6439 28.3025 56.8151 28.1031 56.5959 28.0852C56.3382 28.0645 56.0814 28.1115 55.8575 28.2592C55.6204 28.4144 55.5423 28.7672 55.6863 29.0043C55.817 29.2187 56.1068 29.2761 56.372 29.1388C56.6778 28.9817 56.7173 28.7032 56.7022 28.3806Z" fill="#C0CCDA"/>
<path d="M112.477 16.2771C112.477 15.0881 112.481 13.899 112.473 12.7109C112.472 12.5387 112.509 12.4823 112.689 12.4917C113.017 12.5077 113.347 12.5077 113.675 12.4917C113.861 12.4823 113.906 12.5406 113.905 12.7231C113.899 14.6318 113.902 16.5396 113.902 18.4483C113.902 18.9177 113.898 19.3871 113.904 19.8566C113.906 19.9873 113.87 20.0344 113.734 20.0306C113.382 20.0221 113.03 20.0184 112.678 20.0325C112.507 20.0391 112.474 19.9807 112.475 19.8218C112.48 18.6393 112.477 17.4577 112.477 16.2771Z" fill="#C0CCDA"/>
<path d="M73.7597 28.3756C73.3994 28.3756 73.0391 28.3812 72.6788 28.3727C72.5302 28.369 72.5104 28.4132 72.5499 28.5477C72.6553 28.9014 72.9205 29.051 73.2517 29.1225C73.6609 29.2109 74.0626 29.1479 74.4567 29.0406C74.6044 29.0002 74.6543 29.0397 74.6731 29.1752C74.69 29.2984 74.7126 29.4216 74.7371 29.5439C74.7991 29.8544 74.802 29.8581 74.5057 29.9381C73.9544 30.0867 73.3947 30.1309 72.8331 30.0218C72.0316 29.8656 71.5283 29.368 71.3778 28.5656C71.2414 27.8384 71.3345 27.147 71.8011 26.543C72.3128 25.8798 73.3194 25.6437 74.071 26.0153C74.7295 26.3408 74.9487 26.9381 75.0014 27.6136C75.0202 27.8591 75.1096 28.1714 74.9384 28.3379C74.801 28.4706 74.5038 28.3671 74.278 28.3737C74.1049 28.3793 73.9328 28.3756 73.7597 28.3756ZM73.1774 27.5252C73.3646 27.5252 73.5518 27.5261 73.739 27.5242C73.7907 27.5242 73.8406 27.5364 73.8519 27.4499C73.8932 27.1329 73.6298 26.7547 73.3185 26.6973C72.9356 26.6277 72.469 27.0755 72.5198 27.4593C72.532 27.5524 72.5951 27.5223 72.6402 27.5233C72.818 27.527 72.9977 27.5252 73.1774 27.5252Z" fill="#C0CCDA"/>
<path d="M31.5344 26.4842C31.8609 26.0712 32.2663 25.8596 32.7734 25.9066C33.4657 25.9706 33.9286 26.4814 33.954 27.2509C33.9831 28.1267 33.9634 29.0034 33.969 29.8802C33.9699 29.9771 33.9464 30.011 33.8401 30.0185C33.2437 30.0599 33.2512 30.0627 33.2428 29.4804C33.2324 28.7532 33.2907 28.0242 33.2108 27.2998C33.1525 26.7711 32.8543 26.4899 32.4065 26.4983C31.9606 26.5068 31.5373 26.8746 31.5203 27.3403C31.4902 28.1371 31.4921 28.9357 31.5062 29.7334C31.5109 29.979 31.4394 30.0307 31.2089 30.0213C30.7649 30.0025 30.7649 30.0157 30.7649 29.5651C30.7649 27.836 30.7687 26.106 30.7593 24.377C30.7583 24.1757 30.8148 24.1343 31.0048 24.139C31.4987 24.1522 31.4987 24.1428 31.4987 24.6442C31.4987 25.1766 31.4977 25.7081 31.4996 26.2406C31.4987 26.3139 31.4752 26.393 31.5344 26.4842Z" fill="#C0CCDA"/>
<path d="M81.7292 27.8555C81.7292 27.5818 81.7198 27.3071 81.733 27.0343C81.7414 26.8716 81.6944 26.8198 81.5269 26.8255C81.2099 26.8367 81.209 26.8264 81.209 26.5084C81.209 26.4539 81.209 26.3993 81.209 26.3438C81.209 25.9515 81.209 25.9478 81.5937 25.9299C81.6897 25.9252 81.7452 25.9092 81.7292 25.801C81.7273 25.786 81.7283 25.77 81.7292 25.754C81.7461 25.531 81.6323 25.2422 81.7734 25.1011C81.9108 24.9647 82.1939 24.9741 82.414 24.9224C82.5881 24.8819 82.8289 24.7606 82.922 24.8302C83.0518 24.929 82.9625 25.1783 82.9653 25.3626C82.9719 25.9261 82.9681 25.9261 83.5391 25.9261C83.8561 25.9261 83.8599 25.9261 83.8543 26.2479C83.8505 26.4332 83.9342 26.6731 83.8204 26.7897C83.7047 26.9082 83.4648 26.8208 83.2786 26.8264C82.9305 26.8358 82.9681 26.7803 82.9681 27.1406C82.9672 27.6025 82.9549 28.0644 82.9794 28.5244C83.0048 28.9825 83.1563 29.1067 83.6087 29.0615C83.7856 29.0437 83.8166 29.0916 83.8072 29.2506C83.7959 29.4453 83.8072 29.642 83.8101 29.8367C83.811 29.9166 83.8138 29.9938 83.7047 30.0126C83.3482 30.0775 82.9898 30.1161 82.6332 30.0323C82.1196 29.911 81.8421 29.5836 81.7715 29.0474C81.7584 28.9468 81.7386 28.8461 81.7367 28.7445C81.732 28.4472 81.7348 28.15 81.7348 27.8527C81.7339 27.8555 81.732 27.8555 81.7292 27.8555Z" fill="#C0CCDA"/>
<path d="M85.1311 28.9308C85.4123 29.055 85.6889 29.1566 85.9862 29.1942C86.1292 29.2121 86.2684 29.2036 86.4048 29.166C86.5243 29.133 86.6212 29.0662 86.6418 28.9345C86.6644 28.7934 86.6287 28.6646 86.4989 28.5902C86.3578 28.5093 86.2082 28.4397 86.0586 28.3748C85.8855 28.3005 85.7152 28.2234 85.5591 28.118C84.815 27.6157 84.8159 26.6082 85.5788 26.1284C86.2138 25.7286 86.8902 25.7973 87.5675 26.0259C87.6503 26.0541 87.6748 26.1049 87.6522 26.1867C87.5854 26.4341 87.5214 26.6815 87.4546 26.9346C87.1903 26.8283 86.9438 26.7276 86.672 26.7295C86.5948 26.7305 86.5149 26.738 86.4415 26.7587C86.3154 26.7944 86.2148 26.8622 86.196 27.0089C86.1771 27.1547 86.2514 27.2554 86.3681 27.3146C86.6117 27.4379 86.8667 27.5395 87.1094 27.6636C87.5327 27.8809 87.814 28.2074 87.8394 28.7041C87.8685 29.2892 87.5487 29.7633 86.9692 29.9505C86.3389 30.1547 85.7068 30.1208 85.084 29.8922C84.9523 29.8442 84.8978 29.7878 84.9495 29.6335C85.0248 29.4087 85.0699 29.1716 85.1311 28.9308Z" fill="#C0CCDA"/>
<path d="M46.2679 30.0071C45.4363 30.0494 45.4382 30.0475 45.0055 29.3674C44.7392 28.9497 44.4655 28.5368 44.1936 28.12C43.9462 28.3251 43.8249 28.5499 43.8531 28.8651C43.8813 29.184 43.854 29.5066 43.8616 29.8274C43.8644 29.9582 43.8465 30.0193 43.6875 30.0203C43.1278 30.024 43.1278 30.0316 43.1278 29.4681C43.1278 27.7691 43.1306 26.0711 43.124 24.3722C43.1231 24.1954 43.1588 24.1342 43.3498 24.1389C43.8587 24.1521 43.8587 24.1427 43.8587 24.6526C43.8587 25.5999 43.8578 26.5471 43.8597 27.4944C43.8597 27.5753 43.8343 27.6619 43.8879 27.7466C44.3122 27.2019 44.7364 26.6657 45.1494 26.1219C45.2341 26.01 45.3197 25.9648 45.4598 25.9733C45.6621 25.9865 45.8653 25.9761 46.1042 25.9761C45.9706 26.2066 45.79 26.3665 45.6395 26.5481C45.3658 26.8792 45.0873 27.2075 44.7966 27.5245C44.6988 27.6308 44.7157 27.6929 44.7891 27.7983C45.2576 28.4709 45.7195 29.1482 46.1823 29.8255C46.2152 29.8745 46.2688 29.9158 46.2679 30.0071Z" fill="#C0CCDA"/>
<path d="M38.8494 26.5605C39.2012 26.0732 39.6405 25.8644 40.173 25.9067C40.8898 25.9631 41.3573 26.4834 41.3818 27.2754C41.4081 28.1428 41.3903 29.0111 41.394 29.8793C41.395 29.9753 41.3733 30.011 41.267 30.0186C40.6678 30.06 40.6753 30.0637 40.6669 29.4588C40.6565 28.7401 40.7101 28.0195 40.6358 27.3027C40.5822 26.7891 40.299 26.5022 39.8607 26.4965C39.4261 26.4909 39.0216 26.838 38.9501 27.2877C38.9265 27.4335 38.9218 27.5831 38.9218 27.7317C38.919 28.4353 38.9181 29.139 38.9228 29.8436C38.9237 29.9687 38.8974 30.0176 38.7572 30.0204C38.19 30.0308 38.1956 30.0364 38.189 29.4767C38.1759 28.3507 38.2276 27.2246 38.1542 26.0995C38.1523 26.076 38.1401 26.0384 38.1495 26.0318C38.3151 25.9152 38.5042 26.0027 38.681 25.9773C38.7638 25.965 38.809 25.9904 38.8108 26.0883C38.8127 26.2275 38.8325 26.3667 38.8494 26.5605Z" fill="#C0CCDA"/>
<path d="M28.0917 27.5355C28.0917 28.2947 28.0861 29.0538 28.0955 29.813C28.0973 29.9776 28.055 30.0209 27.8894 30.019C27.3692 30.0124 27.3692 30.019 27.3692 29.4969C27.3692 28.0887 27.3645 26.6795 27.3739 25.2712C27.3749 25.0709 27.3184 25.0238 27.1265 25.0314C26.7512 25.0473 26.3749 25.0314 25.9986 25.0389C25.8754 25.0408 25.8227 25.021 25.8208 24.878C25.8161 24.4095 25.8095 24.4095 26.278 24.4095C27.3203 24.4095 28.3617 24.4133 29.404 24.4058C29.579 24.4048 29.6467 24.4378 29.6392 24.6316C29.6241 25.0361 29.6363 25.037 29.2375 25.037C28.9318 25.037 28.626 25.0464 28.3212 25.0332C28.1444 25.0257 28.0813 25.0662 28.0851 25.259C28.0992 26.0172 28.0917 26.7764 28.0917 27.5355Z" fill="#C0CCDA"/>
<path d="M35.7002 27.9844C35.7002 27.3748 35.7049 26.7653 35.6973 26.1557C35.6955 26.0155 35.7256 25.9713 35.8751 25.9713C36.4433 25.9704 36.4433 25.9647 36.4433 26.5414C36.4433 27.6279 36.4386 28.7144 36.448 29.8C36.449 29.975 36.4057 30.0229 36.2288 30.0201C35.7011 30.0107 35.7011 30.0192 35.7011 29.4849C35.7002 28.9844 35.7002 28.4839 35.7002 27.9844Z" fill="#C0CCDA"/>
<path d="M36.0424 25.3315C35.7912 25.3231 35.6116 25.1265 35.621 24.8715C35.6304 24.6241 35.8289 24.4331 36.0753 24.4341C36.3387 24.435 36.5156 24.6269 36.509 24.9035C36.5024 25.1791 36.3256 25.3409 36.0424 25.3315Z" fill="#C0CCDA"/>
<path d="M4.3207 18.3742C3.37058 18.6066 2.42046 18.8437 1.46845 19.0694C0.984927 19.1842 0.507986 19.3291 0.0150516 19.4024C-0.0376283 19.2801 0.0592652 19.2754 0.1317 19.2585C1.46751 18.9612 2.80333 18.664 4.13914 18.3695C4.19746 18.3582 4.26143 18.3366 4.3207 18.3742Z" fill="#C0CCDA"/>
<path d="M34.0024 3.03786C33.9412 3.04444 33.8792 3.05761 33.818 3.05761C32.0015 3.05855 30.185 3.05761 28.3675 3.05573C28.3064 3.05573 28.2452 3.04162 28.1841 3.03315C28.2302 3.02845 28.2772 3.01904 28.3233 3.01904C30.1624 3.01904 32.0015 3.01904 33.8406 3.02092C33.8942 3.02092 33.9478 3.03221 34.0024 3.03786Z" fill="#C0CCDA"/>
<path d="M27.9497 19.9328C28.4483 19.8886 28.9469 19.9168 29.4464 19.9159C29.8669 19.915 30.2883 19.8905 30.7088 19.9309C30.0541 19.9714 29.3993 19.9413 28.7446 19.9479C28.4793 19.9516 28.214 19.9385 27.9497 19.9328Z" fill="#C0CCDA"/>
<path d="M27.6551 3.03299C27.2064 3.08473 26.7558 3.0424 26.3052 3.05557C26.5272 2.97278 26.7577 3.02923 26.9844 3.02076C27.2073 3.01323 27.4312 3.02829 27.6551 3.03299Z" fill="#C0CCDA"/>
<path d="M0.398926 1.74609C0.454428 1.74703 0.480768 1.77432 0.489234 1.82982C0.525922 2.08099 0.647274 2.31711 0.624697 2.57957C0.54944 2.30206 0.474183 2.0236 0.398926 1.74609Z" fill="#C0CCDA"/>
<path d="M0.768331 1.31817C0.597121 1.29747 0.493642 1.14978 0.340306 1.09428C0.251879 1.13473 0.396749 1.2288 0.300796 1.26831C0.269753 1.20058 0.201081 1.13097 0.27916 1.06041C0.356298 0.989859 0.425911 1.05947 0.484235 1.10369C0.578307 1.17518 0.704362 1.20622 0.768331 1.31817Z" fill="#C0CCDA"/>
<path d="M26.3325 19.9233C26.6627 19.9158 26.9938 19.8942 27.324 19.9337C26.9929 19.9553 26.6618 19.9732 26.3325 19.9233Z" fill="#C0CCDA"/>
<path d="M4.01595 21.7993C4.00372 21.6893 4.07991 21.6714 4.16176 21.6592C4.1627 21.758 4.07615 21.7655 4.01595 21.7993Z" fill="#C0CCDA"/>
<path d="M34.5185 3.03782C34.4282 3.06981 34.3388 3.07075 34.2485 3.03782C34.3388 3.01148 34.4292 3.01148 34.5185 3.03782Z" fill="#C0CCDA"/>
<path d="M3.83789 21.9339C3.84636 21.8831 3.85576 21.8351 3.92632 21.8464C3.93667 21.9151 3.88493 21.9216 3.83789 21.9339Z" fill="#C0CCDA"/>
<path d="M4.85807 18.2217C4.84866 18.3308 4.73295 18.216 4.7085 18.2922C4.7179 18.1831 4.80727 18.2443 4.85807 18.2217Z" fill="#C0CCDA"/>
<path d="M32.604 19.9302C32.6463 19.9048 32.6887 19.9048 32.731 19.9302C32.6887 19.9537 32.6463 19.9537 32.604 19.9302Z" fill="#C0CCDA"/>
<path d="M27.7144 19.9331C27.7567 19.9058 27.799 19.9058 27.8423 19.9331C27.799 19.9547 27.7567 19.9547 27.7144 19.9331Z" fill="#C0CCDA"/>
<path d="M3.91895 21.851C3.93588 21.8058 3.94811 21.7531 4.0149 21.8002C3.99514 21.8406 3.97539 21.8792 3.91895 21.851Z" fill="#C0CCDA"/>
<path d="M0.770408 1.31641L0.765625 1.31928L0.778061 1.3231L0.770408 1.31641Z" fill="#C0CCDA"/>
<path d="M31.9835 5.99046C31.7662 6.0121 31.5488 6.0121 31.3315 5.99046C31.5479 5.94719 31.7652 5.94719 31.9835 5.99046Z" fill="#C0CCDA"/>
<path d="M32.7821 5.99083C32.6279 6.01341 32.4726 6.01247 32.3184 5.99177C32.4726 5.94756 32.6279 5.94756 32.7821 5.99083Z" fill="#C0CCDA"/>
<path d="M31.0426 5.99144C30.9193 6.01213 30.7961 6.01213 30.6729 5.99144C30.7961 5.94817 30.9193 5.94817 31.0426 5.99144Z" fill="#C0CCDA"/>
<path d="M30.5781 16.9782C30.6863 16.9584 30.7935 16.9584 30.9017 16.9782C30.7945 17.0224 30.6863 17.0233 30.5781 16.9782Z" fill="#C0CCDA"/>
<path d="M29.2637 16.9497C29.2732 16.9658 29.2826 16.981 29.2921 16.9971C29.2637 16.9923 29.258 16.9734 29.2637 16.9497Z" fill="#C0CCDA"/>
<path d="M8.29155 18.2263C7.3292 18.2225 6.36685 18.2197 5.40356 18.215C5.31137 18.215 5.21448 18.2357 5.12793 18.183C5.34523 17.7315 5.65943 17.3401 5.93412 16.9253C6.52395 16.0354 7.12601 15.153 7.71489 14.2631C7.79862 14.1361 7.86917 14.1135 8.01404 14.1615C9.47309 14.644 10.935 15.1182 12.3959 15.5932C12.8973 15.756 13.4015 15.914 13.9086 16.1276C12.0375 16.8265 10.1645 17.5264 8.29155 18.2263Z" fill="#C0CCDA"/>
</svg>
