<svg width="42" height="40" viewBox="0 0 42 40" fill="none" xmlns="http://www.w3.org/2000/svg">
<path d="M15.1055 35.8716C15.1055 36.6552 15.7585 37.3082 16.5421 37.3082H17.4998C17.6304 38.5707 18.7188 39.572 20.0248 39.572H21.4178C22.7238 39.572 23.8121 38.5707 23.9427 37.3082H24.9005C25.6841 37.3082 26.3371 36.6552 26.3371 35.8716V33.3467H15.1055V35.8716Z" fill="#0267FF"/>
<path d="M31.1694 20.5466C31.1694 14.7567 26.4678 10.0986 20.7214 10.0986C14.9315 10.0986 10.2734 14.8002 10.2734 20.5466C10.2734 21.4173 10.404 22.2444 10.5782 23.028C10.9264 24.6388 11.5794 26.0318 12.6678 27.8602C13.4514 29.1662 14.1044 29.6886 14.5397 30.2981H26.9467C27.382 29.6886 28.035 29.1662 28.8186 27.8602C29.8634 25.9883 30.56 24.6388 30.9082 23.028C31.0824 22.2444 31.1694 21.4173 31.1694 20.5466Z" fill="#0267FF"/>
<path d="M39.8757 19.1992H36.5237C35.6965 19.1992 35 19.8958 35 20.7229C35 21.55 35.6965 22.2465 36.5237 22.2465H39.8757C40.7029 22.2465 41.3994 21.55 41.3994 20.7229C41.3994 19.8958 40.7029 19.1992 39.8757 19.1992Z" fill="#0267FF"/>
<path d="M31.9082 11.0131C32.3 11.0131 32.6918 10.8825 32.9965 10.5777L35.3473 8.22696C35.9567 7.61749 35.9567 6.65975 35.3473 6.09382C34.7378 5.48435 33.7801 5.48435 33.2142 6.09382L30.8633 8.44463C30.2539 9.05409 30.2539 10.0118 30.8633 10.5777C31.1245 10.8825 31.5164 11.0131 31.9082 11.0131Z" fill="#0267FF"/>
<path d="M20.7229 6.3994C21.55 6.3994 22.2465 5.70287 22.2465 4.87573V1.52366C22.2465 0.696533 21.55 0 20.7229 0C19.8958 0 19.1992 0.696533 19.1992 1.52366V4.87573C19.1992 5.70287 19.8958 6.3994 20.7229 6.3994Z" fill="#0267FF"/>
<path d="M8.44795 10.5777C8.75269 10.8825 9.14448 11.0131 9.53628 11.0131C9.92808 11.0131 10.3199 10.8825 10.6246 10.5777C11.2341 9.96828 11.2341 9.01056 10.6246 8.44463L8.27383 6.09382C7.66437 5.48435 6.70663 5.48435 6.14069 6.09382C5.53123 6.70328 5.53123 7.66103 6.14069 8.22696L8.44795 10.5777Z" fill="#0267FF"/>
<path d="M6.39937 20.6789C6.39937 19.8518 5.70284 19.1553 4.87571 19.1553H1.52366C0.696532 19.1553 0 19.8518 0 20.6789C0 21.5061 0.696532 22.2026 1.52366 22.2026H4.87571C5.74637 22.2026 6.39937 21.5496 6.39937 20.6789Z" fill="#0267FF"/>
<path d="M8.4446 30.8243L6.09382 33.175C5.48435 33.7845 5.48435 34.7423 6.09382 35.3082C6.39855 35.6129 6.79035 35.7435 7.18215 35.7435C7.57395 35.7435 7.96575 35.6129 8.27048 35.3082L10.6213 32.9574C11.2307 32.3479 11.2307 31.3902 10.6213 30.8243C10.0118 30.2148 9.05407 30.2148 8.4446 30.8243Z" fill="#0267FF"/>
<path d="M32.9965 30.8243C32.387 30.2148 31.4293 30.2148 30.8633 30.8243C30.2539 31.4338 30.2539 32.3914 30.8633 32.9574L33.2142 35.3082C33.5189 35.6129 33.9107 35.7435 34.3025 35.7435C34.6943 35.7435 35.0861 35.6129 35.3908 35.3082C36.0003 34.6987 36.0003 33.741 35.3908 33.175L32.9965 30.8243Z" fill="#0267FF"/>
</svg>
