<svg width="373" height="489" viewBox="0 0 373 489" fill="none" xmlns="http://www.w3.org/2000/svg">
<path d="M91.4469 133.212C91.0126 135.71 90.6436 138.425 90.7849 140.868C90.9479 142.595 91.1109 144.321 91.6322 146.059C92.2187 148.014 93.1744 149.621 94.2713 151.304C95.5745 153.28 96.8777 155.256 98.3981 157.168C99.9946 158.938 101.45 160.631 103.122 162.26C106.532 165.735 110.235 169.003 113.873 172.055C117.37 175.03 121.084 177.94 124.733 180.633C126.558 181.979 128.523 183.402 130.424 184.607C132.389 186.029 134.29 187.235 136.331 188.516C140.273 191.003 144.291 193.348 148.233 195.834C150.275 197.116 152.458 198.473 154.499 199.754C156.4 200.96 158.441 202.241 160.266 203.587C164.132 206.215 167.781 208.908 171.723 211.394C173.764 212.676 175.73 214.098 177.772 215.379C179.672 216.585 181.638 218.007 183.538 219.212C185.439 220.418 187.198 221.547 189.022 222.893C190.923 224.099 192.747 225.445 194.648 226.65C196.407 227.78 198.242 228.768 200.077 229.756C202.054 230.82 203.889 231.808 205.865 232.872C206.713 233.328 207.636 233.643 208.559 233.958C209.623 234.349 210.763 234.598 211.762 234.772C212.761 234.946 214.053 234.913 215.063 234.729C215.932 234.468 216.725 234.348 217.528 233.871C218.039 233.599 218.332 233.393 218.842 233.121C218.419 232.893 218.212 232.6 217.789 232.372C216.877 231.699 215.964 231.025 215.052 230.352C214.976 230.493 214.835 230.417 214.759 230.559C214.325 230.689 213.966 230.678 213.608 230.667C212.891 230.646 212.251 230.483 211.534 230.461C210.752 230.222 209.753 230.048 209.047 229.668C208.124 229.354 207.277 228.898 206.571 228.518C204.595 227.453 202.618 226.389 200.642 225.325C198.665 224.261 196.765 223.056 194.723 221.775C192.823 220.569 190.922 219.364 189.098 218.018C187.198 216.812 185.297 215.607 183.473 214.261C179.465 211.557 175.599 208.929 171.592 206.225C167.726 203.598 164.077 200.905 160.135 198.418C158.235 197.213 156.334 196.008 154.293 194.727C152.251 193.445 150.068 192.088 148.027 190.807C146.126 189.601 144.009 188.461 142.108 187.256C140.208 186.051 138.166 184.769 136.266 183.564C132.324 181.078 128.534 178.309 124.744 175.54C121.095 172.847 117.457 169.796 113.96 166.821C112.635 165.561 111.093 164.367 109.768 163.107C107.466 160.957 105.305 158.883 103.296 156.527C102.253 155.419 101.145 154.094 100.179 152.845C99.2123 151.597 98.3869 150.424 97.6375 149.11C97.4312 148.817 97.1597 148.306 96.9533 148.013C96.4755 147.21 96.0737 146.265 95.813 145.396C95.422 144.093 95.3242 142.584 95.1503 141.216C95.1828 140.14 95.2154 139.065 95.2479 137.99C95.4324 136.633 95.5409 135.417 95.8666 134.135C95.9535 133.636 95.758 132.984 95.4105 132.615C95.0629 132.246 94.4983 131.942 93.8575 131.779C93.358 131.692 92.7065 131.888 92.3373 132.235C92.0441 132.441 91.9681 132.583 91.8161 132.865C91.6097 132.572 91.4577 132.854 91.4469 133.212Z" fill="#E0E6ED"/>
<path d="M90.8708 133.266C90.6428 133.69 90.7623 134.482 90.8926 134.917C91.1641 135.427 91.6528 135.872 92.0763 136.1C92.717 136.263 93.2166 136.35 93.7269 136.078C94.2373 135.807 94.6825 135.318 94.9105 134.895C94.9865 134.753 95.0625 134.612 95.2146 134.33C95.5186 133.765 95.8226 133.201 96.2678 132.712C96.561 132.506 96.8542 132.299 97.1474 132.093C98.2441 131.409 99.406 130.942 100.568 130.475C101.654 130.149 102.881 129.899 104.032 129.79C104.966 129.747 105.824 129.844 106.823 130.018C108.463 130.355 110.016 131.191 111.503 131.81C113.48 132.874 115.239 134.003 117.139 135.208C119.181 136.49 121.005 137.836 122.971 139.258C126.837 141.886 130.41 144.72 134.059 147.413C135.883 148.76 137.642 149.889 139.467 151.235C141.291 152.582 143.257 154.004 145.005 155.492C146.754 156.979 148.643 158.543 150.392 160.031C152.14 161.518 153.889 163.006 155.637 164.493C157.385 165.981 159.21 167.328 160.958 168.815C162.707 170.303 164.455 171.79 166.204 173.278C167.952 174.766 169.918 176.188 171.742 177.535C173.566 178.881 175.391 180.227 177.139 181.715C180.777 184.766 184.557 187.894 188.195 190.945C189.943 192.432 191.626 193.703 193.375 195.19C195.264 196.754 197.013 198.242 198.902 199.805C200.651 201.293 202.399 202.781 203.93 204.333C205.95 206.331 208.046 208.188 210.066 210.186C212.086 212.184 213.965 214.106 215.474 216.376C216.017 217.396 216.702 218.493 217.027 219.579C217.212 220.589 217.321 221.74 217.364 222.674C217.419 223.249 217.408 223.608 217.321 224.107C218.439 225.074 219.775 225.975 220.894 226.941C221.035 227.017 221.035 227.017 221.176 227.093C221.252 226.952 221.252 226.952 221.328 226.811C221.654 225.53 221.904 224.389 221.871 223.097C221.893 222.38 221.697 221.729 221.719 221.012C221.664 220.437 221.686 219.72 221.556 219.285C221.371 218.276 220.904 217.114 220.426 216.31C219.883 215.289 219.199 214.193 218.515 213.096C217.896 212.216 217.201 211.478 216.582 210.598C215.126 208.904 213.519 207.493 211.847 205.864C210.174 204.235 208.502 202.606 206.754 201.119C205.005 199.631 203.333 198.002 201.584 196.515C199.695 194.951 197.946 193.464 196.057 191.9C194.308 190.412 192.484 189.066 190.735 187.578C187.097 184.527 183.459 181.476 179.821 178.425C178.073 176.937 176.249 175.59 174.424 174.244C172.6 172.898 170.634 171.475 168.886 169.988C166.996 168.424 165.248 166.936 163.499 165.449C161.751 163.961 159.926 162.615 158.178 161.127C154.605 158.293 151.184 155.177 147.611 152.342C145.722 150.779 143.897 149.432 141.932 148.01C140.249 146.74 138.348 145.534 136.524 144.188C132.875 141.495 129.161 138.585 125.436 136.033C123.47 134.611 121.429 133.329 119.463 131.907C117.563 130.702 115.521 129.42 113.545 128.356C112.415 127.748 111.21 127.281 110.004 126.815C108.94 126.424 107.659 126.098 106.519 125.848C104.162 125.49 101.643 125.772 99.3298 126.348C97.4511 126.794 95.7028 127.673 94.0197 128.77C93.1402 129.389 92.4778 129.943 91.8806 130.714C91.6525 131.138 91.2834 131.485 91.0553 131.909C91.4789 132.137 91.1748 132.701 90.8708 133.266Z" fill="#E0E6ED"/>
<path d="M99.4825 140.27C99.1785 140.835 98.9396 141.617 98.918 142.334C98.7334 143.691 98.8312 145.2 99.5806 146.514C100.124 147.535 100.808 148.632 101.351 149.653C102.111 150.608 102.654 151.629 103.414 152.585C103.621 152.878 103.903 153.03 104.185 153.182C104.533 153.551 104.88 153.92 105.445 154.224C105.793 154.593 106.075 154.745 106.498 154.973C107.204 155.353 107.91 155.733 108.692 155.972C109.333 156.135 110.049 156.157 110.625 156.102C110.983 156.113 111.418 155.983 111.852 155.853C112.286 155.722 112.58 155.516 112.949 155.168C113.242 154.962 113.394 154.68 113.546 154.397C113.774 153.974 113.926 153.692 114.013 153.192C114.328 152.269 114.208 151.476 113.948 150.608C113.763 149.598 113.285 148.794 112.666 147.915C112.112 147.252 111.7 146.666 111.222 145.862C111.015 145.569 110.744 145.059 110.613 144.624C110.548 144.407 110.624 144.266 110.483 144.19C110.559 144.049 110.494 143.832 110.494 143.832C110.57 143.69 110.646 143.549 110.722 143.408L110.798 143.267L110.874 143.126L111.091 143.061C111.308 142.995 111.526 142.93 111.667 143.006C112.025 143.017 112.383 143.028 112.742 143.039C113.1 143.05 113.459 143.06 113.893 142.93C114.686 142.811 115.554 142.55 116.141 142.137C116.727 141.725 117.172 141.236 117.335 140.595C117.498 139.954 117.585 139.455 117.53 138.879C117.422 137.728 116.444 136.838 115.456 136.306C113.556 135.101 111.438 133.96 109.147 133.819C108.647 133.733 107.931 133.711 107.279 133.906C106.345 133.95 105.259 134.276 104.456 134.754C103.869 135.166 103.359 135.438 102.773 135.85C102.186 136.263 101.665 136.893 101.22 137.382C100.775 137.87 100.547 138.294 100.243 138.859C99.8734 139.206 99.7105 139.847 99.4825 140.27ZM103.902 141.193C104.206 140.628 104.576 140.281 104.88 139.716C105.249 139.369 105.694 138.88 106.204 138.609C106.421 138.543 106.715 138.337 106.932 138.272C107.149 138.207 107.507 138.217 107.942 138.087C108.3 138.098 108.658 138.109 109.158 138.196C109.658 138.283 110.222 138.587 110.722 138.673C110.581 138.597 110.505 138.739 110.363 138.663C108.919 138.978 107.67 139.944 106.845 141.139C106.096 142.192 105.987 143.408 106.02 144.701C106.118 146.21 106.791 147.665 107.758 148.914C108.17 149.5 108.724 150.163 109.137 150.749C109.343 151.042 109.408 151.259 109.615 151.553C109.474 151.477 109.332 151.401 109.191 151.325C108.627 151.02 108.279 150.651 107.714 150.347C107.508 150.054 107.302 149.761 106.954 149.392C106.748 149.098 106.466 148.946 106.324 148.87C105.77 148.208 105.434 147.481 104.88 146.818C104.402 146.015 103.783 145.135 103.522 144.266C103.457 144.049 103.392 143.832 103.327 143.615C103.262 143.398 103.338 143.256 103.349 142.898C103.435 142.399 103.598 141.758 103.902 141.193ZM109.3 152.476C109.376 152.334 109.376 152.334 109.3 152.476C109.376 152.334 109.376 152.334 109.3 152.476C109.376 152.334 109.3 152.476 109.3 152.476Z" fill="#E0E6ED"/>
<path d="M114.382 171.783C114.447 181.469 114.155 191.145 114.22 200.831C114.221 205.566 114.145 210.442 114.145 215.176C114.004 217.468 114.08 219.694 114.08 222.061C114.189 223.212 114.081 224.428 114.189 225.579C114.244 226.155 114.157 226.655 114.211 227.23C114.211 227.23 114.211 227.23 114.135 227.371C114.135 227.371 114.135 227.371 114.059 227.512C114.113 228.088 114.168 228.663 114.081 229.163C114.189 230.314 114.157 231.389 114.19 232.681C114.266 234.908 114.266 237.275 114.483 239.577C114.635 244.029 114.929 248.558 115.874 252.89C116.069 253.542 116.265 254.193 116.46 254.845C116.927 256.007 117.394 257.169 118.6 257.636C119.023 257.864 119.447 258.092 119.946 258.179C120.305 258.189 120.804 258.276 121.239 258.146C121.597 258.157 122.107 257.885 122.542 257.755C122.976 257.625 123.345 257.277 123.639 257.071C124.952 256.321 125.919 255.203 126.961 253.943C127.635 253.031 128.308 252.119 128.981 251.206C129.73 250.153 130.262 249.165 131.011 248.111C132.217 246.211 133.498 244.169 134.703 242.269C135.985 240.227 137.266 238.186 138.688 236.22C141.099 232.419 143.651 228.694 146.061 224.894C148.689 221.027 151.316 217.161 153.944 213.295C155.291 211.471 156.637 209.647 157.918 207.605C158.592 206.693 159.048 205.846 159.721 204.933C159.949 204.51 160.318 204.162 160.546 203.739C160.926 203.033 161.371 202.544 161.61 201.762C161.838 201.339 161.719 200.546 161.588 200.112C161.317 199.601 160.828 199.156 160.405 198.928C159.764 198.765 159.264 198.679 158.754 198.95C158.537 199.015 158.461 199.156 158.244 199.222C157.95 199.428 157.798 199.71 157.57 200.134C157.114 200.981 156.593 201.611 155.996 202.382C155.323 203.294 154.867 204.141 154.193 205.053C152.988 206.954 151.642 208.778 150.219 210.744C147.45 214.534 144.823 218.4 142.336 222.342C139.784 226.067 137.374 229.868 134.963 233.668C133.682 235.71 132.26 237.676 131.054 239.576C129.773 241.618 128.568 243.518 127.287 245.56C126.005 247.601 124.648 249.784 123.16 251.533C122.639 252.162 121.977 252.716 121.39 253.129C121.314 253.27 121.173 253.194 121.097 253.335C121.032 253.118 120.826 252.825 120.761 252.608C120.109 250.436 119.826 247.917 119.609 245.614C119.327 243.095 119.261 240.511 119.12 238.067C119.098 236.417 118.935 234.69 118.989 232.898C118.978 230.889 118.75 228.946 118.739 226.937C118.815 226.795 118.75 226.578 118.75 226.578C118.674 224.352 118.598 222.126 118.522 219.9C118.522 217.533 118.663 215.241 118.663 212.874C118.728 210.724 118.727 208.356 118.792 206.206C118.868 203.698 118.727 201.254 118.803 198.746C118.933 189.711 119.062 180.676 119.116 171.782C119.062 171.207 119.008 170.631 118.66 170.262C118.313 169.893 117.748 169.589 117.107 169.426C116.608 169.339 115.956 169.535 115.587 169.882C115.294 170.089 115.142 170.371 115.066 170.512C114.468 171.283 114.316 171.566 114.382 171.783ZM118.392 226.567C118.457 226.785 118.457 226.785 118.392 226.567C118.457 226.785 118.457 226.785 118.392 226.567C118.457 226.785 118.457 226.785 118.392 226.567ZM120.153 253.737C120.294 253.813 120.37 253.672 120.511 253.748C120.435 253.889 120.294 253.813 120.153 253.737ZM120.934 253.976L121.076 254.052C121.076 254.052 121.076 254.052 120.934 253.976ZM122.563 252.304L122.639 252.162C122.78 252.238 122.78 252.238 122.563 252.304Z" fill="#E0E6ED"/>
<path d="M134.211 144.764C134.265 145.339 134.678 145.925 135.102 146.153C135.525 146.381 136.231 146.762 136.741 146.49C139.348 145.708 142.03 144.785 144.571 143.786C146.677 142.917 148.784 142.048 151.032 141.255C153.28 140.462 155.528 139.669 157.775 138.877C160.023 138.084 162.488 137.226 164.736 136.433C166.984 135.64 169.014 134.912 171.262 134.119C175.172 132.946 179.005 131.915 182.99 130.6C183.207 130.535 183.207 130.535 183.424 130.47C183.642 130.405 183.859 130.34 184.076 130.275C184.369 130.068 184.727 130.079 185.162 129.949C185.379 129.884 185.379 129.884 185.596 129.818L185.813 129.753C187.768 129.167 189.799 128.439 191.753 127.852C194.794 126.94 197.976 126.104 201.016 125.191C202.536 124.735 203.981 124.42 205.642 124.04C206.435 123.921 207.162 123.584 207.955 123.464C208.607 123.269 209.258 123.073 209.834 123.019C209.595 123.801 209.291 124.366 208.911 125.072C207.847 127.048 206.717 128.807 205.447 130.491C204.101 132.315 202.895 134.215 201.69 136.116C200.344 137.94 198.921 139.906 197.575 141.73C196.228 143.555 194.882 145.379 193.394 147.128C190.56 150.7 187.726 154.273 185.098 158.139C183.752 159.964 182.547 161.864 181.341 163.765C180.668 164.677 180.136 165.665 179.68 166.512C179.072 167.641 178.605 168.847 177.997 169.976C177.769 170.4 177.617 170.682 177.389 171.106C176.781 172.235 176.249 173.223 175.358 174.201C174.273 174.526 173.523 175.58 173.632 176.731C173.882 177.958 174.935 178.707 176.162 178.457C176.597 178.327 176.955 178.338 177.248 178.132C177.9 177.936 178.28 177.23 178.725 176.741C178.877 176.459 179.246 176.112 179.474 175.688C179.854 174.982 180.375 174.352 180.831 173.505C181.668 171.952 182.286 170.465 182.981 168.836C184.045 166.859 185.316 165.176 186.521 163.276C187.726 161.375 189.073 159.551 190.419 157.726C193.112 154.077 195.87 150.646 198.704 147.073C200.051 145.249 201.538 143.5 202.885 141.676C204.231 139.851 205.437 137.951 206.783 136.126C207.988 134.226 209.259 132.543 210.464 130.642C211.137 129.73 211.745 128.601 212.277 127.612C212.885 126.483 213.493 125.354 213.743 124.213C214.221 122.65 214.058 120.923 212.874 119.739C212.527 119.37 212.103 119.142 211.68 118.914C211.256 118.686 210.898 118.675 210.539 118.665C210.04 118.578 209.605 118.708 209.247 118.697C209.03 118.762 208.889 118.686 208.671 118.751C207.662 118.936 206.576 119.262 205.566 119.447C203.394 120.098 201.157 120.533 198.985 121.184C196.672 121.76 194.5 122.412 192.329 123.064C189.94 123.78 187.475 124.638 185.086 125.355C184.651 125.486 184.217 125.616 183.783 125.746C183.131 125.942 182.697 126.072 182.045 126.268C181.828 126.333 181.687 126.257 181.611 126.398C177.191 127.842 172.641 128.853 168.221 130.297C163.585 131.807 159.23 133.469 154.735 135.054C151.618 136.108 148.501 137.161 145.45 138.432C143.995 139.105 142.616 139.638 141.096 140.094C139.499 140.691 137.979 141.147 136.383 141.745C136.166 141.81 135.948 141.875 135.514 142.005C134.863 142.201 134.428 142.331 134.124 142.896C134.048 143.037 134.048 143.037 133.972 143.178C134.168 143.83 134.081 144.329 134.211 144.764ZM181.893 126.55C181.969 126.409 181.969 126.409 181.893 126.55V126.55ZM175.858 174.287C175.858 174.287 175.934 174.146 175.858 174.287C175.934 174.146 175.858 174.287 175.858 174.287ZM209.855 122.302C209.855 122.302 209.997 122.378 209.855 122.302C209.997 122.378 209.855 122.302 209.855 122.302ZM209.844 122.661C209.844 122.661 209.986 122.737 209.844 122.661C209.986 122.737 209.986 122.737 209.844 122.661C209.986 122.737 209.844 122.661 209.844 122.661ZM210.692 123.117C210.833 123.193 210.833 123.193 210.692 123.117C210.833 123.193 210.833 123.193 210.692 123.117Z" fill="#E0E6ED"/>
<path d="M128.535 249.327C130.36 250.674 132.402 251.955 134.226 253.301C134.791 253.605 135.138 253.975 135.779 254.137C136.344 254.441 136.908 254.745 137.625 254.767C138.342 254.789 139.134 254.669 139.862 254.333C140.514 254.137 141.035 253.507 141.545 253.236C141.838 253.029 142.207 252.682 142.359 252.4C142.805 251.911 143.25 251.422 143.695 250.933C144.064 250.586 144.292 250.162 144.738 249.674C144.814 249.533 144.966 249.25 145.183 249.185C145.628 248.696 146.008 247.99 146.312 247.426C146.54 247.002 146.703 246.362 146.649 245.786C146.67 245.069 146.551 244.277 146.214 243.549C145.747 242.387 145.128 241.508 144.368 240.552C143.749 239.672 142.978 239.075 142.142 238.261C141.164 237.37 140.328 236.556 139.275 235.807C138.362 235.134 136.918 235.449 136.245 236.361C135.496 237.414 135.887 238.717 136.799 239.39C137.57 239.988 138.341 240.585 139.112 241.182C140.23 242.149 141.132 243.18 141.957 244.353C142.022 244.57 142.229 244.863 142.294 245.08C142.294 245.08 142.359 245.298 142.283 245.439C142.283 245.439 142.283 245.439 142.207 245.58L142.131 245.721C141.675 246.568 140.861 247.404 140.263 248.175C139.525 248.87 138.787 249.565 138.048 250.261C137.06 249.728 136.007 248.979 135.094 248.306C133.759 247.405 132.423 246.504 131.228 245.678C130.316 245.005 128.872 245.32 128.199 246.232C128.123 246.373 128.123 246.373 128.047 246.515C127.373 247.427 127.623 248.654 128.535 249.327ZM137.972 250.402C138.048 250.261 138.189 250.337 137.972 250.402C138.189 250.337 138.048 250.261 137.972 250.402ZM138.048 250.261C138.048 250.261 138.124 250.119 138.048 250.261C138.124 250.119 138.048 250.261 138.048 250.261Z" fill="#E0E6ED"/>
<path d="M144.488 224.772C146.595 226.271 148.843 227.845 150.949 229.344C151.232 229.496 151.373 229.572 151.655 229.724C152.22 230.028 152.926 230.408 153.567 230.57C154.283 230.592 154.859 230.538 155.445 230.125C155.956 229.854 156.542 229.441 157.063 228.811C157.954 227.834 158.844 226.856 159.81 225.738C160.484 224.826 161.157 223.913 161.613 223.066C161.765 222.784 161.993 222.36 162.145 222.078C162.221 221.937 162.297 221.796 162.297 221.796C162.449 221.513 162.612 220.873 162.623 220.514C162.633 220.156 162.644 219.798 162.59 219.222C162.601 218.864 162.47 218.429 162.264 218.136C162.134 217.702 161.786 217.333 161.58 217.039C161.232 216.67 161.102 216.236 160.755 215.867C159.234 213.956 157.269 212.533 155.303 211.111C155.162 211.035 154.879 210.883 154.814 210.665C153.902 209.992 152.458 210.307 151.785 211.219C151.035 212.273 151.426 213.576 152.339 214.249C153.674 215.15 154.934 216.193 156.194 217.235C156.889 217.974 157.584 218.712 158.203 219.592C158.344 219.668 158.268 219.809 158.409 219.885C158.257 220.167 158.246 220.525 158.094 220.808C157.258 222.361 155.999 223.686 154.804 225.228C154.511 225.434 154.359 225.716 154.066 225.923C153.642 225.695 153.436 225.401 153.012 225.173C152.448 224.869 151.959 224.424 151.253 224.044C149.917 223.143 148.441 222.166 147.181 221.123C146.269 220.45 144.824 220.765 144.151 221.677C144.075 221.818 144.075 221.818 143.999 221.96C143.326 222.872 143.576 224.099 144.488 224.772ZM153.49 225.977C153.49 225.977 153.631 226.053 153.49 225.977C153.631 226.053 153.631 226.053 153.49 225.977C153.631 226.053 153.49 225.977 153.49 225.977Z" fill="#E0E6ED"/>
<path d="M180.603 171.564C182.503 172.769 184.186 174.039 186.087 175.245C186.999 175.918 187.987 176.45 189.051 176.841C189.616 177.145 190.192 177.09 190.767 177.036C191.56 176.917 192.287 176.58 192.874 176.167C193.753 175.548 194.568 174.712 195.241 173.8C195.838 173.029 196.435 172.258 196.891 171.411C197.043 171.128 197.195 170.846 197.271 170.705C197.423 170.422 197.51 169.923 197.521 169.565C197.532 169.206 197.619 168.707 197.488 168.272C197.358 167.838 197.369 167.48 197.239 167.045C196.848 165.742 195.87 164.852 194.969 163.82C193.438 162.267 191.613 160.921 189.93 159.65C189.018 158.977 187.573 159.292 186.9 160.204C186.151 161.258 186.542 162.561 187.454 163.234C188.649 164.059 189.767 165.026 190.886 165.992C191.581 166.731 192.493 167.404 193.112 168.283C193.177 168.501 193.319 168.577 193.243 168.718C193.243 168.718 193.243 168.718 193.167 168.859C193.167 168.859 193.091 169 193.232 169.076C193.232 169.076 193.232 169.076 193.156 169.217C192.624 170.206 192.026 170.977 191.212 171.813C190.919 172.019 190.55 172.367 190.256 172.573C190.115 172.497 190.115 172.497 189.974 172.421C188.986 171.889 187.933 171.14 187.02 170.466C185.685 169.565 184.349 168.664 183.013 167.763C182.101 167.09 180.657 167.405 179.983 168.317L179.907 168.458C179.299 169.587 179.69 170.89 180.603 171.564ZM189.963 172.779C189.963 172.779 190.039 172.638 189.963 172.779C190.039 172.638 189.963 172.779 189.963 172.779ZM193.036 168.425C192.96 168.566 192.96 168.566 193.036 168.425C192.96 168.566 192.96 168.566 193.036 168.425Z" fill="#E0E6ED"/>
<path d="M197.617 147.401C199.582 148.823 201.548 150.246 203.59 151.527C204.154 151.831 204.502 152.2 205.067 152.504C205.349 152.656 205.631 152.809 206.055 153.037C206.337 153.189 206.837 153.275 207.195 153.286C208.053 153.384 208.856 152.906 209.443 152.493C210.616 151.668 211.441 150.473 212.407 149.355C213.08 148.443 213.971 147.465 214.503 146.477C215.73 143.86 213.58 141.428 211.69 139.864C210.083 138.452 208.475 137.041 206.716 135.911C205.804 135.238 204.436 135.412 203.686 136.465C203.013 137.378 203.252 138.963 204.24 139.495C205.717 140.472 206.977 141.515 208.237 142.557C208.932 143.296 209.703 143.893 210.322 144.772C210.322 144.772 210.322 144.772 210.463 144.848C209.714 145.902 208.824 146.879 208.074 147.933C207.781 148.139 207.629 148.421 207.336 148.628C206.348 148.096 205.435 147.422 204.523 146.749C203.046 145.772 201.711 144.871 200.31 143.752C199.397 143.079 197.953 143.394 197.28 144.306C197.204 144.447 197.204 144.447 197.128 144.589C196.455 145.501 196.629 146.869 197.617 147.401ZM210.246 144.914L210.17 145.055C210.17 145.055 210.17 145.055 210.246 144.914ZM210.311 145.131C210.311 145.131 210.235 145.272 210.311 145.131C210.235 145.272 210.311 145.131 210.311 145.131Z" fill="#E0E6ED"/>
<path d="M190.127 224.216C190.257 227.018 190.529 229.896 190.659 232.697C190.735 234.923 190.877 237.367 191.17 239.528C191.387 241.83 191.746 244.208 192.104 246.586C192.539 248.823 192.973 251.06 193.408 253.297C194.049 255.827 194.831 258.433 196.123 260.768C196.937 262.299 198.121 263.483 199.826 264.036C201.39 264.514 203.116 264.351 204.506 263.461C207.134 261.962 208.589 258.921 209.317 256.217C210.109 253.73 210.543 251.233 210.978 248.735C211.26 246.52 211.683 244.381 211.965 242.165C212.226 240.667 212.411 239.309 212.671 237.811C212.856 236.453 213.04 235.096 213.225 233.738C213.333 232.522 212.291 231.415 211.216 231.382C209.999 231.274 208.968 232.175 208.859 233.391C208.599 234.89 208.555 236.323 208.295 237.822C208.034 239.32 207.698 240.96 207.578 242.535C207.122 245.749 206.667 248.963 205.852 252.167C205.364 254.089 204.81 255.794 204.039 257.564C203.735 258.129 203.431 258.694 202.986 259.182C202.693 259.389 202.617 259.53 202.323 259.736C202.106 259.801 202.03 259.942 201.813 260.008C201.672 259.932 201.596 260.073 201.455 259.997C201.314 259.921 201.238 260.062 201.096 259.986C200.955 259.91 200.955 259.91 200.814 259.834C200.673 259.758 200.532 259.682 200.391 259.606C200.184 259.313 200.043 259.237 199.978 259.02C199.294 257.923 198.827 256.761 198.436 255.458C198.11 254.372 197.784 253.286 197.458 252.2C197.132 251.114 196.948 250.104 196.763 249.094C196.404 246.716 195.905 244.262 195.546 241.884C194.894 237.345 194.818 232.751 194.525 228.223C194.427 226.714 194.405 225.063 194.307 223.554C194.253 222.978 193.84 222.392 193.417 222.164C192.852 221.86 192.353 221.773 191.777 221.827C191.201 221.881 190.615 222.294 190.387 222.718C190.311 222.859 190.311 222.859 190.235 223C190.159 223.141 190.072 223.641 190.127 224.216Z" fill="#E0E6ED"/>
<path d="M206.861 204.636C206.97 205.787 208.023 206.537 208.968 206.135C211.867 205.146 214.691 204.299 217.514 203.452C220.196 202.529 222.868 201.964 225.463 201.54C227.765 201.323 229.915 201.388 232.13 201.67C232.988 201.768 233.77 202.007 234.476 202.387C234.617 202.463 234.617 202.463 234.758 202.539C234.758 202.539 234.9 202.615 234.824 202.756C234.748 202.897 234.748 202.897 234.813 203.114C234.726 203.614 234.498 204.038 234.27 204.461C233.89 205.167 233.445 205.656 233.065 206.361C232.25 207.198 231.295 207.958 230.339 208.718C229.46 209.337 228.58 209.956 227.776 210.434C226.897 211.053 225.876 211.596 224.997 212.215C223.976 212.758 222.955 213.301 221.934 213.844C220.914 214.387 220.11 214.865 219.089 215.408C218.079 215.593 217.265 216.429 217.233 217.504C216.983 218.644 217.884 219.676 218.818 219.632C219.176 219.643 219.394 219.578 219.828 219.448C220.121 219.241 220.338 219.176 220.632 218.97C220.849 218.905 221.142 218.698 221.218 218.557C221.728 218.286 222.021 218.079 222.532 217.808C223.335 217.33 224.28 216.928 225.301 216.385C227.125 215.364 228.808 214.267 230.491 213.17C231.74 212.204 233.054 211.454 234.238 210.271C235.486 209.304 236.464 207.827 237.224 206.416C237.984 205.004 238.679 203.375 238.581 201.865C238.331 198.271 234.617 197.728 231.902 197.359C231.044 197.262 230.186 197.164 229.253 197.207C228.319 197.251 227.385 197.294 226.451 197.338C225.3 197.446 224.29 197.631 223.28 197.816C222.27 198 221.26 198.185 220.391 198.446C218.513 198.891 216.699 199.554 214.745 200.14C212.573 200.792 210.618 201.378 208.447 202.03C207.936 202.302 207.502 202.432 207.198 202.997C207.122 203.138 207.122 203.138 207.046 203.279C206.818 203.702 206.731 204.202 206.861 204.636ZM234.976 202.474C234.9 202.615 234.9 202.615 234.976 202.474C234.9 202.615 234.9 202.615 234.976 202.474Z" fill="#E0E6ED"/>
<path d="M196.502 212.717C196.556 213.292 196.751 213.944 196.806 214.519C196.925 215.312 197.262 216.04 197.457 216.691C197.914 218.211 198.804 219.601 199.847 220.709C200.748 221.741 201.584 222.555 202.562 223.445C204.234 225.074 206.2 226.497 207.948 227.984C209.631 229.255 211.532 230.46 213.215 231.73C215.115 232.936 216.94 234.282 218.764 235.628C220.589 236.975 222.489 238.18 224.248 239.309C225.378 239.918 226.29 240.591 227.495 241.058C228.06 241.362 228.484 241.59 229.124 241.752C229.689 242.057 230.265 242.002 230.905 242.165C231.264 242.176 231.405 242.252 231.763 242.263C232.122 242.274 232.339 242.208 232.697 242.219C232.914 242.154 233.349 242.024 233.566 241.959C233.642 241.817 233.783 241.893 233.859 241.752C234.076 241.687 234.369 241.481 234.521 241.198C234.891 240.851 235.26 240.503 235.347 240.004C235.433 239.504 235.585 239.222 235.596 238.864C235.607 238.505 235.618 238.147 235.553 237.93C235.368 236.92 234.825 235.899 234.206 235.019C233.587 234.14 232.968 233.26 232.132 232.446C231.372 231.49 230.535 230.676 229.558 229.786C228.722 228.971 227.81 228.298 226.973 227.484C225.084 225.92 223.194 224.356 221.446 222.869C219.697 221.381 218.014 220.111 216.266 218.623C215.082 217.439 213.822 216.397 212.563 215.355C211.444 214.388 210.184 213.346 208.99 212.521C207.589 211.402 206.177 210.642 204.472 210.088C202.767 209.535 201.041 209.698 199.314 209.861C198.956 209.85 198.662 210.056 198.369 210.262C197.794 210.317 197.424 210.664 196.979 211.153C196.903 211.294 196.903 211.294 196.827 211.435C196.458 211.783 196.371 212.282 196.502 212.717ZM201.269 214.009C201.844 213.954 202.344 214.041 202.843 214.128C203.484 214.291 203.908 214.519 204.548 214.682C205.819 215.366 207.079 216.408 208.197 217.375C209.457 218.417 210.576 219.384 211.835 220.426C213.019 221.61 214.42 222.728 215.68 223.77C216.939 224.813 218.058 225.779 219.318 226.822C221.837 228.906 224.433 230.85 226.876 233.076C228.342 234.412 229.656 236.03 230.688 237.496C230.688 237.496 230.829 237.572 230.753 237.713C230.253 237.626 229.83 237.398 229.265 237.094C225.454 235.042 221.946 232.425 218.362 229.949C214.637 227.397 210.978 225.063 207.622 222.164C206.851 221.566 206.156 220.828 205.526 220.307C204.483 219.199 203.441 218.092 202.474 216.843C202.138 216.115 201.801 215.388 201.464 214.66C201.258 214.367 201.193 214.15 201.269 214.009ZM231.752 237.886C231.752 237.886 231.828 237.745 231.752 237.886C231.828 237.745 231.752 237.886 231.752 237.886Z" fill="#E0E6ED"/>
<path d="M241.676 424.415C241.513 425.056 241.568 425.631 241.763 426.283C242.035 426.793 242.382 427.162 242.871 427.608C243.077 427.901 243.501 428.129 243.924 428.357C244.771 428.813 245.618 429.269 246.617 429.443C247.877 430.485 248.996 431.451 250.331 432.353C251.244 433.026 252.297 433.775 253.209 434.448C254.121 435.122 255.034 435.795 255.946 436.468C257.77 437.814 259.812 439.096 261.636 440.442C262.548 441.115 263.385 441.93 264.297 442.603C265.209 443.276 266.121 443.949 266.892 444.547C267.457 444.851 267.946 445.296 268.51 445.6C268.793 445.752 269.075 445.904 269.357 446.056C270.139 446.295 270.997 446.392 271.931 446.349C273.299 446.175 274.472 445.35 275.504 444.448C275.949 443.96 276.535 443.547 276.981 443.058C278.468 441.31 279.956 439.562 281.302 437.737C282.79 435.989 284.212 434.023 285.559 432.199C287.046 430.45 288.534 428.702 290.022 426.953C291.509 425.205 292.997 423.457 294.484 421.708C295.972 419.96 297.601 418.287 299.088 416.539C302.281 412.977 305.256 409.48 308.307 405.842C309.795 404.094 311.217 402.128 312.705 400.38C314.193 398.631 315.68 396.883 317.244 394.993C320.078 391.42 323.542 388.369 326.517 384.872C327.483 383.753 328.45 382.635 329.416 381.516C330.079 380.962 330.741 380.408 331.262 379.779C331.631 379.431 332.077 378.942 332.446 378.595C332.75 378.03 332.978 377.607 333.065 377.107C333.152 376.608 333.097 376.032 333.184 375.532C333.108 373.306 332.749 370.928 332.673 368.702C332.597 366.476 332.521 364.25 332.304 361.948C332.086 359.645 331.793 357.484 331.5 355.324C331.326 353.955 331.076 352.728 330.826 351.501C330.707 350.708 330.511 350.057 330.316 349.405C329.99 348.319 329.219 347.722 328.231 347.19C327.948 347.038 327.59 347.027 327.308 346.875C327.166 346.799 326.949 346.864 326.808 346.788C326.45 346.778 325.95 346.691 325.592 346.68C324.3 346.713 322.931 346.886 321.628 347.277C320.325 347.668 318.881 347.983 317.578 348.374C315.341 348.809 313.104 349.243 310.943 349.537C308.782 349.83 306.697 349.982 304.601 350.493C304.026 350.547 303.515 350.819 302.94 350.873C302.505 351.003 301.854 351.199 301.419 351.329C300.692 351.666 300.03 352.22 299.443 352.632C298.857 353.045 298.336 353.675 297.89 354.163C297.076 355 296.479 355.771 295.806 356.683C295.132 357.595 294.394 358.29 293.721 359.202C292.233 360.951 290.811 362.916 289.323 364.665C287.835 366.413 286.348 368.162 284.784 370.051C283.297 371.8 281.733 373.689 280.169 375.579C278.682 377.327 277.27 378.935 275.641 380.607C273.937 382.421 272.373 384.31 270.885 386.059C269.398 387.807 267.91 389.555 266.346 391.445C264.859 393.193 263.23 394.866 261.666 396.755C260.179 398.504 258.756 400.469 257.269 402.218C255.781 403.966 254.293 405.715 252.871 407.68C251.525 409.505 250.178 411.329 248.973 413.23C247.844 414.989 246.638 416.889 245.368 418.573C244.695 419.485 244.097 420.256 243.424 421.168C243.196 421.592 242.827 421.939 242.599 422.363C242.447 422.645 242.219 423.068 242.067 423.351C242.067 423.351 242.067 423.351 241.991 423.492C241.915 423.633 241.763 423.916 241.676 424.415ZM248.116 424.969C247.768 424.599 247.203 424.295 246.856 423.926C247.681 422.732 248.648 421.613 249.473 420.418C250.743 418.735 251.948 416.835 253.078 415.075C255.705 411.209 258.681 407.713 261.515 404.14C263.078 402.25 264.425 400.426 265.988 398.536C267.476 396.788 269.181 394.974 270.668 393.226C272.156 391.477 273.72 389.588 275.207 387.839C276.695 386.091 278.324 384.418 279.811 382.67C281.516 380.856 283.08 378.967 284.643 377.077C286.131 375.329 287.619 373.58 289.106 371.832C290.594 370.084 292.081 368.335 293.569 366.587C295.057 364.838 296.403 363.014 297.75 361.189C299.161 359.582 300.508 357.758 301.919 356.15C302.212 355.944 302.582 355.597 302.875 355.39C303.385 355.119 304.037 354.923 304.688 354.728C305.915 354.478 307.142 354.228 308.435 354.195C309.803 354.022 311.388 353.783 312.757 353.609C314.125 353.435 315.71 353.196 317.155 352.881C318.74 352.642 320.336 352.045 321.781 351.73C322.432 351.534 323.084 351.339 323.8 351.36C324.376 351.306 325.027 351.11 325.668 351.273C325.885 351.208 326.027 351.284 326.168 351.36C326.428 352.229 326.472 353.163 326.591 353.956C326.776 354.965 326.961 355.975 327.069 357.126C327.363 359.287 327.656 361.448 327.808 363.533C327.96 365.618 328.036 367.844 328.189 369.929C328.341 372.014 328.71 374.034 328.721 376.043C328.645 376.184 328.645 376.184 328.569 376.325C327.907 376.879 327.168 377.574 326.506 378.128C325.615 379.106 324.801 379.942 323.911 380.919C323.096 381.755 322.347 382.809 321.533 383.645C320.718 384.481 319.98 385.176 319.307 386.088C317.678 387.761 316.125 389.292 314.637 391.041C313.15 392.789 311.662 394.537 310.099 396.427C307.123 399.924 304.43 403.573 301.455 407.069C299.892 408.959 298.187 410.773 296.623 412.662C295.136 414.411 293.507 416.083 291.943 417.973C290.456 419.721 288.968 421.47 287.48 423.218C285.993 424.966 284.505 426.715 283.017 428.463C281.53 430.212 280.183 432.036 278.837 433.86C277.49 435.685 276.003 437.433 274.515 439.182C273.994 439.812 273.473 440.441 272.952 441.071C272.582 441.419 272.213 441.766 271.703 442.038C271.486 442.103 271.486 442.103 271.268 442.168C271.268 442.168 271.127 442.092 271.051 442.233L270.91 442.157C270.628 442.005 270.345 441.853 270.063 441.701C268.304 440.572 266.621 439.302 265.013 437.89C263.265 436.402 261.364 435.197 259.54 433.851C257.64 432.645 255.956 431.375 254.208 429.887C252.666 428.693 251.265 427.575 249.723 426.38C249.451 425.87 249.028 425.642 248.604 425.414C248.398 425.121 248.257 425.045 248.116 424.969ZM317.002 348.429L317.219 348.364C317.143 348.505 317.143 348.505 317.002 348.429ZM326.103 351.143L326.244 351.219L326.103 351.143ZM329.014 375.837C328.938 375.978 328.938 375.978 329.014 375.837C328.938 375.978 328.938 375.978 329.014 375.837C328.938 375.978 328.938 375.978 329.014 375.837Z" fill="#E0E6ED"/>
<path d="M236.002 254.014C236.458 255.534 236.99 256.914 237.522 258.293C237.989 259.455 238.456 260.616 238.782 261.702C238.848 261.92 239.054 262.213 239.119 262.43C239.336 262.365 239.477 262.441 239.553 262.3C240.78 262.05 242.225 261.735 243.452 261.485C243.321 261.051 243.115 260.757 242.985 260.323C242.518 259.161 242.192 258.075 241.725 256.913C241.529 256.262 241.334 255.61 241.062 255.1C240.802 254.231 240.465 253.504 240.204 252.635C239.879 251.549 238.684 250.724 237.522 251.191C236.871 251.386 236.501 251.734 236.197 252.298C235.893 252.863 235.806 253.363 236.002 254.014Z" fill="#E0E6ED"/>
<path d="M243.362 271.454C244.046 272.55 244.589 273.571 245.274 274.668C246.501 276.785 247.945 278.838 249.39 280.89C249.802 281.476 250.215 282.063 250.628 282.649C251.8 281.824 252.908 280.781 254.081 279.956C252.082 277.241 250.019 274.309 248.314 271.388C247.565 270.074 246.815 268.76 246.207 267.523C246.207 267.523 246.066 267.447 245.99 267.588C244.546 267.903 243.101 268.218 241.798 268.609C242.417 269.488 242.819 270.433 243.362 271.454Z" fill="#E0E6ED"/>
<path d="M256.094 289.412C256.93 290.226 257.69 291.182 258.527 291.996C260.34 293.701 262.154 295.406 264.043 296.969C264.185 297.045 264.185 297.045 264.326 297.121C265.292 296.003 266.4 294.96 267.366 293.842C266.389 292.951 265.477 292.278 264.499 291.388C263.239 290.345 262.056 289.162 260.872 287.978C260.242 287.457 259.688 286.794 259.276 286.208C258.928 285.839 258.439 285.394 258.168 284.883C256.995 285.709 255.888 286.751 254.715 287.577C255.127 288.163 255.681 288.825 256.094 289.412Z" fill="#E0E6ED"/>
<path d="M270.363 301.465C272.328 302.887 274.446 304.027 276.423 305.091C277.552 305.699 278.54 306.231 279.67 306.839C279.952 306.991 280.234 307.143 280.375 307.219C280.918 305.873 281.461 304.526 282.004 303.18C281.722 303.028 281.298 302.8 281.016 302.648C280.31 302.268 279.745 301.964 279.039 301.583C278.192 301.127 277.345 300.671 276.498 300.215C275.163 299.314 273.751 298.554 272.415 297.653C271.449 298.771 270.341 299.814 269.375 300.932C269.798 301.161 270.081 301.313 270.363 301.465Z" fill="#E0E6ED"/>
<path d="M307.259 248.492C306.944 249.415 306.77 250.414 306.531 251.196C307.954 251.598 309.3 252.141 310.723 252.542C310.983 251.044 311.461 249.48 312.08 247.992C312.623 246.646 313.448 245.451 314.273 244.257C314.425 243.974 314.719 243.768 314.947 243.344C314.534 242.758 314.121 242.172 313.491 241.65C313.079 241.064 312.525 240.402 312.036 239.956L311.96 240.098C310.701 241.423 309.799 242.758 308.963 244.311C308.279 245.582 307.66 247.07 307.259 248.492Z" fill="#E0E6ED"/>
<path d="M306.391 258.22C306.63 259.805 306.869 261.391 307.249 263.052C307.629 264.714 308.367 266.386 308.965 267.982C309.16 268.634 309.573 269.22 309.91 269.948C311.354 269.633 312.939 269.394 314.46 268.938C314.394 268.72 314.253 268.644 314.047 268.351C313.841 268.058 313.569 267.548 313.439 267.113C313.167 266.603 312.972 265.951 312.559 265.365C312.092 264.203 311.625 263.041 311.375 261.814C311.256 261.021 310.995 260.153 310.876 259.36C309.312 258.882 307.824 258.263 306.26 257.786C306.325 258.003 306.325 258.003 306.391 258.22Z" fill="#E0E6ED"/>
<path d="M314.795 276.768C315.631 277.583 316.391 278.538 317.228 279.353C318.205 280.243 319.041 281.057 320.019 281.948C320.225 282.241 320.648 282.469 321.072 282.697C322.245 281.872 323.494 280.905 324.742 279.939C324.601 279.863 324.46 279.787 324.319 279.711C323.689 279.189 322.918 278.592 322.288 278.071C321.658 277.55 321.028 277.029 320.616 276.442C319.986 275.921 319.432 275.259 318.878 274.596C317.217 274.976 315.555 275.357 313.894 275.737C314.1 276.03 314.306 276.323 314.795 276.768Z" fill="#E0E6ED"/>
<path d="M329.163 287.963C331.563 289.255 334.038 290.406 336.514 291.557C336.058 292.404 335.461 293.175 334.864 293.946C333.822 295.206 332.855 296.324 331.889 297.443C331.813 297.584 331.813 297.584 331.596 297.649C332.866 298.333 334.202 299.234 335.472 299.918C335.624 299.636 335.918 299.43 336.07 299.147C337.774 297.334 339.273 295.227 340.63 293.044C340.63 293.044 340.63 293.044 340.706 292.903C342.976 293.761 345.321 294.477 347.526 295.118C348.21 293.847 348.97 292.436 349.654 291.165C347.308 290.448 344.963 289.732 342.693 288.874C343.464 287.104 344.159 285.475 344.713 283.77C345.277 281.707 345.842 279.644 346.048 277.57C344.625 277.168 343.203 276.766 341.78 276.364C341.183 279.503 340.445 282.565 339.424 285.475C339.12 286.04 338.881 286.822 338.577 287.387C337.372 286.92 336.167 286.453 335.037 285.845C333.691 285.302 332.279 284.542 331.008 283.858C330.726 283.706 330.302 283.478 330.02 283.326C329.434 283.738 328.847 284.151 328.261 284.564C327.599 285.118 326.936 285.672 326.209 286.008C327.327 286.975 328.315 287.507 329.163 287.963Z" fill="#E0E6ED"/>
<path d="M356.69 298.051C361.317 299.267 366.019 300.342 370.666 300.841C371.524 300.939 372.523 301.113 373.457 301.069C373.501 299.636 373.544 298.202 373.805 296.704C373.446 296.693 373.164 296.541 372.947 296.606C372.089 296.508 371.231 296.411 370.373 296.313C368.158 296.031 365.877 295.531 363.597 295.032C361.175 294.457 358.753 293.881 356.267 293.089L356.125 293.013C355.441 294.283 354.681 295.695 353.997 296.965C354.768 297.563 355.767 297.736 356.69 298.051Z" fill="#E0E6ED"/>
<path d="M318.28 237.491C318.975 238.229 319.453 239.033 320.148 239.771C320.875 239.434 321.668 239.315 322.537 239.054C323.253 239.076 324.046 238.956 324.687 239.119C326.044 239.304 327.326 239.629 328.531 240.096C329.237 240.476 329.802 240.78 330.507 241.16C331.474 240.042 332.44 238.923 333.266 237.729C331.647 236.675 329.736 235.828 327.89 235.199C326.891 235.025 325.968 234.71 324.752 234.602C323.177 234.482 321.45 234.645 319.93 235.101C318.92 235.286 317.976 235.688 317.172 236.166C317.661 236.611 317.932 237.121 318.28 237.491Z" fill="#E0E6ED"/>
<path d="M336.72 246.872C336.992 247.383 337.48 247.828 337.752 248.338C337.958 248.631 338.164 248.924 338.23 249.142C338.436 249.435 338.642 249.728 338.849 250.021C339.261 250.608 339.457 251.259 339.869 251.845C340.141 252.356 340.336 253.007 340.608 253.518L340.543 253.301C340.934 254.604 341.401 255.766 341.792 257.069C343.095 256.678 344.615 256.222 345.918 255.83C345.853 255.613 345.788 255.396 345.723 255.179C345.332 253.876 344.865 252.714 344.398 251.552C344.202 250.9 343.79 250.314 343.594 249.663C343.323 249.152 343.051 248.642 342.856 247.99C342.313 246.97 341.693 246.09 341.15 245.069C340.531 244.19 340.054 243.386 339.359 242.648C339.011 242.279 338.805 241.985 338.457 241.616C337.491 242.735 336.524 243.853 335.699 245.048C335.96 245.917 336.307 246.286 336.72 246.872Z" fill="#E0E6ED"/>
<path d="M343.062 267.221C343.029 268.296 342.997 269.371 342.823 270.37C344.246 270.772 345.668 271.173 347.091 271.575C347.178 271.076 347.199 270.359 347.286 269.859C347.395 268.643 347.503 267.427 347.394 266.276C347.34 265.7 347.362 264.983 347.307 264.408C347.253 263.832 347.199 263.257 347.22 262.54C345.7 262.996 344.397 263.387 342.877 263.844C343.062 264.853 343.029 265.928 343.062 267.221Z" fill="#E0E6ED"/>
<path d="M320.162 305.698C321.204 306.805 322.247 307.913 323.289 309.021C324.886 308.423 326.417 307.609 327.807 306.718C328.317 306.447 328.762 305.958 329.273 305.686C329.566 305.48 329.642 305.339 329.935 305.133C330.228 304.926 330.521 304.72 330.597 304.579C329.186 303.819 327.85 302.917 326.438 302.157C326.145 302.364 325.776 302.711 325.341 302.842C323.875 303.873 322.279 304.471 320.607 305.209C320.39 305.274 320.097 305.481 319.879 305.546C320.021 305.622 320.162 305.698 320.162 305.698Z" fill="#E0E6ED"/>
<path d="M304.092 312.889C304.234 312.965 304.451 312.9 304.592 312.976C305.884 312.944 307.177 312.911 308.469 312.878C309.62 312.77 310.771 312.661 311.781 312.476C312.574 312.357 313.366 312.237 314.018 312.042C314.593 311.988 315.028 311.857 315.462 311.727C315.896 311.597 316.255 311.607 316.548 311.401C316.059 310.956 315.647 310.369 315.017 309.848C314.322 309.11 313.627 308.371 312.997 307.85C312.78 307.915 312.421 307.905 312.204 307.97C311.846 307.959 311.411 308.089 311.194 308.154C310.043 308.263 309.033 308.448 307.882 308.556C307.307 308.611 306.59 308.589 306.014 308.643C305.298 308.622 304.364 308.665 303.647 308.644C303.43 308.709 303.071 308.698 302.93 308.622C303.321 309.925 303.636 311.369 304.092 312.889Z" fill="#E0E6ED"/>
<path d="M286.326 309.697C286.467 309.773 286.608 309.849 286.749 309.925C287.814 310.316 288.878 310.707 290.018 310.956C292.364 311.673 294.644 312.172 297.077 312.389L297.218 312.465C296.762 310.945 296.447 309.501 295.991 307.98C294.492 307.72 292.852 307.383 291.43 306.982C290.648 306.743 289.725 306.428 288.943 306.189C288.66 306.037 288.161 305.95 287.879 305.798C287.412 307.004 286.869 308.35 286.326 309.697Z" fill="#E0E6ED"/>
</svg>
