<!-- Generated by IcoMoon.io -->
<svg version="1.1" xmlns="http://www.w3.org/2000/svg" width="28" height="32" viewBox="0 0 28 32">
<title>p-airtime-purchase</title>
<path fill="#e8f7ff" d="M2.844 0h19.911c1.571 0 2.844 1.274 2.844 2.844v19.911c0 1.571-1.273 2.844-2.844 2.844h-19.911c-1.571 0-2.844-1.273-2.844-2.844v-19.911c0-1.571 1.274-2.844 2.844-2.844z"></path>
<path fill="#0267ff" d="M19.555 23.111h-3.333c-0.613 0-1.111-0.498-1.111-1.111s0.498-1.111 1.111-1.111h3.333c0.613 0 1.111 0.498 1.111 1.111s-0.498 1.111-1.111 1.111zM16.222 25.333h6.667c0.614 0 1.111 0.498 1.111 1.111s-0.497 1.111-1.111 1.111h-6.667c-0.613 0-1.111-0.498-1.111-1.111s0.498-1.111 1.111-1.111zM25.604 29.778h-12.099c-0.34 0-0.617-0.249-0.617-0.556v-16.667c0-0.307 0.277-0.556 0.617-0.556h6.050v3.5c0 1.747 1.352 3.167 3.016 3.167h3.651v10.556c0 0.307-0.277 0.556-0.618 0.556zM21.778 13.087l3.047 3.358h-2.253c-0.438 0-0.793-0.423-0.793-0.944v-2.413zM28.156 16.809l-6.049-6.667c-0.211-0.232-0.509-0.364-0.823-0.364h-7.778c-1.566 0-2.839 1.247-2.839 2.778v16.667c0 1.531 1.273 2.778 2.839 2.778h12.099c1.566 0 2.84-1.247 2.84-2.778v-11.667c0-0.277-0.103-0.542-0.289-0.747z"></path>
</svg>
