<svg width="63" height="72" viewBox="0 0 63 72" fill="none" xmlns="http://www.w3.org/2000/svg">
<path d="M40.0658 0.585938C42.4715 0.61937 44.7667 1.0758 46.91 2.16599C48.7997 3.13336 50.3405 4.48593 51.3922 6.35017C52.0757 7.58084 52.524 8.92803 52.7143 10.3228C53.1053 13.0004 52.7099 15.5907 51.8268 18.1236C51.3079 19.6091 50.5898 21.0024 49.8121 22.371C48.2277 25.1568 46.192 27.5712 43.8241 29.7116C40.7861 32.4604 37.4548 34.8663 33.8902 36.8858C32.5093 37.6657 31.0775 38.3205 29.5374 38.721C28.5939 38.9758 27.6198 39.0991 26.6426 39.0873C25.3561 39.0611 24.3495 38.4753 23.5668 37.4883C22.844 36.6025 22.4715 35.4821 22.5202 34.3399C22.5287 34.0221 22.5746 33.7064 22.6568 33.3994C23.1227 31.7445 23.7557 30.1593 24.702 28.7137C25.4252 27.6097 26.2872 26.6293 27.4144 25.9279C28.6682 25.1473 30.0309 24.8137 31.5048 25.1357C31.9657 25.2437 32.3993 25.4453 32.7789 25.728C33.7492 26.4214 33.6983 27.5094 33.2324 28.2042C32.8333 28.8081 32.3871 29.3794 31.898 29.9129C31.0695 30.8054 30.1893 31.6493 29.3303 32.5127C28.57 33.2766 27.8556 34.0782 27.2763 34.9918C26.9762 35.4657 26.6993 35.949 26.6164 36.5181C26.5118 37.2318 26.8824 37.718 27.6027 37.7849C27.9753 37.8153 28.3504 37.7776 28.7096 37.6737C29.8165 37.3677 30.8442 36.8742 31.8537 36.3422C33.4105 35.5187 34.8474 34.5121 36.2479 33.4503C37.9457 32.1631 39.5963 30.8207 41.1175 29.3279C42.8502 27.6293 44.3946 25.7833 45.5764 23.653C46.4398 22.0977 47.0758 20.4551 47.3585 18.6934C47.6085 17.1417 47.469 15.6299 46.7501 14.2054C46.404 13.5013 45.8626 12.9116 45.1904 12.5069C44.8801 12.32 44.5378 12.1924 44.1809 12.1304C42.8821 11.9 41.6255 12.089 40.3907 12.5011C39.1035 12.9313 37.9094 13.5593 36.7487 14.2454C34.2296 15.7397 31.7076 17.2332 29.307 18.9158C28.1034 19.7589 26.9369 20.6557 25.7573 21.5322C24.6919 22.3244 23.6336 23.1261 22.4693 23.7737C21.5244 24.3117 20.5018 24.6998 19.4378 24.9242C18.1194 25.1917 16.9042 24.9431 15.7879 24.2265C14.6293 23.483 13.8182 22.4625 13.4621 21.1121C13.2353 20.2596 13.3247 19.4143 13.5202 18.5727C13.8059 17.3372 14.3481 16.2179 15.024 15.1568C16.6956 12.5359 18.7975 10.3127 21.2417 8.41209C24.8641 5.59575 28.8499 3.42699 33.1612 1.85783C35.3747 1.04816 37.7091 0.618148 40.0658 0.585938Z" fill="#E20010"/>
<path d="M10.264 60.5063C10.2516 59.6836 10.1578 58.9437 9.68252 58.302C9.45106 57.9919 9.1306 57.7596 8.76385 57.6362C7.81901 57.2975 6.85673 57.3375 5.91844 57.6275C5.1662 57.8601 4.44086 58.177 3.70461 58.4597C3.55925 58.5135 3.42698 58.5825 3.25109 58.661C2.90441 57.8012 2.56354 56.9668 2.20668 56.0947C2.72344 55.8497 3.21039 55.5997 3.71261 55.3853C4.86967 54.8904 6.06961 54.551 7.33133 54.4746C8.59305 54.3983 9.83806 54.4652 10.9864 55.0772C12.2852 55.7647 13.2228 56.7575 13.6152 58.2024C13.6718 58.3915 13.7058 58.5867 13.7162 58.7838C13.7664 60.6597 13.834 62.5356 13.842 64.4114C13.8471 65.6935 13.7628 66.9763 13.725 68.2591C13.7182 68.435 13.645 68.6018 13.52 68.7257C12.6224 69.7142 11.5242 70.3974 10.28 70.856C8.94568 71.3428 7.52478 71.547 6.1074 71.4556C4.79917 71.3829 3.66973 70.8472 2.71471 69.9584C1.7597 69.0695 1.0925 67.996 0.906443 66.6805C0.652064 64.8788 1.17172 63.3154 2.46688 62.029C3.29979 61.2019 4.32603 60.7745 5.48236 60.6234C6.76152 60.4569 8.04505 60.5013 9.32857 60.5049L10.264 60.5063ZM10.0961 63.4353C10.0207 63.4205 9.94447 63.41 9.86786 63.4041C9.43178 63.3954 8.99061 63.3801 8.55235 63.3867C8.02688 63.3946 7.49922 63.3968 6.97666 63.4463C6.43664 63.4979 5.91262 63.6556 5.49399 64.0161C4.79917 64.6149 4.59276 65.397 4.7621 66.2786C4.97287 67.3688 5.58193 68.1305 6.66777 68.4546C7.22764 68.6221 7.82048 68.6471 8.39246 68.5273C8.92411 68.43 9.42 68.1921 9.82861 67.8383C9.89778 67.7847 9.95466 67.7168 9.9954 67.6393C10.0361 67.5618 10.0598 67.4765 10.0648 67.3891C10.0815 67.0061 10.131 66.6238 10.1339 66.2408C10.1397 65.3635 10.1266 64.4863 10.1193 63.6091C10.115 63.5507 10.1072 63.4927 10.0961 63.4353Z" fill="#E20010"/>
<path d="M53.9803 63.3606C50.8623 63.3606 47.8025 63.2937 44.6998 63.3751C44.7158 63.5932 44.7253 63.7996 44.7449 64.0009C44.8248 64.8243 45.0022 65.6245 45.3503 66.3797C45.621 66.9956 46.0412 67.5342 46.5728 67.9467C47.4159 68.587 48.3781 68.6916 49.3877 68.5615C50.222 68.454 50.999 68.1487 51.7737 67.8413C52.1291 67.701 52.4816 67.5506 52.8639 67.3943C53.2273 68.1545 53.5834 68.9017 53.9541 69.6706C53.8858 69.72 53.8218 69.7753 53.7506 69.816C52.2389 70.7128 50.6152 71.2906 48.8615 71.4433C47.2625 71.5821 45.7362 71.3197 44.3553 70.4352C43.4149 69.8327 42.7564 68.9816 42.2055 68.0295C41.527 66.845 41.1161 65.5262 41.0019 64.1659C40.7713 61.6856 41.2979 59.3763 42.5819 57.238C43.4774 55.7518 44.8139 54.9443 46.487 54.6659C48.0249 54.3955 49.609 54.6591 50.9764 55.4131C51.7425 55.8281 52.2759 56.4815 52.7156 57.2141C53.2971 58.18 53.6031 59.2447 53.7499 60.348C53.8691 61.2376 53.9069 62.1381 53.9781 63.0372C53.9868 63.1295 53.9803 63.2254 53.9803 63.3606ZM50.2009 60.537C50.02 59.7077 49.8964 58.8603 49.3535 58.1574C49.0812 57.8081 48.6988 57.5612 48.2684 57.4568C47.1237 57.1537 45.9732 57.6814 45.4811 58.765C45.3053 59.151 45.202 59.5703 45.0741 59.9766C45.0167 60.1605 44.9796 60.3516 44.9339 60.537C45.2413 60.6184 49.8862 60.622 50.2024 60.5392L50.2009 60.537Z" fill="#E20010"/>
<path d="M33.5151 50.6938L37.2356 50.1182V54.6876C38.0613 54.737 38.8477 54.6832 39.6384 54.7682V57.5831C38.839 57.5962 38.0562 57.5722 37.24 57.6217C37.24 57.7801 37.24 57.8986 37.24 58.017C37.2332 60.7265 37.2274 63.4363 37.2225 66.1463C37.2225 66.5729 37.2567 67.0003 37.2952 67.4255C37.3563 68.0796 37.7189 68.4946 38.3527 68.6538C38.7023 68.7424 39.0614 68.7926 39.416 68.8602L39.7722 68.9328V71.3218C39.7321 71.3416 39.6896 71.3558 39.6457 71.364C38.5897 71.4112 37.538 71.3836 36.5168 71.0733C35.5196 70.7724 34.6882 70.2273 34.1242 69.329C33.8037 68.8202 33.6408 68.2482 33.5703 67.6573C33.5277 67.2872 33.5069 66.9149 33.5078 66.5424C33.5078 61.3967 33.5108 56.2514 33.5166 51.1066L33.5151 50.6938Z" fill="#E20010"/>
<path d="M56.031 50.6978L59.6287 50.0742V50.5706C59.6287 55.2439 59.6306 59.9172 59.6345 64.5905C59.6345 65.446 59.6418 66.3014 59.6483 67.1576C59.6541 68.0021 59.9623 68.4324 60.769 68.6839C61.0432 68.7597 61.3216 68.8194 61.6027 68.8627C61.7742 68.8946 61.9479 68.9099 62.1565 68.9353V71.3759C62.1371 71.392 62.1142 71.4032 62.0896 71.4086C61.0678 71.4501 60.0502 71.4333 59.0567 71.1426C58.4547 70.9693 57.8941 70.6756 57.409 70.2792C56.5056 69.54 56.1378 68.5494 56.0433 67.4323C56.0157 67.1053 56.0194 66.7746 56.0201 66.4461C56.0201 61.3338 56.0237 56.222 56.031 51.1106V50.6978Z" fill="#E20010"/>
<path d="M26.2914 71.1631H22.6575C22.6531 71.0112 22.6458 70.8724 22.6451 70.735C22.6412 68.5517 22.6381 66.3684 22.6357 64.1851C22.6313 62.4408 22.6204 60.6965 22.6211 58.9522C22.6223 58.6359 22.6466 58.3201 22.6938 58.0074C22.7476 57.6505 22.9344 57.3532 23.1938 57.1025C24.6213 55.7129 26.3314 54.88 28.2814 54.5209C29.5035 54.2968 30.7559 54.2951 31.9786 54.5158C32.0433 54.5275 32.108 54.542 32.1712 54.558C32.2025 54.566 32.2323 54.5812 32.2926 54.6045C31.8798 55.654 31.3768 56.657 30.903 57.6483C30.3368 57.6483 29.8004 57.6316 29.2655 57.652C28.3417 57.6826 27.4349 57.9085 26.6047 58.3148C26.3692 58.4304 26.2813 58.5743 26.282 58.8454C26.2922 62.8185 26.2946 66.7917 26.2893 70.7648L26.2914 71.1631Z" fill="#E20010"/>
<path d="M19.973 54.8398C20.0115 60.285 19.9694 65.6982 20.0043 71.1448H16.448C16.4393 71.0133 16.4219 70.8759 16.4219 70.7385C16.4219 67.3153 16.4219 63.8916 16.4219 60.4674C16.4219 58.8983 16.435 57.3291 16.4415 55.76C16.4415 55.6408 16.4415 55.5216 16.4415 55.3719L19.973 54.8398Z" fill="#E20010"/>
<path d="M18.0515 53.2356C16.3151 53.2312 15.2278 51.5029 15.9481 49.8713C16.3907 48.8705 17.1509 48.4904 18.2477 48.4969C19.7173 48.5093 20.8068 49.9708 20.4565 51.399C20.1766 52.54 19.2609 53.2385 18.0515 53.2356Z" fill="#E20010"/>
</svg>
