<svg width="533" height="371" viewBox="0 0 533 371" fill="none" xmlns="http://www.w3.org/2000/svg">
<g filter="url(#filter0_d)">
<rect x="103" y="38" width="390" height="254" rx="20" fill="white"/>
<path d="M446.909 250.008C447.368 250.185 447.864 250.186 448.337 250.305C449.525 250.608 449.525 250.593 449.311 251.781C449.196 252.417 449.084 253.052 448.989 253.691C448.951 253.951 448.889 254.001 448.629 253.887C447.349 253.308 445.931 253.115 444.545 253.332C444.114 253.384 443.709 253.567 443.385 253.858C442.947 254.262 442.927 254.818 443.335 255.255C443.661 255.605 444.081 255.824 444.494 256.05C445.283 256.48 446.125 256.813 446.875 257.328C447.774 257.954 448.559 258.705 448.773 259.831C449.134 261.697 448.52 263.239 447.067 264.422C445.947 265.332 444.613 265.737 443.212 265.913C441.279 266.143 439.319 265.962 437.46 265.38C437.108 265.273 436.933 265.157 437.031 264.711C437.243 263.736 437.377 262.744 437.547 261.73C438.311 262.051 439.046 262.387 439.838 262.557C440.852 262.776 441.873 262.861 442.902 262.68C443.108 262.646 443.31 262.587 443.502 262.504C443.996 262.289 444.422 261.998 444.501 261.391C444.58 260.784 444.222 260.434 443.791 260.127C443.213 259.715 442.561 259.441 441.932 259.125C441.345 258.839 440.789 258.492 440.274 258.088C438.366 256.559 438.151 254.13 439.768 252.28C440.857 251.033 442.29 250.46 443.864 250.156C444.125 250.106 444.403 250.143 444.646 250H445.899C445.973 250.032 446.052 250.049 446.133 250.049C446.213 250.049 446.293 250.032 446.367 250L446.909 250.008Z" fill="#444854"/>
<path d="M412 250.406C412.091 250.257 412.235 250.268 412.38 250.268C414.451 250.268 416.523 250.268 418.595 250.268C418.907 250.268 419.219 250.308 419.522 250.388C420.151 250.555 420.546 250.967 420.677 251.601C421.113 253.701 421.527 255.804 421.95 257.906C421.973 258.02 422.001 258.132 422.026 258.246C422.011 258.257 421.993 258.264 421.975 258.267C421.956 258.27 421.938 258.269 421.92 258.263C421.659 257.903 421.482 257.493 421.259 257.11C420.173 255.245 418.662 253.814 416.849 252.693C416.682 252.592 416.51 252.496 416.398 252.326C415.015 251.546 413.563 250.945 412 250.643V250.406Z" fill="#F9A51A"/>
<path d="M446.356 250.006C446.291 250.064 446.208 250.096 446.121 250.096C446.035 250.096 445.951 250.064 445.887 250.006H446.356Z" fill="#216CAC"/>
<path d="M462.71 261.803L460.273 250.612C460.233 250.428 460.197 250.282 459.935 250.287C458.879 250.309 457.823 250.3 456.767 250.304C455.767 250.304 455.119 250.781 454.717 251.712C452.908 255.897 451.075 260.072 449.251 264.253C449.037 264.743 448.824 265.234 448.613 265.724C448.665 265.752 448.686 265.773 448.707 265.773C450.063 265.773 451.419 265.773 452.775 265.784C452.969 265.784 453.014 265.674 453.066 265.535C453.285 264.944 453.514 264.356 453.723 263.76C453.798 263.546 453.895 263.457 454.139 263.457C455.729 263.471 457.319 263.471 458.91 263.457C459.149 263.457 459.226 263.547 459.266 263.76C459.333 264.123 459.421 264.481 459.497 264.841C459.697 265.779 459.697 265.779 460.622 265.779H463.573L462.71 261.803ZM458.14 260.295C457.128 260.279 456.116 260.288 455.05 260.288L457.266 254.488C457.671 256.374 458.043 258.153 458.441 259.924C458.514 260.248 458.438 260.3 458.14 260.295Z" fill="#444854"/>
<path d="M416.398 252.327C418.827 253.693 420.739 255.556 421.894 258.155C421.913 258.189 421.936 258.221 421.963 258.25C422.088 258.314 422.033 258.463 422.099 258.553L422.598 260.839C423.079 259.6 423.529 258.443 423.977 257.285C424.827 255.067 425.691 252.849 426.537 250.625C426.631 250.38 426.737 250.283 427.01 250.287C428.249 250.304 429.488 250.295 430.728 250.296C430.828 250.296 430.928 250.308 431.078 250.317C430.852 250.854 430.639 251.359 430.424 251.865C428.508 256.378 426.595 260.892 424.684 265.408C424.559 265.703 424.411 265.783 424.109 265.779C422.883 265.762 421.657 265.762 420.431 265.779C420.174 265.779 420.073 265.703 420.006 265.458C418.809 261.081 417.607 256.704 416.398 252.327Z" fill="#444854"/>
<path d="M434.858 250.269C435.458 250.269 436.057 250.279 436.657 250.264C436.902 250.258 436.957 250.309 436.914 250.573C436.414 253.469 435.936 256.368 435.449 259.271C435.101 261.336 434.742 263.4 434.406 265.468C434.365 265.721 434.285 265.789 434.041 265.785C432.854 265.773 431.667 265.775 430.481 265.785C430.244 265.785 430.181 265.749 430.223 265.482C430.718 262.6 431.196 259.718 431.681 256.829C432.031 254.751 432.39 252.674 432.729 250.592C432.77 250.344 432.849 250.26 433.097 250.267C433.688 250.28 434.272 250.269 434.858 250.269Z" fill="#444854"/>
<path d="M422.093 258.55C422.001 258.471 421.993 258.348 421.957 258.247C421.98 258.243 422.004 258.243 422.027 258.247C422.12 258.33 422.093 258.443 422.093 258.55Z" fill="#DFAF57"/>
<path d="M137.279 262.1C139.039 262.1 140.293 261.209 140.568 259.394H139.677C139.479 260.67 138.588 261.319 137.301 261.319C135.607 261.319 134.595 260.109 134.595 258.107V258.019C134.595 256.039 135.684 254.774 137.312 254.774C138.654 254.774 139.347 255.39 139.545 256.589H140.491C140.326 254.884 138.94 254.015 137.301 254.015C135.167 254.015 133.605 255.698 133.605 258.03V258.118C133.605 260.538 135.002 262.1 137.279 262.1ZM143.508 262.1C144.355 262.1 144.872 261.814 145.301 261.275V262.001H146.214V258.206C146.214 256.6 145.213 256.149 144.113 256.149C143.002 256.149 141.957 256.633 141.836 257.942H142.749C142.837 257.238 143.277 256.908 144.069 256.908C144.949 256.908 145.301 257.293 145.301 258.206V258.624H144.476C143.002 258.624 141.594 259.075 141.594 260.406C141.594 261.583 142.441 262.1 143.508 262.1ZM143.596 261.374C142.793 261.374 142.507 261 142.507 260.406C142.507 259.559 143.354 259.273 144.509 259.273H145.301V259.988C145.301 260.879 144.564 261.374 143.596 261.374ZM148.007 262.001H148.92V258.844C148.92 257.425 149.657 257.062 150.812 257.007V256.149C149.778 256.182 149.283 256.633 148.92 257.282V256.248H148.007V262.001ZM154.149 262.1C154.985 262.1 155.788 261.572 156.118 261.011V262.001H157.031V253.498H156.118V257.172C155.788 256.611 155.194 256.149 154.237 256.149C152.653 256.149 151.553 257.392 151.553 259.152V259.24C151.553 261.033 152.642 262.1 154.149 262.1ZM154.248 261.341C153.28 261.341 152.499 260.648 152.499 259.196V259.108C152.499 257.711 153.181 256.908 154.325 256.908C155.447 256.908 156.151 257.601 156.151 259.075V259.163C156.151 260.637 155.315 261.341 154.248 261.341ZM158.878 262.001H159.791V258.514C159.791 257.48 160.55 256.941 161.397 256.941C162.321 256.941 162.75 257.392 162.75 258.404V262.001H163.663V258.47C163.663 256.798 162.827 256.149 161.639 256.149C160.693 256.149 160.055 256.622 159.791 257.161V253.498H158.878V262.001ZM167.85 261.341C166.684 261.341 165.969 260.483 165.969 259.174V259.086C165.969 257.766 166.695 256.908 167.85 256.908C168.994 256.908 169.731 257.766 169.731 259.097V259.174C169.731 260.472 169.005 261.341 167.85 261.341ZM167.839 262.1C169.478 262.1 170.677 260.901 170.677 259.163V259.075C170.677 257.348 169.478 256.149 167.85 256.149C166.222 256.149 165.023 257.359 165.023 259.086V259.174C165.023 260.857 166.2 262.1 167.839 262.1ZM172.113 262.001H173.037V253.498H172.113V262.001ZM177.072 262.1C177.908 262.1 178.711 261.572 179.041 261.011V262.001H179.954V253.498H179.041V257.172C178.711 256.611 178.117 256.149 177.16 256.149C175.576 256.149 174.476 257.392 174.476 259.152V259.24C174.476 261.033 175.565 262.1 177.072 262.1ZM177.171 261.341C176.203 261.341 175.422 260.648 175.422 259.196V259.108C175.422 257.711 176.104 256.908 177.248 256.908C178.37 256.908 179.074 257.601 179.074 259.075V259.163C179.074 260.637 178.238 261.341 177.171 261.341ZM184.156 262.1C185.454 262.1 186.411 261.495 186.609 260.34H185.696C185.575 261.011 185.058 261.341 184.167 261.341C182.99 261.341 182.363 260.615 182.319 259.306H186.653V259.009C186.653 256.952 185.399 256.149 184.068 256.149C182.484 256.149 181.373 257.359 181.373 259.097V259.185C181.373 260.956 182.528 262.1 184.156 262.1ZM182.352 258.569C182.506 257.546 183.133 256.908 184.068 256.908C185.014 256.908 185.63 257.381 185.718 258.569H182.352ZM188.054 262.001H188.967V258.844C188.967 257.425 189.704 257.062 190.859 257.007V256.149C189.825 256.182 189.33 256.633 188.967 257.282V256.248H188.054V262.001ZM195.167 262.001H196.08V255.258L200.051 262.001H201.151V254.136H200.238V260.637L196.41 254.136H195.167V262.001ZM204.502 262.1C205.349 262.1 205.866 261.814 206.295 261.275V262.001H207.208V258.206C207.208 256.6 206.207 256.149 205.107 256.149C203.996 256.149 202.951 256.633 202.83 257.942H203.743C203.831 257.238 204.271 256.908 205.063 256.908C205.943 256.908 206.295 257.293 206.295 258.206V258.624H205.47C203.996 258.624 202.588 259.075 202.588 260.406C202.588 261.583 203.435 262.1 204.502 262.1ZM204.59 261.374C203.787 261.374 203.501 261 203.501 260.406C203.501 259.559 204.348 259.273 205.503 259.273H206.295V259.988C206.295 260.879 205.558 261.374 204.59 261.374ZM209.001 262.001H209.914V258.481C209.914 257.447 210.684 256.941 211.432 256.941C212.224 256.941 212.653 257.359 212.653 258.371V262.001H213.566V258.481C213.566 257.447 214.336 256.941 215.084 256.941C215.876 256.941 216.305 257.359 216.305 258.371V262.001H217.218V258.437C217.218 256.765 216.316 256.149 215.282 256.149C214.567 256.149 213.709 256.479 213.313 257.227C213.016 256.457 212.367 256.149 211.63 256.149C210.805 256.149 210.178 256.589 209.914 257.128V256.248H209.001V262.001ZM221.367 262.1C222.665 262.1 223.622 261.495 223.82 260.34H222.907C222.786 261.011 222.269 261.341 221.378 261.341C220.201 261.341 219.574 260.615 219.53 259.306H223.864V259.009C223.864 256.952 222.61 256.149 221.279 256.149C219.695 256.149 218.584 257.359 218.584 259.097V259.185C218.584 260.956 219.739 262.1 221.367 262.1ZM219.563 258.569C219.717 257.546 220.344 256.908 221.279 256.908C222.225 256.908 222.841 257.381 222.929 258.569H219.563Z" fill="#444854"/>
<path d="M137.15 168.25C138.825 168.25 140.05 166.95 140.05 165.35C140.05 163.75 138.825 162.45 137.15 162.45C135.5 162.45 134.25 163.75 134.25 165.35C134.25 166.95 135.5 168.25 137.15 168.25ZM148.701 168.25C150.376 168.25 151.601 166.95 151.601 165.35C151.601 163.75 150.376 162.45 148.701 162.45C147.051 162.45 145.801 163.75 145.801 165.35C145.801 166.95 147.051 168.25 148.701 168.25ZM160.252 168.25C161.927 168.25 163.152 166.95 163.152 165.35C163.152 163.75 161.927 162.45 160.252 162.45C158.602 162.45 157.352 163.75 157.352 165.35C157.352 166.95 158.602 168.25 160.252 168.25ZM171.802 168.25C173.477 168.25 174.702 166.95 174.702 165.35C174.702 163.75 173.477 162.45 171.802 162.45C170.152 162.45 168.902 163.75 168.902 165.35C168.902 166.95 170.152 168.25 171.802 168.25Z" fill="#D3DCE6"/>
<path d="M227.154 168.25C228.829 168.25 230.054 166.95 230.054 165.35C230.054 163.75 228.829 162.45 227.154 162.45C225.504 162.45 224.254 163.75 224.254 165.35C224.254 166.95 225.504 168.25 227.154 168.25ZM238.705 168.25C240.38 168.25 241.605 166.95 241.605 165.35C241.605 163.75 240.38 162.45 238.705 162.45C237.055 162.45 235.805 163.75 235.805 165.35C235.805 166.95 237.055 168.25 238.705 168.25ZM250.255 168.25C251.93 168.25 253.155 166.95 253.155 165.35C253.155 163.75 251.93 162.45 250.255 162.45C248.605 162.45 247.355 163.75 247.355 165.35C247.355 166.95 248.605 168.25 250.255 168.25ZM261.806 168.25C263.481 168.25 264.706 166.95 264.706 165.35C264.706 163.75 263.481 162.45 261.806 162.45C260.156 162.45 258.906 163.75 258.906 165.35C258.906 166.95 260.156 168.25 261.806 168.25Z" fill="#D3DCE6"/>
<path d="M317.154 168.25C318.829 168.25 320.054 166.95 320.054 165.35C320.054 163.75 318.829 162.45 317.154 162.45C315.504 162.45 314.254 163.75 314.254 165.35C314.254 166.95 315.504 168.25 317.154 168.25ZM328.705 168.25C330.38 168.25 331.605 166.95 331.605 165.35C331.605 163.75 330.38 162.45 328.705 162.45C327.055 162.45 325.805 163.75 325.805 165.35C325.805 166.95 327.055 168.25 328.705 168.25ZM340.255 168.25C341.93 168.25 343.155 166.95 343.155 165.35C343.155 163.75 341.93 162.45 340.255 162.45C338.605 162.45 337.355 163.75 337.355 165.35C337.355 166.95 338.605 168.25 340.255 168.25ZM351.806 168.25C353.481 168.25 354.706 166.95 354.706 165.35C354.706 163.75 353.481 162.45 351.806 162.45C350.156 162.45 348.906 163.75 348.906 165.35C348.906 166.95 350.156 168.25 351.806 168.25Z" fill="#D3DCE6"/>
<path d="M407.934 170.136C410.841 170.136 412.507 167.909 412.507 163.88V163.115C412.507 159.613 411.011 157.675 408.138 157.675C405.571 157.675 403.939 159.307 403.939 161.738C403.939 164.033 405.571 165.716 407.934 165.716C409.328 165.716 410.501 165.087 411.079 164.101C411.045 167.331 409.906 168.929 407.968 168.929C406.404 168.929 405.724 168.198 405.452 167.008H404.024C404.347 168.963 405.69 170.136 407.934 170.136ZM408.155 164.56C406.506 164.56 405.452 163.421 405.452 161.67C405.452 159.953 406.54 158.831 408.138 158.831C409.77 158.831 410.943 159.936 410.943 161.925C410.943 163.506 409.787 164.56 408.155 164.56ZM416.79 170H418.303L422.859 158.049V157.845H414.852V159.035H421.023L416.79 170ZM429.436 170.153C431.493 170.153 433.618 168.946 433.618 166.515C433.618 164.951 432.7 163.897 431.289 163.387C432.411 162.894 433.159 162.044 433.159 160.82C433.159 158.916 431.323 157.692 429.436 157.692C427.566 157.692 425.696 158.882 425.696 160.854C425.696 162.044 426.376 162.962 427.532 163.404C426.24 163.863 425.237 164.917 425.237 166.549C425.237 168.963 427.447 170.153 429.436 170.153ZM429.436 168.946C428.025 168.946 426.75 168.096 426.75 166.498C426.75 164.883 428.025 164.05 429.47 164.05C430.915 164.05 432.105 164.866 432.105 166.464C432.105 168.079 430.932 168.946 429.436 168.946ZM429.487 162.877C428.246 162.877 427.192 162.146 427.192 160.871C427.192 159.613 428.178 158.848 429.436 158.848C430.694 158.848 431.663 159.664 431.663 160.837C431.663 162.129 430.779 162.877 429.487 162.877ZM442.537 170H443.982V167.45H445.665V166.243H443.982V157.845H442.01L436.451 166.974V167.45H442.537V170ZM438.321 166.243L442.537 158.967V166.243H438.321Z" fill="#444854"/>
<path fill-rule="evenodd" clip-rule="evenodd" d="M460.488 81.8848L461.702 83.0989C462.067 83.464 462.067 84.0543 461.702 84.4194C461.52 84.6015 461.281 84.6931 461.042 84.6931C460.803 84.6931 460.564 84.6015 460.382 84.4194L457.853 81.8913L457.306 81.344L456.05 80.0879L455.986 80.0235L453.647 77.6851C453.621 77.6866 453.595 77.6873 453.569 77.6873C452.796 77.6873 452.168 77.0588 452.168 76.2864C452.168 76.2601 452.169 76.234 452.17 76.208L449.165 73.2031L447.53 71.5678L445.439 69.4768C445.074 69.1116 445.074 68.5214 445.439 68.1562C445.804 67.791 446.394 67.791 446.759 68.1562L448.359 69.756L449.727 71.1242L453.491 74.8877C453.517 74.8863 453.543 74.8855 453.569 74.8855C454.341 74.8855 454.97 75.5141 454.97 76.2864C454.97 76.3126 454.969 76.3385 454.968 76.3643L458.627 80.0235L460.488 81.8848ZM450.388 70.4645L453 73.0767C453.186 73.044 453.374 73.0197 453.57 73.0197C455.372 73.0197 456.838 74.486 456.838 76.2884C456.838 76.4836 456.814 76.6723 456.781 76.8581L459.286 79.3638L460.065 80.1427C461.486 78.8464 462.398 77.4278 462.785 76.7526C462.95 76.4649 462.95 76.111 462.785 75.8233C462.19 74.7848 458.899 69.5792 453.317 69.7538C452.212 69.7828 451.211 70.0209 450.303 70.3805L450.388 70.4645ZM455.393 80.7498L456.649 82.005L456.84 82.1965C455.933 82.556 454.932 82.7942 453.827 82.8222C453.75 82.825 453.673 82.8259 453.597 82.8259C448.121 82.8259 444.946 77.7781 444.358 76.7527C444.193 76.465 444.193 76.1111 444.358 75.8234C444.745 75.1492 445.657 73.7305 447.078 72.4343L448.508 73.865L450.363 75.7188C450.329 75.9047 450.305 76.0933 450.305 76.2885C450.305 78.091 451.771 79.5572 453.574 79.5572C453.769 79.5572 453.957 79.533 454.143 79.4993L455.328 80.6845L455.393 80.7498Z" fill="#9DA8B6"/>
<path d="M137.433 77.5238C137.416 77.3545 137.399 77.1956 137.38 77.0029C137.575 76.9905 137.716 76.9726 137.857 76.9726C138.715 76.9699 139.573 76.9534 140.431 76.9754C142.275 77.0236 143.807 75.8717 144.408 74.3394C145.272 72.1389 144.104 69.8215 142.066 69.0384C141.499 68.821 140.925 68.713 140.323 68.713C138.315 68.7143 136.308 68.713 134.301 68.713C134.187 68.713 134.075 68.7075 133.96 68.7171C133.648 68.7419 133.607 68.7859 133.591 69.0962C133.587 69.1912 133.591 69.2861 133.591 69.3818C133.591 72.966 133.591 76.5481 133.591 80.1323C133.591 80.3181 133.591 80.5045 133.591 80.7151C133.379 80.7151 133.228 80.7151 133.088 80.7151C132.987 80.3263 132.965 68.8017 133.064 68.2492C133.22 68.2299 133.392 68.1914 133.562 68.1914C135.893 68.1873 138.223 68.2093 140.555 68.1831C142.68 68.1597 144.534 69.6178 145.07 71.5176C145.599 73.3926 145.152 75.0825 143.667 76.438C142.956 77.0896 142.062 77.4398 141.117 77.5031C139.915 77.5857 138.697 77.5238 137.433 77.5238Z" fill="#575A65"/>
<path d="M134.199 80.7145C134.199 76.8991 134.199 73.1167 134.199 69.2999C134.365 69.2862 134.505 69.2655 134.645 69.2655C136.653 69.2628 138.658 69.2614 140.666 69.2655C142.073 69.2683 143.447 70.3224 143.923 71.5637C144.185 72.2497 144.213 72.9516 144.063 73.6169C143.783 74.8624 143.044 75.8037 141.758 76.2268C141.458 76.3259 141.135 76.3975 140.819 76.4044C139.799 76.4264 138.779 76.4154 137.761 76.4126C137.603 76.4126 137.42 76.4401 137.383 76.2144C137.354 76.0287 137.466 75.8793 137.674 75.8601C137.849 75.8436 138.03 75.8532 138.207 75.8532C139.015 75.8518 139.826 75.8353 140.634 75.856C141.885 75.8876 142.979 75.0289 143.334 74.003C143.957 72.1981 143.266 70.9011 141.807 70.0899C141.529 69.9344 141.169 69.8545 140.845 69.8504C138.904 69.827 136.961 69.8366 135.018 69.8353C134.955 69.8353 134.892 69.8504 134.771 69.8669C134.758 70.0623 134.734 70.2612 134.734 70.458C134.732 73.6452 134.733 76.831 134.733 80.0181C134.733 80.1296 134.737 80.2397 134.732 80.3519C134.716 80.72 134.679 80.7461 134.199 80.7145Z" fill="#575A65"/>
<path d="M135.819 80.7147C135.615 80.7147 135.465 80.7147 135.281 80.7147C135.281 77.2785 135.281 73.8787 135.281 70.4328C135.461 70.4149 135.632 70.3819 135.803 70.3819C137.373 70.3777 138.945 70.4176 140.513 70.3681C141.827 70.3268 142.917 71.3975 143.057 72.5727C143.179 73.6007 142.627 74.875 141.35 75.2018C141.011 75.2885 140.657 75.3477 140.307 75.3573C139.53 75.3807 138.752 75.3642 137.976 75.3642C137.816 75.3642 137.655 75.3642 137.512 75.3642C137.292 74.8846 137.344 74.7924 137.811 74.7897C138.685 74.7856 139.56 74.7663 140.434 74.7938C141.397 74.8241 142.161 74.2289 142.396 73.4534C142.628 72.6876 142.417 71.9073 141.678 71.308C141.34 71.0335 140.944 70.9137 140.515 70.911C139.106 70.9041 137.698 70.9069 136.29 70.911C136.149 70.911 136.01 70.944 135.82 70.9674C135.819 74.2303 135.819 77.4587 135.819 80.7147Z" fill="#575A65"/>
<path d="M137.417 74.1606C137.396 73.7209 137.424 73.6714 137.793 73.6686C138.651 73.6604 139.509 73.6673 140.367 73.6645C140.529 73.6645 140.694 73.6659 140.85 73.6342C141.086 73.5861 141.261 73.4526 141.29 73.1973C141.309 73.0404 141.325 72.8801 141.317 72.7232C141.289 72.2271 141.077 72.0317 140.542 72.0248C139.717 72.0166 138.891 72.0221 138.065 72.0221C137.729 72.0221 137.392 72.0221 137.009 72.0221C136.995 72.2643 136.972 72.4645 136.972 72.664C136.97 75.1225 136.971 77.5804 136.971 80.0375C136.971 80.1489 136.977 80.259 136.97 80.3712C136.947 80.7201 136.891 80.7558 136.434 80.698C136.434 77.6375 136.434 74.5721 136.434 71.4799C136.588 71.4675 136.714 71.4496 136.839 71.4496C138.053 71.4482 139.267 71.4551 140.481 71.4468C141.069 71.4427 141.488 71.6822 141.778 72.181C142.133 72.7941 141.873 73.8042 141.256 74.1379C141.162 74.1888 141.044 74.215 140.935 74.215C139.803 74.2191 138.67 74.2163 137.536 74.2136C137.507 74.2129 137.477 74.1895 137.417 74.1606Z" fill="#575A65"/>
<path d="M187.43 70.9683C187.325 71.0509 187.228 71.1266 187.11 71.2174C187.016 71.1417 186.925 71.0798 186.849 71.0055C186.5 70.6635 186.18 70.2919 185.805 69.9802C185.105 69.3947 184.28 69.0541 183.385 68.8312C182.41 68.5889 181.452 68.6289 180.512 68.8945C178.972 69.3314 177.733 70.1963 176.93 71.5828C176.339 72.6011 175.975 73.7034 176.093 74.8842C176.326 77.2181 177.478 78.9473 179.698 79.9477C180.861 80.4714 182.077 80.5704 183.3 80.331C184.616 80.0736 185.737 79.4186 186.622 78.4099C186.707 78.3149 186.773 78.2048 186.857 78.1106C187.013 77.9399 187.175 77.922 187.318 78.0583C187.467 78.2014 187.397 78.3074 187.285 78.458C186.603 79.3704 185.699 79.9959 184.667 80.4645C183.515 80.9881 182.29 81.1037 181.067 80.9152C179.798 80.7184 178.647 80.181 177.693 79.3099C176.808 78.5041 176.196 77.534 175.838 76.3917C175.5 75.3156 175.453 74.2202 175.715 73.1605C176.187 71.2436 177.31 69.7697 179.14 68.8532C180.507 68.1699 181.952 67.9931 183.428 68.2869C185.068 68.6137 186.401 69.4718 187.387 70.8169C187.402 70.8431 187.403 70.8789 187.43 70.9683Z" fill="#575A65"/>
<path d="M186.575 77.6573C185.188 79.639 182.734 80.4255 180.428 79.7106C178.121 78.9943 176.616 77.003 176.613 74.5741C176.612 72.1465 178.084 70.2103 180.254 69.4954C182.663 68.7006 185.145 69.4279 186.606 71.5266C186.507 71.6133 186.405 71.7041 186.281 71.8121C186.19 71.7447 186.084 71.6951 186.018 71.6153C185.686 71.2073 185.314 70.8454 184.866 70.5598C184.285 70.1889 183.689 69.8724 182.976 69.8174C182.642 69.7912 182.307 69.6605 181.981 69.6894C180.076 69.86 178.57 70.661 177.684 72.4011C177.318 73.1188 177.089 73.8715 177.137 74.6704C177.238 76.3706 177.975 77.7213 179.452 78.6798C180.618 79.436 181.909 79.5275 183.201 79.308C184.25 79.1305 185.151 78.5518 185.844 77.722C185.875 77.6849 185.907 77.6505 185.938 77.6133C186.224 77.283 186.264 77.2858 186.575 77.6573Z" fill="#575A65"/>
<path d="M185.717 72.1556C185.56 72.2327 185.433 72.2932 185.295 72.3607C184.808 71.7242 184.208 71.2377 183.44 70.9852C181.897 70.4795 180.501 70.7444 179.337 71.8673C177.411 73.723 177.974 76.9405 180.494 78.0621C182.06 78.7577 183.839 78.3683 184.997 77.1222C185.029 77.0877 185.045 77.0396 185.076 77.0052C185.344 76.7086 185.409 76.7114 185.692 77.0272C184.938 78.415 182.933 79.1712 181.486 78.916C178.984 78.4749 177.678 76.5104 177.657 74.6059C177.633 72.4439 179.215 70.6584 181.219 70.2806C183.062 69.9345 184.873 70.6983 185.717 72.1556Z" fill="#575A65"/>
<path d="M184.475 76.1844C184.876 76.4672 184.886 76.5085 184.631 76.7837C182.787 78.775 179.706 77.9438 178.889 75.6732C178.339 74.1449 179.026 72.2287 180.721 71.5117C182.059 70.9454 183.615 71.2316 184.609 72.3553C184.899 72.6821 184.897 72.6931 184.447 72.9326C183.698 71.9926 182.685 71.6472 181.488 71.8358C180.839 71.9376 180.333 72.292 179.895 72.7729C179.016 73.739 178.992 75.5438 180.058 76.5512C180.701 77.1573 181.467 77.4553 182.366 77.3686C183.239 77.2826 183.904 76.8291 184.475 76.1844Z" fill="#575A65"/>
<path d="M190.478 68.0339C190.654 68.0339 190.808 68.0339 190.951 68.0339C191.073 68.4021 191.092 80.4503 190.971 80.9381C190.823 80.9381 190.668 80.9381 190.477 80.9381C190.478 76.6363 190.478 72.3509 190.478 68.0339Z" fill="#575A65"/>
<path d="M188.725 80.9423C188.586 80.9491 188.432 80.956 188.242 80.9643C188.242 76.6377 188.242 72.3509 188.242 68.0339C188.419 68.0339 188.573 68.0339 188.721 68.0339C188.842 68.4055 188.85 80.4696 188.725 80.9423Z" fill="#575A65"/>
<path d="M189.85 68.0588C189.85 72.3621 189.85 76.6337 189.85 80.8997C189.398 80.9768 189.365 80.9562 189.338 80.5812C189.328 80.4546 189.334 80.3279 189.334 80.2007C189.334 76.3825 189.334 72.5644 189.334 68.7449C189.334 68.6183 189.328 68.4916 189.339 68.3644C189.369 68.0354 189.414 68.0079 189.85 68.0588Z" fill="#575A65"/>
<path d="M192.045 80.9389C191.637 80.9471 191.607 80.9306 191.576 80.6272C191.562 80.4868 191.568 80.3416 191.568 80.1999C191.568 76.3845 191.568 72.5677 191.568 68.7523C191.568 68.6106 191.561 68.4654 191.578 68.325C191.613 68.034 191.665 68.0092 192.035 68.0594C192.13 68.4172 192.144 80.4276 192.045 80.9389Z" fill="#575A65"/>
<path d="M192.891 80.8894C193.283 79.9343 193.664 79.0199 194.033 78.0992C194.33 77.3568 194.605 76.6054 194.9 75.863C195.195 75.1164 195.504 74.376 195.803 73.6309C196.118 72.843 196.426 72.0517 196.74 71.2639C197.141 70.2579 197.542 69.2519 197.947 68.2487C198.089 67.8957 198.394 68.0272 198.712 68.0065C200.452 72.2946 202.145 76.5937 203.895 80.9424C203.619 80.9424 203.449 80.9424 203.262 80.9424C201.666 76.9522 200.073 72.9751 198.448 68.9134C198.325 69.0854 198.215 69.1921 198.163 69.3201C197.561 70.8042 196.963 72.2877 196.373 73.7774C195.799 75.2258 195.241 76.679 194.669 78.1288C194.34 78.96 194 79.785 193.664 80.6135C193.507 80.996 193.441 81.0222 192.891 80.8894Z" fill="#575A65"/>
<path d="M201.805 68.0994C202.245 67.882 202.429 68.0389 202.563 68.3678C203.101 69.693 203.64 71.0189 204.169 72.3483C204.739 73.7815 205.29 75.2196 205.861 76.6529C206.366 77.9176 206.888 79.1761 207.398 80.4394C207.455 80.5811 207.473 80.7387 207.51 80.8846C207.018 81.0222 206.982 81.0002 206.831 80.6245C206.313 79.3433 205.783 78.0655 205.269 76.7829C204.902 75.865 204.562 74.9382 204.194 74.0203C203.757 72.9263 203.297 71.8391 202.858 70.7451C202.553 69.9875 202.268 69.221 201.97 68.4606C201.925 68.3457 201.869 68.237 201.805 68.0994Z" fill="#575A65"/>
<path d="M205.039 80.9494C204.819 80.9494 204.661 80.9494 204.486 80.9494C202.769 76.6544 201.057 72.3732 199.344 68.0906C199.894 67.909 199.933 68.0053 200.116 68.4188C200.416 69.098 200.673 69.7943 200.95 70.4831C201.278 71.2978 201.613 72.1076 201.936 72.923C202.291 73.8148 202.633 74.7099 202.989 75.6017C203.502 76.8843 204.026 78.162 204.543 79.4432C204.695 79.821 204.847 80.1994 204.988 80.5813C205.024 80.679 205.018 80.7932 205.039 80.9494Z" fill="#575A65"/>
<path d="M206.278 80.9379C206.06 80.9379 205.892 80.9379 205.718 80.9379C204 76.6456 202.292 72.3796 200.586 68.1135C201.061 67.9415 201.174 67.9704 201.334 68.3515C201.557 68.8862 201.76 69.4291 201.971 69.9678C202.333 70.8899 202.69 71.8126 203.059 72.7318C203.357 73.4743 203.676 74.2078 203.972 74.9502C204.343 75.8805 204.695 76.8183 205.069 77.7486C205.439 78.6693 205.827 79.581 206.199 80.5016C206.249 80.6275 206.249 80.7707 206.278 80.9379Z" fill="#575A65"/>
<path d="M198.413 70.1965C198.766 70.5247 198.837 70.8055 198.649 71.2094C198.31 71.9381 198.041 72.6991 197.741 73.4456C197.361 74.3897 196.979 75.333 196.602 76.2784C196.17 77.3601 195.742 78.4431 195.315 79.5262C195.165 79.9053 195.022 80.2879 194.872 80.667C194.741 80.9966 194.637 81.0269 194.141 80.8831C195.56 77.3312 196.98 73.7828 198.413 70.1965Z" fill="#575A65"/>
<path d="M195.375 80.8625C196.586 77.8295 197.797 74.7985 199.01 71.7627C199.344 72.0159 199.453 72.2863 199.324 72.6104C198.906 73.6632 198.477 74.7104 198.054 75.7604C197.747 76.518 197.44 77.2749 197.137 78.0338C196.783 78.9215 196.443 79.8139 196.087 80.7015C195.967 81.0008 195.841 81.027 195.375 80.8625Z" fill="#575A65"/>
<path d="M196.609 80.8637C197.614 78.346 198.617 75.8304 199.624 73.3044C199.963 73.601 200.05 73.8804 199.909 74.2237C199.265 75.8097 198.616 77.3916 197.971 78.9776C197.753 79.5164 197.542 80.0565 197.334 80.5994C197.179 81.0033 197.11 81.0364 196.609 80.8637Z" fill="#575A65"/>
<path d="M202.286 79.3509C200.901 79.3509 199.566 79.3509 198.223 79.3509C198.37 78.8314 198.387 78.8135 198.861 78.8121C199.783 78.8094 200.705 78.8094 201.627 78.8121C202.073 78.8149 202.073 78.8218 202.286 79.3509Z" fill="#575A65"/>
<path d="M201.738 78.2663C201.621 78.2814 201.496 78.3089 201.372 78.3103C200.63 78.3144 199.889 78.3172 199.148 78.3103C198.688 78.3062 198.668 78.2704 198.818 77.7647C198.96 77.755 199.118 77.7344 199.274 77.7344C199.966 77.7316 200.659 77.7248 201.352 77.7385C201.754 77.7468 201.792 77.8128 201.738 78.2663Z" fill="#575A65"/>
<path d="M201.339 77.1465C200.621 77.1465 199.9 77.1465 199.183 77.1465C199.129 76.6462 199.165 76.5994 199.625 76.5926C200.044 76.5857 200.463 76.5857 200.882 76.5926C201.243 76.5994 201.342 76.7205 201.339 77.1465Z" fill="#575A65"/>
<path d="M152.889 80.3286V71.3203C152.889 71.0808 152.691 70.8847 152.445 70.8847H150.023C149.778 70.8847 149.578 70.6907 149.578 70.4492V68.6719C149.578 68.4324 149.776 68.2363 150.023 68.2363H158.674C158.919 68.2363 159.119 68.4304 159.119 68.6719V70.4492C159.119 70.6886 158.921 70.8847 158.674 70.8847H156.252C156.008 70.8847 155.807 71.0788 155.807 71.3203V80.3293C155.807 80.5687 155.609 80.7648 155.363 80.7648H153.334C153.089 80.7642 152.889 80.5687 152.889 80.3286Z" fill="#575A65"/>
<path d="M169.549 80.7628H167.371C167.2 80.7628 167.042 80.6651 166.969 80.5123L165.174 76.7657C164.934 76.304 164.551 76.0728 164.029 76.0728H163.594C163.35 76.0728 163.149 76.2669 163.149 76.5084V80.3279C163.149 80.5674 162.951 80.7635 162.705 80.7635H160.753C160.509 80.7635 160.309 80.5694 160.309 80.3279V68.6719C160.309 68.4324 160.507 68.2363 160.753 68.2363H165.581C166.92 68.2363 167.927 68.5659 168.601 69.223C169.276 69.8801 169.613 70.8311 169.613 72.0751C169.613 73.0233 169.382 73.8249 168.922 74.482C168.628 74.9024 168.255 75.2355 167.807 75.4783C167.54 75.6228 167.497 75.991 167.732 76.1822C168.029 76.4231 168.285 76.7664 168.498 77.2089L169.948 80.1366C170.092 80.427 169.878 80.7628 169.549 80.7628ZM166.501 73.282C166.777 73.0577 166.917 72.6896 166.917 72.1811C166.917 71.6602 166.778 71.2838 166.501 71.0526C166.223 70.8214 165.765 70.7065 165.128 70.7065H163.564C163.319 70.7065 163.119 70.9006 163.119 71.1421V73.1857C163.119 73.4251 163.317 73.6212 163.564 73.6212H165.128C165.765 73.6198 166.223 73.5084 166.501 73.282Z" fill="#575A65"/>
<path d="M171.406 80.3272V68.6719C171.406 68.4324 171.604 68.2363 171.851 68.2363H173.85C174.095 68.2363 174.295 68.4304 174.295 68.6719V80.3272C174.295 80.5667 174.097 80.7628 173.85 80.7628H171.851C171.605 80.7628 171.406 80.5674 171.406 80.3272Z" fill="#575A65"/>
<path d="M146.507 68.144H144.815C144.633 68.144 144.47 68.2514 144.402 68.4172L144.286 68.7C144.221 68.8555 144.253 69.0365 144.371 69.1576C145.079 69.8821 145.578 70.8028 145.778 71.8266C145.782 71.8473 145.788 71.8693 145.797 71.8899L146.989 75.0386C147.097 75.3228 146.883 75.6255 146.573 75.6255H145.306C145.159 75.6255 145.02 75.6929 144.937 75.8113C143.959 77.2184 142.312 78.1439 140.447 78.1439H140.39L139.595 80.0712C139.477 80.3581 139.692 80.6691 140.008 80.6691H141.944C142.129 80.6691 142.296 80.5563 142.36 80.3863L143.132 78.3579C143.197 78.1872 143.363 78.0751 143.549 78.0751H147.828C148.013 78.0751 148.18 78.1879 148.245 78.3579L149.017 80.3863C149.081 80.557 149.247 80.6691 149.433 80.6691H151.321C151.636 80.6691 151.851 80.356 151.733 80.0712L146.914 68.4151C146.85 68.2514 146.688 68.144 146.507 68.144Z" fill="#575A65"/>
<path d="M137.433 77.5238C137.416 77.3545 137.399 77.1956 137.38 77.0029C137.575 76.9905 137.716 76.9726 137.857 76.9726C138.715 76.9699 139.573 76.9534 140.431 76.9754C142.275 77.0236 143.807 75.8717 144.408 74.3394C145.272 72.1389 144.104 69.8215 142.066 69.0384C141.499 68.821 140.925 68.713 140.323 68.713C138.315 68.7143 136.308 68.713 134.301 68.713C134.187 68.713 134.075 68.7075 133.96 68.7171C133.648 68.7419 133.607 68.7859 133.591 69.0962C133.587 69.1912 133.591 69.2861 133.591 69.3818C133.591 72.966 133.591 76.5481 133.591 80.1323C133.591 80.3181 133.591 80.5045 133.591 80.7151C133.379 80.7151 133.228 80.7151 133.088 80.7151C132.987 80.3263 132.965 68.8017 133.064 68.2492C133.22 68.2299 133.392 68.1914 133.562 68.1914C135.893 68.1873 138.223 68.2093 140.555 68.1831C142.68 68.1597 144.534 69.6178 145.07 71.5176C145.599 73.3926 145.152 75.0825 143.667 76.438C142.956 77.0896 142.062 77.4398 141.117 77.5031C139.915 77.5857 138.697 77.5238 137.433 77.5238Z" fill="#575A65"/>
<path d="M134.199 80.7145C134.199 76.8991 134.199 73.1167 134.199 69.2999C134.365 69.2862 134.505 69.2655 134.645 69.2655C136.653 69.2628 138.658 69.2614 140.666 69.2655C142.073 69.2683 143.447 70.3224 143.923 71.5637C144.185 72.2497 144.213 72.9516 144.063 73.6169C143.783 74.8624 143.044 75.8037 141.758 76.2268C141.458 76.3259 141.135 76.3975 140.819 76.4044C139.799 76.4264 138.779 76.4154 137.761 76.4126C137.603 76.4126 137.42 76.4401 137.383 76.2144C137.354 76.0287 137.466 75.8793 137.674 75.8601C137.849 75.8436 138.03 75.8532 138.207 75.8532C139.015 75.8518 139.826 75.8353 140.634 75.856C141.885 75.8876 142.979 75.0289 143.334 74.003C143.957 72.1981 143.266 70.9011 141.807 70.0899C141.529 69.9344 141.169 69.8545 140.845 69.8504C138.904 69.827 136.961 69.8366 135.018 69.8353C134.955 69.8353 134.892 69.8504 134.771 69.8669C134.758 70.0623 134.734 70.2612 134.734 70.458C134.732 73.6452 134.733 76.831 134.733 80.0181C134.733 80.1296 134.737 80.2397 134.732 80.3519C134.716 80.72 134.679 80.7461 134.199 80.7145Z" fill="#575A65"/>
<path d="M135.819 80.7147C135.615 80.7147 135.465 80.7147 135.281 80.7147C135.281 77.2785 135.281 73.8787 135.281 70.4328C135.461 70.4149 135.632 70.3819 135.803 70.3819C137.373 70.3777 138.945 70.4176 140.513 70.3681C141.827 70.3268 142.917 71.3975 143.057 72.5727C143.179 73.6007 142.627 74.875 141.35 75.2018C141.011 75.2885 140.657 75.3477 140.307 75.3573C139.53 75.3807 138.752 75.3642 137.976 75.3642C137.816 75.3642 137.655 75.3642 137.512 75.3642C137.292 74.8846 137.344 74.7924 137.811 74.7897C138.685 74.7856 139.56 74.7663 140.434 74.7938C141.397 74.8241 142.161 74.2289 142.396 73.4534C142.628 72.6876 142.417 71.9073 141.678 71.308C141.34 71.0335 140.944 70.9137 140.515 70.911C139.106 70.9041 137.698 70.9069 136.29 70.911C136.149 70.911 136.01 70.944 135.82 70.9674C135.819 74.2303 135.819 77.4587 135.819 80.7147Z" fill="#575A65"/>
<path d="M137.417 74.1606C137.396 73.7209 137.424 73.6714 137.793 73.6686C138.651 73.6604 139.509 73.6673 140.367 73.6645C140.529 73.6645 140.694 73.6659 140.85 73.6342C141.086 73.5861 141.261 73.4526 141.29 73.1973C141.309 73.0404 141.325 72.8801 141.317 72.7232C141.289 72.2271 141.077 72.0317 140.542 72.0248C139.717 72.0166 138.891 72.0221 138.065 72.0221C137.729 72.0221 137.392 72.0221 137.009 72.0221C136.995 72.2643 136.972 72.4645 136.972 72.664C136.97 75.1225 136.971 77.5804 136.971 80.0375C136.971 80.1489 136.977 80.259 136.97 80.3712C136.947 80.7201 136.891 80.7558 136.434 80.698C136.434 77.6375 136.434 74.5721 136.434 71.4799C136.588 71.4675 136.714 71.4496 136.839 71.4496C138.053 71.4482 139.267 71.4551 140.481 71.4468C141.069 71.4427 141.488 71.6822 141.778 72.181C142.133 72.7941 141.873 73.8042 141.256 74.1379C141.162 74.1888 141.044 74.215 140.935 74.215C139.803 74.2191 138.67 74.2163 137.536 74.2136C137.507 74.2129 137.477 74.1895 137.417 74.1606Z" fill="#575A65"/>
<path d="M334.07 205.657H335.114V197.077H334.142L332.15 198.517V199.489L334.07 198.109V205.657ZM340.675 204.901C339.247 204.901 338.335 203.773 338.335 201.601V201.121C338.335 199.009 339.199 197.809 340.651 197.809C342.103 197.809 342.943 199.105 342.943 201.097V201.577C342.943 203.749 342.175 204.901 340.675 204.901ZM340.675 205.765C342.787 205.765 343.999 204.085 343.999 201.589V201.109C343.999 198.661 342.763 196.969 340.651 196.969C338.551 196.969 337.267 198.601 337.267 201.133V201.613C337.267 204.109 338.623 205.765 340.675 205.765ZM344.306 207.433H345.218L348.71 196.345H347.798L344.306 207.433ZM351.273 205.657H352.317V197.077H351.345L349.353 198.517V199.489L351.273 198.109V205.657ZM353.978 205.657H359.726V204.805H355.586L357.95 202.501C359.006 201.469 359.678 200.437 359.678 199.381C359.678 197.905 358.67 196.969 357.086 196.969C355.454 196.969 354.434 198.037 354.302 199.717H355.274C355.442 198.373 356.09 197.809 357.086 197.809C358.058 197.809 358.622 198.385 358.622 199.345C358.622 200.221 358.166 201.001 357.386 201.829L353.978 205.417V205.657Z" fill="#575A65"/>
<path d="M300.684 202.999H301.412L303.141 197.994H302.567L301.076 202.411L299.585 197.994H298.983L300.684 202.999ZM303.148 202.999H303.722L304.205 201.557H306.27L306.76 202.999H307.362L305.668 197.994H304.87L303.148 202.999ZM305.241 198.498L306.109 201.074H304.373L305.241 198.498ZM308.242 202.999H311.14V202.502H308.851V197.994H308.242V202.999ZM312.023 202.999H312.632V197.994H312.023V202.999ZM314.539 202.502V198.484H315.218C316.597 198.484 317.157 199.296 317.157 200.451V200.507C317.157 201.732 316.513 202.502 315.225 202.502H314.539ZM313.93 202.999H315.239C316.989 202.999 317.787 201.9 317.787 200.514V200.451C317.787 199.058 316.975 197.994 315.253 197.994H313.93V202.999ZM300.432 210.999H301.041V206.491H302.497V205.994H298.976V206.491H300.432V210.999ZM303.327 210.999H303.936V208.773H306.568V210.999H307.177V205.994H306.568V208.262H303.936V205.994H303.327V210.999ZM308.441 210.999H309.05V208.822H309.82L311.311 210.999H311.99L310.457 208.78C311.143 208.647 311.696 208.241 311.696 207.415V207.387C311.696 206.386 310.905 205.994 309.946 205.994H308.441V210.999ZM309.05 208.339V206.484H309.988C310.667 206.484 311.087 206.708 311.087 207.387V207.415C311.087 208.031 310.702 208.339 309.988 208.339H309.05ZM314.559 211.062C315.847 211.062 316.456 210.313 316.456 209.095V205.994H315.847V209.011C315.847 210.236 315.371 210.558 314.573 210.558C313.74 210.558 313.369 210.152 313.369 209.102V205.994H312.76V209.172C312.76 210.39 313.411 211.062 314.559 211.062Z" fill="#9DA8B6"/>
<path d="M436.518 205.657H437.538V203.857H438.726V203.005H437.538V197.077H436.146L432.222 203.521V203.857H436.518V205.657ZM433.542 203.005L436.518 197.869V203.005H433.542ZM442.532 205.765C444.164 205.765 445.472 204.661 445.472 202.849C445.472 201.097 444.344 200.005 442.808 200.005C441.992 200.005 441.404 200.269 441.056 200.593V197.977H445.016V197.077H440.192V201.673H440.576C441.032 201.157 441.608 200.845 442.604 200.845C443.696 200.845 444.404 201.637 444.404 202.849C444.404 204.145 443.684 204.925 442.52 204.925C441.212 204.925 440.84 204.277 440.672 203.341H439.676C439.796 204.745 440.684 205.765 442.532 205.765ZM449.458 205.765C451.09 205.765 452.398 204.661 452.398 202.849C452.398 201.097 451.27 200.005 449.734 200.005C448.918 200.005 448.33 200.269 447.982 200.593V197.977H451.942V197.077H447.118V201.673H447.502C447.958 201.157 448.534 200.845 449.53 200.845C450.622 200.845 451.33 201.637 451.33 202.849C451.33 204.145 450.61 204.925 449.446 204.925C448.138 204.925 447.766 204.277 447.598 203.341H446.602C446.722 204.745 447.61 205.765 449.458 205.765Z" fill="#575A65"/>
<path d="M407.496 207.064C408.616 207.064 409.414 206.497 409.589 205.342H409.022C408.896 206.154 408.329 206.567 407.51 206.567C406.432 206.567 405.788 205.797 405.788 204.523V204.467C405.788 203.207 406.481 202.402 407.517 202.402C408.371 202.402 408.812 202.794 408.938 203.557H409.54C409.435 202.472 408.553 201.919 407.51 201.919C406.152 201.919 405.158 202.99 405.158 204.474V204.53C405.158 206.07 406.047 207.064 407.496 207.064ZM411.729 207.001H412.457L414.186 201.996H413.612L412.121 206.413L410.63 201.996H410.028L411.729 207.001ZM416.309 207.001H417.037L418.766 201.996H418.192L416.701 206.413L415.21 201.996H414.608L416.309 207.001Z" fill="#9DA8B6"/>
</g>
<rect y="117" width="390" height="254" rx="20" fill="#131313"/>
<mask id="mask0" mask-type="alpha" maskUnits="userSpaceOnUse" x="0" y="117" width="285" height="254">
<rect y="117" width="285" height="254" rx="20" fill="#131313"/>
</mask>
<g mask="url(#mask0)">
<g opacity="0.45">
<path d="M94.1124 319.508C93.7645 315.854 93.4165 312.375 93.0686 308.2C97.2439 307.852 100.201 307.504 103.159 307.504C121.426 307.504 139.693 307.156 157.786 307.504C196.929 308.548 229.461 283.67 242.335 250.441C260.602 202.774 235.898 152.496 192.58 135.447C180.402 130.924 168.224 128.488 155.524 128.488C112.901 128.488 70.2785 128.488 27.6558 128.488C25.2202 128.488 22.7846 128.314 20.523 128.488C13.7381 129.184 12.8683 130.054 12.5204 136.839C12.3464 138.927 12.5204 141.014 12.5204 143.102C12.5204 220.867 12.5204 298.457 12.5204 376.222C12.5204 380.223 12.5204 384.225 12.5204 388.922C7.99713 388.922 4.86567 388.922 1.90817 388.922C-0.353442 380.223 -0.701382 130.402 1.38626 118.398C4.6917 118.05 8.34507 117.18 11.9984 117.18C61.58 117.18 110.988 117.528 160.569 117.006C205.627 116.484 245.119 148.147 256.427 189.378C267.735 230.087 258.166 266.621 226.678 296.022C211.542 310.113 192.58 317.768 172.573 319.16C146.825 320.899 120.904 319.508 94.1124 319.508Z" fill="#2C2C2C"/>
<path d="M25.2227 388.571C25.2227 305.935 25.2227 223.821 25.2227 141.185C28.7021 140.837 31.6596 140.489 34.617 140.489C77.2398 140.489 119.862 140.315 162.485 140.489C192.408 140.489 221.461 163.453 231.551 190.245C237.118 205.206 237.64 220.342 234.509 234.781C228.594 261.747 212.937 282.101 185.623 291.322C179.186 293.409 172.401 294.975 165.617 295.149C144.044 295.671 122.298 295.323 100.726 295.323C97.4203 295.323 93.419 295.845 92.7231 290.974C92.0272 286.972 94.4628 283.667 98.8121 283.319C102.639 282.971 106.293 283.145 110.12 283.145C127.343 283.145 144.566 282.797 161.615 283.145C188.233 283.841 211.371 265.226 219.026 242.958C232.247 203.815 217.634 175.631 186.667 158.06C180.752 154.755 173.097 153.015 166.313 152.841C125.082 152.319 83.8506 152.493 42.6197 152.493C41.2279 152.493 40.0101 152.841 37.4006 153.189C37.0526 157.365 36.7047 161.714 36.7047 166.063C36.7047 235.129 36.7047 304.195 36.7047 373.262C36.7047 375.697 36.8787 378.133 36.7047 380.394C36.1828 388.745 35.4869 389.267 25.2227 388.571Z" fill="#2C2C2C"/>
<path d="M59.8414 388.747C55.4922 388.747 52.3607 388.747 48.3594 388.747C48.3594 314.288 48.3594 240.525 48.3594 165.891C52.1867 165.543 55.8401 164.848 59.4935 164.848C92.8958 164.848 126.298 165.543 159.526 164.5C187.362 163.63 210.5 186.768 213.457 212.341C216.067 234.61 204.411 262.271 177.271 269.404C170.139 271.317 162.484 272.535 155.177 272.709C138.65 273.231 122.123 272.883 105.596 272.883C102.116 272.883 98.8107 272.883 95.6793 272.883C90.9821 262.445 92.1999 260.531 102.116 260.357C120.731 260.183 139.346 259.835 157.787 260.531C178.315 261.227 194.494 248.353 199.539 231.478C204.411 214.951 200.061 197.902 184.23 185.028C177.097 179.113 168.573 176.504 159.526 176.504C129.603 176.33 99.6806 176.33 69.7577 176.504C66.8002 176.504 63.8427 177.199 59.8414 177.721C59.8414 248.179 59.8414 318.115 59.8414 388.747Z" fill="#2C2C2C"/>
<path d="M93.5892 246.614C93.0673 237.045 93.7631 236.001 101.592 236.001C119.859 235.827 137.952 236.001 156.218 235.827C159.698 235.827 163.177 235.827 166.483 235.131C171.528 234.088 175.181 231.13 175.877 225.737C176.225 222.258 176.573 218.952 176.399 215.473C175.877 204.687 171.354 200.511 159.872 200.337C142.301 200.163 124.73 200.337 107.333 200.337C100.2 200.337 93.0673 200.337 84.8907 200.337C84.5427 205.557 84.1948 209.906 84.1948 214.255C84.1948 267.49 84.1948 320.899 84.1948 374.134C84.1948 376.569 84.3688 379.005 84.1948 381.266C83.6729 388.747 82.4551 389.617 72.8867 388.399C72.8867 322.117 72.8867 255.66 72.8867 188.507C76.1922 188.16 78.8017 187.812 81.4113 187.812C107.159 187.812 132.906 187.986 158.828 187.812C171.354 187.638 180.226 192.857 186.315 203.643C193.796 216.865 188.403 238.785 175.181 246.092C173.268 247.135 170.658 247.831 168.396 247.831C144.388 248.005 120.207 247.831 96.1987 247.831C95.5028 247.657 94.9809 247.135 93.5892 246.614Z" fill="#2C2C2C"/>
</g>
</g>
<path d="M35.446 341.126C37.686 341.126 39.282 339.992 39.632 337.682H38.498C38.246 339.306 37.112 340.132 35.474 340.132C33.318 340.132 32.03 338.592 32.03 336.044V335.932C32.03 333.412 33.416 331.802 35.488 331.802C37.196 331.802 38.078 332.586 38.33 334.112H39.534C39.324 331.942 37.56 330.836 35.474 330.836C32.758 330.836 30.77 332.978 30.77 335.946V336.058C30.77 339.138 32.548 341.126 35.446 341.126ZM43.3733 341.126C44.4513 341.126 45.1093 340.762 45.6553 340.076V341H46.8173V336.17C46.8173 334.126 45.5433 333.552 44.1433 333.552C42.7293 333.552 41.3993 334.168 41.2453 335.834H42.4073C42.5193 334.938 43.0793 334.518 44.0873 334.518C45.2073 334.518 45.6553 335.008 45.6553 336.17V336.702H44.6053C42.7293 336.702 40.9373 337.276 40.9373 338.97C40.9373 340.468 42.0153 341.126 43.3733 341.126ZM43.4853 340.202C42.4633 340.202 42.0993 339.726 42.0993 338.97C42.0993 337.892 43.1773 337.528 44.6473 337.528H45.6553V338.438C45.6553 339.572 44.7173 340.202 43.4853 340.202ZM49.0998 341H50.2618V336.982C50.2618 335.176 51.1998 334.714 52.6698 334.644V333.552C51.3538 333.594 50.7238 334.168 50.2618 334.994V333.678H49.0998V341ZM56.9164 341.126C57.9804 341.126 59.0024 340.454 59.4224 339.74V341H60.5844V330.178H59.4224V334.854C59.0024 334.14 58.2464 333.552 57.0284 333.552C55.0124 333.552 53.6124 335.134 53.6124 337.374V337.486C53.6124 339.768 54.9984 341.126 56.9164 341.126ZM57.0424 340.16C55.8104 340.16 54.8164 339.278 54.8164 337.43V337.318C54.8164 335.54 55.6844 334.518 57.1404 334.518C58.5684 334.518 59.4644 335.4 59.4644 337.276V337.388C59.4644 339.264 58.4004 340.16 57.0424 340.16ZM62.9358 341H64.0978V336.562C64.0978 335.246 65.0638 334.56 66.1418 334.56C67.3178 334.56 67.8638 335.134 67.8638 336.422V341H69.0258V336.506C69.0258 334.378 67.9618 333.552 66.4498 333.552C65.2458 333.552 64.4338 334.154 64.0978 334.84V330.178H62.9358V341ZM74.355 340.16C72.871 340.16 71.961 339.068 71.961 337.402V337.29C71.961 335.61 72.885 334.518 74.355 334.518C75.811 334.518 76.749 335.61 76.749 337.304V337.402C76.749 339.054 75.825 340.16 74.355 340.16ZM74.341 341.126C76.427 341.126 77.953 339.6 77.953 337.388V337.276C77.953 335.078 76.427 333.552 74.355 333.552C72.283 333.552 70.757 335.092 70.757 337.29V337.402C70.757 339.544 72.255 341.126 74.341 341.126ZM79.7802 341H80.9562V330.178H79.7802V341ZM86.0922 341.126C87.1562 341.126 88.1782 340.454 88.5982 339.74V341H89.7602V330.178H88.5982V334.854C88.1782 334.14 87.4222 333.552 86.2042 333.552C84.1882 333.552 82.7882 335.134 82.7882 337.374V337.486C82.7882 339.768 84.1742 341.126 86.0922 341.126ZM86.2182 340.16C84.9862 340.16 83.9922 339.278 83.9922 337.43V337.318C83.9922 335.54 84.8602 334.518 86.3162 334.518C87.7442 334.518 88.6402 335.4 88.6402 337.276V337.388C88.6402 339.264 87.5762 340.16 86.2182 340.16ZM95.1075 341.126C96.7595 341.126 97.9775 340.356 98.2295 338.886H97.0675C96.9135 339.74 96.2555 340.16 95.1215 340.16C93.6235 340.16 92.8255 339.236 92.7695 337.57H98.2855V337.192C98.2855 334.574 96.6895 333.552 94.9955 333.552C92.9795 333.552 91.5655 335.092 91.5655 337.304V337.416C91.5655 339.67 93.0355 341.126 95.1075 341.126ZM92.8115 336.632C93.0075 335.33 93.8055 334.518 94.9955 334.518C96.1995 334.518 96.9835 335.12 97.0955 336.632H92.8115ZM100.069 341H101.231V336.982C101.231 335.176 102.169 334.714 103.639 334.644V333.552C102.323 333.594 101.693 334.168 101.231 334.994V333.678H100.069V341ZM109.121 341H110.283V332.418L115.337 341H116.737V330.99H115.575V339.264L110.703 330.99H109.121V341ZM121.002 341.126C122.08 341.126 122.738 340.762 123.284 340.076V341H124.446V336.17C124.446 334.126 123.172 333.552 121.772 333.552C120.358 333.552 119.028 334.168 118.874 335.834H120.036C120.148 334.938 120.708 334.518 121.716 334.518C122.836 334.518 123.284 335.008 123.284 336.17V336.702H122.234C120.358 336.702 118.566 337.276 118.566 338.97C118.566 340.468 119.644 341.126 121.002 341.126ZM121.114 340.202C120.092 340.202 119.728 339.726 119.728 338.97C119.728 337.892 120.806 337.528 122.276 337.528H123.284V338.438C123.284 339.572 122.346 340.202 121.114 340.202ZM126.729 341H127.891V336.52C127.891 335.204 128.871 334.56 129.823 334.56C130.831 334.56 131.377 335.092 131.377 336.38V341H132.539V336.52C132.539 335.204 133.519 334.56 134.471 334.56C135.479 334.56 136.025 335.092 136.025 336.38V341H137.187V336.464C137.187 334.336 136.039 333.552 134.723 333.552C133.813 333.552 132.721 333.972 132.217 334.924C131.839 333.944 131.013 333.552 130.075 333.552C129.025 333.552 128.227 334.112 127.891 334.798V333.678H126.729V341ZM142.467 341.126C144.119 341.126 145.337 340.356 145.589 338.886H144.427C144.273 339.74 143.615 340.16 142.481 340.16C140.983 340.16 140.185 339.236 140.129 337.57H145.645V337.192C145.645 334.574 144.049 333.552 142.355 333.552C140.339 333.552 138.925 335.092 138.925 337.304V337.416C138.925 339.67 140.395 341.126 142.467 341.126ZM140.171 336.632C140.367 335.33 141.165 334.518 142.355 334.518C143.559 334.518 144.343 335.12 144.455 336.632H140.171Z" fill="#D3DCE6"/>
<path d="M35.312 247.92C37.456 247.92 39.024 246.256 39.024 244.208C39.024 242.16 37.456 240.496 35.312 240.496C33.2 240.496 31.6 242.16 31.6 244.208C31.6 246.256 33.2 247.92 35.312 247.92ZM50.097 247.92C52.241 247.92 53.809 246.256 53.809 244.208C53.809 242.16 52.241 240.496 50.097 240.496C47.985 240.496 46.385 242.16 46.385 244.208C46.385 246.256 47.985 247.92 50.097 247.92ZM64.882 247.92C67.026 247.92 68.594 246.256 68.594 244.208C68.594 242.16 67.026 240.496 64.882 240.496C62.77 240.496 61.17 242.16 61.17 244.208C61.17 246.256 62.77 247.92 64.882 247.92ZM79.667 247.92C81.811 247.92 83.379 246.256 83.379 244.208C83.379 242.16 81.811 240.496 79.667 240.496C77.555 240.496 75.955 242.16 75.955 244.208C75.955 246.256 77.555 247.92 79.667 247.92Z" fill="#D3DCE6"/>
<path d="M125.312 247.92C127.456 247.92 129.024 246.256 129.024 244.208C129.024 242.16 127.456 240.496 125.312 240.496C123.2 240.496 121.6 242.16 121.6 244.208C121.6 246.256 123.2 247.92 125.312 247.92ZM140.097 247.92C142.241 247.92 143.809 246.256 143.809 244.208C143.809 242.16 142.241 240.496 140.097 240.496C137.985 240.496 136.385 242.16 136.385 244.208C136.385 246.256 137.985 247.92 140.097 247.92ZM154.882 247.92C157.026 247.92 158.594 246.256 158.594 244.208C158.594 242.16 157.026 240.496 154.882 240.496C152.77 240.496 151.17 242.16 151.17 244.208C151.17 246.256 152.77 247.92 154.882 247.92ZM169.667 247.92C171.811 247.92 173.379 246.256 173.379 244.208C173.379 242.16 171.811 240.496 169.667 240.496C167.555 240.496 165.955 242.16 165.955 244.208C165.955 246.256 167.555 247.92 169.667 247.92Z" fill="#D3DCE6"/>
<path d="M215.312 247.92C217.456 247.92 219.024 246.256 219.024 244.208C219.024 242.16 217.456 240.496 215.312 240.496C213.2 240.496 211.6 242.16 211.6 244.208C211.6 246.256 213.2 247.92 215.312 247.92ZM230.097 247.92C232.241 247.92 233.809 246.256 233.809 244.208C233.809 242.16 232.241 240.496 230.097 240.496C227.985 240.496 226.385 242.16 226.385 244.208C226.385 246.256 227.985 247.92 230.097 247.92ZM244.882 247.92C247.026 247.92 248.594 246.256 248.594 244.208C248.594 242.16 247.026 240.496 244.882 240.496C242.77 240.496 241.17 242.16 241.17 244.208C241.17 246.256 242.77 247.92 244.882 247.92ZM259.667 247.92C261.811 247.92 263.379 246.256 263.379 244.208C263.379 242.16 261.811 240.496 259.667 240.496C257.555 240.496 255.955 242.16 255.955 244.208C255.955 246.256 257.555 247.92 259.667 247.92Z" fill="#D3DCE6"/>
<path d="M306.67 251.184C310.603 251.184 312.857 248.171 312.857 242.72V241.685C312.857 236.947 310.833 234.325 306.946 234.325C303.473 234.325 301.265 236.533 301.265 239.822C301.265 242.927 303.473 245.204 306.67 245.204C308.556 245.204 310.143 244.353 310.925 243.019C310.879 247.389 309.338 249.551 306.716 249.551C304.6 249.551 303.68 248.562 303.312 246.952H301.38C301.817 249.597 303.634 251.184 306.67 251.184ZM306.969 243.64C304.738 243.64 303.312 242.099 303.312 239.73C303.312 237.407 304.784 235.889 306.946 235.889C309.154 235.889 310.741 237.384 310.741 240.075C310.741 242.214 309.177 243.64 306.969 243.64ZM318.652 251H320.699L326.863 234.831V234.555H316.03V236.165H324.379L318.652 251ZM335.761 251.207C338.544 251.207 341.419 249.574 341.419 246.285C341.419 244.169 340.177 242.743 338.268 242.053C339.786 241.386 340.798 240.236 340.798 238.58C340.798 236.004 338.314 234.348 335.761 234.348C333.231 234.348 330.701 235.958 330.701 238.626C330.701 240.236 331.621 241.478 333.185 242.076C331.437 242.697 330.08 244.123 330.08 246.331C330.08 249.597 333.07 251.207 335.761 251.207ZM335.761 249.574C333.852 249.574 332.127 248.424 332.127 246.262C332.127 244.077 333.852 242.95 335.807 242.95C337.762 242.95 339.372 244.054 339.372 246.216C339.372 248.401 337.785 249.574 335.761 249.574ZM335.83 241.363C334.151 241.363 332.725 240.374 332.725 238.649C332.725 236.947 334.059 235.912 335.761 235.912C337.463 235.912 338.774 237.016 338.774 238.603C338.774 240.351 337.578 241.363 335.83 241.363ZM353.486 251H355.441V247.55H357.718V245.917H355.441V234.555H352.773L345.252 246.906V247.55H353.486V251ZM347.782 245.917L353.486 236.073V245.917H347.782Z" fill="#D3DCE6"/>
<path d="M34.4331 156.525C34.4162 156.356 34.3993 156.197 34.3797 156.004C34.5749 155.992 34.7161 155.974 34.8566 155.974C35.715 155.971 36.5727 155.955 37.4311 155.977C39.275 156.025 40.8071 154.873 41.4077 153.341C42.2717 151.14 41.1035 148.823 39.0657 148.04C38.4988 147.822 37.9249 147.714 37.3229 147.714C35.3153 147.716 33.3084 147.714 31.3008 147.714C31.187 147.714 31.0746 147.709 30.9601 147.718C30.6475 147.743 30.6068 147.787 30.5914 148.097C30.5871 148.192 30.5914 148.287 30.5914 148.383C30.5914 151.967 30.5914 155.549 30.5914 159.134C30.5914 159.319 30.5914 159.506 30.5914 159.716C30.3792 159.716 30.2282 159.716 30.0877 159.716C29.9865 159.328 29.9655 147.803 30.0638 147.25C30.2198 147.231 30.3919 147.193 30.5618 147.193C32.8926 147.188 35.2233 147.211 37.5547 147.184C39.6804 147.161 41.5341 148.619 42.0701 150.519C42.599 152.394 42.1516 154.084 40.6673 155.439C39.9557 156.091 39.0622 156.441 38.1167 156.504C36.9148 156.587 35.6975 156.525 34.4331 156.525Z" fill="#FAB957"/>
<path d="M31.1953 159.715C31.1953 155.9 31.1953 152.117 31.1953 148.301C31.3611 148.287 31.5009 148.266 31.6414 148.266C33.649 148.264 35.6545 148.262 37.6621 148.266C39.0691 148.269 40.4431 149.323 40.9186 150.564C41.1813 151.25 41.2087 151.952 41.0591 152.618C40.7788 153.863 40.0406 154.804 38.7537 155.228C38.4537 155.327 38.1306 155.398 37.8152 155.405C36.7952 155.427 35.7753 155.416 34.7567 155.413C34.5994 155.413 34.416 155.441 34.3795 155.215C34.35 155.029 34.4624 154.88 34.6696 154.861C34.8452 154.844 35.0258 154.854 35.2028 154.854C36.0113 154.853 36.8219 154.836 37.6305 154.857C38.8808 154.888 39.9752 154.03 40.33 153.004C40.9531 151.199 40.2625 149.902 38.8036 149.091C38.5247 148.935 38.165 148.855 37.8412 148.851C35.8996 148.828 33.9573 148.837 32.0144 148.836C31.9511 148.836 31.8879 148.851 31.7671 148.868C31.7545 149.063 31.7306 149.262 31.7306 149.459C31.7278 152.646 31.7292 155.832 31.7292 159.019C31.7292 159.13 31.7334 159.24 31.7278 159.353C31.7116 159.721 31.6751 159.747 31.1953 159.715Z" fill="#FAB957"/>
<path d="M32.8186 159.716C32.6149 159.716 32.4653 159.716 32.2812 159.716C32.2812 156.28 32.2812 152.88 32.2812 149.434C32.4611 149.416 32.6318 149.383 32.8032 149.383C34.3731 149.379 35.9445 149.419 37.5131 149.369C38.8267 149.328 39.9169 150.399 40.0567 151.574C40.1789 152.602 39.6275 153.876 38.3504 154.203C38.0111 154.29 37.6571 154.349 37.3066 154.359C36.5304 154.382 35.7521 154.365 34.9759 154.365C34.8157 154.365 34.6548 154.365 34.5115 154.365C34.2924 153.886 34.3443 153.794 34.8115 153.791C35.6853 153.787 36.5599 153.768 37.4337 153.795C38.3975 153.825 39.1611 153.23 39.3964 152.455C39.6282 151.689 39.4174 150.909 38.6778 150.309C38.3399 150.035 37.9437 149.915 37.5145 149.912C36.1061 149.905 34.6984 149.908 33.29 149.912C33.1495 149.912 33.0097 149.945 32.82 149.969C32.8186 153.231 32.8186 156.46 32.8186 159.716Z" fill="#FAB957"/>
<path d="M34.4131 153.161C34.392 152.721 34.4201 152.672 34.7889 152.669C35.6473 152.661 36.505 152.668 37.3634 152.665C37.525 152.665 37.69 152.666 37.846 152.635C38.082 152.587 38.2569 152.453 38.2864 152.198C38.3047 152.041 38.3216 151.881 38.3131 151.724C38.285 151.228 38.0729 151.032 37.5383 151.025C36.7129 151.017 35.8869 151.023 35.0615 151.023C34.725 151.023 34.3878 151.023 34.005 151.023C33.9909 151.265 33.9685 151.465 33.9685 151.665C33.9657 154.123 33.9671 156.581 33.9671 159.038C33.9671 159.149 33.9727 159.26 33.9657 159.372C33.9432 159.721 33.887 159.756 33.4297 159.699C33.4297 156.638 33.4297 153.573 33.4297 150.48C33.5842 150.468 33.71 150.45 33.835 150.45C35.0488 150.449 36.2627 150.456 37.4772 150.447C38.0652 150.443 38.4845 150.683 38.7739 151.181C39.1287 151.795 38.8695 152.805 38.252 153.138C38.1579 153.189 38.0399 153.215 37.931 153.215C36.7986 153.22 35.6663 153.217 34.5325 153.214C34.503 153.213 34.4735 153.19 34.4131 153.161Z" fill="#FAB957"/>
<path d="M84.4301 149.967C84.3247 150.05 84.2278 150.125 84.1105 150.216C84.0163 150.14 83.925 150.079 83.8491 150.004C83.5 149.662 83.1797 149.291 82.8053 148.979C82.105 148.393 81.2803 148.053 80.3847 147.83C79.4097 147.588 78.4522 147.628 77.5123 147.893C75.9719 148.33 74.7327 149.195 73.9298 150.582C73.3391 151.6 72.9745 152.702 73.0925 153.883C73.3257 156.217 74.4778 157.946 76.6982 158.947C77.8615 159.47 79.0767 159.569 80.2997 159.33C81.6161 159.072 82.7372 158.417 83.6223 157.409C83.7065 157.314 83.7726 157.204 83.8569 157.109C84.0128 156.939 84.1751 156.921 84.3184 157.057C84.4673 157.2 84.3971 157.306 84.2847 157.457C83.6026 158.369 82.6992 158.995 81.6666 159.463C80.5146 159.987 79.2895 160.102 78.0666 159.914C76.7979 159.717 75.6473 159.18 74.6934 158.309C73.8083 157.503 73.1965 156.533 72.8382 155.391C72.5004 154.314 72.4526 153.219 72.7146 152.159C73.1874 150.242 74.3099 148.768 76.1398 147.852C77.5067 147.169 78.9517 146.992 80.4275 147.286C82.0677 147.612 83.401 148.471 84.3872 149.816C84.402 149.842 84.4034 149.878 84.4301 149.967Z" fill="#FAB957"/>
<path d="M83.5715 156.654C82.1842 158.636 79.7298 159.422 77.4244 158.707C75.1175 157.991 73.6122 156 73.6094 153.571C73.608 151.143 75.0796 149.207 77.2502 148.492C79.6596 147.697 82.1413 148.425 83.6024 150.523C83.5027 150.61 83.4015 150.701 83.2772 150.809C83.1859 150.742 83.0805 150.692 83.0145 150.612C82.6822 150.204 82.3099 149.842 81.8625 149.557C81.2815 149.186 80.6852 148.869 79.9722 148.814C79.6385 148.788 79.3027 148.657 78.9775 148.686C77.0718 148.857 75.5664 149.658 74.6799 151.398C74.3139 152.116 74.0849 152.868 74.1327 153.667C74.2339 155.367 74.9714 156.718 76.448 157.677C77.614 158.433 78.9051 158.524 80.197 158.305C81.2464 158.127 82.147 157.549 82.8403 156.719C82.8712 156.682 82.9035 156.647 82.9344 156.61C83.2196 156.28 83.2603 156.283 83.5715 156.654Z" fill="#FAB957"/>
<path d="M82.7132 151.155C82.5559 151.232 82.4287 151.292 82.2911 151.36C81.8043 150.723 81.2037 150.237 80.4359 149.984C78.8926 149.478 77.4975 149.743 76.3329 150.866C74.4075 152.722 74.9701 155.94 77.4905 157.061C79.0563 157.757 80.8356 157.367 81.9932 156.121C82.0255 156.087 82.041 156.039 82.0719 156.004C82.3402 155.708 82.4056 155.71 82.6879 156.026C81.9342 157.414 79.9294 158.17 78.4817 157.915C75.9802 157.474 74.6737 155.509 74.6526 153.605C74.6287 151.443 76.2113 149.657 78.2154 149.28C80.058 148.934 81.8696 149.697 82.7132 151.155Z" fill="#FAB957"/>
<path d="M81.4751 155.184C81.8762 155.467 81.8861 155.508 81.6311 155.783C79.7871 157.775 76.7062 156.943 75.8892 154.673C75.3392 153.144 76.0255 151.228 77.7205 150.511C79.0594 149.945 80.6153 150.231 81.6086 151.355C81.8987 151.682 81.8973 151.693 81.447 151.932C80.6975 150.992 79.6846 150.647 78.4876 150.835C77.8392 150.937 77.3328 151.291 76.8951 151.772C76.0157 152.738 75.9918 154.543 77.0581 155.551C77.7009 156.157 78.4665 156.455 79.3664 156.368C80.2388 156.282 80.904 155.829 81.4751 155.184Z" fill="#FAB957"/>
<path d="M87.478 147.037C87.6536 147.037 87.8074 147.037 87.9507 147.037C88.0729 147.405 88.0912 159.453 87.9704 159.941C87.8229 159.941 87.6676 159.941 87.4766 159.941C87.478 155.639 87.478 151.354 87.478 147.037Z" fill="#FAB957"/>
<path d="M85.7248 159.946C85.5857 159.953 85.4318 159.96 85.2422 159.968C85.2422 155.642 85.2422 151.355 85.2422 147.038C85.4192 147.038 85.573 147.038 85.7206 147.038C85.8414 147.41 85.8498 159.474 85.7248 159.946Z" fill="#FAB957"/>
<path d="M86.8499 147.063C86.8499 151.367 86.8499 155.638 86.8499 159.904C86.3983 159.981 86.3645 159.961 86.3378 159.586C86.328 159.459 86.3336 159.333 86.3336 159.205C86.3336 155.387 86.3336 151.569 86.3336 147.749C86.3336 147.623 86.328 147.496 86.3393 147.369C86.3688 147.04 86.4137 147.013 86.8499 147.063Z" fill="#FAB957"/>
<path d="M89.0448 159.944C88.6367 159.952 88.6072 159.935 88.5763 159.632C88.5622 159.491 88.5679 159.346 88.5679 159.205C88.5679 155.389 88.5679 151.572 88.5679 147.757C88.5679 147.615 88.5608 147.47 88.5777 147.33C88.6128 147.039 88.6648 147.014 89.035 147.064C89.1291 147.422 89.1432 159.432 89.0448 159.944Z" fill="#FAB957"/>
<path d="M89.8906 159.89C90.2833 158.935 90.664 158.021 91.0328 157.1C91.3299 156.358 91.6053 155.606 91.8996 154.864C92.1954 154.117 92.5044 153.377 92.803 152.632C93.1184 151.844 93.4261 151.053 93.7401 150.265C94.1412 149.259 94.5415 148.253 94.9469 147.25C95.0888 146.897 95.3943 147.028 95.7118 147.007C97.4518 151.296 99.1454 155.595 100.895 159.943C100.619 159.943 100.449 159.943 100.262 159.943C98.6656 155.953 97.0732 151.976 95.4484 147.914C95.3248 148.086 95.2152 148.193 95.1625 148.321C94.5605 149.805 93.9627 151.289 93.3734 152.778C92.7995 154.227 92.241 155.68 91.6685 157.13C91.3405 157.961 91.0005 158.786 90.664 159.614C90.5067 159.997 90.4406 160.023 89.8906 159.89Z" fill="#FAB957"/>
<path d="M98.8047 147.1C99.2451 146.883 99.4292 147.04 99.5626 147.369C100.101 148.694 100.64 150.02 101.169 151.349C101.739 152.783 102.29 154.221 102.861 155.654C103.366 156.919 103.888 158.177 104.398 159.44C104.455 159.582 104.473 159.74 104.51 159.886C104.018 160.023 103.982 160.001 103.831 159.625C103.313 158.344 102.783 157.066 102.269 155.784C101.902 154.866 101.562 153.939 101.194 153.021C100.757 151.927 100.297 150.84 99.8584 149.746C99.5528 148.988 99.2676 148.222 98.9705 147.462C98.9248 147.347 98.8686 147.238 98.8047 147.1Z" fill="#FAB957"/>
<path d="M102.039 159.953C101.819 159.953 101.661 159.953 101.486 159.953C99.7689 155.658 98.057 151.377 96.3438 147.094C96.8938 146.912 96.9331 147.009 97.1157 147.422C97.4157 148.101 97.6728 148.798 97.9503 149.486C98.2783 150.301 98.6127 151.111 98.9365 151.926C99.2912 152.818 99.6326 153.713 99.9888 154.605C100.502 155.888 101.026 157.165 101.543 158.447C101.695 158.824 101.847 159.203 101.988 159.585C102.024 159.682 102.018 159.797 102.039 159.953Z" fill="#FAB957"/>
<path d="M103.278 159.938C103.06 159.938 102.892 159.938 102.718 159.938C101 155.646 99.2922 151.38 97.5859 147.113C98.0615 146.941 98.1739 146.97 98.334 147.352C98.5574 147.886 98.7604 148.429 98.9712 148.968C99.3329 149.89 99.6898 150.813 100.059 151.732C100.357 152.474 100.676 153.208 100.972 153.95C101.343 154.88 101.695 155.818 102.069 156.749C102.439 157.669 102.827 158.581 103.199 159.502C103.249 159.628 103.249 159.771 103.278 159.938Z" fill="#FAB957"/>
<path d="M95.409 149.196C95.7624 149.525 95.8326 149.805 95.645 150.209C95.3058 150.938 95.0374 151.699 94.7375 152.445C94.3575 153.389 93.9753 154.333 93.5981 155.278C93.1661 156.36 92.7383 157.443 92.3112 158.526C92.1609 158.905 92.0183 159.288 91.868 159.667C91.7373 159.996 91.6334 160.027 91.1367 159.883C92.5564 156.331 93.976 152.783 95.409 149.196Z" fill="#FAB957"/>
<path d="M92.375 159.864C93.586 156.831 94.797 153.8 96.0102 150.764C96.3438 151.017 96.4534 151.288 96.3242 151.612C95.9062 152.665 95.477 153.712 95.0541 154.762C94.7472 155.519 94.4395 156.276 94.1367 157.035C93.7834 157.923 93.4434 158.815 93.0873 159.703C92.9672 160.002 92.8407 160.028 92.375 159.864Z" fill="#FAB957"/>
<path d="M93.6055 159.866C94.61 157.348 95.6131 154.833 96.6197 152.307C96.959 152.603 97.0461 152.883 96.9056 153.226C96.2614 154.812 95.6117 156.394 94.9668 157.98C94.7491 158.519 94.5376 159.059 94.3297 159.602C94.1752 160.006 94.1063 160.039 93.6055 159.866Z" fill="#FAB957"/>
<path d="M99.2863 158.351C97.9011 158.351 96.5657 158.351 95.2227 158.351C95.3702 157.831 95.387 157.813 95.8612 157.812C96.7828 157.809 97.7051 157.809 98.6267 157.812C99.0728 157.815 99.0728 157.822 99.2863 158.351Z" fill="#FAB957"/>
<path d="M98.7336 157.267C98.617 157.282 98.492 157.31 98.3677 157.311C97.6266 157.315 96.8848 157.318 96.1437 157.311C95.6836 157.307 95.6639 157.271 95.8143 156.765C95.9561 156.756 96.1142 156.735 96.2701 156.735C96.9621 156.732 97.6554 156.725 98.348 156.739C98.7505 156.748 98.7884 156.814 98.7336 157.267Z" fill="#FAB957"/>
<path d="M98.3433 156.144C97.6247 156.144 96.904 156.144 96.1868 156.144C96.1334 155.644 96.1685 155.597 96.6286 155.59C97.048 155.583 97.4674 155.583 97.886 155.59C98.2471 155.597 98.3461 155.718 98.3433 156.144Z" fill="#FAB957"/>
<path d="M49.8895 159.33V150.322C49.8895 150.083 49.6914 149.886 49.4448 149.886H47.0228C46.7783 149.886 46.5781 149.692 46.5781 149.451V147.674C46.5781 147.434 46.7762 147.238 47.0228 147.238H55.6742C55.9186 147.238 56.1188 147.432 56.1188 147.674V149.451C56.1188 149.69 55.9207 149.886 55.6742 149.886H53.2521C53.0077 149.886 52.8075 150.08 52.8075 150.322V159.331C52.8075 159.57 52.6094 159.767 52.3628 159.767H50.3341C50.089 159.766 49.8895 159.57 49.8895 159.33Z" fill="#FAB957"/>
<path d="M66.5486 159.764H64.371C64.1996 159.764 64.0416 159.667 63.9685 159.514L62.1738 155.767C61.9335 155.306 61.5507 155.074 61.0288 155.074H60.594C60.3495 155.074 60.1493 155.268 60.1493 155.51V159.329C60.1493 159.569 59.9512 159.765 59.7047 159.765H57.7532C57.5088 159.765 57.3086 159.571 57.3086 159.329V147.673C57.3086 147.434 57.5067 147.238 57.7532 147.238H62.5812C63.9201 147.238 64.9274 147.567 65.601 148.224C66.2761 148.882 66.6125 149.833 66.6125 151.077C66.6125 152.025 66.3821 152.826 65.922 153.483C65.6277 153.904 65.2554 154.237 64.8065 154.48C64.5396 154.624 64.4968 154.992 64.7321 155.184C65.0292 155.425 65.2849 155.768 65.4985 156.21L66.9476 159.138C67.0916 159.428 66.8781 159.764 66.5486 159.764ZM63.5007 152.283C63.7775 152.059 63.9172 151.691 63.9172 151.183C63.9172 150.662 63.7782 150.285 63.5007 150.054C63.2232 149.823 62.7652 149.708 62.1281 149.708H60.5637C60.3193 149.708 60.1191 149.902 60.1191 150.144V152.187C60.1191 152.427 60.3172 152.623 60.5637 152.623H62.1281C62.7645 152.621 63.2232 152.51 63.5007 152.283Z" fill="#FAB957"/>
<path d="M68.4062 159.329V147.673C68.4062 147.434 68.6043 147.238 68.8509 147.238H70.8501C71.0945 147.238 71.2947 147.432 71.2947 147.673V159.329C71.2947 159.568 71.0966 159.764 70.8501 159.764H68.8509C68.605 159.764 68.4062 159.569 68.4062 159.329Z" fill="#FAB957"/>
<path d="M43.5028 147.146H41.8106C41.6294 147.146 41.4657 147.253 41.3983 147.419L41.2817 147.702C41.217 147.857 41.2493 148.038 41.3674 148.16C42.0747 148.884 42.5742 149.805 42.7744 150.829C42.7786 150.849 42.7842 150.871 42.7926 150.892L43.9854 154.041C44.0936 154.325 43.8786 154.627 43.5688 154.627H42.3016C42.1555 154.627 42.0157 154.695 41.9328 154.813C40.955 156.22 39.3078 157.146 37.4428 157.146H37.3866L36.5914 159.073C36.4734 159.36 36.6883 159.671 37.0037 159.671H38.9397C39.1251 159.671 39.2916 159.558 39.3562 159.388L40.1282 157.36C40.1929 157.189 40.3586 157.077 40.5448 157.077H44.8241C45.0096 157.077 45.176 157.19 45.2407 157.36L46.0127 159.388C46.0773 159.559 46.2431 159.671 46.4292 159.671H48.3167C48.6321 159.671 48.847 159.358 48.729 159.073L43.9102 147.417C43.8456 147.253 43.684 147.146 43.5028 147.146Z" fill="#FAB957"/>
<path d="M34.4331 156.525C34.4162 156.356 34.3993 156.197 34.3797 156.004C34.5749 155.992 34.7161 155.974 34.8566 155.974C35.715 155.971 36.5727 155.955 37.4311 155.977C39.275 156.025 40.8071 154.873 41.4077 153.341C42.2717 151.14 41.1035 148.823 39.0657 148.04C38.4988 147.822 37.9249 147.714 37.3229 147.714C35.3153 147.716 33.3084 147.714 31.3008 147.714C31.187 147.714 31.0746 147.709 30.9601 147.718C30.6475 147.743 30.6068 147.787 30.5914 148.097C30.5871 148.192 30.5914 148.287 30.5914 148.383C30.5914 151.967 30.5914 155.549 30.5914 159.134C30.5914 159.319 30.5914 159.506 30.5914 159.716C30.3792 159.716 30.2282 159.716 30.0877 159.716C29.9865 159.328 29.9655 147.803 30.0638 147.25C30.2198 147.231 30.3919 147.193 30.5618 147.193C32.8926 147.188 35.2233 147.211 37.5547 147.184C39.6804 147.161 41.5341 148.619 42.0701 150.519C42.599 152.394 42.1516 154.084 40.6673 155.439C39.9557 156.091 39.0622 156.441 38.1167 156.504C36.9148 156.587 35.6975 156.525 34.4331 156.525Z" fill="#FAB957"/>
<path d="M31.1953 159.715C31.1953 155.9 31.1953 152.117 31.1953 148.301C31.3611 148.287 31.5009 148.266 31.6414 148.266C33.649 148.264 35.6545 148.262 37.6621 148.266C39.0691 148.269 40.4431 149.323 40.9186 150.564C41.1813 151.25 41.2087 151.952 41.0591 152.618C40.7788 153.863 40.0406 154.804 38.7537 155.228C38.4537 155.327 38.1306 155.398 37.8152 155.405C36.7952 155.427 35.7753 155.416 34.7567 155.413C34.5994 155.413 34.416 155.441 34.3795 155.215C34.35 155.029 34.4624 154.88 34.6696 154.861C34.8452 154.844 35.0258 154.854 35.2028 154.854C36.0113 154.853 36.8219 154.836 37.6305 154.857C38.8808 154.888 39.9752 154.03 40.33 153.004C40.9531 151.199 40.2625 149.902 38.8036 149.091C38.5247 148.935 38.165 148.855 37.8412 148.851C35.8996 148.828 33.9573 148.837 32.0144 148.836C31.9511 148.836 31.8879 148.851 31.7671 148.868C31.7545 149.063 31.7306 149.262 31.7306 149.459C31.7278 152.646 31.7292 155.832 31.7292 159.019C31.7292 159.13 31.7334 159.24 31.7278 159.353C31.7116 159.721 31.6751 159.747 31.1953 159.715Z" fill="#FAB957"/>
<path d="M32.8186 159.716C32.6149 159.716 32.4653 159.716 32.2812 159.716C32.2812 156.28 32.2812 152.88 32.2812 149.434C32.4611 149.416 32.6318 149.383 32.8032 149.383C34.3731 149.379 35.9445 149.419 37.5131 149.369C38.8267 149.328 39.9169 150.399 40.0567 151.574C40.1789 152.602 39.6275 153.876 38.3504 154.203C38.0111 154.29 37.6571 154.349 37.3066 154.359C36.5304 154.382 35.7521 154.365 34.9759 154.365C34.8157 154.365 34.6548 154.365 34.5115 154.365C34.2924 153.886 34.3443 153.794 34.8115 153.791C35.6853 153.787 36.5599 153.768 37.4337 153.795C38.3975 153.825 39.1611 153.23 39.3964 152.455C39.6282 151.689 39.4174 150.909 38.6778 150.309C38.3399 150.035 37.9437 149.915 37.5145 149.912C36.1061 149.905 34.6984 149.908 33.29 149.912C33.1495 149.912 33.0097 149.945 32.82 149.969C32.8186 153.231 32.8186 156.46 32.8186 159.716Z" fill="#FAB957"/>
<path d="M34.4131 153.161C34.392 152.721 34.4201 152.672 34.7889 152.669C35.6473 152.661 36.505 152.668 37.3634 152.665C37.525 152.665 37.69 152.666 37.846 152.635C38.082 152.587 38.2569 152.453 38.2864 152.198C38.3047 152.041 38.3216 151.881 38.3131 151.724C38.285 151.228 38.0729 151.032 37.5383 151.025C36.7129 151.017 35.8869 151.023 35.0615 151.023C34.725 151.023 34.3878 151.023 34.005 151.023C33.9909 151.265 33.9685 151.465 33.9685 151.665C33.9657 154.123 33.9671 156.581 33.9671 159.038C33.9671 159.149 33.9727 159.26 33.9657 159.372C33.9432 159.721 33.887 159.756 33.4297 159.699C33.4297 156.638 33.4297 153.573 33.4297 150.48C33.5842 150.468 33.71 150.45 33.835 150.45C35.0488 150.449 36.2627 150.456 37.4772 150.447C38.0652 150.443 38.4845 150.683 38.7739 151.181C39.1287 151.795 38.8695 152.805 38.252 153.138C38.1579 153.189 38.0399 153.215 37.931 153.215C36.7986 153.22 35.6663 153.217 34.5325 153.214C34.503 153.213 34.4735 153.19 34.4131 153.161Z" fill="#FAB957"/>
<path fill-rule="evenodd" clip-rule="evenodd" d="M357.407 158.993L358.707 160.293C359.098 160.684 359.098 161.316 358.707 161.707C358.512 161.902 358.256 162 358 162C357.744 162 357.488 161.902 357.293 161.707L354.586 159L354 158.414L352.655 157.069L352.586 157L350.084 154.498C350.056 154.499 350.028 154.5 350 154.5C349.173 154.5 348.5 153.827 348.5 153C348.5 152.972 348.501 152.944 348.502 152.917L345.283 149.697L343.532 147.946L341.293 145.707C340.902 145.316 340.902 144.684 341.293 144.293C341.684 143.902 342.316 143.902 342.707 144.293L344.42 146.006L345.885 147.471L349.916 151.503C349.944 151.501 349.972 151.5 350 151.5C350.827 151.5 351.5 152.173 351.5 153C351.5 153.028 351.499 153.056 351.498 153.084L355.414 157L357.407 158.993ZM346.593 146.764L349.39 149.561C349.589 149.526 349.791 149.5 350 149.5C351.93 149.5 353.5 151.07 353.5 153C353.5 153.209 353.474 153.411 353.439 153.61L356.121 156.293L356.955 157.127C358.477 155.739 359.453 154.22 359.868 153.497C360.044 153.189 360.044 152.81 359.868 152.502C359.23 151.39 355.706 145.816 349.73 146.003C348.546 146.034 347.474 146.289 346.502 146.674L346.593 146.764ZM351.948 157.777L353.293 159.121L353.498 159.326C352.526 159.711 351.455 159.966 350.271 159.996C350.189 159.999 350.106 160 350.025 160C344.162 160 340.762 154.595 340.132 153.497C339.956 153.189 339.956 152.81 340.132 152.502C340.547 151.78 341.523 150.261 343.045 148.873L344.576 150.405L346.562 152.39C346.526 152.589 346.5 152.791 346.5 153C346.5 154.93 348.07 156.5 350 156.5C350.209 156.5 350.411 156.474 350.61 156.438L351.879 157.707L351.948 157.777Z" fill="#575A65"/>
<path d="M253.088 339H254.48V327.56H253.184L250.528 329.48V330.776L253.088 328.936V339ZM261.895 337.992C259.991 337.992 258.775 336.488 258.775 333.592V332.952C258.775 330.136 259.927 328.536 261.863 328.536C263.799 328.536 264.919 330.264 264.919 332.92V333.56C264.919 336.456 263.895 337.992 261.895 337.992ZM261.895 339.144C264.711 339.144 266.327 336.904 266.327 333.576V332.936C266.327 329.672 264.679 327.416 261.863 327.416C259.063 327.416 257.351 329.592 257.351 332.968V333.608C257.351 336.936 259.159 339.144 261.895 339.144ZM266.737 341.368H267.953L272.609 326.584H271.393L266.737 341.368ZM276.026 339H277.418V327.56H276.122L273.465 329.48V330.776L276.026 328.936V339ZM279.632 339H287.296V337.864H281.776L284.928 334.792C286.336 333.416 287.232 332.04 287.232 330.632C287.232 328.664 285.888 327.416 283.776 327.416C281.6 327.416 280.24 328.84 280.064 331.08H281.36C281.584 329.288 282.448 328.536 283.776 328.536C285.072 328.536 285.824 329.304 285.824 330.584C285.824 331.752 285.216 332.792 284.176 333.896L279.632 338.68V339Z" fill="#D3DCE6"/>
<path d="M333.988 335.58C335.194 335.58 336.076 334.644 336.076 333.492C336.076 332.34 335.194 331.404 333.988 331.404C332.8 331.404 331.9 332.34 331.9 333.492C331.9 334.644 332.8 335.58 333.988 335.58ZM340.505 335.58C341.711 335.58 342.593 334.644 342.593 333.492C342.593 332.34 341.711 331.404 340.505 331.404C339.317 331.404 338.417 332.34 338.417 333.492C338.417 334.644 339.317 335.58 340.505 335.58ZM347.021 335.58C348.227 335.58 349.109 334.644 349.109 333.492C349.109 332.34 348.227 331.404 347.021 331.404C345.833 331.404 344.933 332.34 344.933 333.492C344.933 334.644 345.833 335.58 347.021 335.58Z" fill="#D3DCE6"/>
<path d="M223.911 332H224.639L226.368 326.995H225.794L224.303 331.412L222.812 326.995H222.21L223.911 332ZM226.374 332H226.948L227.431 330.558H229.496L229.986 332H230.588L228.894 326.995H228.096L226.374 332ZM228.467 327.499L229.335 330.075H227.599L228.467 327.499ZM231.469 332H234.367V331.503H232.078V326.995H231.469V332ZM235.25 332H235.859V326.995H235.25V332ZM237.765 331.503V327.485H238.444C239.823 327.485 240.383 328.297 240.383 329.452V329.508C240.383 330.733 239.739 331.503 238.451 331.503H237.765ZM237.156 332H238.465C240.215 332 241.013 330.901 241.013 329.515V329.452C241.013 328.059 240.201 326.995 238.479 326.995H237.156V332ZM223.659 340H224.268V335.492H225.724V334.995H222.203V335.492H223.659V340ZM226.554 340H227.163V337.774H229.795V340H230.404V334.995H229.795V337.263H227.163V334.995H226.554V340ZM231.667 340H232.276V337.823H233.046L234.537 340H235.216L233.683 337.781C234.369 337.648 234.922 337.242 234.922 336.416V336.388C234.922 335.387 234.131 334.995 233.172 334.995H231.667V340ZM232.276 337.34V335.485H233.214C233.893 335.485 234.313 335.709 234.313 336.388V336.416C234.313 337.032 233.928 337.34 233.214 337.34H232.276ZM237.785 340.063C239.073 340.063 239.682 339.314 239.682 338.096V334.995H239.073V338.012C239.073 339.237 238.597 339.559 237.799 339.559C236.966 339.559 236.595 339.153 236.595 338.103V334.995H235.986V338.173C235.986 339.391 236.637 340.063 237.785 340.063Z" fill="#9DA8B6"/>
<path d="M311.723 336.063C312.843 336.063 313.641 335.496 313.816 334.341H313.249C313.123 335.153 312.556 335.566 311.737 335.566C310.659 335.566 310.015 334.796 310.015 333.522V333.466C310.015 332.206 310.708 331.401 311.744 331.401C312.598 331.401 313.039 331.793 313.165 332.556H313.767C313.662 331.471 312.78 330.918 311.737 330.918C310.379 330.918 309.385 331.989 309.385 333.473V333.529C309.385 335.069 310.274 336.063 311.723 336.063ZM315.956 336H316.684L318.413 330.995H317.839L316.348 335.412L314.857 330.995H314.255L315.956 336ZM320.536 336H321.264L322.993 330.995H322.419L320.928 335.412L319.437 330.995H318.835L320.536 336Z" fill="#9DA8B6"/>
<defs>
<filter id="filter0_d" x="63" y="0" width="470" height="334" filterUnits="userSpaceOnUse" color-interpolation-filters="sRGB">
<feFlood flood-opacity="0" result="BackgroundImageFix"/>
<feColorMatrix in="SourceAlpha" type="matrix" values="0 0 0 0 0 0 0 0 0 0 0 0 0 0 0 0 0 0 127 0"/>
<feOffset dy="2"/>
<feGaussianBlur stdDeviation="20"/>
<feColorMatrix type="matrix" values="0 0 0 0 0 0 0 0 0 0 0 0 0 0 0 0 0 0 0.06 0"/>
<feBlend mode="normal" in2="BackgroundImageFix" result="effect1_dropShadow"/>
<feBlend mode="normal" in="SourceGraphic" in2="effect1_dropShadow" result="shape"/>
</filter>
</defs>
</svg>
