<svg width="99" height="20" viewBox="0 0 99 20" fill="none" xmlns="http://www.w3.org/2000/svg">
<path d="M98.5325 5.61407C96.6702 5.05817 95.4142 5.73994 94.3123 7.38316C92.3329 10.341 90.1189 13.1205 88.0926 16.0468C87.2653 17.239 86.8299 17.1306 86.083 15.9734C84.0902 12.8862 81.9634 9.88995 79.9571 6.81328C79.7104 6.36586 79.3472 6.00061 78.9097 5.75989C78.4723 5.51917 77.9783 5.41285 77.4853 5.45325C73.9149 5.53016 70.3446 5.4952 66.7675 5.47772C63.0397 5.46024 63.5086 5.92174 63.5555 2.18078C63.5722 0.803274 63.1335 0.320795 61.8339 0.327788C54.9142 0.36275 47.9945 0.289329 41.0681 0.373238C38.6365 0.404704 36.148 0.418689 33.9408 1.83816C31.345 3.50585 31.0805 6.03362 33.3245 8.14883C34.4968 9.25714 35.8968 9.97386 37.3035 10.6836C39.4102 11.7325 41.5136 12.8023 43.5835 13.9351C44.2064 14.2847 44.8629 14.7951 44.6687 15.7147C44.5833 16.0888 44.3822 16.4231 44.0964 16.6658C43.8106 16.9086 43.4561 17.0461 43.0878 17.0572C37.6652 17.6306 32.246 17.1516 26.7866 17.3404C26.8603 16.4489 27.3761 16.351 27.701 16.0853C31.9211 12.638 31.7838 6.8832 27.423 3.65269C25.2225 2.03045 22.7071 1.28575 20.1014 0.897672C14.0525 -0.000857234 7.96008 0.443163 1.88441 0.348765C0.678651 0.320795 0.4375 1.02004 0.4375 2.13883C0.477692 7.20835 0.454247 12.2779 0.457596 17.3439C0.457596 19.571 0.474342 19.5955 2.59781 19.5955C13.4786 19.5955 24.3617 19.5955 35.247 19.5955C39.0954 19.5955 42.9504 19.7458 46.7921 19.4556C48.4701 19.385 50.1033 18.8701 51.5381 17.9592C53.8826 16.3964 54.0836 13.9596 52.0807 11.9737C51.2194 11.142 50.2384 10.4566 49.1735 9.9424C47.0634 8.89353 44.9299 7.89011 42.8634 6.75384C41.8954 6.22242 40.3648 5.87629 40.6729 4.30649C40.981 2.73668 42.515 2.88702 43.6873 2.65277C43.7981 2.63535 43.9102 2.62833 44.0222 2.6318C47.3716 2.6318 50.7209 2.65627 54.0702 2.61432C55.075 2.61432 55.4702 2.93946 55.4568 4.0128C55.4099 7.33421 55.4903 10.6556 55.42 13.9735C55.3329 18.0956 56.5822 19.5675 60.6148 19.5675C69.4871 19.6059 78.3662 19.5675 87.2352 19.592C87.7033 19.6211 88.1705 19.5214 88.5901 19.303C89.0098 19.0846 89.3672 18.7551 89.6266 18.3473C92.3463 14.5015 95.1429 10.7325 97.8894 6.91467C98.164 6.54756 98.6832 6.2399 98.5325 5.61407ZM18.698 15.9874C15.6166 17.5537 12.3343 17.4103 9.04526 17.3474C8.14764 17.3299 8.21463 16.5957 8.21463 15.9489V10.0053C8.21463 7.97053 8.21463 5.93573 8.21463 3.90093C8.21463 3.20168 8.26152 2.57935 9.12899 2.56887C12.4147 2.5339 15.7071 2.40454 18.7784 3.98483C21.1531 5.20851 22.7306 7.04752 22.744 9.92841C22.754 12.8757 21.1397 14.7462 18.698 15.9874ZM77.8236 17.4802C75.7604 17.4802 73.6939 17.4802 71.6307 17.4802C69.7919 17.4802 67.9464 17.5047 66.111 17.4802C63.9273 17.4418 63.5588 17.0572 63.5354 14.8476C63.5354 12.9841 63.5923 11.1171 63.5119 9.25364C63.4584 7.92508 64.021 7.72229 65.1866 7.5335C69.9292 6.75734 73.4829 8.21177 75.7236 12.8443C76.3666 14.1728 77.4217 15.2916 78.3126 16.4803C78.8485 17.211 78.6643 17.4837 77.8236 17.4802Z" fill="#0050AF"/>
</svg>
