<svg width="83" height="16" viewBox="0 0 83 16" fill="none" xmlns="http://www.w3.org/2000/svg">
<path d="M45.806 5.24714C44.9215 3.22098 43.2539 2.06274 41.2278 1.36118C39.0869 0.61622 36.8582 0.480868 34.6151 0.533562C32.683 0.577991 30.7736 0.800135 28.9634 1.52959C26.4051 2.56282 24.7085 4.3193 24.3211 7.14414C24.2715 7.50577 24.0741 7.51507 23.7931 7.51507C20.9689 7.50887 18.1472 7.50887 15.3279 7.51507C14.2823 7.51507 14.2947 7.51507 14.2947 8.57206C14.2947 9.05354 14.4879 9.20026 14.9456 9.192C15.9437 9.16926 16.9418 9.20026 17.9419 9.1827C18.3904 9.17443 18.5619 9.35835 18.5505 9.79437C18.536 10.7046 18.5443 11.6159 18.5505 12.5272C18.5597 12.8411 18.4442 13.1457 18.2292 13.3745C17.8655 13.7547 17.383 13.8911 16.886 13.9583C14.9525 14.2082 12.9878 14.0351 11.1278 13.451C9.55421 12.9653 8.16452 12.1925 7.27905 10.7522C5.89143 8.5111 6.58679 5.65113 8.86918 4.09406C10.4841 2.99264 12.3233 2.59795 14.2275 2.46156C16.4076 2.30451 18.5929 2.42437 20.7761 2.39854C21.7328 2.38717 21.7328 2.39854 21.7194 1.46037C21.7101 0.851796 21.6523 0.793935 21.0272 0.792902H16.637C14.4527 0.801168 12.2664 0.743307 10.0894 0.999547C7.89278 1.26095 5.74987 1.69594 3.77125 2.75603C2.06849 3.66217 0.743895 4.92064 0.279977 6.86724C-0.360623 9.55362 0.783158 11.9889 3.37036 13.5067C5.79224 14.9264 8.48069 15.3738 11.2229 15.5846C14.0053 15.7995 16.794 15.7055 19.5806 15.6796C20.9548 15.6672 22.3301 15.5381 23.573 14.8344C24.4182 14.355 24.9276 13.6876 24.8646 12.6647C24.8532 12.4673 24.7953 12.209 25.0609 12.1388C25.2933 12.0788 25.4287 12.2855 25.5506 12.4487C26.4072 13.5997 27.5427 14.3716 28.8569 14.9088C30.9327 15.7561 33.118 15.9524 35.3249 15.9555C37.4627 15.9555 39.5746 15.7488 41.6018 14.9863C46.4817 13.1492 47.2081 8.4615 45.806 5.24714ZM38.4463 12.7897C36.477 15.1 33.5261 14.8561 31.8492 12.2431C31.0939 11.0683 30.7126 9.71274 30.7126 7.81057C30.7404 6.27753 31.2913 4.80001 32.2738 3.62291C33.927 1.65978 36.4212 1.59365 38.1983 3.45759C40.4012 5.76892 40.5272 10.3533 38.4463 12.7928V12.7897Z" fill="#EC2026"/>
<path d="M82.6827 4.90182C82.6062 4.7551 82.4574 4.76957 82.319 4.7706C81.9057 4.7706 81.4924 4.78196 81.0791 4.7706C80.5687 4.75407 80.2122 4.97724 79.9064 5.3802C77.8338 8.11412 75.7525 10.8415 73.6626 13.5623C73.2617 14.0872 73.2256 14.0862 72.836 13.5344C70.9349 10.848 69.0255 8.16165 67.1461 5.46286C66.7917 4.95348 66.3866 4.75717 65.7739 4.7613C62.0719 4.78093 58.3698 4.77163 54.6688 4.7706C54.0386 4.7706 54.0045 4.73547 54.0034 4.09177C54.0034 3.31685 54.0034 2.54193 54.0034 1.76804C54.0034 1.04479 53.7658 0.795778 53.0549 0.793712C51.4534 0.787513 49.8523 0.787513 48.2515 0.793712C47.5964 0.793712 47.3557 1.03859 47.3557 1.69882C47.3557 5.36608 47.3557 9.033 47.3557 12.6996C47.3509 13.1049 47.4363 13.5063 47.6057 13.8746C47.7751 14.2429 48.0243 14.5689 48.3352 14.8291C49.1617 15.5523 50.1743 15.7073 51.2282 15.7083C54.9299 15.7083 58.6316 15.7083 62.3333 15.7083C66.0013 15.7083 69.6692 15.6784 73.3351 15.73C74.265 15.7435 74.8467 15.4294 75.3943 14.6968C77.7459 11.5279 80.1554 8.40239 82.5401 5.25931C82.6093 5.15083 82.7695 5.07023 82.6827 4.90182ZM66.5127 14.0397C66.4094 14.2153 66.2027 14.1306 66.0343 14.1306C64.2971 14.1347 62.5603 14.1347 60.8238 14.1306H56.0265C55.8891 14.1306 55.7506 14.1306 55.6132 14.1306C54.3578 14.0841 54.0024 13.7173 54.0024 12.4671C54.0024 10.6445 54.0127 8.82188 53.9941 6.99927C53.9941 6.53432 54.1471 6.34937 54.6141 6.35247C56.4883 6.36693 58.3616 6.3628 60.2348 6.35247C60.4145 6.3451 60.5931 6.38329 60.7541 6.4635C60.915 6.54371 61.0531 6.66332 61.1554 6.81122C62.8775 9.07467 64.5995 11.3364 66.3216 13.5964C66.4228 13.7245 66.6202 13.8527 66.5127 14.0397Z" fill="#0F9549"/>
</svg>
