<svg width="87" height="63" viewBox="0 0 87 63" fill="none" xmlns="http://www.w3.org/2000/svg">
<path d="M36.6949 42.5531C36.5807 43.162 36.4285 43.6948 36.4285 44.2467C36.4094 45.141 36.5997 45.9783 37.0945 46.7585C37.2087 46.9298 37.3609 47.063 37.0374 47.2152C32.5085 49.2133 26.5333 48.7185 23.0129 44.456C22.1566 43.4284 21.5667 42.2486 21.2052 40.9546C21.0149 41.0307 21.072 41.1639 21.072 41.2401C21.129 42.9907 21.1671 44.7414 21.2432 46.4921C21.2622 46.8917 21.3574 47.3104 21.4145 47.71C21.4716 48.0905 21.3574 48.3189 20.9197 48.2999C19.4545 48.2428 17.9702 48.2428 16.505 48.2999C16.1053 48.3189 15.9341 48.1096 15.9912 47.7671C16.4859 43.5616 16.3147 39.3562 16.3718 35.1317C16.4098 32.6199 16.4479 30.089 16.2956 27.5771C16.2766 27.3107 16.3147 27.2156 16.6001 27.2156C17.9702 27.2346 19.3213 27.2346 20.6914 27.2156C21.129 27.2156 21.0529 27.463 21.0529 27.7294C21.0339 30.4125 21.0339 33.0956 21.0149 35.7787C21.0149 35.969 21.0149 36.1783 21.0149 36.3876C21.2622 36.3496 21.2242 36.1593 21.2622 36.0261C23.1652 29.7274 30.7007 27.4059 35.8195 31.5542C36.2762 31.9158 36.6949 32.3154 37.1706 32.6579C37.4751 32.8863 37.437 33.0385 37.2087 33.3049C34.4875 36.5208 31.7663 39.7558 29.0642 42.9717C28.6646 43.4474 28.6646 43.4665 29.2735 43.6568C31.6712 44.3989 33.9547 44.0373 36.124 42.8575C36.2762 42.7814 36.4665 42.6863 36.6949 42.5531ZM25.5628 40.4789C27.4277 38.2525 29.2355 36.1212 31.0813 33.9138C29.0261 33.6094 27.4087 34.1612 26.2098 35.7216C25.1061 37.1298 24.9158 38.7092 25.5628 40.4789Z" fill="#3A3637"/>
<path d="M28.3953 16.1624C28.852 14.9636 28.852 14.9826 27.558 14.8494C26.1879 14.6972 24.7988 14.7353 23.3716 14.7543C23.5429 14.3166 23.6951 13.936 23.8283 13.5364C23.8663 13.3842 24.0376 13.1939 23.8663 13.0797C23.7712 13.0226 23.5809 13.0797 23.4477 13.1178C22.0966 13.6125 20.7646 14.1454 19.5277 14.8494C19.071 15.1158 18.6143 15.3822 18.0815 15.7057C18.405 15.8009 18.6143 15.7057 18.8236 15.6487C20.1176 15.2681 21.4306 15.0207 22.7627 14.8494C22.8959 14.8304 23.0862 14.7543 23.1623 14.9065C23.2384 15.0207 23.1052 15.1539 23.0481 15.249C22.306 16.505 21.8873 17.856 21.5638 19.2642C21.2974 20.425 20.9549 20.6723 19.7751 20.6723C18.8236 20.6723 17.8722 20.6723 16.9207 20.6533C16.2166 20.6343 15.836 20.4059 15.7028 19.7399C15.3413 17.7609 14.4279 16.0102 13.5525 14.2405C12.1634 11.4432 13.4955 8.05602 16.4069 6.83816C19.2613 5.63932 22.6675 7.02845 23.6761 9.86379C23.9805 10.7011 24.2089 11.5574 23.9805 12.4708C23.9234 12.6611 23.8663 13.0417 24.304 12.8894C25.3506 12.5469 26.4543 12.4137 27.5199 12.1663C27.9196 12.1283 28.3001 12.0902 28.6998 12.0521C28.833 12.0521 28.9662 12.0331 29.0994 12.0331C29.2516 12.0141 29.4038 12.0141 29.537 11.9951C30.0889 11.9951 30.6598 11.9951 31.2116 11.976C31.5732 11.957 31.6302 12.0712 31.459 12.3947C31.0594 13.1368 30.6788 13.8789 30.2982 14.6211C30.0318 15.1539 30.1079 15.2681 30.6788 15.4203C33.7615 16.2576 36.5588 17.6467 39.0326 19.6828C39.1087 19.759 39.2229 19.797 39.2419 19.9492C38.9945 20.0254 38.8233 19.8541 38.633 19.759C35.417 18.4079 32.0869 17.8941 28.6236 18.2937C28.4333 18.3127 28.2621 18.3698 28.0908 18.4079C27.9386 18.4079 27.8054 18.4079 27.6531 18.4079C27.539 18.1986 27.7673 18.0463 27.7293 17.837C27.9386 17.3042 28.1669 16.7333 28.3953 16.1624Z" fill="#FEB306"/>
<path d="M9.42309 53.2463C5.42697 50.4871 2.55357 47.0048 0.631623 42.7042C0.327156 42.0381 0.327156 42.0381 1.08832 42.0952C1.86852 42.1523 2.64871 42.1713 3.42891 42.2475C3.86658 42.2855 4.01881 42.1904 3.92367 41.6956C3.33376 38.4607 3.48599 35.2257 4.30425 32.0478C4.34231 31.8766 4.39939 31.7243 4.43745 31.5721C4.45648 31.496 4.49454 31.4389 4.55163 31.3628C4.49454 35.6253 5.52211 39.5644 7.90076 43.1799C6.85415 43.3321 5.86464 43.4082 4.85609 43.4273C4.38036 43.4273 4.30425 43.5795 4.43745 44.0172C5.35085 47.157 6.85415 49.9923 8.96639 52.4851C9.13765 52.6754 9.34697 52.8467 9.42309 53.2463Z" fill="#D02335"/>
<path d="M36.022 57.5886C32.8251 60.3859 26.0127 62.8216 22.321 62.5552C22.7207 61.6037 23.1012 60.6523 23.5199 59.7389C23.7102 59.3202 23.615 59.2061 23.1774 59.1299C19.7711 58.5591 16.6884 57.2461 13.9102 55.1719C17.8111 56.4849 21.7692 56.8655 25.8605 55.8569C25.6892 56.8845 25.3847 57.8169 25.0993 58.7494C24.909 59.3583 24.909 59.3773 25.556 59.4154C28.9051 59.6057 32.1401 59.1109 35.2609 57.893C35.4702 57.7979 35.6795 57.7218 36.022 57.5886Z" fill="#D02335"/>
<path d="M14.941 52.3885C14.1227 53.0735 13.3806 53.6635 12.6384 54.2724C12.1056 54.7101 12.0866 54.7101 12.6194 55.1287C15.2454 57.2029 18.1759 58.6681 21.4299 59.4673C21.6202 59.5244 21.8295 59.5625 22.0008 59.6767C16.9961 59.867 12.3911 58.573 8.07145 55.8708C8.83262 55.3951 9.53669 54.9765 10.2408 54.5388C11.1922 53.9489 11.1732 53.9489 10.4311 53.1687C8.37592 51.0374 6.81553 48.5827 5.73086 45.8234C5.61669 45.538 5.38834 45.2716 5.40737 44.7578C7.91922 48.1831 10.9448 50.8091 14.941 52.3885Z" fill="#FEB306"/>
<path d="M38.9381 54.3697C39.49 53.6085 40.0989 52.8664 40.6127 52.0672C42.3253 49.4221 43.2387 46.8151 43.6954 43.3518C44.4185 43.8656 45.1226 44.3413 45.8077 44.8171C46.683 45.445 46.683 45.445 47.0826 44.4555C48.3576 41.2967 48.9094 38.0236 48.7572 34.6174C50.3366 39.3557 50.2605 44.113 48.8333 48.9844C48.1292 48.3374 47.4822 47.7475 46.8352 47.1576C46.1312 46.5297 46.1312 46.5297 45.6745 47.3099C44.076 50.031 41.9828 52.3145 39.4139 54.1413C39.2616 54.2365 39.1475 54.4077 38.9381 54.3697C38.9191 54.3507 38.9381 54.3697 38.9381 54.3697Z" fill="#D02335"/>
<path d="M36.7674 52.4101C37.2051 53.3806 37.5476 54.332 37.8331 55.2835C37.9663 55.7592 38.1375 55.7592 38.5181 55.5118C41.3725 53.7421 43.7321 51.4967 45.5969 48.6994C45.6731 48.5662 45.7682 48.452 45.8443 48.3378C45.8634 48.3188 45.9014 48.2998 45.9395 48.2808C45.7872 51.059 40.8206 58.1188 37.776 59.8885C37.5476 58.88 37.3193 57.8905 37.129 56.901C37.0529 56.4823 36.9197 56.4062 36.501 56.5965C33.1709 58.1379 29.993 58.8229 26.4727 58.7278C30.4878 57.6431 33.9511 55.607 36.7674 52.4101Z" fill="#FEB306"/>
<path d="M46.5846 43.8258C46.7559 41.1807 46.5656 38.5927 45.8235 36.0619C45.4619 34.844 45.0052 33.6642 44.3772 32.5605C44.0728 32.0467 44.3011 32.0277 44.7198 32.0277C45.557 32.0277 46.3943 32.0087 47.2316 32.0277C47.6503 32.0467 47.7454 31.9325 47.6503 31.5139C46.9462 28.2028 45.6141 25.1772 43.559 22.456C43.5209 22.3989 43.4829 22.3418 43.4258 22.2657C43.578 22.0945 43.6541 22.2467 43.7493 22.3228C47.3458 25.2152 49.8576 28.8688 51.418 33.1885C51.5512 33.569 51.4561 33.6452 51.0755 33.5881C50.2002 33.4549 49.3438 33.3788 48.4685 33.2455C47.9737 33.1694 47.9167 33.3407 47.9547 33.7784C48.2782 36.9943 47.8786 40.1341 46.813 43.1978C46.7369 43.4452 46.6607 43.6355 46.5846 43.8258Z" fill="#FEB306"/>
<path d="M46.7233 30.8529C44.5921 27.2184 41.7948 24.4591 37.9699 22.6323C38.8453 22.0234 39.6064 21.4145 40.4437 20.9007C40.9385 20.5962 40.8433 20.4249 40.4818 20.0824C38.0651 17.837 35.2868 16.2195 32.166 15.1919C31.9377 15.1158 31.6903 15.0968 31.5 14.9065C36.4856 15.0968 40.9385 16.6952 45.0297 19.6828C44.3827 20.0253 43.7738 20.3298 43.1649 20.6533C42.7272 20.9007 42.0421 21.0719 41.928 21.4335C41.8138 21.8141 42.4608 22.1947 42.7462 22.5943C44.535 24.8778 45.829 27.4277 46.6091 30.225C46.6472 30.3772 46.6853 30.5104 46.7233 30.6626C46.7423 30.6436 46.7233 30.6817 46.7233 30.8529Z" fill="#D02335"/>
<path d="M19.4336 2.46312C21.8693 1.98739 24.1528 2.387 26.4173 3.49069C25.9796 3.83322 25.6181 4.15671 25.1994 4.44215C24.8188 4.70856 24.7237 4.87982 25.1423 5.2604C26.1319 6.13574 26.874 7.20138 27.4068 8.41924C27.4639 8.53342 27.559 8.64759 27.4639 8.78079C27.2736 8.81885 27.2165 8.64759 27.1214 8.55244C26.0177 7.42973 24.7237 6.61147 23.2014 6.19283C22.8779 6.09768 22.7637 6.02157 23.0491 5.75516C23.3536 5.45069 23.62 5.1272 23.9435 4.84176C24.2289 4.59438 24.1719 4.46118 23.8864 4.25186C22.5353 3.31943 21.0511 2.72953 19.4336 2.46312Z" fill="#D02335"/>
<path d="M12.9844 4.11475C12.9844 3.94349 13.1176 3.86738 13.2318 3.7532C14.7921 2.21184 16.657 1.24135 18.8073 0.765625C18.8834 0.765625 18.9595 0.765625 19.0927 0.765625C18.9595 1.31747 18.8454 1.85029 18.6741 2.3831C18.5599 2.74466 18.6551 2.85883 19.0547 2.87786C20.5199 3.01106 21.89 3.46776 23.165 4.22893C23.2411 4.26699 23.3172 4.3431 23.5075 4.49534C22.0613 4.17184 20.7483 4.11475 19.4543 4.41922C19.0166 4.51437 18.598 4.64757 18.1793 4.7998C17.8749 4.91398 17.7607 4.87592 17.7987 4.5334C17.8558 4.17184 17.8368 3.79126 17.932 3.42971C18.0842 2.8398 17.8178 2.80174 17.3421 2.8398C15.972 2.93495 14.678 3.2965 13.4411 3.90543C13.2698 3.96252 13.1176 4.03864 12.9844 4.11475Z" fill="#D02335"/>
<path d="M8.48874 15.6238C8.2033 15.5287 8.18427 15.3194 8.10816 15.1671C7.23282 13.4545 6.87126 11.6277 6.94738 9.70577C6.96641 9.03975 6.98544 9.03975 7.51825 9.38228C7.80369 9.55354 8.10816 9.70577 8.37456 9.89606C8.71709 10.1244 8.90738 10.1244 9.07864 9.66772C9.5734 8.37373 10.3536 7.27004 11.3431 6.29956C11.4383 6.20441 11.5334 6.12829 11.7618 5.95703C11.5715 6.37567 11.4383 6.66111 11.3051 6.94655C10.7532 8.25956 10.5058 9.62966 10.6581 11.0378C10.6961 11.4374 10.601 11.5135 10.2585 11.3423C9.8969 11.171 9.51631 11.0568 9.17379 10.8856C8.81224 10.6953 8.66 10.7524 8.58389 11.171C8.29845 12.484 8.24136 13.797 8.45068 15.1101C8.46971 15.2813 8.46971 15.4145 8.48874 15.6238Z" fill="#D02335"/>
<path d="M8.69922 9.42438C8.96563 6.95059 9.89805 4.91447 11.4014 3.14476C11.6107 2.87835 11.6868 2.95447 11.7819 3.23991C11.9342 3.63952 12.1245 4.0201 12.2577 4.43874C12.3909 4.81933 12.5241 4.87641 12.8856 4.64806C14.2177 3.82981 15.6829 3.37311 17.2623 3.27796C15.5117 4.11525 14.1035 5.31408 13.133 7.02671C12.7524 6.62709 12.505 6.17039 12.2957 5.7137C12.0674 5.23797 11.8771 5.29505 11.5346 5.59952C10.488 6.51292 9.6697 7.55952 9.02271 8.79642C8.9466 8.94865 8.87048 9.13894 8.69922 9.42438Z" fill="#D02335"/>
<path d="M12.0701 21.201C9.90074 20.2305 8.3023 18.7843 7.02734 16.7862C7.63628 16.7101 8.16909 16.634 8.72094 16.5959C9.08249 16.5578 9.17764 16.4627 9.08249 16.0631C8.70191 14.7881 8.62579 13.4942 8.81608 12.1811C8.85414 11.9528 8.85414 11.7435 9.00638 11.4961C9.15861 12.4476 9.40599 13.3229 9.8056 14.1602C10.2052 14.9975 10.738 15.7586 11.4231 16.4627C10.9093 16.6911 10.4145 16.8243 9.9388 16.9004C9.40599 16.9765 9.40599 17.1858 9.61531 17.6044C10.1481 18.7272 10.8332 19.7357 11.7085 20.6301C11.8227 20.7633 12.032 20.8394 12.0701 21.201Z" fill="#D02335"/>
<path d="M27.653 18.4297C27.8052 18.4297 27.9384 18.4297 28.0906 18.4297C27.5768 20.4848 26.4731 22.1975 24.9889 23.6817C24.7986 23.872 24.6844 23.9291 24.6083 23.5866C24.4941 23.1489 24.3228 22.7493 24.2087 22.3116C24.1135 21.9501 23.9994 21.874 23.6378 22.0643C22.7625 22.54 21.83 22.8254 20.8405 22.9967C20.8025 22.7493 20.6883 22.559 20.4219 22.4829C20.517 22.3687 20.7454 22.3687 20.7073 22.1404L20.6883 22.1594C20.9166 22.2736 21.0308 22.0833 21.183 21.9881C22.0203 21.4553 22.7625 20.7893 23.3143 19.971C23.5807 19.5714 23.6949 19.7046 23.8281 20.0281C23.9994 20.4468 24.2087 20.8274 24.399 21.246C24.4751 21.4173 24.5512 21.5505 24.7605 21.3982C25.9213 20.599 26.9679 19.7046 27.653 18.4297Z" fill="#D02335"/>
<path d="M16.2583 23.6242C15.6494 23.9858 15.0024 23.7384 14.4125 23.6432C13.5752 23.51 12.7379 23.3197 11.9387 22.9962C11.8626 22.9582 11.7865 22.9201 11.7294 22.8821C12.1099 22.4825 12.4525 22.0828 12.8331 21.7023C13.0804 21.4549 13.1565 21.3217 12.814 21.0743C11.6913 20.218 10.816 19.1333 10.207 17.8203C10.9872 18.277 11.6532 18.8479 12.4334 19.2285C13.2327 19.6091 14.0509 19.8564 15.0214 20.0087C14.6218 20.5225 14.2793 20.9792 13.8987 21.4168C13.6894 21.6642 13.7274 21.7784 13.9938 21.9116C14.6979 22.2922 15.421 22.6347 16.2012 22.844C16.2202 23.0914 16.2393 23.3578 16.2583 23.6242Z" fill="#D02335"/>
<path d="M79.6224 62.4959C78.6519 62.591 78.6329 62.591 78.5758 61.7157C78.4807 60.1934 78.4807 60.1934 76.9583 60.1934C76.064 60.1934 76.1591 60.0602 76.1401 60.9926C76.1401 61.4112 76.121 61.8109 76.1401 62.2295C76.1591 62.534 75.9878 62.553 75.7595 62.553C75.5311 62.553 75.3789 62.534 75.3789 62.2295C75.3979 60.612 75.3979 58.9945 75.3789 57.358C75.3789 57.1107 75.4741 57.0345 75.7024 57.0536C76.3494 57.0726 77.0154 57.0536 77.6624 57.0536C78.3475 57.0536 78.9944 57.1868 79.2799 57.9099C79.5653 58.633 79.4321 59.299 78.7851 59.7938C79.6985 60.5169 79.0515 61.6586 79.6224 62.4959ZM77.1106 59.5654C77.377 59.5464 77.6243 59.5464 77.8908 59.5083C78.4236 59.4322 78.671 59.1277 78.671 58.5949C78.671 58.0811 78.4045 57.7957 77.9098 57.7386C77.6243 57.7006 77.3199 57.7006 77.0154 57.7006C76.1401 57.7006 76.1401 57.7006 76.1401 58.5759C76.121 59.5654 76.121 59.5654 77.1106 59.5654Z" fill="#413D3E"/>
<path d="M58.6167 51.3451C58.6167 50.5839 58.6357 49.8227 58.6167 49.0426C58.6167 48.7191 58.7309 48.6239 59.0353 48.6429C60.0819 48.662 61.1285 48.662 62.1751 48.6429C62.4606 48.6429 62.5747 48.7191 62.5747 49.0235C62.5747 49.328 62.4035 49.347 62.1751 49.347C61.3759 49.347 60.5767 49.366 59.7775 49.347C59.454 49.347 59.3779 49.4422 59.3588 49.7657C59.3398 51.0026 59.3208 51.0026 60.5767 51.0026C61.0334 51.0026 61.5091 51.0026 61.9658 51.0026C62.1942 51.0026 62.3083 51.0406 62.3083 51.307C62.3083 51.5734 62.2132 51.6686 61.9468 51.6495C61.2427 51.6305 60.5386 51.6686 59.8155 51.6305C59.454 51.6115 59.3398 51.7447 59.3398 52.1062C59.3398 53.4383 59.3208 53.4383 60.6718 53.4383C61.1856 53.4383 61.7184 53.4573 62.2322 53.4383C62.5177 53.4193 62.5747 53.5525 62.5747 53.7998C62.5747 54.0662 62.4606 54.1424 62.2132 54.1424C61.1285 54.1233 60.0439 54.1233 58.9782 54.1424C58.6738 54.1424 58.5977 54.0472 58.5977 53.7428C58.6167 52.9435 58.6167 52.1443 58.6167 51.3451Z" fill="#413D3E"/>
<path d="M28.6766 12.0526C28.277 12.0907 27.8964 12.1288 27.4968 12.1668C27.2304 11.5198 26.9069 10.9109 26.4692 10.3781C26.1457 9.97847 26.2979 9.92138 26.6976 9.88333C27.0591 9.84527 27.4397 9.73109 27.8012 9.71206C28.2199 9.69303 28.296 9.5408 28.1628 9.16022C27.649 7.73303 26.9069 6.45808 25.8412 5.37342C25.8032 5.33536 25.7842 5.2973 25.7461 5.25924C25.9744 5.18313 26.1267 5.2973 26.2789 5.39245C28.0486 6.45808 29.3997 7.92332 30.3892 9.71206C30.5605 9.9975 30.6176 10.1688 30.1609 10.1497C29.628 10.1307 28.924 9.94041 28.6005 10.2829C28.296 10.5874 28.6956 11.2534 28.6766 11.7672C28.6766 11.8624 28.6766 11.9575 28.6766 12.0526Z" fill="#D02335"/>
<path d="M60.7462 59.793C60.7462 59.0128 60.7652 58.2326 60.7462 57.4334C60.7462 57.148 60.8223 57.0338 61.1268 57.0528C62.1734 57.0718 63.22 57.0718 64.2666 57.0528C64.533 57.0528 64.6852 57.0909 64.6662 57.4144C64.6662 57.7569 64.4569 57.7379 64.2286 57.7379C63.4674 57.7379 62.7062 57.7569 61.926 57.7379C61.5835 57.7379 61.4693 57.833 61.4693 58.1755C61.4503 59.3744 61.4313 59.3744 62.6111 59.3744C63.0678 59.3744 63.5054 59.3744 63.9621 59.3744C64.1715 59.3744 64.4188 59.3173 64.4188 59.6788C64.4379 60.0784 64.1715 60.0214 63.9431 60.0214C63.2581 60.0214 62.554 60.0214 61.8689 60.0214C61.5835 60.0214 61.4884 60.1165 61.4693 60.4019C61.3932 61.8672 61.3742 61.8672 62.8394 61.8672C63.3532 61.8672 63.886 61.8862 64.3998 61.8672C64.7043 61.8482 64.7233 62.0004 64.7233 62.2478C64.7233 62.4951 64.6282 62.5713 64.3998 62.5713C63.2961 62.5713 62.1924 62.5522 61.0887 62.5713C60.7652 62.5713 60.7272 62.419 60.7462 62.1717C60.7462 61.3724 60.7462 60.5732 60.7462 59.793Z" fill="#3A3637"/>
<path d="M51.8008 59.7573C51.8008 59.0152 51.8198 58.2731 51.8008 57.5309C51.8008 57.2074 51.8579 57.0742 52.2194 57.0742C53.266 57.0932 54.3126 57.0932 55.3402 57.0742C55.5876 57.0742 55.7208 57.1123 55.7208 57.3977C55.7208 57.7022 55.5876 57.7593 55.3212 57.7593C54.541 57.7402 53.7608 57.7783 52.9806 57.7402C52.6381 57.7212 52.5429 57.8544 52.5429 58.1779C52.5239 59.3767 52.5049 59.3767 53.6847 59.3767C54.0843 59.3767 54.4649 59.3577 54.8645 59.3767C55.0928 59.3958 55.4734 59.1674 55.4924 59.6812C55.5115 60.2331 55.0738 59.9857 54.8454 60.0047C54.2175 60.0428 53.5705 60.0237 52.9425 60.0047C52.6571 60.0047 52.5619 60.0999 52.5429 60.3853C52.4668 61.8505 52.4668 61.8505 53.894 61.8505C54.4078 61.8505 54.9406 61.8696 55.4544 61.8505C55.7018 61.8505 55.7779 61.9267 55.7779 62.174C55.7779 62.4024 55.7588 62.5546 55.4544 62.5546C54.3507 62.5356 53.266 62.5356 52.1623 62.5546C51.8388 62.5546 51.8008 62.4214 51.8008 62.155C51.8008 61.3558 51.8008 60.5566 51.8008 59.7573Z" fill="#3A3637"/>
<path d="M82.172 59.7937C82.153 57.7005 83.6944 56.4636 85.5592 57.0535C86.1872 57.2438 86.6249 57.6434 86.8342 58.2714C86.8722 58.4046 87.0625 58.6329 86.7961 58.69C86.6058 58.7281 86.3394 58.8422 86.1491 58.5568C85.6163 57.7005 85.1025 57.4531 84.2843 57.6244C83.5421 57.7766 83.0664 58.3855 82.9713 59.2989C82.9142 59.7937 82.9142 60.3075 83.0854 60.7832C83.3519 61.5634 83.9227 62.0011 84.7029 62.0011C85.4831 62.0011 85.9589 61.6395 86.1872 60.7642C86.2823 60.4026 86.5107 60.4597 86.739 60.4787C87.1006 60.4978 86.9484 60.7832 86.9103 60.9354C86.739 61.8298 86.035 62.4768 85.1216 62.629C83.9608 62.8003 83.0474 62.4007 82.5526 61.4873C82.2672 60.9735 82.172 60.3836 82.172 59.7937Z" fill="#413D3E"/>
<path d="M58.1424 54.0673C57.5525 54.2386 57.1909 54.1244 56.8864 53.6297C56.4107 52.8685 55.8779 52.1644 55.3831 51.4603C54.3556 51.898 54.4697 52.7543 54.4888 53.5916C54.4888 53.7819 54.641 54.0673 54.2794 54.1244C53.9559 54.1625 53.7086 54.1625 53.7276 53.6868C53.7466 52.1454 53.7466 50.604 53.7276 49.0436C53.7276 48.7392 53.8227 48.625 54.1462 48.625C54.4697 48.625 54.5078 48.7772 54.5078 49.0436C54.4888 49.7287 54.5078 50.4137 54.5078 51.2701C54.7932 50.9846 54.9835 50.8134 55.1738 50.6231C55.7066 50.0902 56.2585 49.5955 56.7342 49.0246C57.0957 48.606 57.4954 48.5869 58.1233 48.7201C57.5715 49.253 57.0767 49.6906 56.601 50.1664C55.8969 50.8514 55.8969 50.8514 56.4868 51.6887C57.0196 52.4689 57.5525 53.2301 58.1424 54.0673Z" fill="#413D3E"/>
<path d="M65.3672 59.775C65.3672 57.6818 66.8895 56.4449 68.7734 57.0539C69.3823 57.2442 69.82 57.6247 70.0293 58.2337C70.0864 58.3859 70.2577 58.6143 69.9913 58.6904C69.801 58.7475 69.5346 58.8236 69.3633 58.5381C68.8876 57.7199 68.3548 57.4725 67.5365 57.6247C66.7373 57.796 66.3567 58.3479 66.2045 59.109C66.0713 59.7941 66.0903 60.4791 66.4328 61.1261C66.7753 61.7921 67.3462 62.0966 68.0884 62.0205C68.7734 61.9444 69.2111 61.6018 69.4014 60.8407C69.4965 60.4601 69.7249 60.4791 69.9722 60.5172C70.3148 60.5552 70.1625 60.8216 70.1245 60.9929C69.9532 61.8682 69.2491 62.5152 68.3738 62.6484C67.213 62.8387 66.2996 62.4391 65.7858 61.5447C65.5004 61.069 65.3672 60.4981 65.3672 59.775Z" fill="#413D3E"/>
<path d="M69.1596 48.6614C69.5211 48.5662 69.6543 48.7565 69.7685 49.061C70.3204 50.6023 70.9103 52.1247 71.4621 53.666C71.5192 53.7992 71.6905 54.0276 71.4811 54.0847C71.2718 54.1608 70.9674 54.2369 70.7771 53.9515C70.72 53.8754 70.72 53.7802 70.6819 53.6851C70.4916 53.2854 70.5487 52.6385 70.1301 52.5433C69.5402 52.3911 68.8741 52.4862 68.2462 52.4862C68.0559 52.4862 68.0369 52.6765 67.9798 52.8097C67.8466 53.1332 67.7324 53.4757 67.6182 53.7992C67.5421 54.0466 67.4089 54.1037 67.1806 54.1037C66.8761 54.1037 66.7239 54.0656 66.8571 53.7041C67.466 52.1247 68.0559 50.5453 68.6268 48.9658C68.7219 48.7375 68.8551 48.5852 69.1596 48.6614ZM69.1786 49.4796C68.9883 49.9744 68.8551 50.355 68.7219 50.7165C68.3033 51.8963 68.3033 51.8963 69.5782 51.8583C69.6163 51.8583 69.6543 51.8583 69.6924 51.8583C69.9778 51.8773 69.9969 51.7441 69.9208 51.5157C69.6734 50.8878 69.445 50.2408 69.1786 49.4796Z" fill="#413D3E"/>
<path d="M65.4616 50.814C65.4616 50.2051 65.4806 49.5771 65.4616 48.9682C65.4616 48.6637 65.5948 48.6257 65.8422 48.6447C66.0705 48.6447 66.2418 48.6447 66.2418 48.9682C66.2227 50.3193 66.2608 51.6513 66.1847 52.9833C66.1276 53.9538 65.4806 54.3725 64.396 54.2773C63.5396 54.2012 63.0068 53.5542 63.0449 52.6598C63.0639 52.4125 63.1591 52.3363 63.3874 52.3363C63.5967 52.3363 63.806 52.3173 63.787 52.6408C63.787 52.9833 63.8441 53.3259 64.1866 53.4971C64.7575 53.8016 65.4045 53.4781 65.4426 52.8121C65.4616 52.1651 65.4426 51.4991 65.4616 50.814C65.4426 50.814 65.4426 50.814 65.4616 50.814Z" fill="#413D3E"/>
<path d="M72.9972 60.1762C72.9972 60.8232 72.9972 61.4702 72.9972 62.1362C72.9972 62.4026 72.9972 62.5929 72.6357 62.5739C72.3122 62.5739 72.2361 62.4407 72.2361 62.1552C72.2551 60.8613 72.2361 59.5483 72.2551 58.2543C72.2551 57.8547 72.1409 57.7215 71.7603 57.7595C71.4749 57.7976 71.1704 57.7595 70.866 57.7595C70.6376 57.7595 70.5234 57.7024 70.5234 57.436C70.5234 57.1696 70.5996 57.0745 70.866 57.0745C72.0648 57.0935 73.2446 57.0745 74.4434 57.0745C74.6908 57.0745 74.7669 57.1696 74.7669 57.398C74.7669 57.6073 74.7289 57.7595 74.4625 57.7405C74.139 57.7215 73.8345 57.7595 73.511 57.7215C73.0733 57.6644 72.9782 57.8547 72.9972 58.2543C73.0163 58.9013 72.9972 59.5292 72.9972 60.1762Z" fill="#413D3E"/>
<path d="M57.4348 59.4709C57.4348 60.0418 57.4729 60.6317 57.4158 61.2025C57.3587 61.7734 57.5871 61.9066 58.1008 61.8495C58.6527 61.8115 59.2236 61.8495 59.7754 61.8305C60.0228 61.8305 60.156 61.8686 60.156 62.154C60.156 62.4585 60.0608 62.5346 59.7754 62.5346C58.881 62.5155 57.9867 62.5155 57.0923 62.5346C56.7878 62.5346 56.6546 62.4775 56.6737 62.135C56.6927 60.5746 56.6927 58.9952 56.6737 57.4348C56.6737 57.1113 56.7878 57.0352 57.0923 57.0352C57.4158 57.0352 57.4539 57.1874 57.4539 57.4538C57.4158 58.1388 57.4348 58.8049 57.4348 59.4709Z" fill="#413D3E"/>
<path d="M28.3916 16.1556C28.1632 16.7265 27.9539 17.2973 27.7256 17.8492C27.5353 17.8302 27.5353 17.9824 27.4592 18.0775C26.8122 19.0861 26.013 19.9614 25.0234 20.6465C25.4801 19.8282 25.8988 19.01 26.1652 18.1156C26.4316 17.2022 26.5648 16.2507 26.5077 15.2422C27.2118 15.4705 27.7636 15.8892 28.3916 16.1556Z" fill="#D02335"/>
<path d="M20.6909 22.1708L20.71 22.1518C19.3399 22.3992 17.9698 22.285 16.5997 22.2279C16.162 22.2089 16.2001 21.8664 16.2001 21.5619C16.2001 21.2574 16.3333 21.0862 16.6758 21.0862C17.7985 21.0862 18.9212 21.0862 20.0249 21.1052C20.8812 21.1052 20.9954 21.3145 20.6909 22.1708Z" fill="#3A3637"/>
<path d="M18.5164 25.1427C17.9074 25.1237 17.2795 25.1808 16.6705 25.1047C16.1758 25.0476 16.1758 24.7431 16.1758 24.4006C16.1758 24.039 16.3851 23.9249 16.7276 23.9439C17.9074 23.9629 19.0682 23.9629 20.248 23.9629C20.6096 23.9629 20.8189 24.039 20.8189 24.4577C20.8189 24.8383 20.7618 25.0856 20.2861 25.1427C19.7152 25.1618 19.1063 25.1237 18.5164 25.1427Z" fill="#413D3E"/>
<path d="M16.2563 23.6149C16.2373 23.3485 16.2182 23.0821 16.1992 22.8157C16.3134 22.5112 16.5608 22.5112 16.8462 22.5112C18.045 22.5112 19.2439 22.5112 20.4427 22.4922C20.7091 22.5683 20.8043 22.7586 20.8614 23.006C20.8994 23.5578 20.633 23.7101 20.1002 23.7101C18.8062 23.672 17.5313 23.7671 16.2563 23.6149Z" fill="#413D3E"/>
<path d="M51.8008 51.3842C51.8008 50.604 51.8008 49.8238 51.8008 49.0436C51.8008 48.7772 51.8388 48.625 52.1623 48.625C52.4668 48.625 52.581 48.7201 52.581 49.0436C52.5619 50.604 52.5619 52.1644 52.581 53.7248C52.581 53.9912 52.5429 54.1435 52.2194 54.1435C51.8959 54.1435 51.8008 54.0483 51.8008 53.7248C51.8198 52.9636 51.8008 52.1644 51.8008 51.3842Z" fill="#413D3E"/>
<path d="M80.4609 59.7339C80.4609 58.9727 80.4609 58.2116 80.4609 57.4504C80.4609 57.184 80.518 57.0508 80.8225 57.0508C81.146 57.0508 81.2411 57.1459 81.2411 57.4694C81.2221 59.0298 81.2221 60.6092 81.2411 62.1696C81.2411 62.5122 81.1079 62.5502 80.8035 62.5692C80.4609 62.5883 80.4609 62.417 80.4609 62.1696C80.48 61.3514 80.4609 60.5521 80.4609 59.7339Z" fill="#413D3E"/>
<path d="M18.557 25.3878C18.8805 25.3878 19.185 25.3878 19.5085 25.3878C19.6417 25.3878 19.7749 25.3498 19.87 25.483C19.9652 25.6352 19.832 25.7684 19.7558 25.8826C19.2611 26.6247 17.7578 26.6057 17.263 25.8636C17.0727 25.5781 17.0727 25.3688 17.4914 25.3878C17.8529 25.3878 18.1955 25.3878 18.557 25.3878Z" fill="#413D3E"/>
<path d="M29.5367 11.9938C29.3845 12.0128 29.2323 12.0128 29.0991 12.0319C29.061 11.6513 29.042 11.2707 29.0039 10.8711C29.2703 11.1946 29.3655 11.6132 29.5367 11.9938Z" fill="#D02335"/>
<path d="M38.9173 54.3555C38.8981 54.3747 38.8981 54.3938 38.8789 54.4322C38.8789 54.413 38.8789 54.413 38.8789 54.3938C38.8981 54.3938 38.9173 54.3747 38.9173 54.3555C38.9365 54.3747 38.9173 54.3555 38.9173 54.3555Z" fill="#D02335"/>
</svg>
