<svg width="69" height="73" viewBox="0 0 69 73" fill="none" xmlns="http://www.w3.org/2000/svg">
<g clip-path="url(#clip0)">
<path d="M51.304 37.754C50.1424 36.0213 48.3896 34.8312 46.0455 34.1844C49.0305 32.428 50.3423 29.4471 49.9821 25.2411C49.8617 23.7159 49.4963 22.3941 48.8851 21.2737C48.2734 20.153 47.4479 19.2521 46.4055 18.5705C45.364 17.8881 44.2312 17.3686 43.0099 17.0105C41.7882 16.6523 40.3855 16.3923 38.8029 16.2307L38.8029 7.49602L34.1759 7.49602L34.1759 15.988C33.3746 15.988 32.1527 16.0111 30.5102 16.0574L30.5102 7.49602L25.8825 7.49602L25.8825 16.2307C25.2213 16.2539 24.2498 16.2657 22.9678 16.2657L16.5977 16.2307L16.5977 21.9153L19.9328 21.9153C21.4553 21.9153 22.3468 22.7011 22.6071 24.2722L22.6071 34.2202C22.8077 34.2202 22.9678 34.2321 23.0881 34.2552L22.6071 34.2552L22.6071 48.1885C22.4471 49.3667 21.8662 49.9563 20.8645 49.9563L17.5295 49.9563L16.5979 56.2995L22.6077 56.2995C22.9883 56.2995 23.5389 56.3053 24.2604 56.3158C24.9814 56.3274 25.5221 56.3332 25.8827 56.3332L25.8827 65.1717L30.5112 65.1717L30.5112 56.4372C31.3523 56.4608 32.5742 56.4721 34.1768 56.4721L34.1768 65.1717L38.804 65.1717L38.804 56.3332C40.447 56.241 41.9042 56.0686 43.1757 55.8135C44.4478 55.5585 45.6651 55.1605 46.8267 54.6171C47.9882 54.0744 48.9597 53.3981 49.7408 52.5893C50.5224 51.7812 51.1679 50.7525 51.6796 49.5045C52.1896 48.2564 52.5155 46.8122 52.6553 45.1712C52.9168 41.9601 52.4659 39.4874 51.304 37.754ZM30.6002 22.2955C30.7405 22.2955 31.1361 22.2897 31.7872 22.278C32.4386 22.2661 32.9792 22.2547 33.4099 22.2431C33.8407 22.2317 34.4216 22.2606 35.1531 22.3299C35.8842 22.3992 36.5001 22.4918 37.0008 22.6072C37.5015 22.7225 38.0528 22.9132 38.6533 23.179C39.2548 23.4445 39.7352 23.7681 40.0954 24.1493C40.4563 24.5305 40.7617 25.016 41.0116 25.6053C41.2623 26.1945 41.3876 26.8703 41.3876 27.6328C41.3876 28.2798 41.2976 28.8692 41.1175 29.401C40.9378 29.9324 40.6666 30.3773 40.3065 30.7354C39.9462 31.0937 39.5749 31.406 39.1942 31.6715C38.814 31.937 38.3277 32.1509 37.737 32.3125C37.1464 32.4743 36.6305 32.6014 36.1901 32.6937C35.7493 32.7862 35.1986 32.8499 34.5374 32.8844C33.8761 32.9189 33.3752 32.9424 33.0348 32.9538C32.6941 32.9653 32.2285 32.9653 31.6373 32.9538C31.046 32.9424 30.7009 32.9364 30.6005 32.9364L30.6005 22.2954L30.6002 22.2954L30.6002 22.2955ZM43.2361 45.8995C43.0453 46.4313 42.8003 46.8937 42.5 47.2868C42.1993 47.6789 41.8034 48.0259 41.3129 48.3259C40.8224 48.6267 40.3462 48.8689 39.8858 49.0538C39.4248 49.2394 38.8687 49.4003 38.2183 49.5394C37.5664 49.6782 36.9958 49.7758 36.5046 49.8339C36.014 49.8919 35.4283 49.9379 34.7469 49.9728C34.0661 50.0068 33.5349 50.0244 33.1544 50.0244C32.7738 50.0244 32.2929 50.0181 31.7119 50.0068C31.1307 49.996 30.7604 49.9902 30.6 49.9902L30.6 38.2742C30.7601 38.2742 31.2359 38.2629 32.0274 38.2394C32.8189 38.2161 33.4646 38.2052 33.9655 38.2052C34.4662 38.2052 35.1576 38.2394 36.0394 38.3092C36.9203 38.378 37.6615 38.4816 38.263 38.6202C38.8638 38.7591 39.5194 38.9725 40.231 39.2617C40.942 39.5504 41.5182 39.9027 41.9591 40.3186C42.3999 40.7353 42.7702 41.2659 43.0706 41.9131C43.3717 42.56 43.5219 43.2996 43.5219 44.1317C43.5218 44.7793 43.4267 45.3677 43.2361 45.8995Z" fill="white"/>
</g>
<defs>
<clipPath id="clip0">
<rect x="21.8086" y="0.399094" width="50" height="57.6754" transform="rotate(21.2365 21.8086 0.399094)" fill="white"/>
</clipPath>
</defs>
</svg>
