<svg width="14" height="14" viewBox="0 0 14 14" fill="none" xmlns="http://www.w3.org/2000/svg">
<path fill-rule="evenodd" clip-rule="evenodd" d="M12.4444 7.64789C12.4444 7.21856 12.7929 6.87011 13.2222 6.87011C13.6516 6.87011 14 7.21856 14 7.64789V11.977C14 13.0923 13.0923 14 11.9778 14H2.02222C0.907667 14 0 13.0923 0 11.977V2.02222C0 0.906889 0.907667 0 2.02222 0H9.46322C9.89256 0 10.241 0.347667 10.241 0.777778C10.241 1.20711 9.89256 1.55556 9.46322 1.55556H2.02222C1.76478 1.55556 1.55556 1.76478 1.55556 2.02222V11.977C1.55556 12.2344 1.76478 12.4444 2.02222 12.4444H11.9778C12.2352 12.4444 12.4444 12.2344 12.4444 11.977V7.64789ZM4.90752 6.18074C5.21863 5.88363 5.71018 5.89607 6.00729 6.2064L7.17785 7.43374L11.8857 2.57029C12.1836 2.26229 12.676 2.25296 12.9855 2.5524C13.2943 2.85107 13.3021 3.3434 13.0034 3.65218L7.7324 9.09663C7.58618 9.24829 7.38474 9.33385 7.17396 9.33385H7.17085C6.95929 9.33307 6.75707 9.24596 6.61085 9.09274L4.88185 7.28051C4.58474 6.9694 4.59718 6.47707 4.90752 6.18074Z" fill="#479BFF"/>
</svg>
