<svg width="70" height="70" viewBox="0 0 70 70" fill="none" xmlns="http://www.w3.org/2000/svg">
<path d="M67.7595 0.542969H2.91406C1.80949 0.542969 0.914062 1.4384 0.914062 2.54297V67.3863C0.914062 68.4909 1.80949 69.3863 2.91406 69.3863H67.7595C68.8641 69.3863 69.7595 68.4909 69.7595 67.3863V2.54297C69.7595 1.4384 68.8641 0.542969 67.7595 0.542969Z" fill="#FFC325"/>
<path d="M1.95703 34.9688C1.95703 27.7786 16.9 21.9492 35.333 21.9492C53.766 21.9492 68.709 27.78 68.709 34.9695C68.709 42.1589 53.7667 47.9869 35.333 47.9869C16.8993 47.9869 1.95703 42.1582 1.95703 34.9688Z" fill="#006891"/>
<path d="M1.95703 34.9688C1.95703 27.7786 16.9 21.9492 35.333 21.9492C53.766 21.9492 68.709 27.78 68.709 34.9695C68.709 42.1589 53.7667 47.9869 35.333 47.9869C16.8993 47.9869 1.95703 42.1582 1.95703 34.9688Z" stroke="#006891" stroke-width="1.40509" stroke-miterlimit="3.8636"/>
<path fill-rule="evenodd" clip-rule="evenodd" d="M14.1953 41.2904L17.6594 28.3594H23.127V35.9647H23.1628L26.872 28.3594H32.426L28.962 41.2904H25.3518L27.5724 32.9959H27.5366L23.127 41.2904H20.2361V32.9959H20.1771L17.9565 41.2904H14.1953Z" fill="white"/>
<path fill-rule="evenodd" clip-rule="evenodd" d="M33.4102 41.5487L33.9019 39.7109H37.8865L37.3941 41.5487H33.4102Z" fill="#EE4034"/>
<path fill-rule="evenodd" clip-rule="evenodd" d="M34.0363 39.192L36.0518 31.6738H32.4297L33.3184 28.3594H44.5464L43.6585 31.6738H40.0364L38.0216 39.1899L34.0363 39.192Z" fill="#FFC325"/>
<path fill-rule="evenodd" clip-rule="evenodd" d="M41.9648 41.2904L45.4268 28.3594H49.3397L51.1051 35.2783H51.1396L52.9928 28.3594H56.61L53.1473 41.2904H49.4247L47.5076 34.2281H47.4732L45.582 41.2904H41.9648Z" fill="white"/>
</svg>
