<svg width="225" height="209" viewBox="0 0 225 209" fill="none" xmlns="http://www.w3.org/2000/svg">
<rect width="225" height="209" rx="10" fill="#E8F7FF"/>
<path d="M92.7065 148.989C87.9389 148.989 83.1713 148.969 78.4038 148.969C78.0535 148.969 77.6838 148.989 77.3335 148.95C75.4848 148.795 74.7843 147.94 75.0567 146.133C75.7184 141.647 76.3994 137.179 77.1 132.712C78.54 123.31 79.9994 113.929 81.4394 104.528C82.6654 96.6222 83.8135 88.7167 85.273 80.8694C85.8373 77.8587 86.713 77.1595 89.7876 77.1012C90.1184 77.4314 90.4686 77.4703 90.7994 77.0818C94.0297 77.0818 97.26 77.0818 100.49 77.0818C100.704 77.4508 101.055 77.3149 101.366 77.3149C105.647 77.3149 109.948 77.3149 114.229 77.3149C114.54 77.3149 114.89 77.412 115.124 77.1012C119.035 77.1401 122.869 77.6257 126.566 78.9076C135.031 81.8018 138.183 88.0951 137.405 96.2531C137.346 96.8941 137.385 97.5545 137.094 98.1566C136.257 98.0207 135.556 97.4768 134.758 97.2243C131.937 96.3308 129.018 95.9229 126.099 95.8646C118.685 95.7287 111.251 95.8064 103.837 95.8258C102.3 95.8258 101.21 96.7387 100.782 98.1761C100.374 99.5357 100.14 100.934 99.9259 102.333C99.4395 105.499 98.9919 108.684 98.4859 111.85C97.8827 115.677 97.2405 119.523 96.6373 123.349C96.5984 123.563 96.5789 123.816 96.793 123.971C96.6762 124.34 96.5011 124.709 96.4427 125.078C95.8394 128.963 95.2557 132.867 94.6524 136.752C94.0492 140.85 93.5043 144.929 92.7065 148.989Z" fill="#002E8A"/>
<path d="M92.7062 148.989C93.504 144.93 94.0489 140.831 94.6716 136.752C95.2748 132.868 95.8586 128.963 96.4619 125.079C96.5203 124.71 96.6954 124.341 96.8121 123.971C97.4932 122.787 98.5635 122.223 99.8673 121.99C101.191 121.738 102.514 121.815 103.837 121.835C107.924 121.874 112.01 121.815 116.038 121.058C121.02 120.126 125.534 118.183 129.115 114.512C133.513 109.986 136.023 104.489 137.152 98.332C141.277 100.779 143.359 104.528 143.651 109.171C144.079 116.183 142.445 122.709 137.774 128.109C133.941 132.557 128.94 135.043 123.044 135.684C120.728 135.937 118.393 135.898 116.058 136.034C115.338 136.073 114.637 136.17 113.975 136.422C113.061 136.752 112.535 137.393 112.399 138.345C111.543 143.9 110.687 149.436 109.869 154.991C109.519 157.361 108.215 158.526 105.841 158.526C102.086 158.526 98.33 158.546 94.5548 158.546C94.1657 158.546 93.7765 158.546 93.3873 158.488C91.9667 158.255 91.4413 157.536 91.6554 156.118C92.0057 153.709 92.3559 151.359 92.7062 148.989Z" fill="#019DE3"/>
<path d="M137.18 98.3071C136.051 104.464 133.541 109.961 129.143 114.487C125.563 118.178 121.048 120.101 116.066 121.033C112.038 121.79 107.952 121.849 103.865 121.81C102.542 121.79 101.219 121.713 99.8955 121.965C98.5723 122.198 97.5215 122.762 96.8404 123.947C96.6263 123.791 96.6458 123.539 96.6847 123.325C97.3074 119.498 97.9301 115.653 98.5333 111.826C99.0393 108.66 99.4869 105.474 99.9733 102.308C100.187 100.91 100.421 99.5114 100.83 98.1517C101.277 96.7143 102.347 95.8014 103.885 95.8014C111.299 95.782 118.732 95.7043 126.146 95.8403C129.065 95.8985 131.984 96.3064 134.806 97.1999C135.604 97.4524 136.285 97.9963 137.141 98.1323C137.141 98.1906 137.16 98.2488 137.18 98.3071Z" fill="#001E6D"/>
<path d="M115.13 77.1143C114.896 77.4251 114.546 77.328 114.234 77.328C109.953 77.328 105.653 77.328 101.372 77.328C101.06 77.328 100.71 77.464 100.496 77.0949C101.917 77.0755 103.337 77.0366 104.758 77.0172C107.793 76.9978 110.849 77.0172 113.884 77.0172C114.293 77.0172 114.721 76.9395 115.13 77.1143Z" fill="#3556A0"/>
<path d="M90.801 77.0777C90.4701 77.4662 90.1393 77.4273 89.7891 77.0971C90.1393 76.9612 90.4701 76.9806 90.801 77.0777Z" fill="#3556A0"/>
</svg>
