<svg width="225" height="209" viewBox="0 0 225 209" fill="none" xmlns="http://www.w3.org/2000/svg">
<rect width="225" height="209" rx="10" fill="#FFF3F3"/>
<path d="M109.463 164.925C142.304 164.925 168.927 138.302 168.927 105.462C168.927 72.6222 142.304 46 109.463 46C76.6226 46 50 72.6222 50 105.462C50 138.302 76.6226 164.925 109.463 164.925Z" fill="#CC2E2E"/>
<path d="M109.469 150.061C134.099 150.061 154.066 130.094 154.066 105.464C154.066 80.8338 134.099 60.8672 109.469 60.8672C84.8381 60.8672 64.8711 80.8338 64.8711 105.464C64.8711 130.094 84.8381 150.061 109.469 150.061Z" fill="#A10000"/>
<path d="M95.0578 93.2227H85.7964C85.1373 93.2227 84.8945 93.4655 84.8945 94.1245V116.948C84.8945 117.607 85.1373 117.85 85.7964 117.85H87.3226C88.0164 117.85 88.2592 117.607 88.2592 116.948V108.901H95.0578C99.9833 108.901 103.036 105.987 103.036 101.096C103.036 96.171 99.9487 93.2227 95.0578 93.2227ZM94.7456 105.779H88.2592V96.3444H94.7456C97.7287 96.3444 99.5324 98.1134 99.5324 101.096C99.5324 104.079 97.7287 105.779 94.7456 105.779Z" fill="white"/>
<path d="M130.61 93.2227H129.292C128.564 93.2227 128.356 93.3614 128.043 93.9511L120.1 108.103L112.122 93.9164C111.81 93.3614 111.602 93.2227 110.839 93.2227H109.625C108.966 93.2227 108.723 93.4655 108.723 94.1245V116.948C108.723 117.607 108.966 117.85 109.625 117.85H110.943C111.637 117.85 111.845 117.607 111.845 116.948V104.426C111.845 102.38 111.706 100.368 111.29 97.9053H111.498C112.33 100.333 113.024 101.825 114.099 103.663L118.574 111.572C118.886 112.092 119.094 112.231 119.649 112.231H120.516C121.071 112.231 121.314 112.057 121.592 111.572L125.997 103.733C127.038 101.894 127.905 100.229 128.772 97.9053H128.945C128.529 100.333 128.321 102.484 128.321 104.426V116.948C128.321 117.607 128.529 117.85 129.223 117.85H130.61C131.269 117.85 131.512 117.607 131.512 116.948V94.1245C131.512 93.4655 131.269 93.2227 130.61 93.2227Z" fill="white"/>
</svg>
