<svg width="91" height="33" viewBox="0 0 91 33" fill="none" xmlns="http://www.w3.org/2000/svg">
<path fill-rule="evenodd" clip-rule="evenodd" d="M17.4023 31.999L22.3572 18.2777C23.3482 15.8384 24.949 15.7622 25.1015 15.7622C26.0925 15.7622 27.5408 15.2286 29.4466 13.4753L29.8277 13.0941L29.9802 12.9417C32.572 10.731 35.1638 9.96875 37.0695 9.96875C40.1187 9.96875 41.7957 11.1122 42.1006 13.7802C44.3113 11.1884 47.5129 9.96875 50.1809 9.96875C55.4407 9.96875 55.6694 13.6278 53.9161 18.4302L48.9612 31.999H43.3965L48.0465 19.1925C48.7326 17.1343 49.7998 14.3138 46.5981 14.3138C42.8629 14.3138 40.8047 18.7351 39.8137 21.5556L36.0023 31.999H30.3613L35.0875 19.1925C35.7736 17.1343 36.8408 14.3138 33.5629 14.3138C29.9039 14.3138 27.8457 18.7351 26.7785 21.5556L22.9671 31.999H17.4023ZM50.867 31.999L58.7186 10.5024H64.2833L56.4317 31.999H50.867Z" fill="#87919A"/>
<path d="M22.5087 10.3499L24.0333 10.731L24.262 10.8073L25.8628 11.2646C22.8136 14.8474 18.1636 14.0851 18.1636 14.0851H17.4013C15.8768 14.0851 13.8186 14.6187 12.9801 16.4482C11.4555 19.8785 22.2038 17.7441 18.6972 25.4433C16.4104 30.4744 11.0743 32.4564 6.50057 32.4564C4.36615 32.4564 2.38419 32.0752 0.554688 31.5416L2.23173 28.4162H7.79646C9.24482 28.4162 11.7604 27.8826 12.6751 25.7482C14.5809 21.5556 3.60386 24.4523 7.1104 16.6769C9.16859 12.0269 14.1235 9.96875 18.5448 9.96875C20.2218 9.96875 21.4415 10.1212 22.5087 10.3499Z" fill="#87919A"/>
<path fill-rule="evenodd" clip-rule="evenodd" d="M75.4132 0.667969L65.5796 27.6531C63.9026 31.5408 59.5575 31.922 58.719 31.9982H58.4141L69.7722 0.667969H75.4132ZM75.337 19.1154H84.8656C85.7041 16.4474 85.2468 14.0843 82.1214 14.0843C78.996 14.0843 76.6328 16.2187 75.337 19.1154ZM78.0812 28.4154H85.2468L84.332 30.7785C81.8927 31.922 79.3771 32.4556 76.3279 32.4556C69.2386 32.4556 66.6468 28.4154 69.1624 21.3261C71.4493 15.1515 76.6328 9.96793 83.2648 9.96793C91.2689 9.96793 91.4975 15.4564 88.8295 23.0031H73.9648C72.8976 26.4334 74.6509 28.4154 78.0812 28.4154Z" fill="#87919A"/>
<path fill-rule="evenodd" clip-rule="evenodd" d="M59.25 8.90245L60.6221 5.24345C60.8508 4.55739 61.5369 3.56641 64.4336 3.56641H66.7967L66.6442 4.02378C64.7385 8.90245 59.5549 8.90245 59.5549 8.90245H59.25Z" fill="#B0D235"/>
</svg>
